%
M48
M72
T01C0.01000
T02C0.03200
T03C0.03937
T04C0.04000
T05C0.04331
%
T01
X98345Y42600
X82845Y68600
T02
X32345Y11600
X42345Y11600
X42845Y32100
X32845Y32100
X92345Y31600
X102345Y31600
X112345Y31600
X122345Y36600
X132345Y36600
X142345Y36600
X152345Y36600
X162345Y36600
X172345Y36600
X182345Y36600
X192345Y36600
X202345Y36600
X212345Y36600
X212345Y66600
X202345Y66600
X192345Y66600
X182345Y66600
X172345Y66600
X162345Y66600
X152345Y66600
X142345Y66600
X132345Y66600
X122345Y66600
X112345Y61600
X102345Y61600
X92345Y61600
X97845Y72100
X107845Y72100
X107845Y82600
X97845Y82600
X97345Y16600
X107345Y16600
T03
X42345Y47702
X30534Y66600
X54550Y66600
T04
X72345Y61600
X72345Y51600
X72345Y71600
X77345Y91600
X67345Y91600
X57345Y91600
X47345Y91600
X37345Y91600
X87345Y91600
X122345Y91600
X132345Y91600
X142345Y91600
X152345Y91600
X162345Y91600
X172345Y91600
X182345Y91600
X192345Y91600
X202345Y91600
X212345Y91600
X212345Y11600
X202345Y11600
X192345Y11600
X182345Y11600
X172345Y11600
X162345Y11600
X152345Y11600
X142345Y11600
X132345Y11600
X122345Y11600
T05
X82345Y16600
X72345Y16600
X62345Y16600
M30
