G75*
%MOIN*%
%OFA0B0*%
%FSLAX25Y25*%
%IPPOS*%
%LPD*%
%AMOC8*
5,1,8,0,0,1.08239X$1,22.5*
%
%ADD10C,0.00600*%
%ADD11C,0.00300*%
%ADD12C,0.01200*%
%ADD13C,0.02000*%
%ADD14R,0.05000X0.07500*%
%ADD15R,0.03000X0.07000*%
%ADD16R,0.05000X0.03000*%
%ADD17C,0.00800*%
%ADD18C,0.01000*%
%ADD19R,0.02000X0.01500*%
D10*
X0031845Y0015600D02*
X0031845Y0016600D01*
X0031845Y0017600D01*
X0031845Y0016600D02*
X0030845Y0016600D01*
X0031845Y0016600D02*
X0032845Y0016600D01*
X0027345Y0011600D02*
X0027348Y0011845D01*
X0027357Y0012091D01*
X0027372Y0012336D01*
X0027393Y0012580D01*
X0027420Y0012824D01*
X0027453Y0013067D01*
X0027492Y0013310D01*
X0027537Y0013551D01*
X0027588Y0013791D01*
X0027645Y0014030D01*
X0027707Y0014267D01*
X0027776Y0014503D01*
X0027850Y0014737D01*
X0027930Y0014969D01*
X0028015Y0015199D01*
X0028106Y0015427D01*
X0028203Y0015652D01*
X0028305Y0015876D01*
X0028413Y0016096D01*
X0028526Y0016314D01*
X0028644Y0016529D01*
X0028768Y0016741D01*
X0028896Y0016950D01*
X0029030Y0017156D01*
X0029169Y0017358D01*
X0029313Y0017557D01*
X0029462Y0017752D01*
X0029615Y0017944D01*
X0029773Y0018132D01*
X0029935Y0018316D01*
X0030103Y0018495D01*
X0030274Y0018671D01*
X0030450Y0018842D01*
X0030629Y0019010D01*
X0030813Y0019172D01*
X0031001Y0019330D01*
X0031193Y0019483D01*
X0031388Y0019632D01*
X0031587Y0019776D01*
X0031789Y0019915D01*
X0031995Y0020049D01*
X0032204Y0020177D01*
X0032416Y0020301D01*
X0032631Y0020419D01*
X0032849Y0020532D01*
X0033069Y0020640D01*
X0033293Y0020742D01*
X0033518Y0020839D01*
X0033746Y0020930D01*
X0033976Y0021015D01*
X0034208Y0021095D01*
X0034442Y0021169D01*
X0034678Y0021238D01*
X0034915Y0021300D01*
X0035154Y0021357D01*
X0035394Y0021408D01*
X0035635Y0021453D01*
X0035878Y0021492D01*
X0036121Y0021525D01*
X0036365Y0021552D01*
X0036609Y0021573D01*
X0036854Y0021588D01*
X0037100Y0021597D01*
X0037345Y0021600D01*
X0037590Y0021597D01*
X0037836Y0021588D01*
X0038081Y0021573D01*
X0038325Y0021552D01*
X0038569Y0021525D01*
X0038812Y0021492D01*
X0039055Y0021453D01*
X0039296Y0021408D01*
X0039536Y0021357D01*
X0039775Y0021300D01*
X0040012Y0021238D01*
X0040248Y0021169D01*
X0040482Y0021095D01*
X0040714Y0021015D01*
X0040944Y0020930D01*
X0041172Y0020839D01*
X0041397Y0020742D01*
X0041621Y0020640D01*
X0041841Y0020532D01*
X0042059Y0020419D01*
X0042274Y0020301D01*
X0042486Y0020177D01*
X0042695Y0020049D01*
X0042901Y0019915D01*
X0043103Y0019776D01*
X0043302Y0019632D01*
X0043497Y0019483D01*
X0043689Y0019330D01*
X0043877Y0019172D01*
X0044061Y0019010D01*
X0044240Y0018842D01*
X0044416Y0018671D01*
X0044587Y0018495D01*
X0044755Y0018316D01*
X0044917Y0018132D01*
X0045075Y0017944D01*
X0045228Y0017752D01*
X0045377Y0017557D01*
X0045521Y0017358D01*
X0045660Y0017156D01*
X0045794Y0016950D01*
X0045922Y0016741D01*
X0046046Y0016529D01*
X0046164Y0016314D01*
X0046277Y0016096D01*
X0046385Y0015876D01*
X0046487Y0015652D01*
X0046584Y0015427D01*
X0046675Y0015199D01*
X0046760Y0014969D01*
X0046840Y0014737D01*
X0046914Y0014503D01*
X0046983Y0014267D01*
X0047045Y0014030D01*
X0047102Y0013791D01*
X0047153Y0013551D01*
X0047198Y0013310D01*
X0047237Y0013067D01*
X0047270Y0012824D01*
X0047297Y0012580D01*
X0047318Y0012336D01*
X0047333Y0012091D01*
X0047342Y0011845D01*
X0047345Y0011600D01*
X0047342Y0011355D01*
X0047333Y0011109D01*
X0047318Y0010864D01*
X0047297Y0010620D01*
X0047270Y0010376D01*
X0047237Y0010133D01*
X0047198Y0009890D01*
X0047153Y0009649D01*
X0047102Y0009409D01*
X0047045Y0009170D01*
X0046983Y0008933D01*
X0046914Y0008697D01*
X0046840Y0008463D01*
X0046760Y0008231D01*
X0046675Y0008001D01*
X0046584Y0007773D01*
X0046487Y0007548D01*
X0046385Y0007324D01*
X0046277Y0007104D01*
X0046164Y0006886D01*
X0046046Y0006671D01*
X0045922Y0006459D01*
X0045794Y0006250D01*
X0045660Y0006044D01*
X0045521Y0005842D01*
X0045377Y0005643D01*
X0045228Y0005448D01*
X0045075Y0005256D01*
X0044917Y0005068D01*
X0044755Y0004884D01*
X0044587Y0004705D01*
X0044416Y0004529D01*
X0044240Y0004358D01*
X0044061Y0004190D01*
X0043877Y0004028D01*
X0043689Y0003870D01*
X0043497Y0003717D01*
X0043302Y0003568D01*
X0043103Y0003424D01*
X0042901Y0003285D01*
X0042695Y0003151D01*
X0042486Y0003023D01*
X0042274Y0002899D01*
X0042059Y0002781D01*
X0041841Y0002668D01*
X0041621Y0002560D01*
X0041397Y0002458D01*
X0041172Y0002361D01*
X0040944Y0002270D01*
X0040714Y0002185D01*
X0040482Y0002105D01*
X0040248Y0002031D01*
X0040012Y0001962D01*
X0039775Y0001900D01*
X0039536Y0001843D01*
X0039296Y0001792D01*
X0039055Y0001747D01*
X0038812Y0001708D01*
X0038569Y0001675D01*
X0038325Y0001648D01*
X0038081Y0001627D01*
X0037836Y0001612D01*
X0037590Y0001603D01*
X0037345Y0001600D01*
X0037100Y0001603D01*
X0036854Y0001612D01*
X0036609Y0001627D01*
X0036365Y0001648D01*
X0036121Y0001675D01*
X0035878Y0001708D01*
X0035635Y0001747D01*
X0035394Y0001792D01*
X0035154Y0001843D01*
X0034915Y0001900D01*
X0034678Y0001962D01*
X0034442Y0002031D01*
X0034208Y0002105D01*
X0033976Y0002185D01*
X0033746Y0002270D01*
X0033518Y0002361D01*
X0033293Y0002458D01*
X0033069Y0002560D01*
X0032849Y0002668D01*
X0032631Y0002781D01*
X0032416Y0002899D01*
X0032204Y0003023D01*
X0031995Y0003151D01*
X0031789Y0003285D01*
X0031587Y0003424D01*
X0031388Y0003568D01*
X0031193Y0003717D01*
X0031001Y0003870D01*
X0030813Y0004028D01*
X0030629Y0004190D01*
X0030450Y0004358D01*
X0030274Y0004529D01*
X0030103Y0004705D01*
X0029935Y0004884D01*
X0029773Y0005068D01*
X0029615Y0005256D01*
X0029462Y0005448D01*
X0029313Y0005643D01*
X0029169Y0005842D01*
X0029030Y0006044D01*
X0028896Y0006250D01*
X0028768Y0006459D01*
X0028644Y0006671D01*
X0028526Y0006886D01*
X0028413Y0007104D01*
X0028305Y0007324D01*
X0028203Y0007548D01*
X0028106Y0007773D01*
X0028015Y0008001D01*
X0027930Y0008231D01*
X0027850Y0008463D01*
X0027776Y0008697D01*
X0027707Y0008933D01*
X0027645Y0009170D01*
X0027588Y0009409D01*
X0027537Y0009649D01*
X0027492Y0009890D01*
X0027453Y0010133D01*
X0027420Y0010376D01*
X0027393Y0010620D01*
X0027372Y0010864D01*
X0027357Y0011109D01*
X0027348Y0011355D01*
X0027345Y0011600D01*
X0027845Y0032100D02*
X0027848Y0032345D01*
X0027857Y0032591D01*
X0027872Y0032836D01*
X0027893Y0033080D01*
X0027920Y0033324D01*
X0027953Y0033567D01*
X0027992Y0033810D01*
X0028037Y0034051D01*
X0028088Y0034291D01*
X0028145Y0034530D01*
X0028207Y0034767D01*
X0028276Y0035003D01*
X0028350Y0035237D01*
X0028430Y0035469D01*
X0028515Y0035699D01*
X0028606Y0035927D01*
X0028703Y0036152D01*
X0028805Y0036376D01*
X0028913Y0036596D01*
X0029026Y0036814D01*
X0029144Y0037029D01*
X0029268Y0037241D01*
X0029396Y0037450D01*
X0029530Y0037656D01*
X0029669Y0037858D01*
X0029813Y0038057D01*
X0029962Y0038252D01*
X0030115Y0038444D01*
X0030273Y0038632D01*
X0030435Y0038816D01*
X0030603Y0038995D01*
X0030774Y0039171D01*
X0030950Y0039342D01*
X0031129Y0039510D01*
X0031313Y0039672D01*
X0031501Y0039830D01*
X0031693Y0039983D01*
X0031888Y0040132D01*
X0032087Y0040276D01*
X0032289Y0040415D01*
X0032495Y0040549D01*
X0032704Y0040677D01*
X0032916Y0040801D01*
X0033131Y0040919D01*
X0033349Y0041032D01*
X0033569Y0041140D01*
X0033793Y0041242D01*
X0034018Y0041339D01*
X0034246Y0041430D01*
X0034476Y0041515D01*
X0034708Y0041595D01*
X0034942Y0041669D01*
X0035178Y0041738D01*
X0035415Y0041800D01*
X0035654Y0041857D01*
X0035894Y0041908D01*
X0036135Y0041953D01*
X0036378Y0041992D01*
X0036621Y0042025D01*
X0036865Y0042052D01*
X0037109Y0042073D01*
X0037354Y0042088D01*
X0037600Y0042097D01*
X0037845Y0042100D01*
X0038090Y0042097D01*
X0038336Y0042088D01*
X0038581Y0042073D01*
X0038825Y0042052D01*
X0039069Y0042025D01*
X0039312Y0041992D01*
X0039555Y0041953D01*
X0039796Y0041908D01*
X0040036Y0041857D01*
X0040275Y0041800D01*
X0040512Y0041738D01*
X0040748Y0041669D01*
X0040982Y0041595D01*
X0041214Y0041515D01*
X0041444Y0041430D01*
X0041672Y0041339D01*
X0041897Y0041242D01*
X0042121Y0041140D01*
X0042341Y0041032D01*
X0042559Y0040919D01*
X0042774Y0040801D01*
X0042986Y0040677D01*
X0043195Y0040549D01*
X0043401Y0040415D01*
X0043603Y0040276D01*
X0043802Y0040132D01*
X0043997Y0039983D01*
X0044189Y0039830D01*
X0044377Y0039672D01*
X0044561Y0039510D01*
X0044740Y0039342D01*
X0044916Y0039171D01*
X0045087Y0038995D01*
X0045255Y0038816D01*
X0045417Y0038632D01*
X0045575Y0038444D01*
X0045728Y0038252D01*
X0045877Y0038057D01*
X0046021Y0037858D01*
X0046160Y0037656D01*
X0046294Y0037450D01*
X0046422Y0037241D01*
X0046546Y0037029D01*
X0046664Y0036814D01*
X0046777Y0036596D01*
X0046885Y0036376D01*
X0046987Y0036152D01*
X0047084Y0035927D01*
X0047175Y0035699D01*
X0047260Y0035469D01*
X0047340Y0035237D01*
X0047414Y0035003D01*
X0047483Y0034767D01*
X0047545Y0034530D01*
X0047602Y0034291D01*
X0047653Y0034051D01*
X0047698Y0033810D01*
X0047737Y0033567D01*
X0047770Y0033324D01*
X0047797Y0033080D01*
X0047818Y0032836D01*
X0047833Y0032591D01*
X0047842Y0032345D01*
X0047845Y0032100D01*
X0047842Y0031855D01*
X0047833Y0031609D01*
X0047818Y0031364D01*
X0047797Y0031120D01*
X0047770Y0030876D01*
X0047737Y0030633D01*
X0047698Y0030390D01*
X0047653Y0030149D01*
X0047602Y0029909D01*
X0047545Y0029670D01*
X0047483Y0029433D01*
X0047414Y0029197D01*
X0047340Y0028963D01*
X0047260Y0028731D01*
X0047175Y0028501D01*
X0047084Y0028273D01*
X0046987Y0028048D01*
X0046885Y0027824D01*
X0046777Y0027604D01*
X0046664Y0027386D01*
X0046546Y0027171D01*
X0046422Y0026959D01*
X0046294Y0026750D01*
X0046160Y0026544D01*
X0046021Y0026342D01*
X0045877Y0026143D01*
X0045728Y0025948D01*
X0045575Y0025756D01*
X0045417Y0025568D01*
X0045255Y0025384D01*
X0045087Y0025205D01*
X0044916Y0025029D01*
X0044740Y0024858D01*
X0044561Y0024690D01*
X0044377Y0024528D01*
X0044189Y0024370D01*
X0043997Y0024217D01*
X0043802Y0024068D01*
X0043603Y0023924D01*
X0043401Y0023785D01*
X0043195Y0023651D01*
X0042986Y0023523D01*
X0042774Y0023399D01*
X0042559Y0023281D01*
X0042341Y0023168D01*
X0042121Y0023060D01*
X0041897Y0022958D01*
X0041672Y0022861D01*
X0041444Y0022770D01*
X0041214Y0022685D01*
X0040982Y0022605D01*
X0040748Y0022531D01*
X0040512Y0022462D01*
X0040275Y0022400D01*
X0040036Y0022343D01*
X0039796Y0022292D01*
X0039555Y0022247D01*
X0039312Y0022208D01*
X0039069Y0022175D01*
X0038825Y0022148D01*
X0038581Y0022127D01*
X0038336Y0022112D01*
X0038090Y0022103D01*
X0037845Y0022100D01*
X0037600Y0022103D01*
X0037354Y0022112D01*
X0037109Y0022127D01*
X0036865Y0022148D01*
X0036621Y0022175D01*
X0036378Y0022208D01*
X0036135Y0022247D01*
X0035894Y0022292D01*
X0035654Y0022343D01*
X0035415Y0022400D01*
X0035178Y0022462D01*
X0034942Y0022531D01*
X0034708Y0022605D01*
X0034476Y0022685D01*
X0034246Y0022770D01*
X0034018Y0022861D01*
X0033793Y0022958D01*
X0033569Y0023060D01*
X0033349Y0023168D01*
X0033131Y0023281D01*
X0032916Y0023399D01*
X0032704Y0023523D01*
X0032495Y0023651D01*
X0032289Y0023785D01*
X0032087Y0023924D01*
X0031888Y0024068D01*
X0031693Y0024217D01*
X0031501Y0024370D01*
X0031313Y0024528D01*
X0031129Y0024690D01*
X0030950Y0024858D01*
X0030774Y0025029D01*
X0030603Y0025205D01*
X0030435Y0025384D01*
X0030273Y0025568D01*
X0030115Y0025756D01*
X0029962Y0025948D01*
X0029813Y0026143D01*
X0029669Y0026342D01*
X0029530Y0026544D01*
X0029396Y0026750D01*
X0029268Y0026959D01*
X0029144Y0027171D01*
X0029026Y0027386D01*
X0028913Y0027604D01*
X0028805Y0027824D01*
X0028703Y0028048D01*
X0028606Y0028273D01*
X0028515Y0028501D01*
X0028430Y0028731D01*
X0028350Y0028963D01*
X0028276Y0029197D01*
X0028207Y0029433D01*
X0028145Y0029670D01*
X0028088Y0029909D01*
X0028037Y0030149D01*
X0027992Y0030390D01*
X0027953Y0030633D01*
X0027920Y0030876D01*
X0027893Y0031120D01*
X0027872Y0031364D01*
X0027857Y0031609D01*
X0027848Y0031855D01*
X0027845Y0032100D01*
X0032345Y0036100D02*
X0032345Y0037100D01*
X0032345Y0038100D01*
X0032345Y0037100D02*
X0031345Y0037100D01*
X0032345Y0037100D02*
X0033345Y0037100D01*
X0065345Y0042600D02*
X0066345Y0041600D01*
X0077845Y0041600D01*
X0088345Y0039100D02*
X0088345Y0037600D01*
X0088347Y0037540D01*
X0088352Y0037479D01*
X0088361Y0037420D01*
X0088374Y0037361D01*
X0088390Y0037302D01*
X0088410Y0037245D01*
X0088433Y0037190D01*
X0088460Y0037135D01*
X0088489Y0037083D01*
X0088522Y0037032D01*
X0088558Y0036983D01*
X0088596Y0036937D01*
X0088638Y0036893D01*
X0088682Y0036851D01*
X0088728Y0036813D01*
X0088777Y0036777D01*
X0088828Y0036744D01*
X0088880Y0036715D01*
X0088935Y0036688D01*
X0088990Y0036665D01*
X0089047Y0036645D01*
X0089106Y0036629D01*
X0089165Y0036616D01*
X0089224Y0036607D01*
X0089285Y0036602D01*
X0089345Y0036600D01*
X0095345Y0036600D01*
X0095405Y0036602D01*
X0095466Y0036607D01*
X0095525Y0036616D01*
X0095584Y0036629D01*
X0095643Y0036645D01*
X0095700Y0036665D01*
X0095755Y0036688D01*
X0095810Y0036715D01*
X0095862Y0036744D01*
X0095913Y0036777D01*
X0095962Y0036813D01*
X0096008Y0036851D01*
X0096052Y0036893D01*
X0096094Y0036937D01*
X0096132Y0036983D01*
X0096168Y0037032D01*
X0096201Y0037083D01*
X0096230Y0037135D01*
X0096257Y0037190D01*
X0096280Y0037245D01*
X0096300Y0037302D01*
X0096316Y0037361D01*
X0096329Y0037420D01*
X0096338Y0037479D01*
X0096343Y0037540D01*
X0096345Y0037600D01*
X0096345Y0039100D01*
X0095845Y0039600D01*
X0095845Y0053600D01*
X0096345Y0054100D01*
X0096345Y0055600D01*
X0096343Y0055660D01*
X0096338Y0055721D01*
X0096329Y0055780D01*
X0096316Y0055839D01*
X0096300Y0055898D01*
X0096280Y0055955D01*
X0096257Y0056010D01*
X0096230Y0056065D01*
X0096201Y0056117D01*
X0096168Y0056168D01*
X0096132Y0056217D01*
X0096094Y0056263D01*
X0096052Y0056307D01*
X0096008Y0056349D01*
X0095962Y0056387D01*
X0095913Y0056423D01*
X0095862Y0056456D01*
X0095810Y0056485D01*
X0095755Y0056512D01*
X0095700Y0056535D01*
X0095643Y0056555D01*
X0095584Y0056571D01*
X0095525Y0056584D01*
X0095466Y0056593D01*
X0095405Y0056598D01*
X0095345Y0056600D01*
X0089345Y0056600D01*
X0089285Y0056598D01*
X0089224Y0056593D01*
X0089165Y0056584D01*
X0089106Y0056571D01*
X0089047Y0056555D01*
X0088990Y0056535D01*
X0088935Y0056512D01*
X0088880Y0056485D01*
X0088828Y0056456D01*
X0088777Y0056423D01*
X0088728Y0056387D01*
X0088682Y0056349D01*
X0088638Y0056307D01*
X0088596Y0056263D01*
X0088558Y0056217D01*
X0088522Y0056168D01*
X0088489Y0056117D01*
X0088460Y0056065D01*
X0088433Y0056010D01*
X0088410Y0055955D01*
X0088390Y0055898D01*
X0088374Y0055839D01*
X0088361Y0055780D01*
X0088352Y0055721D01*
X0088347Y0055660D01*
X0088345Y0055600D01*
X0088345Y0054100D01*
X0088845Y0053600D01*
X0088845Y0039600D01*
X0088345Y0039100D01*
X0098345Y0039100D02*
X0098345Y0037600D01*
X0098347Y0037540D01*
X0098352Y0037479D01*
X0098361Y0037420D01*
X0098374Y0037361D01*
X0098390Y0037302D01*
X0098410Y0037245D01*
X0098433Y0037190D01*
X0098460Y0037135D01*
X0098489Y0037083D01*
X0098522Y0037032D01*
X0098558Y0036983D01*
X0098596Y0036937D01*
X0098638Y0036893D01*
X0098682Y0036851D01*
X0098728Y0036813D01*
X0098777Y0036777D01*
X0098828Y0036744D01*
X0098880Y0036715D01*
X0098935Y0036688D01*
X0098990Y0036665D01*
X0099047Y0036645D01*
X0099106Y0036629D01*
X0099165Y0036616D01*
X0099224Y0036607D01*
X0099285Y0036602D01*
X0099345Y0036600D01*
X0105345Y0036600D01*
X0105405Y0036602D01*
X0105466Y0036607D01*
X0105525Y0036616D01*
X0105584Y0036629D01*
X0105643Y0036645D01*
X0105700Y0036665D01*
X0105755Y0036688D01*
X0105810Y0036715D01*
X0105862Y0036744D01*
X0105913Y0036777D01*
X0105962Y0036813D01*
X0106008Y0036851D01*
X0106052Y0036893D01*
X0106094Y0036937D01*
X0106132Y0036983D01*
X0106168Y0037032D01*
X0106201Y0037083D01*
X0106230Y0037135D01*
X0106257Y0037190D01*
X0106280Y0037245D01*
X0106300Y0037302D01*
X0106316Y0037361D01*
X0106329Y0037420D01*
X0106338Y0037479D01*
X0106343Y0037540D01*
X0106345Y0037600D01*
X0106345Y0039100D01*
X0105845Y0039600D01*
X0105845Y0053600D01*
X0106345Y0054100D01*
X0106345Y0055600D01*
X0106343Y0055660D01*
X0106338Y0055721D01*
X0106329Y0055780D01*
X0106316Y0055839D01*
X0106300Y0055898D01*
X0106280Y0055955D01*
X0106257Y0056010D01*
X0106230Y0056065D01*
X0106201Y0056117D01*
X0106168Y0056168D01*
X0106132Y0056217D01*
X0106094Y0056263D01*
X0106052Y0056307D01*
X0106008Y0056349D01*
X0105962Y0056387D01*
X0105913Y0056423D01*
X0105862Y0056456D01*
X0105810Y0056485D01*
X0105755Y0056512D01*
X0105700Y0056535D01*
X0105643Y0056555D01*
X0105584Y0056571D01*
X0105525Y0056584D01*
X0105466Y0056593D01*
X0105405Y0056598D01*
X0105345Y0056600D01*
X0099345Y0056600D01*
X0099285Y0056598D01*
X0099224Y0056593D01*
X0099165Y0056584D01*
X0099106Y0056571D01*
X0099047Y0056555D01*
X0098990Y0056535D01*
X0098935Y0056512D01*
X0098880Y0056485D01*
X0098828Y0056456D01*
X0098777Y0056423D01*
X0098728Y0056387D01*
X0098682Y0056349D01*
X0098638Y0056307D01*
X0098596Y0056263D01*
X0098558Y0056217D01*
X0098522Y0056168D01*
X0098489Y0056117D01*
X0098460Y0056065D01*
X0098433Y0056010D01*
X0098410Y0055955D01*
X0098390Y0055898D01*
X0098374Y0055839D01*
X0098361Y0055780D01*
X0098352Y0055721D01*
X0098347Y0055660D01*
X0098345Y0055600D01*
X0098345Y0054100D01*
X0098845Y0053600D01*
X0098845Y0039600D01*
X0098345Y0039100D01*
X0108345Y0039100D02*
X0108345Y0037600D01*
X0108347Y0037540D01*
X0108352Y0037479D01*
X0108361Y0037420D01*
X0108374Y0037361D01*
X0108390Y0037302D01*
X0108410Y0037245D01*
X0108433Y0037190D01*
X0108460Y0037135D01*
X0108489Y0037083D01*
X0108522Y0037032D01*
X0108558Y0036983D01*
X0108596Y0036937D01*
X0108638Y0036893D01*
X0108682Y0036851D01*
X0108728Y0036813D01*
X0108777Y0036777D01*
X0108828Y0036744D01*
X0108880Y0036715D01*
X0108935Y0036688D01*
X0108990Y0036665D01*
X0109047Y0036645D01*
X0109106Y0036629D01*
X0109165Y0036616D01*
X0109224Y0036607D01*
X0109285Y0036602D01*
X0109345Y0036600D01*
X0115345Y0036600D01*
X0115405Y0036602D01*
X0115466Y0036607D01*
X0115525Y0036616D01*
X0115584Y0036629D01*
X0115643Y0036645D01*
X0115700Y0036665D01*
X0115755Y0036688D01*
X0115810Y0036715D01*
X0115862Y0036744D01*
X0115913Y0036777D01*
X0115962Y0036813D01*
X0116008Y0036851D01*
X0116052Y0036893D01*
X0116094Y0036937D01*
X0116132Y0036983D01*
X0116168Y0037032D01*
X0116201Y0037083D01*
X0116230Y0037135D01*
X0116257Y0037190D01*
X0116280Y0037245D01*
X0116300Y0037302D01*
X0116316Y0037361D01*
X0116329Y0037420D01*
X0116338Y0037479D01*
X0116343Y0037540D01*
X0116345Y0037600D01*
X0116345Y0039100D01*
X0115845Y0039600D01*
X0115845Y0053600D01*
X0116345Y0054100D01*
X0116345Y0055600D01*
X0117345Y0055600D02*
X0117345Y0061600D01*
X0217345Y0061600D01*
X0217345Y0041600D01*
X0217345Y0031600D01*
X0117345Y0031600D01*
X0117345Y0041600D01*
X0117345Y0047600D01*
X0117471Y0047602D01*
X0117596Y0047608D01*
X0117721Y0047618D01*
X0117846Y0047632D01*
X0117971Y0047649D01*
X0118095Y0047671D01*
X0118218Y0047696D01*
X0118340Y0047726D01*
X0118461Y0047759D01*
X0118581Y0047796D01*
X0118700Y0047836D01*
X0118817Y0047881D01*
X0118934Y0047929D01*
X0119048Y0047981D01*
X0119161Y0048036D01*
X0119272Y0048095D01*
X0119381Y0048157D01*
X0119488Y0048223D01*
X0119593Y0048292D01*
X0119696Y0048364D01*
X0119797Y0048439D01*
X0119895Y0048518D01*
X0119990Y0048600D01*
X0120083Y0048684D01*
X0120173Y0048772D01*
X0120261Y0048862D01*
X0120345Y0048955D01*
X0120427Y0049050D01*
X0120506Y0049148D01*
X0120581Y0049249D01*
X0120653Y0049352D01*
X0120722Y0049457D01*
X0120788Y0049564D01*
X0120850Y0049673D01*
X0120909Y0049784D01*
X0120964Y0049897D01*
X0121016Y0050011D01*
X0121064Y0050128D01*
X0121109Y0050245D01*
X0121149Y0050364D01*
X0121186Y0050484D01*
X0121219Y0050605D01*
X0121249Y0050727D01*
X0121274Y0050850D01*
X0121296Y0050974D01*
X0121313Y0051099D01*
X0121327Y0051224D01*
X0121337Y0051349D01*
X0121343Y0051474D01*
X0121345Y0051600D01*
X0121343Y0051726D01*
X0121337Y0051851D01*
X0121327Y0051976D01*
X0121313Y0052101D01*
X0121296Y0052226D01*
X0121274Y0052350D01*
X0121249Y0052473D01*
X0121219Y0052595D01*
X0121186Y0052716D01*
X0121149Y0052836D01*
X0121109Y0052955D01*
X0121064Y0053072D01*
X0121016Y0053189D01*
X0120964Y0053303D01*
X0120909Y0053416D01*
X0120850Y0053527D01*
X0120788Y0053636D01*
X0120722Y0053743D01*
X0120653Y0053848D01*
X0120581Y0053951D01*
X0120506Y0054052D01*
X0120427Y0054150D01*
X0120345Y0054245D01*
X0120261Y0054338D01*
X0120173Y0054428D01*
X0120083Y0054516D01*
X0119990Y0054600D01*
X0119895Y0054682D01*
X0119797Y0054761D01*
X0119696Y0054836D01*
X0119593Y0054908D01*
X0119488Y0054977D01*
X0119381Y0055043D01*
X0119272Y0055105D01*
X0119161Y0055164D01*
X0119048Y0055219D01*
X0118934Y0055271D01*
X0118817Y0055319D01*
X0118700Y0055364D01*
X0118581Y0055404D01*
X0118461Y0055441D01*
X0118340Y0055474D01*
X0118218Y0055504D01*
X0118095Y0055529D01*
X0117971Y0055551D01*
X0117846Y0055568D01*
X0117721Y0055582D01*
X0117596Y0055592D01*
X0117471Y0055598D01*
X0117345Y0055600D01*
X0116345Y0055600D02*
X0116343Y0055660D01*
X0116338Y0055721D01*
X0116329Y0055780D01*
X0116316Y0055839D01*
X0116300Y0055898D01*
X0116280Y0055955D01*
X0116257Y0056010D01*
X0116230Y0056065D01*
X0116201Y0056117D01*
X0116168Y0056168D01*
X0116132Y0056217D01*
X0116094Y0056263D01*
X0116052Y0056307D01*
X0116008Y0056349D01*
X0115962Y0056387D01*
X0115913Y0056423D01*
X0115862Y0056456D01*
X0115810Y0056485D01*
X0115755Y0056512D01*
X0115700Y0056535D01*
X0115643Y0056555D01*
X0115584Y0056571D01*
X0115525Y0056584D01*
X0115466Y0056593D01*
X0115405Y0056598D01*
X0115345Y0056600D01*
X0109345Y0056600D01*
X0109285Y0056598D01*
X0109224Y0056593D01*
X0109165Y0056584D01*
X0109106Y0056571D01*
X0109047Y0056555D01*
X0108990Y0056535D01*
X0108935Y0056512D01*
X0108880Y0056485D01*
X0108828Y0056456D01*
X0108777Y0056423D01*
X0108728Y0056387D01*
X0108682Y0056349D01*
X0108638Y0056307D01*
X0108596Y0056263D01*
X0108558Y0056217D01*
X0108522Y0056168D01*
X0108489Y0056117D01*
X0108460Y0056065D01*
X0108433Y0056010D01*
X0108410Y0055955D01*
X0108390Y0055898D01*
X0108374Y0055839D01*
X0108361Y0055780D01*
X0108352Y0055721D01*
X0108347Y0055660D01*
X0108345Y0055600D01*
X0108345Y0054100D01*
X0108845Y0053600D01*
X0108845Y0039600D01*
X0108345Y0039100D01*
X0117345Y0041600D02*
X0217345Y0041600D01*
X0203445Y0043400D02*
X0203090Y0043400D01*
X0203026Y0043402D01*
X0202961Y0043408D01*
X0202898Y0043417D01*
X0202835Y0043431D01*
X0202773Y0043448D01*
X0202712Y0043469D01*
X0202652Y0043494D01*
X0202594Y0043522D01*
X0202538Y0043554D01*
X0202484Y0043589D01*
X0202432Y0043627D01*
X0202382Y0043668D01*
X0202336Y0043713D01*
X0202291Y0043759D01*
X0202250Y0043809D01*
X0202212Y0043861D01*
X0202177Y0043915D01*
X0202145Y0043971D01*
X0202117Y0044029D01*
X0202092Y0044089D01*
X0202071Y0044150D01*
X0202054Y0044212D01*
X0202040Y0044275D01*
X0202031Y0044338D01*
X0202025Y0044403D01*
X0202023Y0044467D01*
X0202023Y0049800D01*
X0201312Y0047667D02*
X0203445Y0047667D01*
X0199334Y0046244D02*
X0199334Y0044822D01*
X0199332Y0044748D01*
X0199326Y0044673D01*
X0199316Y0044600D01*
X0199303Y0044526D01*
X0199286Y0044454D01*
X0199264Y0044383D01*
X0199240Y0044312D01*
X0199211Y0044244D01*
X0199179Y0044176D01*
X0199143Y0044111D01*
X0199105Y0044048D01*
X0199062Y0043986D01*
X0199017Y0043927D01*
X0198969Y0043870D01*
X0198918Y0043816D01*
X0198864Y0043765D01*
X0198807Y0043717D01*
X0198748Y0043672D01*
X0198686Y0043629D01*
X0198623Y0043591D01*
X0198558Y0043555D01*
X0198490Y0043523D01*
X0198422Y0043494D01*
X0198351Y0043470D01*
X0198280Y0043448D01*
X0198208Y0043431D01*
X0198134Y0043418D01*
X0198061Y0043408D01*
X0197986Y0043402D01*
X0197912Y0043400D01*
X0197838Y0043402D01*
X0197763Y0043408D01*
X0197690Y0043418D01*
X0197616Y0043431D01*
X0197544Y0043448D01*
X0197473Y0043470D01*
X0197402Y0043494D01*
X0197334Y0043523D01*
X0197266Y0043555D01*
X0197201Y0043591D01*
X0197138Y0043629D01*
X0197076Y0043672D01*
X0197017Y0043717D01*
X0196960Y0043765D01*
X0196906Y0043816D01*
X0196855Y0043870D01*
X0196807Y0043927D01*
X0196762Y0043986D01*
X0196719Y0044048D01*
X0196681Y0044111D01*
X0196645Y0044176D01*
X0196613Y0044244D01*
X0196584Y0044312D01*
X0196560Y0044383D01*
X0196538Y0044454D01*
X0196521Y0044526D01*
X0196508Y0044600D01*
X0196498Y0044673D01*
X0196492Y0044748D01*
X0196490Y0044822D01*
X0196489Y0044822D02*
X0196489Y0046244D01*
X0196490Y0046244D02*
X0196492Y0046318D01*
X0196498Y0046393D01*
X0196508Y0046466D01*
X0196521Y0046540D01*
X0196538Y0046612D01*
X0196560Y0046683D01*
X0196584Y0046754D01*
X0196613Y0046822D01*
X0196645Y0046890D01*
X0196681Y0046955D01*
X0196719Y0047018D01*
X0196762Y0047080D01*
X0196807Y0047139D01*
X0196855Y0047196D01*
X0196906Y0047250D01*
X0196960Y0047301D01*
X0197017Y0047349D01*
X0197076Y0047394D01*
X0197138Y0047437D01*
X0197201Y0047475D01*
X0197266Y0047511D01*
X0197334Y0047543D01*
X0197402Y0047572D01*
X0197473Y0047596D01*
X0197544Y0047618D01*
X0197616Y0047635D01*
X0197690Y0047648D01*
X0197763Y0047658D01*
X0197838Y0047664D01*
X0197912Y0047666D01*
X0197986Y0047664D01*
X0198061Y0047658D01*
X0198134Y0047648D01*
X0198208Y0047635D01*
X0198280Y0047618D01*
X0198351Y0047596D01*
X0198422Y0047572D01*
X0198490Y0047543D01*
X0198558Y0047511D01*
X0198623Y0047475D01*
X0198686Y0047437D01*
X0198748Y0047394D01*
X0198807Y0047349D01*
X0198864Y0047301D01*
X0198918Y0047250D01*
X0198969Y0047196D01*
X0199017Y0047139D01*
X0199062Y0047080D01*
X0199105Y0047018D01*
X0199143Y0046955D01*
X0199179Y0046890D01*
X0199211Y0046822D01*
X0199240Y0046754D01*
X0199264Y0046683D01*
X0199286Y0046612D01*
X0199303Y0046540D01*
X0199316Y0046466D01*
X0199326Y0046393D01*
X0199332Y0046318D01*
X0199334Y0046244D01*
X0194029Y0046600D02*
X0194029Y0044467D01*
X0194027Y0044403D01*
X0194021Y0044338D01*
X0194012Y0044275D01*
X0193998Y0044212D01*
X0193981Y0044150D01*
X0193960Y0044089D01*
X0193935Y0044029D01*
X0193907Y0043971D01*
X0193875Y0043915D01*
X0193840Y0043861D01*
X0193802Y0043809D01*
X0193761Y0043759D01*
X0193716Y0043713D01*
X0193670Y0043668D01*
X0193620Y0043627D01*
X0193568Y0043589D01*
X0193514Y0043554D01*
X0193458Y0043522D01*
X0193400Y0043494D01*
X0193340Y0043469D01*
X0193279Y0043448D01*
X0193217Y0043431D01*
X0193154Y0043417D01*
X0193091Y0043408D01*
X0193026Y0043402D01*
X0192962Y0043400D01*
X0191185Y0043400D01*
X0191185Y0049800D01*
X0191185Y0047667D02*
X0192962Y0047667D01*
X0193026Y0047665D01*
X0193091Y0047659D01*
X0193154Y0047650D01*
X0193217Y0047636D01*
X0193279Y0047619D01*
X0193340Y0047598D01*
X0193400Y0047573D01*
X0193458Y0047545D01*
X0193514Y0047513D01*
X0193568Y0047478D01*
X0193620Y0047440D01*
X0193670Y0047399D01*
X0193716Y0047354D01*
X0193761Y0047308D01*
X0193802Y0047258D01*
X0193840Y0047206D01*
X0193875Y0047152D01*
X0193907Y0047096D01*
X0193935Y0047038D01*
X0193960Y0046978D01*
X0193981Y0046917D01*
X0193998Y0046855D01*
X0194012Y0046792D01*
X0194021Y0046729D01*
X0194027Y0046664D01*
X0194029Y0046600D01*
X0188829Y0043400D02*
X0188765Y0043402D01*
X0188700Y0043408D01*
X0188637Y0043417D01*
X0188574Y0043431D01*
X0188512Y0043448D01*
X0188451Y0043469D01*
X0188391Y0043494D01*
X0188333Y0043522D01*
X0188277Y0043554D01*
X0188223Y0043589D01*
X0188171Y0043627D01*
X0188121Y0043668D01*
X0188075Y0043713D01*
X0188030Y0043759D01*
X0187989Y0043809D01*
X0187951Y0043861D01*
X0187916Y0043915D01*
X0187884Y0043971D01*
X0187856Y0044029D01*
X0187831Y0044089D01*
X0187810Y0044150D01*
X0187793Y0044212D01*
X0187779Y0044275D01*
X0187770Y0044338D01*
X0187764Y0044403D01*
X0187762Y0044467D01*
X0187762Y0049800D01*
X0183879Y0047667D02*
X0182457Y0047667D01*
X0183879Y0047667D02*
X0183943Y0047665D01*
X0184008Y0047659D01*
X0184071Y0047650D01*
X0184134Y0047636D01*
X0184196Y0047619D01*
X0184257Y0047598D01*
X0184317Y0047573D01*
X0184375Y0047545D01*
X0184431Y0047513D01*
X0184485Y0047478D01*
X0184537Y0047440D01*
X0184587Y0047399D01*
X0184633Y0047354D01*
X0184678Y0047308D01*
X0184719Y0047258D01*
X0184757Y0047206D01*
X0184792Y0047152D01*
X0184824Y0047096D01*
X0184852Y0047038D01*
X0184877Y0046978D01*
X0184898Y0046917D01*
X0184915Y0046855D01*
X0184929Y0046792D01*
X0184938Y0046729D01*
X0184944Y0046664D01*
X0184946Y0046600D01*
X0184946Y0043400D01*
X0183346Y0043400D01*
X0183276Y0043402D01*
X0183207Y0043408D01*
X0183138Y0043418D01*
X0183069Y0043431D01*
X0183002Y0043449D01*
X0182935Y0043470D01*
X0182870Y0043495D01*
X0182806Y0043523D01*
X0182744Y0043555D01*
X0182684Y0043591D01*
X0182626Y0043629D01*
X0182570Y0043671D01*
X0182517Y0043716D01*
X0182466Y0043764D01*
X0182418Y0043815D01*
X0182373Y0043868D01*
X0182331Y0043924D01*
X0182293Y0043982D01*
X0182257Y0044042D01*
X0182225Y0044104D01*
X0182197Y0044168D01*
X0182172Y0044233D01*
X0182151Y0044300D01*
X0182133Y0044367D01*
X0182120Y0044436D01*
X0182110Y0044505D01*
X0182104Y0044574D01*
X0182102Y0044644D01*
X0182104Y0044714D01*
X0182110Y0044783D01*
X0182120Y0044852D01*
X0182133Y0044921D01*
X0182151Y0044988D01*
X0182172Y0045055D01*
X0182197Y0045120D01*
X0182225Y0045184D01*
X0182257Y0045246D01*
X0182293Y0045306D01*
X0182331Y0045364D01*
X0182373Y0045420D01*
X0182418Y0045473D01*
X0182466Y0045524D01*
X0182517Y0045572D01*
X0182570Y0045617D01*
X0182626Y0045659D01*
X0182684Y0045697D01*
X0182744Y0045733D01*
X0182806Y0045765D01*
X0182870Y0045793D01*
X0182935Y0045818D01*
X0183002Y0045839D01*
X0183069Y0045857D01*
X0183138Y0045870D01*
X0183207Y0045880D01*
X0183276Y0045886D01*
X0183346Y0045888D01*
X0183346Y0045889D02*
X0184946Y0045889D01*
X0178219Y0043400D02*
X0178219Y0049800D01*
X0179996Y0049800D02*
X0176441Y0049800D01*
X0171578Y0047667D02*
X0171578Y0046956D01*
X0171578Y0047667D02*
X0169445Y0047667D01*
X0169445Y0043400D01*
X0166717Y0043400D02*
X0164940Y0043400D01*
X0164876Y0043402D01*
X0164811Y0043408D01*
X0164748Y0043417D01*
X0164685Y0043431D01*
X0164623Y0043448D01*
X0164562Y0043469D01*
X0164502Y0043494D01*
X0164444Y0043522D01*
X0164388Y0043554D01*
X0164334Y0043589D01*
X0164282Y0043627D01*
X0164232Y0043668D01*
X0164186Y0043713D01*
X0164141Y0043759D01*
X0164100Y0043809D01*
X0164062Y0043861D01*
X0164027Y0043915D01*
X0163995Y0043971D01*
X0163967Y0044029D01*
X0163942Y0044089D01*
X0163921Y0044150D01*
X0163904Y0044212D01*
X0163890Y0044275D01*
X0163881Y0044338D01*
X0163875Y0044403D01*
X0163873Y0044467D01*
X0163873Y0046244D01*
X0163873Y0045533D02*
X0166717Y0045533D01*
X0166717Y0046244D01*
X0166715Y0046318D01*
X0166709Y0046393D01*
X0166699Y0046466D01*
X0166686Y0046540D01*
X0166669Y0046612D01*
X0166647Y0046683D01*
X0166623Y0046754D01*
X0166594Y0046822D01*
X0166562Y0046890D01*
X0166526Y0046955D01*
X0166488Y0047018D01*
X0166445Y0047080D01*
X0166400Y0047139D01*
X0166352Y0047196D01*
X0166301Y0047250D01*
X0166247Y0047301D01*
X0166190Y0047349D01*
X0166131Y0047394D01*
X0166069Y0047437D01*
X0166006Y0047475D01*
X0165941Y0047511D01*
X0165873Y0047543D01*
X0165805Y0047572D01*
X0165734Y0047596D01*
X0165663Y0047618D01*
X0165591Y0047635D01*
X0165517Y0047648D01*
X0165444Y0047658D01*
X0165369Y0047664D01*
X0165295Y0047666D01*
X0165221Y0047664D01*
X0165146Y0047658D01*
X0165073Y0047648D01*
X0164999Y0047635D01*
X0164927Y0047618D01*
X0164856Y0047596D01*
X0164785Y0047572D01*
X0164717Y0047543D01*
X0164649Y0047511D01*
X0164584Y0047475D01*
X0164521Y0047437D01*
X0164459Y0047394D01*
X0164400Y0047349D01*
X0164343Y0047301D01*
X0164289Y0047250D01*
X0164238Y0047196D01*
X0164190Y0047139D01*
X0164145Y0047080D01*
X0164102Y0047018D01*
X0164064Y0046955D01*
X0164028Y0046890D01*
X0163996Y0046822D01*
X0163967Y0046754D01*
X0163943Y0046683D01*
X0163921Y0046612D01*
X0163904Y0046540D01*
X0163891Y0046466D01*
X0163881Y0046393D01*
X0163875Y0046318D01*
X0163873Y0046244D01*
X0161651Y0047667D02*
X0160229Y0047667D01*
X0160165Y0047665D01*
X0160100Y0047659D01*
X0160037Y0047650D01*
X0159974Y0047636D01*
X0159912Y0047619D01*
X0159851Y0047598D01*
X0159791Y0047573D01*
X0159733Y0047545D01*
X0159677Y0047513D01*
X0159623Y0047478D01*
X0159571Y0047440D01*
X0159521Y0047399D01*
X0159475Y0047354D01*
X0159430Y0047308D01*
X0159389Y0047258D01*
X0159351Y0047206D01*
X0159316Y0047152D01*
X0159284Y0047096D01*
X0159256Y0047038D01*
X0159231Y0046978D01*
X0159210Y0046917D01*
X0159193Y0046855D01*
X0159179Y0046792D01*
X0159170Y0046729D01*
X0159164Y0046664D01*
X0159162Y0046600D01*
X0159162Y0044467D01*
X0159164Y0044403D01*
X0159170Y0044338D01*
X0159179Y0044275D01*
X0159193Y0044212D01*
X0159210Y0044150D01*
X0159231Y0044089D01*
X0159256Y0044029D01*
X0159284Y0043971D01*
X0159316Y0043915D01*
X0159351Y0043861D01*
X0159389Y0043809D01*
X0159430Y0043759D01*
X0159475Y0043713D01*
X0159521Y0043668D01*
X0159571Y0043627D01*
X0159623Y0043589D01*
X0159677Y0043554D01*
X0159733Y0043522D01*
X0159791Y0043494D01*
X0159851Y0043469D01*
X0159912Y0043448D01*
X0159974Y0043431D01*
X0160037Y0043417D01*
X0160100Y0043408D01*
X0160165Y0043402D01*
X0160229Y0043400D01*
X0161651Y0043400D01*
X0156461Y0043400D02*
X0156461Y0046600D01*
X0156459Y0046664D01*
X0156453Y0046729D01*
X0156444Y0046792D01*
X0156430Y0046855D01*
X0156413Y0046917D01*
X0156392Y0046978D01*
X0156367Y0047038D01*
X0156339Y0047096D01*
X0156307Y0047152D01*
X0156272Y0047206D01*
X0156234Y0047258D01*
X0156193Y0047308D01*
X0156148Y0047354D01*
X0156102Y0047399D01*
X0156052Y0047440D01*
X0156000Y0047478D01*
X0155946Y0047513D01*
X0155890Y0047545D01*
X0155832Y0047573D01*
X0155772Y0047598D01*
X0155711Y0047619D01*
X0155649Y0047636D01*
X0155586Y0047650D01*
X0155523Y0047659D01*
X0155458Y0047665D01*
X0155394Y0047667D01*
X0153616Y0047667D01*
X0153616Y0043400D01*
X0150922Y0043400D02*
X0149144Y0043400D01*
X0149080Y0043402D01*
X0149015Y0043408D01*
X0148952Y0043417D01*
X0148889Y0043431D01*
X0148827Y0043448D01*
X0148766Y0043469D01*
X0148706Y0043494D01*
X0148648Y0043522D01*
X0148592Y0043554D01*
X0148538Y0043589D01*
X0148486Y0043627D01*
X0148436Y0043668D01*
X0148390Y0043713D01*
X0148345Y0043759D01*
X0148304Y0043809D01*
X0148266Y0043861D01*
X0148231Y0043915D01*
X0148199Y0043971D01*
X0148171Y0044029D01*
X0148146Y0044089D01*
X0148125Y0044150D01*
X0148108Y0044212D01*
X0148094Y0044275D01*
X0148085Y0044338D01*
X0148079Y0044403D01*
X0148077Y0044467D01*
X0148078Y0044467D02*
X0148078Y0046244D01*
X0148078Y0045533D02*
X0150922Y0045533D01*
X0150922Y0046244D01*
X0150920Y0046318D01*
X0150914Y0046393D01*
X0150904Y0046466D01*
X0150891Y0046540D01*
X0150874Y0046612D01*
X0150852Y0046683D01*
X0150828Y0046754D01*
X0150799Y0046822D01*
X0150767Y0046890D01*
X0150731Y0046955D01*
X0150693Y0047018D01*
X0150650Y0047080D01*
X0150605Y0047139D01*
X0150557Y0047196D01*
X0150506Y0047250D01*
X0150452Y0047301D01*
X0150395Y0047349D01*
X0150336Y0047394D01*
X0150274Y0047437D01*
X0150211Y0047475D01*
X0150146Y0047511D01*
X0150078Y0047543D01*
X0150010Y0047572D01*
X0149939Y0047596D01*
X0149868Y0047618D01*
X0149796Y0047635D01*
X0149722Y0047648D01*
X0149649Y0047658D01*
X0149574Y0047664D01*
X0149500Y0047666D01*
X0149426Y0047664D01*
X0149351Y0047658D01*
X0149278Y0047648D01*
X0149204Y0047635D01*
X0149132Y0047618D01*
X0149061Y0047596D01*
X0148990Y0047572D01*
X0148922Y0047543D01*
X0148854Y0047511D01*
X0148789Y0047475D01*
X0148726Y0047437D01*
X0148664Y0047394D01*
X0148605Y0047349D01*
X0148548Y0047301D01*
X0148494Y0047250D01*
X0148443Y0047196D01*
X0148395Y0047139D01*
X0148350Y0047080D01*
X0148307Y0047018D01*
X0148269Y0046955D01*
X0148233Y0046890D01*
X0148201Y0046822D01*
X0148172Y0046754D01*
X0148148Y0046683D01*
X0148126Y0046612D01*
X0148109Y0046540D01*
X0148096Y0046466D01*
X0148086Y0046393D01*
X0148080Y0046318D01*
X0148078Y0046244D01*
X0145617Y0046600D02*
X0145617Y0044467D01*
X0145618Y0044467D02*
X0145616Y0044403D01*
X0145610Y0044338D01*
X0145601Y0044275D01*
X0145587Y0044212D01*
X0145570Y0044150D01*
X0145549Y0044089D01*
X0145524Y0044029D01*
X0145496Y0043971D01*
X0145464Y0043915D01*
X0145429Y0043861D01*
X0145391Y0043809D01*
X0145350Y0043759D01*
X0145305Y0043713D01*
X0145259Y0043668D01*
X0145209Y0043627D01*
X0145157Y0043589D01*
X0145103Y0043554D01*
X0145047Y0043522D01*
X0144989Y0043494D01*
X0144929Y0043469D01*
X0144868Y0043448D01*
X0144806Y0043431D01*
X0144743Y0043417D01*
X0144680Y0043408D01*
X0144615Y0043402D01*
X0144551Y0043400D01*
X0142773Y0043400D01*
X0139489Y0046067D02*
X0137534Y0047133D01*
X0138245Y0049800D02*
X0138346Y0049798D01*
X0138447Y0049792D01*
X0138547Y0049783D01*
X0138647Y0049769D01*
X0138747Y0049752D01*
X0138846Y0049732D01*
X0138943Y0049707D01*
X0139040Y0049679D01*
X0139136Y0049647D01*
X0139231Y0049611D01*
X0139324Y0049572D01*
X0139415Y0049530D01*
X0139505Y0049484D01*
X0139593Y0049434D01*
X0139679Y0049382D01*
X0139763Y0049326D01*
X0139845Y0049267D01*
X0137534Y0047134D02*
X0137470Y0047174D01*
X0137409Y0047217D01*
X0137350Y0047263D01*
X0137293Y0047312D01*
X0137239Y0047364D01*
X0137188Y0047418D01*
X0137140Y0047476D01*
X0137094Y0047535D01*
X0137052Y0047597D01*
X0137013Y0047662D01*
X0136978Y0047728D01*
X0136946Y0047795D01*
X0136917Y0047865D01*
X0136892Y0047935D01*
X0136871Y0048007D01*
X0136854Y0048080D01*
X0136840Y0048154D01*
X0136831Y0048228D01*
X0136825Y0048303D01*
X0136823Y0048378D01*
X0136825Y0048452D01*
X0136831Y0048527D01*
X0136841Y0048600D01*
X0136854Y0048674D01*
X0136871Y0048746D01*
X0136893Y0048817D01*
X0136917Y0048888D01*
X0136946Y0048956D01*
X0136978Y0049024D01*
X0137014Y0049089D01*
X0137052Y0049152D01*
X0137095Y0049214D01*
X0137140Y0049273D01*
X0137188Y0049330D01*
X0137239Y0049384D01*
X0137294Y0049435D01*
X0137350Y0049483D01*
X0137409Y0049528D01*
X0137471Y0049571D01*
X0137534Y0049609D01*
X0137599Y0049645D01*
X0137667Y0049677D01*
X0137735Y0049706D01*
X0137806Y0049730D01*
X0137877Y0049752D01*
X0137949Y0049769D01*
X0138023Y0049782D01*
X0138096Y0049792D01*
X0138171Y0049798D01*
X0138245Y0049800D01*
X0142773Y0047667D02*
X0144551Y0047667D01*
X0144615Y0047665D01*
X0144680Y0047659D01*
X0144743Y0047650D01*
X0144806Y0047636D01*
X0144868Y0047619D01*
X0144929Y0047598D01*
X0144989Y0047573D01*
X0145047Y0047545D01*
X0145103Y0047513D01*
X0145157Y0047478D01*
X0145209Y0047440D01*
X0145259Y0047399D01*
X0145305Y0047354D01*
X0145350Y0047308D01*
X0145391Y0047258D01*
X0145429Y0047206D01*
X0145464Y0047152D01*
X0145496Y0047096D01*
X0145524Y0047038D01*
X0145549Y0046978D01*
X0145570Y0046917D01*
X0145587Y0046855D01*
X0145601Y0046792D01*
X0145610Y0046729D01*
X0145616Y0046664D01*
X0145618Y0046600D01*
X0142773Y0047667D02*
X0142773Y0041267D01*
X0140200Y0044822D02*
X0140198Y0044748D01*
X0140192Y0044673D01*
X0140182Y0044600D01*
X0140169Y0044526D01*
X0140152Y0044454D01*
X0140130Y0044383D01*
X0140106Y0044312D01*
X0140077Y0044244D01*
X0140045Y0044176D01*
X0140009Y0044111D01*
X0139971Y0044048D01*
X0139928Y0043986D01*
X0139883Y0043927D01*
X0139835Y0043870D01*
X0139784Y0043816D01*
X0139730Y0043765D01*
X0139673Y0043717D01*
X0139614Y0043672D01*
X0139552Y0043629D01*
X0139489Y0043591D01*
X0139424Y0043555D01*
X0139356Y0043523D01*
X0139288Y0043494D01*
X0139217Y0043470D01*
X0139146Y0043448D01*
X0139074Y0043431D01*
X0139000Y0043418D01*
X0138927Y0043408D01*
X0138852Y0043402D01*
X0138778Y0043400D01*
X0140200Y0044822D02*
X0140198Y0044897D01*
X0140192Y0044972D01*
X0140183Y0045046D01*
X0140169Y0045120D01*
X0140152Y0045193D01*
X0140131Y0045265D01*
X0140106Y0045335D01*
X0140077Y0045405D01*
X0140045Y0045472D01*
X0140010Y0045538D01*
X0139971Y0045603D01*
X0139929Y0045665D01*
X0139883Y0045724D01*
X0139835Y0045782D01*
X0139784Y0045836D01*
X0139730Y0045888D01*
X0139673Y0045937D01*
X0139614Y0045983D01*
X0139553Y0046026D01*
X0139489Y0046066D01*
X0138778Y0043400D02*
X0138670Y0043402D01*
X0138563Y0043408D01*
X0138455Y0043417D01*
X0138348Y0043431D01*
X0138242Y0043448D01*
X0138136Y0043469D01*
X0138031Y0043494D01*
X0137927Y0043523D01*
X0137824Y0043555D01*
X0137723Y0043591D01*
X0137623Y0043631D01*
X0137524Y0043674D01*
X0137427Y0043721D01*
X0137331Y0043771D01*
X0137238Y0043825D01*
X0137146Y0043882D01*
X0137057Y0043942D01*
X0136970Y0044005D01*
X0136885Y0044072D01*
X0136802Y0044141D01*
X0136722Y0044214D01*
X0136645Y0044289D01*
X0136645Y0053900D02*
X0137356Y0053900D01*
X0137430Y0053902D01*
X0137505Y0053908D01*
X0137578Y0053918D01*
X0137652Y0053931D01*
X0137724Y0053948D01*
X0137795Y0053970D01*
X0137866Y0053994D01*
X0137934Y0054023D01*
X0138002Y0054055D01*
X0138067Y0054091D01*
X0138130Y0054129D01*
X0138192Y0054172D01*
X0138251Y0054217D01*
X0138308Y0054265D01*
X0138362Y0054316D01*
X0138413Y0054370D01*
X0138461Y0054427D01*
X0138506Y0054486D01*
X0138549Y0054548D01*
X0138587Y0054611D01*
X0138623Y0054676D01*
X0138655Y0054744D01*
X0138684Y0054812D01*
X0138708Y0054883D01*
X0138730Y0054954D01*
X0138747Y0055026D01*
X0138760Y0055100D01*
X0138770Y0055173D01*
X0138776Y0055248D01*
X0138778Y0055322D01*
X0138778Y0060300D01*
X0141506Y0056744D02*
X0141506Y0055322D01*
X0141508Y0055248D01*
X0141514Y0055173D01*
X0141524Y0055100D01*
X0141537Y0055026D01*
X0141554Y0054954D01*
X0141576Y0054883D01*
X0141600Y0054812D01*
X0141629Y0054744D01*
X0141661Y0054676D01*
X0141697Y0054611D01*
X0141735Y0054548D01*
X0141778Y0054486D01*
X0141823Y0054427D01*
X0141871Y0054370D01*
X0141922Y0054316D01*
X0141976Y0054265D01*
X0142033Y0054217D01*
X0142092Y0054172D01*
X0142154Y0054129D01*
X0142217Y0054091D01*
X0142282Y0054055D01*
X0142350Y0054023D01*
X0142418Y0053994D01*
X0142489Y0053970D01*
X0142560Y0053948D01*
X0142632Y0053931D01*
X0142706Y0053918D01*
X0142779Y0053908D01*
X0142854Y0053902D01*
X0142928Y0053900D01*
X0143002Y0053902D01*
X0143077Y0053908D01*
X0143150Y0053918D01*
X0143224Y0053931D01*
X0143296Y0053948D01*
X0143367Y0053970D01*
X0143438Y0053994D01*
X0143506Y0054023D01*
X0143574Y0054055D01*
X0143639Y0054091D01*
X0143702Y0054129D01*
X0143764Y0054172D01*
X0143823Y0054217D01*
X0143880Y0054265D01*
X0143934Y0054316D01*
X0143985Y0054370D01*
X0144033Y0054427D01*
X0144078Y0054486D01*
X0144121Y0054548D01*
X0144159Y0054611D01*
X0144195Y0054676D01*
X0144227Y0054744D01*
X0144256Y0054812D01*
X0144280Y0054883D01*
X0144302Y0054954D01*
X0144319Y0055026D01*
X0144332Y0055100D01*
X0144342Y0055173D01*
X0144348Y0055248D01*
X0144350Y0055322D01*
X0144350Y0056744D01*
X0144348Y0056818D01*
X0144342Y0056893D01*
X0144332Y0056966D01*
X0144319Y0057040D01*
X0144302Y0057112D01*
X0144280Y0057183D01*
X0144256Y0057254D01*
X0144227Y0057322D01*
X0144195Y0057390D01*
X0144159Y0057455D01*
X0144121Y0057518D01*
X0144078Y0057580D01*
X0144033Y0057639D01*
X0143985Y0057696D01*
X0143934Y0057750D01*
X0143880Y0057801D01*
X0143823Y0057849D01*
X0143764Y0057894D01*
X0143702Y0057937D01*
X0143639Y0057975D01*
X0143574Y0058011D01*
X0143506Y0058043D01*
X0143438Y0058072D01*
X0143367Y0058096D01*
X0143296Y0058118D01*
X0143224Y0058135D01*
X0143150Y0058148D01*
X0143077Y0058158D01*
X0143002Y0058164D01*
X0142928Y0058166D01*
X0142854Y0058164D01*
X0142779Y0058158D01*
X0142706Y0058148D01*
X0142632Y0058135D01*
X0142560Y0058118D01*
X0142489Y0058096D01*
X0142418Y0058072D01*
X0142350Y0058043D01*
X0142282Y0058011D01*
X0142217Y0057975D01*
X0142154Y0057937D01*
X0142092Y0057894D01*
X0142033Y0057849D01*
X0141976Y0057801D01*
X0141922Y0057750D01*
X0141871Y0057696D01*
X0141823Y0057639D01*
X0141778Y0057580D01*
X0141735Y0057518D01*
X0141697Y0057455D01*
X0141661Y0057390D01*
X0141629Y0057322D01*
X0141600Y0057254D01*
X0141576Y0057183D01*
X0141554Y0057112D01*
X0141537Y0057040D01*
X0141524Y0056966D01*
X0141514Y0056893D01*
X0141508Y0056818D01*
X0141506Y0056744D01*
X0147044Y0058167D02*
X0147044Y0053900D01*
X0149889Y0053900D02*
X0149889Y0057100D01*
X0149887Y0057164D01*
X0149881Y0057229D01*
X0149872Y0057292D01*
X0149858Y0057355D01*
X0149841Y0057417D01*
X0149820Y0057478D01*
X0149795Y0057538D01*
X0149767Y0057596D01*
X0149735Y0057652D01*
X0149700Y0057706D01*
X0149662Y0057758D01*
X0149621Y0057808D01*
X0149576Y0057854D01*
X0149530Y0057899D01*
X0149480Y0057940D01*
X0149428Y0057978D01*
X0149374Y0058013D01*
X0149318Y0058045D01*
X0149260Y0058073D01*
X0149200Y0058098D01*
X0149139Y0058119D01*
X0149077Y0058136D01*
X0149014Y0058150D01*
X0148951Y0058159D01*
X0148886Y0058165D01*
X0148822Y0058167D01*
X0147044Y0058167D01*
X0152910Y0058167D02*
X0154332Y0058167D01*
X0154396Y0058165D01*
X0154461Y0058159D01*
X0154524Y0058150D01*
X0154587Y0058136D01*
X0154649Y0058119D01*
X0154710Y0058098D01*
X0154770Y0058073D01*
X0154828Y0058045D01*
X0154884Y0058013D01*
X0154938Y0057978D01*
X0154990Y0057940D01*
X0155040Y0057899D01*
X0155086Y0057854D01*
X0155131Y0057808D01*
X0155172Y0057758D01*
X0155210Y0057706D01*
X0155245Y0057652D01*
X0155277Y0057596D01*
X0155305Y0057538D01*
X0155330Y0057478D01*
X0155351Y0057417D01*
X0155368Y0057355D01*
X0155382Y0057292D01*
X0155391Y0057229D01*
X0155397Y0057164D01*
X0155399Y0057100D01*
X0155399Y0053900D01*
X0153799Y0053900D01*
X0153729Y0053902D01*
X0153660Y0053908D01*
X0153591Y0053918D01*
X0153522Y0053931D01*
X0153455Y0053949D01*
X0153388Y0053970D01*
X0153323Y0053995D01*
X0153259Y0054023D01*
X0153197Y0054055D01*
X0153137Y0054091D01*
X0153079Y0054129D01*
X0153023Y0054171D01*
X0152970Y0054216D01*
X0152919Y0054264D01*
X0152871Y0054315D01*
X0152826Y0054368D01*
X0152784Y0054424D01*
X0152746Y0054482D01*
X0152710Y0054542D01*
X0152678Y0054604D01*
X0152650Y0054668D01*
X0152625Y0054733D01*
X0152604Y0054800D01*
X0152586Y0054867D01*
X0152573Y0054936D01*
X0152563Y0055005D01*
X0152557Y0055074D01*
X0152555Y0055144D01*
X0152557Y0055214D01*
X0152563Y0055283D01*
X0152573Y0055352D01*
X0152586Y0055421D01*
X0152604Y0055488D01*
X0152625Y0055555D01*
X0152650Y0055620D01*
X0152678Y0055684D01*
X0152710Y0055746D01*
X0152746Y0055806D01*
X0152784Y0055864D01*
X0152826Y0055920D01*
X0152871Y0055973D01*
X0152919Y0056024D01*
X0152970Y0056072D01*
X0153023Y0056117D01*
X0153079Y0056159D01*
X0153137Y0056197D01*
X0153197Y0056233D01*
X0153259Y0056265D01*
X0153323Y0056293D01*
X0153388Y0056318D01*
X0153455Y0056339D01*
X0153522Y0056357D01*
X0153591Y0056370D01*
X0153660Y0056380D01*
X0153729Y0056386D01*
X0153799Y0056388D01*
X0153799Y0056389D02*
X0155399Y0056389D01*
X0158327Y0058167D02*
X0160105Y0058167D01*
X0160169Y0058165D01*
X0160234Y0058159D01*
X0160297Y0058150D01*
X0160360Y0058136D01*
X0160422Y0058119D01*
X0160483Y0058098D01*
X0160543Y0058073D01*
X0160601Y0058045D01*
X0160657Y0058013D01*
X0160711Y0057978D01*
X0160763Y0057940D01*
X0160813Y0057899D01*
X0160859Y0057854D01*
X0160904Y0057808D01*
X0160945Y0057758D01*
X0160983Y0057706D01*
X0161018Y0057652D01*
X0161050Y0057596D01*
X0161078Y0057538D01*
X0161103Y0057478D01*
X0161124Y0057417D01*
X0161141Y0057355D01*
X0161155Y0057292D01*
X0161164Y0057229D01*
X0161170Y0057164D01*
X0161172Y0057100D01*
X0161171Y0057100D02*
X0161171Y0053900D01*
X0158327Y0053900D02*
X0158327Y0060300D01*
X0167490Y0060300D02*
X0169268Y0060300D01*
X0169342Y0060298D01*
X0169417Y0060292D01*
X0169490Y0060282D01*
X0169564Y0060269D01*
X0169636Y0060252D01*
X0169707Y0060230D01*
X0169778Y0060206D01*
X0169846Y0060177D01*
X0169914Y0060145D01*
X0169979Y0060109D01*
X0170042Y0060071D01*
X0170104Y0060028D01*
X0170163Y0059983D01*
X0170220Y0059935D01*
X0170274Y0059884D01*
X0170325Y0059830D01*
X0170373Y0059773D01*
X0170418Y0059714D01*
X0170461Y0059652D01*
X0170499Y0059589D01*
X0170535Y0059524D01*
X0170567Y0059456D01*
X0170596Y0059388D01*
X0170620Y0059317D01*
X0170642Y0059246D01*
X0170659Y0059174D01*
X0170672Y0059100D01*
X0170682Y0059027D01*
X0170688Y0058952D01*
X0170690Y0058878D01*
X0170688Y0058804D01*
X0170682Y0058729D01*
X0170672Y0058656D01*
X0170659Y0058582D01*
X0170642Y0058510D01*
X0170620Y0058439D01*
X0170596Y0058368D01*
X0170567Y0058300D01*
X0170535Y0058232D01*
X0170499Y0058167D01*
X0170461Y0058104D01*
X0170418Y0058042D01*
X0170373Y0057983D01*
X0170325Y0057926D01*
X0170274Y0057872D01*
X0170220Y0057821D01*
X0170163Y0057773D01*
X0170104Y0057728D01*
X0170042Y0057685D01*
X0169979Y0057647D01*
X0169914Y0057611D01*
X0169846Y0057579D01*
X0169778Y0057550D01*
X0169707Y0057526D01*
X0169636Y0057504D01*
X0169564Y0057487D01*
X0169490Y0057474D01*
X0169417Y0057464D01*
X0169342Y0057458D01*
X0169268Y0057456D01*
X0167490Y0057456D01*
X0169268Y0057456D02*
X0169351Y0057454D01*
X0169434Y0057448D01*
X0169517Y0057438D01*
X0169600Y0057425D01*
X0169681Y0057407D01*
X0169762Y0057386D01*
X0169841Y0057361D01*
X0169919Y0057332D01*
X0169996Y0057300D01*
X0170071Y0057264D01*
X0170145Y0057225D01*
X0170216Y0057182D01*
X0170286Y0057136D01*
X0170353Y0057086D01*
X0170418Y0057034D01*
X0170480Y0056979D01*
X0170540Y0056920D01*
X0170597Y0056859D01*
X0170651Y0056796D01*
X0170702Y0056730D01*
X0170749Y0056661D01*
X0170794Y0056591D01*
X0170835Y0056518D01*
X0170872Y0056444D01*
X0170907Y0056368D01*
X0170937Y0056290D01*
X0170964Y0056212D01*
X0170987Y0056131D01*
X0171007Y0056050D01*
X0171022Y0055968D01*
X0171034Y0055886D01*
X0171042Y0055803D01*
X0171046Y0055720D01*
X0171046Y0055636D01*
X0171042Y0055553D01*
X0171034Y0055470D01*
X0171022Y0055388D01*
X0171007Y0055306D01*
X0170987Y0055225D01*
X0170964Y0055144D01*
X0170937Y0055066D01*
X0170907Y0054988D01*
X0170872Y0054912D01*
X0170835Y0054838D01*
X0170794Y0054765D01*
X0170749Y0054695D01*
X0170702Y0054626D01*
X0170651Y0054560D01*
X0170597Y0054497D01*
X0170540Y0054436D01*
X0170480Y0054377D01*
X0170418Y0054322D01*
X0170353Y0054270D01*
X0170286Y0054220D01*
X0170216Y0054174D01*
X0170145Y0054131D01*
X0170071Y0054092D01*
X0169996Y0054056D01*
X0169919Y0054024D01*
X0169841Y0053995D01*
X0169762Y0053970D01*
X0169681Y0053949D01*
X0169600Y0053931D01*
X0169517Y0053918D01*
X0169434Y0053908D01*
X0169351Y0053902D01*
X0169268Y0053900D01*
X0167490Y0053900D01*
X0167490Y0060300D01*
X0173628Y0058167D02*
X0175051Y0058167D01*
X0175115Y0058165D01*
X0175180Y0058159D01*
X0175243Y0058150D01*
X0175306Y0058136D01*
X0175368Y0058119D01*
X0175429Y0058098D01*
X0175489Y0058073D01*
X0175547Y0058045D01*
X0175603Y0058013D01*
X0175657Y0057978D01*
X0175709Y0057940D01*
X0175759Y0057899D01*
X0175805Y0057854D01*
X0175850Y0057808D01*
X0175891Y0057758D01*
X0175929Y0057706D01*
X0175964Y0057652D01*
X0175996Y0057596D01*
X0176024Y0057538D01*
X0176049Y0057478D01*
X0176070Y0057417D01*
X0176087Y0057355D01*
X0176101Y0057292D01*
X0176110Y0057229D01*
X0176116Y0057164D01*
X0176118Y0057100D01*
X0176117Y0057100D02*
X0176117Y0053900D01*
X0174517Y0053900D01*
X0174447Y0053902D01*
X0174378Y0053908D01*
X0174309Y0053918D01*
X0174240Y0053931D01*
X0174173Y0053949D01*
X0174106Y0053970D01*
X0174041Y0053995D01*
X0173977Y0054023D01*
X0173915Y0054055D01*
X0173855Y0054091D01*
X0173797Y0054129D01*
X0173741Y0054171D01*
X0173688Y0054216D01*
X0173637Y0054264D01*
X0173589Y0054315D01*
X0173544Y0054368D01*
X0173502Y0054424D01*
X0173464Y0054482D01*
X0173428Y0054542D01*
X0173396Y0054604D01*
X0173368Y0054668D01*
X0173343Y0054733D01*
X0173322Y0054800D01*
X0173304Y0054867D01*
X0173291Y0054936D01*
X0173281Y0055005D01*
X0173275Y0055074D01*
X0173273Y0055144D01*
X0173275Y0055214D01*
X0173281Y0055283D01*
X0173291Y0055352D01*
X0173304Y0055421D01*
X0173322Y0055488D01*
X0173343Y0055555D01*
X0173368Y0055620D01*
X0173396Y0055684D01*
X0173428Y0055746D01*
X0173464Y0055806D01*
X0173502Y0055864D01*
X0173544Y0055920D01*
X0173589Y0055973D01*
X0173637Y0056024D01*
X0173688Y0056072D01*
X0173741Y0056117D01*
X0173797Y0056159D01*
X0173855Y0056197D01*
X0173915Y0056233D01*
X0173977Y0056265D01*
X0174041Y0056293D01*
X0174106Y0056318D01*
X0174173Y0056339D01*
X0174240Y0056357D01*
X0174309Y0056370D01*
X0174378Y0056380D01*
X0174447Y0056386D01*
X0174517Y0056388D01*
X0174517Y0056389D02*
X0176117Y0056389D01*
X0179041Y0054967D02*
X0179041Y0060300D01*
X0178329Y0058167D02*
X0180463Y0058167D01*
X0182738Y0056744D02*
X0182738Y0054967D01*
X0182738Y0056033D02*
X0185582Y0056033D01*
X0185582Y0056744D01*
X0185580Y0056818D01*
X0185574Y0056893D01*
X0185564Y0056966D01*
X0185551Y0057040D01*
X0185534Y0057112D01*
X0185512Y0057183D01*
X0185488Y0057254D01*
X0185459Y0057322D01*
X0185427Y0057390D01*
X0185391Y0057455D01*
X0185353Y0057518D01*
X0185310Y0057580D01*
X0185265Y0057639D01*
X0185217Y0057696D01*
X0185166Y0057750D01*
X0185112Y0057801D01*
X0185055Y0057849D01*
X0184996Y0057894D01*
X0184934Y0057937D01*
X0184871Y0057975D01*
X0184806Y0058011D01*
X0184738Y0058043D01*
X0184670Y0058072D01*
X0184599Y0058096D01*
X0184528Y0058118D01*
X0184456Y0058135D01*
X0184382Y0058148D01*
X0184309Y0058158D01*
X0184234Y0058164D01*
X0184160Y0058166D01*
X0184086Y0058164D01*
X0184011Y0058158D01*
X0183938Y0058148D01*
X0183864Y0058135D01*
X0183792Y0058118D01*
X0183721Y0058096D01*
X0183650Y0058072D01*
X0183582Y0058043D01*
X0183514Y0058011D01*
X0183449Y0057975D01*
X0183386Y0057937D01*
X0183324Y0057894D01*
X0183265Y0057849D01*
X0183208Y0057801D01*
X0183154Y0057750D01*
X0183103Y0057696D01*
X0183055Y0057639D01*
X0183010Y0057580D01*
X0182967Y0057518D01*
X0182929Y0057455D01*
X0182893Y0057390D01*
X0182861Y0057322D01*
X0182832Y0057254D01*
X0182808Y0057183D01*
X0182786Y0057112D01*
X0182769Y0057040D01*
X0182756Y0056966D01*
X0182746Y0056893D01*
X0182740Y0056818D01*
X0182738Y0056744D01*
X0182737Y0054967D02*
X0182739Y0054903D01*
X0182745Y0054838D01*
X0182754Y0054775D01*
X0182768Y0054712D01*
X0182785Y0054650D01*
X0182806Y0054589D01*
X0182831Y0054529D01*
X0182859Y0054471D01*
X0182891Y0054415D01*
X0182926Y0054361D01*
X0182964Y0054309D01*
X0183005Y0054259D01*
X0183050Y0054213D01*
X0183096Y0054168D01*
X0183146Y0054127D01*
X0183198Y0054089D01*
X0183252Y0054054D01*
X0183308Y0054022D01*
X0183366Y0053994D01*
X0183426Y0053969D01*
X0183487Y0053948D01*
X0183549Y0053931D01*
X0183612Y0053917D01*
X0183675Y0053908D01*
X0183740Y0053902D01*
X0183804Y0053900D01*
X0185582Y0053900D01*
X0188386Y0053900D02*
X0188386Y0058167D01*
X0191586Y0058167D01*
X0190519Y0058167D02*
X0190519Y0053900D01*
X0192652Y0053900D02*
X0192652Y0057100D01*
X0192653Y0057100D02*
X0192651Y0057164D01*
X0192645Y0057229D01*
X0192636Y0057292D01*
X0192622Y0057355D01*
X0192605Y0057417D01*
X0192584Y0057478D01*
X0192559Y0057538D01*
X0192531Y0057596D01*
X0192499Y0057652D01*
X0192464Y0057706D01*
X0192426Y0057758D01*
X0192385Y0057808D01*
X0192340Y0057854D01*
X0192294Y0057899D01*
X0192244Y0057940D01*
X0192192Y0057978D01*
X0192138Y0058013D01*
X0192082Y0058045D01*
X0192024Y0058073D01*
X0191964Y0058098D01*
X0191903Y0058119D01*
X0191841Y0058136D01*
X0191778Y0058150D01*
X0191715Y0058159D01*
X0191650Y0058165D01*
X0191586Y0058167D01*
X0195783Y0058167D02*
X0197205Y0058167D01*
X0197269Y0058165D01*
X0197334Y0058159D01*
X0197397Y0058150D01*
X0197460Y0058136D01*
X0197522Y0058119D01*
X0197583Y0058098D01*
X0197643Y0058073D01*
X0197701Y0058045D01*
X0197757Y0058013D01*
X0197811Y0057978D01*
X0197863Y0057940D01*
X0197913Y0057899D01*
X0197959Y0057854D01*
X0198004Y0057808D01*
X0198045Y0057758D01*
X0198083Y0057706D01*
X0198118Y0057652D01*
X0198150Y0057596D01*
X0198178Y0057538D01*
X0198203Y0057478D01*
X0198224Y0057417D01*
X0198241Y0057355D01*
X0198255Y0057292D01*
X0198264Y0057229D01*
X0198270Y0057164D01*
X0198272Y0057100D01*
X0198272Y0053900D01*
X0196672Y0053900D01*
X0196602Y0053902D01*
X0196533Y0053908D01*
X0196464Y0053918D01*
X0196395Y0053931D01*
X0196328Y0053949D01*
X0196261Y0053970D01*
X0196196Y0053995D01*
X0196132Y0054023D01*
X0196070Y0054055D01*
X0196010Y0054091D01*
X0195952Y0054129D01*
X0195896Y0054171D01*
X0195843Y0054216D01*
X0195792Y0054264D01*
X0195744Y0054315D01*
X0195699Y0054368D01*
X0195657Y0054424D01*
X0195619Y0054482D01*
X0195583Y0054542D01*
X0195551Y0054604D01*
X0195523Y0054668D01*
X0195498Y0054733D01*
X0195477Y0054800D01*
X0195459Y0054867D01*
X0195446Y0054936D01*
X0195436Y0055005D01*
X0195430Y0055074D01*
X0195428Y0055144D01*
X0195430Y0055214D01*
X0195436Y0055283D01*
X0195446Y0055352D01*
X0195459Y0055421D01*
X0195477Y0055488D01*
X0195498Y0055555D01*
X0195523Y0055620D01*
X0195551Y0055684D01*
X0195583Y0055746D01*
X0195619Y0055806D01*
X0195657Y0055864D01*
X0195699Y0055920D01*
X0195744Y0055973D01*
X0195792Y0056024D01*
X0195843Y0056072D01*
X0195896Y0056117D01*
X0195952Y0056159D01*
X0196010Y0056197D01*
X0196070Y0056233D01*
X0196132Y0056265D01*
X0196196Y0056293D01*
X0196261Y0056318D01*
X0196328Y0056339D01*
X0196395Y0056357D01*
X0196464Y0056370D01*
X0196533Y0056380D01*
X0196602Y0056386D01*
X0196672Y0056388D01*
X0196672Y0056389D02*
X0198272Y0056389D01*
X0201200Y0058167D02*
X0201200Y0053900D01*
X0204044Y0053900D02*
X0204044Y0057100D01*
X0204045Y0057100D02*
X0204043Y0057164D01*
X0204037Y0057229D01*
X0204028Y0057292D01*
X0204014Y0057355D01*
X0203997Y0057417D01*
X0203976Y0057478D01*
X0203951Y0057538D01*
X0203923Y0057596D01*
X0203891Y0057652D01*
X0203856Y0057706D01*
X0203818Y0057758D01*
X0203777Y0057808D01*
X0203732Y0057854D01*
X0203686Y0057899D01*
X0203636Y0057940D01*
X0203584Y0057978D01*
X0203530Y0058013D01*
X0203474Y0058045D01*
X0203416Y0058073D01*
X0203356Y0058098D01*
X0203295Y0058119D01*
X0203233Y0058136D01*
X0203170Y0058150D01*
X0203107Y0058159D01*
X0203042Y0058165D01*
X0202978Y0058167D01*
X0201200Y0058167D01*
X0217345Y0061600D02*
X0217345Y0071600D01*
X0117345Y0071600D01*
X0117345Y0061600D01*
X0109345Y0067600D02*
X0096345Y0067600D01*
X0096258Y0067602D01*
X0096171Y0067608D01*
X0096084Y0067617D01*
X0095998Y0067630D01*
X0095912Y0067647D01*
X0095827Y0067668D01*
X0095744Y0067693D01*
X0095661Y0067721D01*
X0095580Y0067752D01*
X0095500Y0067787D01*
X0095422Y0067826D01*
X0095345Y0067868D01*
X0095270Y0067913D01*
X0095198Y0067962D01*
X0095127Y0068013D01*
X0095059Y0068068D01*
X0094994Y0068125D01*
X0094931Y0068186D01*
X0094870Y0068249D01*
X0094813Y0068314D01*
X0094758Y0068382D01*
X0094707Y0068453D01*
X0094658Y0068525D01*
X0094613Y0068600D01*
X0094571Y0068677D01*
X0094532Y0068755D01*
X0094497Y0068835D01*
X0094466Y0068916D01*
X0094438Y0068999D01*
X0094413Y0069082D01*
X0094392Y0069167D01*
X0094375Y0069253D01*
X0094362Y0069339D01*
X0094353Y0069426D01*
X0094347Y0069513D01*
X0094345Y0069600D01*
X0094345Y0074600D01*
X0094347Y0074687D01*
X0094353Y0074774D01*
X0094362Y0074861D01*
X0094375Y0074947D01*
X0094392Y0075033D01*
X0094413Y0075118D01*
X0094438Y0075201D01*
X0094466Y0075284D01*
X0094497Y0075365D01*
X0094532Y0075445D01*
X0094571Y0075523D01*
X0094613Y0075600D01*
X0094658Y0075675D01*
X0094707Y0075747D01*
X0094758Y0075818D01*
X0094813Y0075886D01*
X0094870Y0075951D01*
X0094931Y0076014D01*
X0094994Y0076075D01*
X0095059Y0076132D01*
X0095127Y0076187D01*
X0095198Y0076238D01*
X0095270Y0076287D01*
X0095345Y0076332D01*
X0095422Y0076374D01*
X0095500Y0076413D01*
X0095580Y0076448D01*
X0095661Y0076479D01*
X0095744Y0076507D01*
X0095827Y0076532D01*
X0095912Y0076553D01*
X0095998Y0076570D01*
X0096084Y0076583D01*
X0096171Y0076592D01*
X0096258Y0076598D01*
X0096345Y0076600D01*
X0109345Y0076600D01*
X0109345Y0078100D02*
X0096345Y0078100D01*
X0096258Y0078102D01*
X0096171Y0078108D01*
X0096084Y0078117D01*
X0095998Y0078130D01*
X0095912Y0078147D01*
X0095827Y0078168D01*
X0095744Y0078193D01*
X0095661Y0078221D01*
X0095580Y0078252D01*
X0095500Y0078287D01*
X0095422Y0078326D01*
X0095345Y0078368D01*
X0095270Y0078413D01*
X0095198Y0078462D01*
X0095127Y0078513D01*
X0095059Y0078568D01*
X0094994Y0078625D01*
X0094931Y0078686D01*
X0094870Y0078749D01*
X0094813Y0078814D01*
X0094758Y0078882D01*
X0094707Y0078953D01*
X0094658Y0079025D01*
X0094613Y0079100D01*
X0094571Y0079177D01*
X0094532Y0079255D01*
X0094497Y0079335D01*
X0094466Y0079416D01*
X0094438Y0079499D01*
X0094413Y0079582D01*
X0094392Y0079667D01*
X0094375Y0079753D01*
X0094362Y0079839D01*
X0094353Y0079926D01*
X0094347Y0080013D01*
X0094345Y0080100D01*
X0094345Y0085100D01*
X0094347Y0085187D01*
X0094353Y0085274D01*
X0094362Y0085361D01*
X0094375Y0085447D01*
X0094392Y0085533D01*
X0094413Y0085618D01*
X0094438Y0085701D01*
X0094466Y0085784D01*
X0094497Y0085865D01*
X0094532Y0085945D01*
X0094571Y0086023D01*
X0094613Y0086100D01*
X0094658Y0086175D01*
X0094707Y0086247D01*
X0094758Y0086318D01*
X0094813Y0086386D01*
X0094870Y0086451D01*
X0094931Y0086514D01*
X0094994Y0086575D01*
X0095059Y0086632D01*
X0095127Y0086687D01*
X0095198Y0086738D01*
X0095270Y0086787D01*
X0095345Y0086832D01*
X0095422Y0086874D01*
X0095500Y0086913D01*
X0095580Y0086948D01*
X0095661Y0086979D01*
X0095744Y0087007D01*
X0095827Y0087032D01*
X0095912Y0087053D01*
X0095998Y0087070D01*
X0096084Y0087083D01*
X0096171Y0087092D01*
X0096258Y0087098D01*
X0096345Y0087100D01*
X0109345Y0087100D01*
X0109432Y0087098D01*
X0109519Y0087092D01*
X0109606Y0087083D01*
X0109692Y0087070D01*
X0109778Y0087053D01*
X0109863Y0087032D01*
X0109946Y0087007D01*
X0110029Y0086979D01*
X0110110Y0086948D01*
X0110190Y0086913D01*
X0110268Y0086874D01*
X0110345Y0086832D01*
X0110420Y0086787D01*
X0110492Y0086738D01*
X0110563Y0086687D01*
X0110631Y0086632D01*
X0110696Y0086575D01*
X0110759Y0086514D01*
X0110820Y0086451D01*
X0110877Y0086386D01*
X0110932Y0086318D01*
X0110983Y0086247D01*
X0111032Y0086175D01*
X0111077Y0086100D01*
X0111119Y0086023D01*
X0111158Y0085945D01*
X0111193Y0085865D01*
X0111224Y0085784D01*
X0111252Y0085701D01*
X0111277Y0085618D01*
X0111298Y0085533D01*
X0111315Y0085447D01*
X0111328Y0085361D01*
X0111337Y0085274D01*
X0111343Y0085187D01*
X0111345Y0085100D01*
X0111345Y0080100D01*
X0111343Y0080013D01*
X0111337Y0079926D01*
X0111328Y0079839D01*
X0111315Y0079753D01*
X0111298Y0079667D01*
X0111277Y0079582D01*
X0111252Y0079499D01*
X0111224Y0079416D01*
X0111193Y0079335D01*
X0111158Y0079255D01*
X0111119Y0079177D01*
X0111077Y0079100D01*
X0111032Y0079025D01*
X0110983Y0078953D01*
X0110932Y0078882D01*
X0110877Y0078814D01*
X0110820Y0078749D01*
X0110759Y0078686D01*
X0110696Y0078625D01*
X0110631Y0078568D01*
X0110563Y0078513D01*
X0110492Y0078462D01*
X0110420Y0078413D01*
X0110345Y0078368D01*
X0110268Y0078326D01*
X0110190Y0078287D01*
X0110110Y0078252D01*
X0110029Y0078221D01*
X0109946Y0078193D01*
X0109863Y0078168D01*
X0109778Y0078147D01*
X0109692Y0078130D01*
X0109606Y0078117D01*
X0109519Y0078108D01*
X0109432Y0078102D01*
X0109345Y0078100D01*
X0109345Y0076600D02*
X0109432Y0076598D01*
X0109519Y0076592D01*
X0109606Y0076583D01*
X0109692Y0076570D01*
X0109778Y0076553D01*
X0109863Y0076532D01*
X0109946Y0076507D01*
X0110029Y0076479D01*
X0110110Y0076448D01*
X0110190Y0076413D01*
X0110268Y0076374D01*
X0110345Y0076332D01*
X0110420Y0076287D01*
X0110492Y0076238D01*
X0110563Y0076187D01*
X0110631Y0076132D01*
X0110696Y0076075D01*
X0110759Y0076014D01*
X0110820Y0075951D01*
X0110877Y0075886D01*
X0110932Y0075818D01*
X0110983Y0075747D01*
X0111032Y0075675D01*
X0111077Y0075600D01*
X0111119Y0075523D01*
X0111158Y0075445D01*
X0111193Y0075365D01*
X0111224Y0075284D01*
X0111252Y0075201D01*
X0111277Y0075118D01*
X0111298Y0075033D01*
X0111315Y0074947D01*
X0111328Y0074861D01*
X0111337Y0074774D01*
X0111343Y0074687D01*
X0111345Y0074600D01*
X0111345Y0069600D01*
X0111343Y0069513D01*
X0111337Y0069426D01*
X0111328Y0069339D01*
X0111315Y0069253D01*
X0111298Y0069167D01*
X0111277Y0069082D01*
X0111252Y0068999D01*
X0111224Y0068916D01*
X0111193Y0068835D01*
X0111158Y0068755D01*
X0111119Y0068677D01*
X0111077Y0068600D01*
X0111032Y0068525D01*
X0110983Y0068453D01*
X0110932Y0068382D01*
X0110877Y0068314D01*
X0110820Y0068249D01*
X0110759Y0068186D01*
X0110696Y0068125D01*
X0110631Y0068068D01*
X0110563Y0068013D01*
X0110492Y0067962D01*
X0110420Y0067913D01*
X0110345Y0067868D01*
X0110268Y0067826D01*
X0110190Y0067787D01*
X0110110Y0067752D01*
X0110029Y0067721D01*
X0109946Y0067693D01*
X0109863Y0067668D01*
X0109778Y0067647D01*
X0109692Y0067630D01*
X0109606Y0067617D01*
X0109519Y0067608D01*
X0109432Y0067602D01*
X0109345Y0067600D01*
X0077845Y0081600D02*
X0066345Y0081600D01*
X0065345Y0080600D01*
X0065345Y0042600D01*
X0102345Y0022600D02*
X0102499Y0022598D01*
X0102653Y0022592D01*
X0102807Y0022582D01*
X0102961Y0022568D01*
X0103114Y0022551D01*
X0103266Y0022529D01*
X0103418Y0022503D01*
X0103570Y0022474D01*
X0103720Y0022440D01*
X0103870Y0022403D01*
X0104018Y0022362D01*
X0104166Y0022317D01*
X0104312Y0022268D01*
X0104457Y0022216D01*
X0104600Y0022160D01*
X0104743Y0022100D01*
X0104883Y0022037D01*
X0105022Y0021970D01*
X0105159Y0021899D01*
X0105294Y0021825D01*
X0105427Y0021748D01*
X0105559Y0021667D01*
X0105688Y0021583D01*
X0105815Y0021495D01*
X0105939Y0021404D01*
X0106061Y0021311D01*
X0106181Y0021213D01*
X0106298Y0021113D01*
X0106413Y0021010D01*
X0106525Y0020904D01*
X0106634Y0020796D01*
X0106740Y0020684D01*
X0106844Y0020570D01*
X0106944Y0020453D01*
X0107042Y0020334D01*
X0107136Y0020212D01*
X0107227Y0020087D01*
X0102345Y0010600D02*
X0102193Y0010602D01*
X0102042Y0010608D01*
X0101891Y0010617D01*
X0101739Y0010631D01*
X0101589Y0010648D01*
X0101439Y0010669D01*
X0101289Y0010694D01*
X0101140Y0010722D01*
X0100992Y0010755D01*
X0100845Y0010791D01*
X0100698Y0010830D01*
X0100553Y0010874D01*
X0100409Y0010921D01*
X0100266Y0010972D01*
X0100125Y0011026D01*
X0099984Y0011084D01*
X0099846Y0011145D01*
X0099709Y0011210D01*
X0099573Y0011279D01*
X0099440Y0011350D01*
X0099308Y0011425D01*
X0099178Y0011504D01*
X0099051Y0011585D01*
X0098925Y0011670D01*
X0098801Y0011758D01*
X0098680Y0011849D01*
X0098561Y0011943D01*
X0098445Y0012041D01*
X0098331Y0012141D01*
X0098219Y0012243D01*
X0098111Y0012349D01*
X0098005Y0012457D01*
X0097901Y0012568D01*
X0097801Y0012682D01*
X0097703Y0012798D01*
X0097609Y0012917D01*
X0102345Y0010600D02*
X0102497Y0010602D01*
X0102648Y0010608D01*
X0102799Y0010617D01*
X0102951Y0010631D01*
X0103101Y0010648D01*
X0103251Y0010669D01*
X0103401Y0010694D01*
X0103550Y0010722D01*
X0103698Y0010755D01*
X0103845Y0010791D01*
X0103992Y0010830D01*
X0104137Y0010874D01*
X0104281Y0010921D01*
X0104424Y0010972D01*
X0104565Y0011026D01*
X0104706Y0011084D01*
X0104844Y0011145D01*
X0104981Y0011210D01*
X0105117Y0011279D01*
X0105250Y0011350D01*
X0105382Y0011425D01*
X0105512Y0011504D01*
X0105639Y0011585D01*
X0105765Y0011670D01*
X0105889Y0011758D01*
X0106010Y0011849D01*
X0106129Y0011943D01*
X0106245Y0012041D01*
X0106359Y0012141D01*
X0106471Y0012243D01*
X0106579Y0012349D01*
X0106685Y0012457D01*
X0106789Y0012568D01*
X0106889Y0012682D01*
X0106987Y0012798D01*
X0107081Y0012917D01*
X0102345Y0022600D02*
X0102195Y0022598D01*
X0102044Y0022592D01*
X0101894Y0022583D01*
X0101745Y0022570D01*
X0101595Y0022553D01*
X0101446Y0022532D01*
X0101298Y0022508D01*
X0101150Y0022480D01*
X0101003Y0022448D01*
X0100857Y0022413D01*
X0100712Y0022373D01*
X0100568Y0022331D01*
X0100425Y0022284D01*
X0100283Y0022234D01*
X0100142Y0022181D01*
X0100003Y0022124D01*
X0099865Y0022064D01*
X0099729Y0022000D01*
X0099595Y0021933D01*
X0099462Y0021862D01*
X0099331Y0021788D01*
X0099202Y0021711D01*
X0099075Y0021630D01*
X0098950Y0021547D01*
X0098827Y0021460D01*
X0098706Y0021371D01*
X0098588Y0021278D01*
X0098472Y0021182D01*
X0098358Y0021084D01*
X0098247Y0020983D01*
X0098138Y0020878D01*
X0098033Y0020772D01*
X0097929Y0020662D01*
X0097829Y0020550D01*
X0097731Y0020436D01*
X0097637Y0020319D01*
X0097545Y0020200D01*
X0117345Y0014100D02*
X0119845Y0016600D01*
X0124845Y0016600D01*
X0127345Y0014100D01*
X0129845Y0016600D01*
X0134845Y0016600D01*
X0137345Y0014100D01*
X0137345Y0009100D01*
X0134845Y0006600D01*
X0129845Y0006600D01*
X0127345Y0009100D01*
X0124845Y0006600D01*
X0119845Y0006600D01*
X0117345Y0009100D01*
X0117345Y0014100D01*
X0127345Y0014100D02*
X0127345Y0009100D01*
X0137345Y0009100D02*
X0139845Y0006600D01*
X0144845Y0006600D01*
X0147345Y0009100D01*
X0149845Y0006600D01*
X0154845Y0006600D01*
X0157345Y0009100D01*
X0159845Y0006600D01*
X0164845Y0006600D01*
X0167345Y0009100D01*
X0167345Y0014100D01*
X0164845Y0016600D01*
X0159845Y0016600D01*
X0157345Y0014100D01*
X0157345Y0009100D01*
X0167345Y0009100D02*
X0169845Y0006600D01*
X0174845Y0006600D01*
X0177345Y0009100D01*
X0179845Y0006600D01*
X0184845Y0006600D01*
X0187345Y0009100D01*
X0189845Y0006600D01*
X0194845Y0006600D01*
X0197345Y0009100D01*
X0197345Y0014100D01*
X0194845Y0016600D01*
X0189845Y0016600D01*
X0187345Y0014100D01*
X0187345Y0009100D01*
X0177345Y0009100D02*
X0177345Y0014100D01*
X0179845Y0016600D01*
X0184845Y0016600D01*
X0187345Y0014100D01*
X0177345Y0014100D02*
X0174845Y0016600D01*
X0169845Y0016600D01*
X0167345Y0014100D01*
X0157345Y0014100D02*
X0154845Y0016600D01*
X0149845Y0016600D01*
X0147345Y0014100D01*
X0147345Y0009100D01*
X0147345Y0014100D02*
X0144845Y0016600D01*
X0139845Y0016600D01*
X0137345Y0014100D01*
X0197345Y0014100D02*
X0199845Y0016600D01*
X0204845Y0016600D01*
X0207345Y0014100D01*
X0209845Y0016600D01*
X0214845Y0016600D01*
X0217345Y0014100D01*
X0217345Y0009100D01*
X0214845Y0006600D01*
X0209845Y0006600D01*
X0207345Y0009100D01*
X0204845Y0006600D01*
X0199845Y0006600D01*
X0197345Y0009100D01*
X0207345Y0009100D02*
X0207345Y0014100D01*
X0180463Y0053900D02*
X0180107Y0053900D01*
X0180043Y0053902D01*
X0179978Y0053908D01*
X0179915Y0053917D01*
X0179852Y0053931D01*
X0179790Y0053948D01*
X0179729Y0053969D01*
X0179669Y0053994D01*
X0179611Y0054022D01*
X0179555Y0054054D01*
X0179501Y0054089D01*
X0179449Y0054127D01*
X0179399Y0054168D01*
X0179353Y0054213D01*
X0179308Y0054259D01*
X0179267Y0054309D01*
X0179229Y0054361D01*
X0179194Y0054415D01*
X0179162Y0054471D01*
X0179134Y0054529D01*
X0179109Y0054589D01*
X0179088Y0054650D01*
X0179071Y0054712D01*
X0179057Y0054775D01*
X0179048Y0054838D01*
X0179042Y0054903D01*
X0179040Y0054967D01*
X0179845Y0086600D02*
X0184845Y0086600D01*
X0187345Y0089100D01*
X0189845Y0086600D01*
X0194845Y0086600D01*
X0197345Y0089100D01*
X0197345Y0094100D01*
X0194845Y0096600D01*
X0189845Y0096600D01*
X0187345Y0094100D01*
X0187345Y0089100D01*
X0179845Y0086600D02*
X0177345Y0089100D01*
X0174845Y0086600D01*
X0169845Y0086600D01*
X0167345Y0089100D01*
X0164845Y0086600D01*
X0159845Y0086600D01*
X0157345Y0089100D01*
X0154845Y0086600D01*
X0149845Y0086600D01*
X0147345Y0089100D01*
X0144845Y0086600D01*
X0139845Y0086600D01*
X0137345Y0089100D01*
X0134845Y0086600D01*
X0129845Y0086600D01*
X0127345Y0089100D01*
X0124845Y0086600D01*
X0119845Y0086600D01*
X0117345Y0089100D01*
X0117345Y0094100D01*
X0119845Y0096600D01*
X0124845Y0096600D01*
X0127345Y0094100D01*
X0129845Y0096600D01*
X0134845Y0096600D01*
X0137345Y0094100D01*
X0137345Y0089100D01*
X0147345Y0089100D02*
X0147345Y0094100D01*
X0149845Y0096600D01*
X0154845Y0096600D01*
X0157345Y0094100D01*
X0159845Y0096600D01*
X0164845Y0096600D01*
X0167345Y0094100D01*
X0167345Y0089100D01*
X0157345Y0089100D02*
X0157345Y0094100D01*
X0167345Y0094100D02*
X0169845Y0096600D01*
X0174845Y0096600D01*
X0177345Y0094100D01*
X0179845Y0096600D01*
X0184845Y0096600D01*
X0187345Y0094100D01*
X0177345Y0094100D02*
X0177345Y0089100D01*
X0197345Y0089100D02*
X0199845Y0086600D01*
X0204845Y0086600D01*
X0207345Y0089100D01*
X0209845Y0086600D01*
X0214845Y0086600D01*
X0217345Y0089100D01*
X0217345Y0094100D01*
X0214845Y0096600D01*
X0209845Y0096600D01*
X0207345Y0094100D01*
X0207345Y0089100D01*
X0207345Y0094100D02*
X0204845Y0096600D01*
X0199845Y0096600D01*
X0197345Y0094100D01*
X0147345Y0094100D02*
X0144845Y0096600D01*
X0139845Y0096600D01*
X0137345Y0094100D01*
X0127345Y0094100D02*
X0127345Y0089100D01*
X0092345Y0089100D02*
X0089845Y0086600D01*
X0084845Y0086600D01*
X0082345Y0089100D01*
X0079845Y0086600D01*
X0074845Y0086600D01*
X0072345Y0089100D01*
X0069845Y0086600D01*
X0064845Y0086600D01*
X0062345Y0089100D01*
X0059845Y0086600D01*
X0054845Y0086600D01*
X0052345Y0089100D01*
X0049845Y0086600D01*
X0044845Y0086600D01*
X0042345Y0089100D01*
X0039845Y0086600D01*
X0034845Y0086600D01*
X0032345Y0089100D01*
X0032345Y0094100D01*
X0034845Y0096600D01*
X0039845Y0096600D01*
X0042345Y0094100D01*
X0044845Y0096600D01*
X0049845Y0096600D01*
X0052345Y0094100D01*
X0052345Y0089100D01*
X0062345Y0089100D02*
X0062345Y0094100D01*
X0064845Y0096600D01*
X0069845Y0096600D01*
X0072345Y0094100D01*
X0074845Y0096600D01*
X0079845Y0096600D01*
X0082345Y0094100D01*
X0084845Y0096600D01*
X0089845Y0096600D01*
X0092345Y0094100D01*
X0092345Y0089100D01*
X0082345Y0089100D02*
X0082345Y0094100D01*
X0072345Y0094100D02*
X0072345Y0089100D01*
X0062345Y0094100D02*
X0059845Y0096600D01*
X0054845Y0096600D01*
X0052345Y0094100D01*
X0042345Y0094100D02*
X0042345Y0089100D01*
D11*
X0030195Y0088626D02*
X0027728Y0088626D01*
X0026700Y0088729D02*
X0026700Y0088523D01*
X0026495Y0088523D01*
X0026495Y0088729D01*
X0026700Y0088729D01*
X0027728Y0090204D02*
X0027728Y0091232D01*
X0027730Y0091280D01*
X0027736Y0091329D01*
X0027745Y0091376D01*
X0027758Y0091423D01*
X0027775Y0091468D01*
X0027795Y0091512D01*
X0027819Y0091554D01*
X0027846Y0091595D01*
X0027876Y0091633D01*
X0027909Y0091668D01*
X0027944Y0091701D01*
X0027982Y0091731D01*
X0028023Y0091758D01*
X0028065Y0091782D01*
X0028109Y0091802D01*
X0028154Y0091819D01*
X0028201Y0091832D01*
X0028248Y0091841D01*
X0028297Y0091847D01*
X0028345Y0091849D01*
X0028345Y0091848D02*
X0030195Y0091848D01*
X0030195Y0090204D02*
X0027728Y0090204D01*
X0028551Y0086278D02*
X0028549Y0086341D01*
X0028543Y0086404D01*
X0028533Y0086467D01*
X0028520Y0086529D01*
X0028503Y0086590D01*
X0028482Y0086649D01*
X0028457Y0086708D01*
X0028429Y0086764D01*
X0028397Y0086819D01*
X0028362Y0086872D01*
X0028324Y0086922D01*
X0028283Y0086971D01*
X0028239Y0087016D01*
X0028192Y0087059D01*
X0028143Y0087098D01*
X0028091Y0087135D01*
X0028037Y0087168D01*
X0027981Y0087198D01*
X0027924Y0087225D01*
X0027865Y0087248D01*
X0027804Y0087267D01*
X0027743Y0087282D01*
X0027681Y0087294D01*
X0027618Y0087302D01*
X0027555Y0087306D01*
X0027491Y0087306D01*
X0027428Y0087302D01*
X0027365Y0087294D01*
X0027303Y0087282D01*
X0027242Y0087267D01*
X0027181Y0087248D01*
X0027122Y0087225D01*
X0027065Y0087198D01*
X0027009Y0087168D01*
X0026955Y0087135D01*
X0026903Y0087098D01*
X0026854Y0087059D01*
X0026807Y0087016D01*
X0026763Y0086971D01*
X0026722Y0086922D01*
X0026684Y0086872D01*
X0026649Y0086819D01*
X0026617Y0086764D01*
X0026589Y0086708D01*
X0026564Y0086649D01*
X0026543Y0086590D01*
X0026526Y0086529D01*
X0026513Y0086467D01*
X0026503Y0086404D01*
X0026497Y0086341D01*
X0026495Y0086278D01*
X0026495Y0085250D01*
X0030195Y0085250D01*
X0028550Y0085250D02*
X0028550Y0086278D01*
X0027317Y0095398D02*
X0026495Y0096426D01*
X0030195Y0096426D01*
X0030195Y0095398D02*
X0030195Y0097454D01*
X0089845Y0058071D02*
X0091695Y0058071D01*
X0091695Y0056838D02*
X0089228Y0056838D01*
X0089228Y0057454D02*
X0089228Y0055604D01*
X0091695Y0055604D01*
X0091695Y0053820D02*
X0089845Y0053820D01*
X0089797Y0053818D01*
X0089748Y0053812D01*
X0089701Y0053803D01*
X0089654Y0053790D01*
X0089609Y0053773D01*
X0089565Y0053753D01*
X0089523Y0053729D01*
X0089482Y0053702D01*
X0089444Y0053672D01*
X0089409Y0053639D01*
X0089376Y0053604D01*
X0089346Y0053566D01*
X0089319Y0053525D01*
X0089295Y0053483D01*
X0089275Y0053439D01*
X0089258Y0053394D01*
X0089245Y0053347D01*
X0089236Y0053300D01*
X0089230Y0053251D01*
X0089228Y0053203D01*
X0089228Y0052175D01*
X0087995Y0052175D02*
X0091695Y0052175D01*
X0090873Y0050580D02*
X0090050Y0050580D01*
X0089994Y0050578D01*
X0089938Y0050572D01*
X0089883Y0050563D01*
X0089828Y0050550D01*
X0089775Y0050533D01*
X0089723Y0050512D01*
X0089672Y0050488D01*
X0089623Y0050460D01*
X0089576Y0050430D01*
X0089531Y0050396D01*
X0089489Y0050359D01*
X0089449Y0050319D01*
X0089412Y0050277D01*
X0089378Y0050232D01*
X0089348Y0050185D01*
X0089320Y0050136D01*
X0089296Y0050085D01*
X0089275Y0050033D01*
X0089258Y0049980D01*
X0089245Y0049925D01*
X0089236Y0049870D01*
X0089230Y0049814D01*
X0089228Y0049758D01*
X0089230Y0049702D01*
X0089236Y0049646D01*
X0089245Y0049591D01*
X0089258Y0049536D01*
X0089275Y0049483D01*
X0089296Y0049431D01*
X0089320Y0049380D01*
X0089348Y0049331D01*
X0089378Y0049284D01*
X0089412Y0049239D01*
X0089449Y0049197D01*
X0089489Y0049157D01*
X0089531Y0049120D01*
X0089576Y0049086D01*
X0089623Y0049056D01*
X0089672Y0049028D01*
X0089723Y0049004D01*
X0089775Y0048983D01*
X0089828Y0048966D01*
X0089883Y0048953D01*
X0089938Y0048944D01*
X0089994Y0048938D01*
X0090050Y0048936D01*
X0090050Y0048935D02*
X0090873Y0048935D01*
X0090873Y0048936D02*
X0090929Y0048938D01*
X0090985Y0048944D01*
X0091040Y0048953D01*
X0091095Y0048966D01*
X0091148Y0048983D01*
X0091200Y0049004D01*
X0091251Y0049028D01*
X0091300Y0049056D01*
X0091347Y0049086D01*
X0091392Y0049120D01*
X0091434Y0049157D01*
X0091474Y0049197D01*
X0091511Y0049239D01*
X0091545Y0049284D01*
X0091575Y0049331D01*
X0091603Y0049380D01*
X0091627Y0049431D01*
X0091648Y0049483D01*
X0091665Y0049536D01*
X0091678Y0049591D01*
X0091687Y0049646D01*
X0091693Y0049702D01*
X0091695Y0049758D01*
X0091693Y0049814D01*
X0091687Y0049870D01*
X0091678Y0049925D01*
X0091665Y0049980D01*
X0091648Y0050033D01*
X0091627Y0050085D01*
X0091603Y0050136D01*
X0091575Y0050185D01*
X0091545Y0050232D01*
X0091511Y0050277D01*
X0091474Y0050319D01*
X0091434Y0050359D01*
X0091392Y0050396D01*
X0091347Y0050430D01*
X0091300Y0050460D01*
X0091251Y0050488D01*
X0091200Y0050512D01*
X0091148Y0050533D01*
X0091095Y0050550D01*
X0091040Y0050563D01*
X0090985Y0050572D01*
X0090929Y0050578D01*
X0090873Y0050580D01*
X0091181Y0043758D02*
X0091085Y0043713D01*
X0090987Y0043672D01*
X0090887Y0043634D01*
X0090787Y0043599D01*
X0090685Y0043568D01*
X0090582Y0043540D01*
X0090479Y0043517D01*
X0090374Y0043496D01*
X0090269Y0043480D01*
X0090164Y0043467D01*
X0090058Y0043457D01*
X0089951Y0043452D01*
X0089845Y0043450D01*
X0089845Y0045505D02*
X0089739Y0045503D01*
X0089632Y0045498D01*
X0089526Y0045488D01*
X0089421Y0045475D01*
X0089316Y0045459D01*
X0089211Y0045438D01*
X0089108Y0045415D01*
X0089005Y0045387D01*
X0088903Y0045356D01*
X0088803Y0045321D01*
X0088703Y0045283D01*
X0088605Y0045242D01*
X0088509Y0045197D01*
X0088817Y0045300D02*
X0090873Y0043656D01*
X0091695Y0044478D02*
X0091693Y0044530D01*
X0091688Y0044583D01*
X0091679Y0044634D01*
X0091666Y0044685D01*
X0091650Y0044735D01*
X0091631Y0044784D01*
X0091608Y0044831D01*
X0091582Y0044877D01*
X0091553Y0044920D01*
X0091521Y0044962D01*
X0091487Y0045001D01*
X0091449Y0045038D01*
X0091409Y0045072D01*
X0091367Y0045104D01*
X0091323Y0045132D01*
X0091277Y0045157D01*
X0091230Y0045179D01*
X0091181Y0045198D01*
X0091695Y0044478D02*
X0091693Y0044426D01*
X0091688Y0044373D01*
X0091679Y0044322D01*
X0091666Y0044271D01*
X0091650Y0044221D01*
X0091631Y0044172D01*
X0091608Y0044125D01*
X0091582Y0044079D01*
X0091553Y0044036D01*
X0091521Y0043994D01*
X0091487Y0043955D01*
X0091449Y0043918D01*
X0091409Y0043884D01*
X0091367Y0043852D01*
X0091323Y0043824D01*
X0091277Y0043799D01*
X0091230Y0043777D01*
X0091181Y0043758D01*
X0091181Y0045197D02*
X0091085Y0045242D01*
X0090987Y0045283D01*
X0090887Y0045321D01*
X0090787Y0045356D01*
X0090685Y0045387D01*
X0090582Y0045415D01*
X0090479Y0045438D01*
X0090374Y0045459D01*
X0090269Y0045475D01*
X0090164Y0045488D01*
X0090058Y0045498D01*
X0089951Y0045503D01*
X0089845Y0045505D01*
X0089845Y0043450D02*
X0089739Y0043452D01*
X0089632Y0043457D01*
X0089526Y0043467D01*
X0089421Y0043480D01*
X0089316Y0043496D01*
X0089211Y0043517D01*
X0089108Y0043540D01*
X0089005Y0043568D01*
X0088903Y0043599D01*
X0088803Y0043634D01*
X0088703Y0043672D01*
X0088605Y0043713D01*
X0088509Y0043758D01*
X0087994Y0044478D02*
X0087996Y0044530D01*
X0088001Y0044583D01*
X0088010Y0044634D01*
X0088023Y0044685D01*
X0088039Y0044735D01*
X0088058Y0044784D01*
X0088081Y0044831D01*
X0088107Y0044877D01*
X0088136Y0044920D01*
X0088168Y0044962D01*
X0088202Y0045001D01*
X0088240Y0045038D01*
X0088280Y0045072D01*
X0088322Y0045104D01*
X0088366Y0045132D01*
X0088412Y0045157D01*
X0088459Y0045179D01*
X0088508Y0045198D01*
X0087994Y0044478D02*
X0087996Y0044426D01*
X0088001Y0044373D01*
X0088010Y0044322D01*
X0088023Y0044271D01*
X0088039Y0044221D01*
X0088058Y0044172D01*
X0088081Y0044125D01*
X0088107Y0044079D01*
X0088136Y0044036D01*
X0088168Y0043994D01*
X0088202Y0043955D01*
X0088240Y0043918D01*
X0088280Y0043884D01*
X0088322Y0043852D01*
X0088366Y0043824D01*
X0088412Y0043799D01*
X0088459Y0043777D01*
X0088508Y0043758D01*
X0087995Y0041083D02*
X0087997Y0041139D01*
X0088003Y0041195D01*
X0088012Y0041250D01*
X0088025Y0041305D01*
X0088042Y0041358D01*
X0088063Y0041410D01*
X0088087Y0041461D01*
X0088115Y0041510D01*
X0088145Y0041557D01*
X0088179Y0041602D01*
X0088216Y0041644D01*
X0088256Y0041684D01*
X0088298Y0041721D01*
X0088343Y0041755D01*
X0088390Y0041785D01*
X0088439Y0041813D01*
X0088490Y0041837D01*
X0088542Y0041858D01*
X0088595Y0041875D01*
X0088650Y0041888D01*
X0088705Y0041897D01*
X0088761Y0041903D01*
X0088817Y0041905D01*
X0088873Y0041903D01*
X0088929Y0041897D01*
X0088984Y0041888D01*
X0089039Y0041875D01*
X0089092Y0041858D01*
X0089144Y0041837D01*
X0089195Y0041813D01*
X0089244Y0041785D01*
X0089291Y0041755D01*
X0089336Y0041721D01*
X0089378Y0041684D01*
X0089418Y0041644D01*
X0089455Y0041602D01*
X0089489Y0041557D01*
X0089519Y0041510D01*
X0089547Y0041461D01*
X0089571Y0041410D01*
X0089592Y0041358D01*
X0089609Y0041305D01*
X0089622Y0041250D01*
X0089631Y0041195D01*
X0089637Y0041139D01*
X0089639Y0041083D01*
X0089639Y0040261D01*
X0089639Y0040878D02*
X0089641Y0040941D01*
X0089647Y0041004D01*
X0089657Y0041067D01*
X0089670Y0041129D01*
X0089687Y0041190D01*
X0089708Y0041249D01*
X0089733Y0041308D01*
X0089761Y0041364D01*
X0089793Y0041419D01*
X0089828Y0041472D01*
X0089866Y0041522D01*
X0089907Y0041571D01*
X0089951Y0041616D01*
X0089998Y0041659D01*
X0090047Y0041698D01*
X0090099Y0041735D01*
X0090153Y0041768D01*
X0090209Y0041798D01*
X0090266Y0041825D01*
X0090325Y0041848D01*
X0090386Y0041867D01*
X0090447Y0041882D01*
X0090509Y0041894D01*
X0090572Y0041902D01*
X0090635Y0041906D01*
X0090699Y0041906D01*
X0090762Y0041902D01*
X0090825Y0041894D01*
X0090887Y0041882D01*
X0090948Y0041867D01*
X0091009Y0041848D01*
X0091068Y0041825D01*
X0091125Y0041798D01*
X0091181Y0041768D01*
X0091235Y0041735D01*
X0091287Y0041698D01*
X0091336Y0041659D01*
X0091383Y0041616D01*
X0091427Y0041571D01*
X0091468Y0041522D01*
X0091506Y0041472D01*
X0091541Y0041419D01*
X0091573Y0041364D01*
X0091601Y0041308D01*
X0091626Y0041249D01*
X0091647Y0041190D01*
X0091664Y0041129D01*
X0091677Y0041067D01*
X0091687Y0041004D01*
X0091693Y0040941D01*
X0091695Y0040878D01*
X0091695Y0039850D01*
X0087995Y0039850D02*
X0087995Y0041083D01*
X0087995Y0037483D02*
X0087995Y0036250D01*
X0087995Y0037483D02*
X0087997Y0037539D01*
X0088003Y0037595D01*
X0088012Y0037650D01*
X0088025Y0037705D01*
X0088042Y0037758D01*
X0088063Y0037810D01*
X0088087Y0037861D01*
X0088115Y0037910D01*
X0088145Y0037957D01*
X0088179Y0038002D01*
X0088216Y0038044D01*
X0088256Y0038084D01*
X0088298Y0038121D01*
X0088343Y0038155D01*
X0088390Y0038185D01*
X0088439Y0038213D01*
X0088490Y0038237D01*
X0088542Y0038258D01*
X0088595Y0038275D01*
X0088650Y0038288D01*
X0088705Y0038297D01*
X0088761Y0038303D01*
X0088817Y0038305D01*
X0088873Y0038303D01*
X0088929Y0038297D01*
X0088984Y0038288D01*
X0089039Y0038275D01*
X0089092Y0038258D01*
X0089144Y0038237D01*
X0089195Y0038213D01*
X0089244Y0038185D01*
X0089291Y0038155D01*
X0089336Y0038121D01*
X0089378Y0038084D01*
X0089418Y0038044D01*
X0089455Y0038002D01*
X0089489Y0037957D01*
X0089519Y0037910D01*
X0089547Y0037861D01*
X0089571Y0037810D01*
X0089592Y0037758D01*
X0089609Y0037705D01*
X0089622Y0037650D01*
X0089631Y0037595D01*
X0089637Y0037539D01*
X0089639Y0037483D01*
X0089639Y0036661D01*
X0089639Y0037278D02*
X0089641Y0037341D01*
X0089647Y0037404D01*
X0089657Y0037467D01*
X0089670Y0037529D01*
X0089687Y0037590D01*
X0089708Y0037649D01*
X0089733Y0037708D01*
X0089761Y0037764D01*
X0089793Y0037819D01*
X0089828Y0037872D01*
X0089866Y0037922D01*
X0089907Y0037971D01*
X0089951Y0038016D01*
X0089998Y0038059D01*
X0090047Y0038098D01*
X0090099Y0038135D01*
X0090153Y0038168D01*
X0090209Y0038198D01*
X0090266Y0038225D01*
X0090325Y0038248D01*
X0090386Y0038267D01*
X0090447Y0038282D01*
X0090509Y0038294D01*
X0090572Y0038302D01*
X0090635Y0038306D01*
X0090699Y0038306D01*
X0090762Y0038302D01*
X0090825Y0038294D01*
X0090887Y0038282D01*
X0090948Y0038267D01*
X0091009Y0038248D01*
X0091068Y0038225D01*
X0091125Y0038198D01*
X0091181Y0038168D01*
X0091235Y0038135D01*
X0091287Y0038098D01*
X0091336Y0038059D01*
X0091383Y0038016D01*
X0091427Y0037971D01*
X0091468Y0037922D01*
X0091506Y0037872D01*
X0091541Y0037819D01*
X0091573Y0037764D01*
X0091601Y0037708D01*
X0091626Y0037649D01*
X0091647Y0037590D01*
X0091664Y0037529D01*
X0091677Y0037467D01*
X0091687Y0037404D01*
X0091693Y0037341D01*
X0091695Y0037278D01*
X0091695Y0036250D01*
X0099995Y0037278D02*
X0103695Y0037278D01*
X0103695Y0036250D02*
X0103695Y0038306D01*
X0103181Y0041597D02*
X0103085Y0041642D01*
X0102987Y0041683D01*
X0102887Y0041721D01*
X0102787Y0041756D01*
X0102685Y0041787D01*
X0102582Y0041815D01*
X0102479Y0041838D01*
X0102374Y0041859D01*
X0102269Y0041875D01*
X0102164Y0041888D01*
X0102058Y0041898D01*
X0101951Y0041903D01*
X0101845Y0041905D01*
X0101845Y0039850D02*
X0101739Y0039852D01*
X0101632Y0039857D01*
X0101526Y0039867D01*
X0101421Y0039880D01*
X0101316Y0039896D01*
X0101211Y0039917D01*
X0101108Y0039940D01*
X0101005Y0039968D01*
X0100903Y0039999D01*
X0100803Y0040034D01*
X0100703Y0040072D01*
X0100605Y0040113D01*
X0100509Y0040158D01*
X0099994Y0040878D02*
X0099996Y0040930D01*
X0100001Y0040983D01*
X0100010Y0041034D01*
X0100023Y0041085D01*
X0100039Y0041135D01*
X0100058Y0041184D01*
X0100081Y0041231D01*
X0100107Y0041277D01*
X0100136Y0041320D01*
X0100168Y0041362D01*
X0100202Y0041401D01*
X0100240Y0041438D01*
X0100280Y0041472D01*
X0100322Y0041504D01*
X0100366Y0041532D01*
X0100412Y0041557D01*
X0100459Y0041579D01*
X0100508Y0041598D01*
X0100817Y0041700D02*
X0102873Y0040056D01*
X0103695Y0040878D02*
X0103693Y0040930D01*
X0103688Y0040983D01*
X0103679Y0041034D01*
X0103666Y0041085D01*
X0103650Y0041135D01*
X0103631Y0041184D01*
X0103608Y0041231D01*
X0103582Y0041277D01*
X0103553Y0041320D01*
X0103521Y0041362D01*
X0103487Y0041401D01*
X0103449Y0041438D01*
X0103409Y0041472D01*
X0103367Y0041504D01*
X0103323Y0041532D01*
X0103277Y0041557D01*
X0103230Y0041579D01*
X0103181Y0041598D01*
X0103695Y0040878D02*
X0103693Y0040826D01*
X0103688Y0040773D01*
X0103679Y0040722D01*
X0103666Y0040671D01*
X0103650Y0040621D01*
X0103631Y0040572D01*
X0103608Y0040525D01*
X0103582Y0040479D01*
X0103553Y0040436D01*
X0103521Y0040394D01*
X0103487Y0040355D01*
X0103449Y0040318D01*
X0103409Y0040284D01*
X0103367Y0040252D01*
X0103323Y0040224D01*
X0103277Y0040199D01*
X0103230Y0040177D01*
X0103181Y0040158D01*
X0101845Y0041905D02*
X0101739Y0041903D01*
X0101632Y0041898D01*
X0101526Y0041888D01*
X0101421Y0041875D01*
X0101316Y0041859D01*
X0101211Y0041838D01*
X0101108Y0041815D01*
X0101005Y0041787D01*
X0100903Y0041756D01*
X0100803Y0041721D01*
X0100703Y0041683D01*
X0100605Y0041642D01*
X0100509Y0041597D01*
X0099994Y0040878D02*
X0099996Y0040826D01*
X0100001Y0040773D01*
X0100010Y0040722D01*
X0100023Y0040671D01*
X0100039Y0040621D01*
X0100058Y0040572D01*
X0100081Y0040525D01*
X0100107Y0040479D01*
X0100136Y0040436D01*
X0100168Y0040394D01*
X0100202Y0040355D01*
X0100240Y0040318D01*
X0100280Y0040284D01*
X0100322Y0040252D01*
X0100366Y0040224D01*
X0100412Y0040199D01*
X0100459Y0040177D01*
X0100508Y0040158D01*
X0099995Y0037278D02*
X0100817Y0036250D01*
X0111995Y0036250D02*
X0111995Y0037483D01*
X0111997Y0037539D01*
X0112003Y0037595D01*
X0112012Y0037650D01*
X0112025Y0037705D01*
X0112042Y0037758D01*
X0112063Y0037810D01*
X0112087Y0037861D01*
X0112115Y0037910D01*
X0112145Y0037957D01*
X0112179Y0038002D01*
X0112216Y0038044D01*
X0112256Y0038084D01*
X0112298Y0038121D01*
X0112343Y0038155D01*
X0112390Y0038185D01*
X0112439Y0038213D01*
X0112490Y0038237D01*
X0112542Y0038258D01*
X0112595Y0038275D01*
X0112650Y0038288D01*
X0112705Y0038297D01*
X0112761Y0038303D01*
X0112817Y0038305D01*
X0112873Y0038303D01*
X0112929Y0038297D01*
X0112984Y0038288D01*
X0113039Y0038275D01*
X0113092Y0038258D01*
X0113144Y0038237D01*
X0113195Y0038213D01*
X0113244Y0038185D01*
X0113291Y0038155D01*
X0113336Y0038121D01*
X0113378Y0038084D01*
X0113418Y0038044D01*
X0113455Y0038002D01*
X0113489Y0037957D01*
X0113519Y0037910D01*
X0113547Y0037861D01*
X0113571Y0037810D01*
X0113592Y0037758D01*
X0113609Y0037705D01*
X0113622Y0037650D01*
X0113631Y0037595D01*
X0113637Y0037539D01*
X0113639Y0037483D01*
X0113639Y0036661D01*
X0113639Y0037278D02*
X0113641Y0037341D01*
X0113647Y0037404D01*
X0113657Y0037467D01*
X0113670Y0037529D01*
X0113687Y0037590D01*
X0113708Y0037649D01*
X0113733Y0037708D01*
X0113761Y0037764D01*
X0113793Y0037819D01*
X0113828Y0037872D01*
X0113866Y0037922D01*
X0113907Y0037971D01*
X0113951Y0038016D01*
X0113998Y0038059D01*
X0114047Y0038098D01*
X0114099Y0038135D01*
X0114153Y0038168D01*
X0114209Y0038198D01*
X0114266Y0038225D01*
X0114325Y0038248D01*
X0114386Y0038267D01*
X0114447Y0038282D01*
X0114509Y0038294D01*
X0114572Y0038302D01*
X0114635Y0038306D01*
X0114699Y0038306D01*
X0114762Y0038302D01*
X0114825Y0038294D01*
X0114887Y0038282D01*
X0114948Y0038267D01*
X0115009Y0038248D01*
X0115068Y0038225D01*
X0115125Y0038198D01*
X0115181Y0038168D01*
X0115235Y0038135D01*
X0115287Y0038098D01*
X0115336Y0038059D01*
X0115383Y0038016D01*
X0115427Y0037971D01*
X0115468Y0037922D01*
X0115506Y0037872D01*
X0115541Y0037819D01*
X0115573Y0037764D01*
X0115601Y0037708D01*
X0115626Y0037649D01*
X0115647Y0037590D01*
X0115664Y0037529D01*
X0115677Y0037467D01*
X0115687Y0037404D01*
X0115693Y0037341D01*
X0115695Y0037278D01*
X0115695Y0036250D01*
X0115695Y0039850D02*
X0115695Y0040878D01*
X0115693Y0040941D01*
X0115687Y0041004D01*
X0115677Y0041067D01*
X0115664Y0041129D01*
X0115647Y0041190D01*
X0115626Y0041249D01*
X0115601Y0041308D01*
X0115573Y0041364D01*
X0115541Y0041419D01*
X0115506Y0041472D01*
X0115468Y0041522D01*
X0115427Y0041571D01*
X0115383Y0041616D01*
X0115336Y0041659D01*
X0115287Y0041698D01*
X0115235Y0041735D01*
X0115181Y0041768D01*
X0115125Y0041798D01*
X0115068Y0041825D01*
X0115009Y0041848D01*
X0114948Y0041867D01*
X0114887Y0041882D01*
X0114825Y0041894D01*
X0114762Y0041902D01*
X0114699Y0041906D01*
X0114635Y0041906D01*
X0114572Y0041902D01*
X0114509Y0041894D01*
X0114447Y0041882D01*
X0114386Y0041867D01*
X0114325Y0041848D01*
X0114266Y0041825D01*
X0114209Y0041798D01*
X0114153Y0041768D01*
X0114099Y0041735D01*
X0114047Y0041698D01*
X0113998Y0041659D01*
X0113951Y0041616D01*
X0113907Y0041571D01*
X0113866Y0041522D01*
X0113828Y0041472D01*
X0113793Y0041419D01*
X0113761Y0041364D01*
X0113733Y0041308D01*
X0113708Y0041249D01*
X0113687Y0041190D01*
X0113670Y0041129D01*
X0113657Y0041067D01*
X0113647Y0041004D01*
X0113641Y0040941D01*
X0113639Y0040878D01*
X0113639Y0041083D02*
X0113639Y0040261D01*
X0113639Y0041083D02*
X0113637Y0041139D01*
X0113631Y0041195D01*
X0113622Y0041250D01*
X0113609Y0041305D01*
X0113592Y0041358D01*
X0113571Y0041410D01*
X0113547Y0041461D01*
X0113519Y0041510D01*
X0113489Y0041557D01*
X0113455Y0041602D01*
X0113418Y0041644D01*
X0113378Y0041684D01*
X0113336Y0041721D01*
X0113291Y0041755D01*
X0113244Y0041785D01*
X0113195Y0041813D01*
X0113144Y0041837D01*
X0113092Y0041858D01*
X0113039Y0041875D01*
X0112984Y0041888D01*
X0112929Y0041897D01*
X0112873Y0041903D01*
X0112817Y0041905D01*
X0112761Y0041903D01*
X0112705Y0041897D01*
X0112650Y0041888D01*
X0112595Y0041875D01*
X0112542Y0041858D01*
X0112490Y0041837D01*
X0112439Y0041813D01*
X0112390Y0041785D01*
X0112343Y0041755D01*
X0112298Y0041721D01*
X0112256Y0041684D01*
X0112216Y0041644D01*
X0112179Y0041602D01*
X0112145Y0041557D01*
X0112115Y0041510D01*
X0112087Y0041461D01*
X0112063Y0041410D01*
X0112042Y0041358D01*
X0112025Y0041305D01*
X0112012Y0041250D01*
X0112003Y0041195D01*
X0111997Y0041139D01*
X0111995Y0041083D01*
X0111995Y0039850D01*
X0113845Y0045505D02*
X0113951Y0045503D01*
X0114058Y0045498D01*
X0114164Y0045488D01*
X0114269Y0045475D01*
X0114374Y0045459D01*
X0114479Y0045438D01*
X0114582Y0045415D01*
X0114685Y0045387D01*
X0114787Y0045356D01*
X0114887Y0045321D01*
X0114987Y0045283D01*
X0115085Y0045242D01*
X0115181Y0045197D01*
X0115181Y0045198D02*
X0115230Y0045179D01*
X0115277Y0045157D01*
X0115323Y0045132D01*
X0115367Y0045104D01*
X0115409Y0045072D01*
X0115449Y0045038D01*
X0115487Y0045001D01*
X0115521Y0044962D01*
X0115553Y0044920D01*
X0115582Y0044877D01*
X0115608Y0044831D01*
X0115631Y0044784D01*
X0115650Y0044735D01*
X0115666Y0044685D01*
X0115679Y0044634D01*
X0115688Y0044583D01*
X0115693Y0044530D01*
X0115695Y0044478D01*
X0115693Y0044426D01*
X0115688Y0044373D01*
X0115679Y0044322D01*
X0115666Y0044271D01*
X0115650Y0044221D01*
X0115631Y0044172D01*
X0115608Y0044125D01*
X0115582Y0044079D01*
X0115553Y0044036D01*
X0115521Y0043994D01*
X0115487Y0043955D01*
X0115449Y0043918D01*
X0115409Y0043884D01*
X0115367Y0043852D01*
X0115323Y0043824D01*
X0115277Y0043799D01*
X0115230Y0043777D01*
X0115181Y0043758D01*
X0114873Y0043656D02*
X0112817Y0045300D01*
X0112508Y0045198D02*
X0112459Y0045179D01*
X0112412Y0045157D01*
X0112366Y0045132D01*
X0112322Y0045104D01*
X0112280Y0045072D01*
X0112240Y0045038D01*
X0112202Y0045001D01*
X0112168Y0044962D01*
X0112136Y0044920D01*
X0112107Y0044877D01*
X0112081Y0044831D01*
X0112058Y0044784D01*
X0112039Y0044735D01*
X0112023Y0044685D01*
X0112010Y0044634D01*
X0112001Y0044583D01*
X0111996Y0044530D01*
X0111994Y0044478D01*
X0111996Y0044426D01*
X0112001Y0044373D01*
X0112010Y0044322D01*
X0112023Y0044271D01*
X0112039Y0044221D01*
X0112058Y0044172D01*
X0112081Y0044125D01*
X0112107Y0044079D01*
X0112136Y0044036D01*
X0112168Y0043994D01*
X0112202Y0043955D01*
X0112240Y0043918D01*
X0112280Y0043884D01*
X0112322Y0043852D01*
X0112366Y0043824D01*
X0112412Y0043799D01*
X0112459Y0043777D01*
X0112508Y0043758D01*
X0112509Y0045197D02*
X0112605Y0045242D01*
X0112703Y0045283D01*
X0112803Y0045321D01*
X0112903Y0045356D01*
X0113005Y0045387D01*
X0113108Y0045415D01*
X0113211Y0045438D01*
X0113316Y0045459D01*
X0113421Y0045475D01*
X0113526Y0045488D01*
X0113632Y0045498D01*
X0113739Y0045503D01*
X0113845Y0045505D01*
X0113845Y0043450D02*
X0113739Y0043452D01*
X0113632Y0043457D01*
X0113526Y0043467D01*
X0113421Y0043480D01*
X0113316Y0043496D01*
X0113211Y0043517D01*
X0113108Y0043540D01*
X0113005Y0043568D01*
X0112903Y0043599D01*
X0112803Y0043634D01*
X0112703Y0043672D01*
X0112605Y0043713D01*
X0112509Y0043758D01*
X0113845Y0043450D02*
X0113951Y0043452D01*
X0114058Y0043457D01*
X0114164Y0043467D01*
X0114269Y0043480D01*
X0114374Y0043496D01*
X0114479Y0043517D01*
X0114582Y0043540D01*
X0114685Y0043568D01*
X0114787Y0043599D01*
X0114887Y0043634D01*
X0114987Y0043672D01*
X0115085Y0043713D01*
X0115181Y0043758D01*
X0114873Y0048935D02*
X0114050Y0048935D01*
X0114050Y0048936D02*
X0113994Y0048938D01*
X0113938Y0048944D01*
X0113883Y0048953D01*
X0113828Y0048966D01*
X0113775Y0048983D01*
X0113723Y0049004D01*
X0113672Y0049028D01*
X0113623Y0049056D01*
X0113576Y0049086D01*
X0113531Y0049120D01*
X0113489Y0049157D01*
X0113449Y0049197D01*
X0113412Y0049239D01*
X0113378Y0049284D01*
X0113348Y0049331D01*
X0113320Y0049380D01*
X0113296Y0049431D01*
X0113275Y0049483D01*
X0113258Y0049536D01*
X0113245Y0049591D01*
X0113236Y0049646D01*
X0113230Y0049702D01*
X0113228Y0049758D01*
X0113230Y0049814D01*
X0113236Y0049870D01*
X0113245Y0049925D01*
X0113258Y0049980D01*
X0113275Y0050033D01*
X0113296Y0050085D01*
X0113320Y0050136D01*
X0113348Y0050185D01*
X0113378Y0050232D01*
X0113412Y0050277D01*
X0113449Y0050319D01*
X0113489Y0050359D01*
X0113531Y0050396D01*
X0113576Y0050430D01*
X0113623Y0050460D01*
X0113672Y0050488D01*
X0113723Y0050512D01*
X0113775Y0050533D01*
X0113828Y0050550D01*
X0113883Y0050563D01*
X0113938Y0050572D01*
X0113994Y0050578D01*
X0114050Y0050580D01*
X0114873Y0050580D01*
X0114929Y0050578D01*
X0114985Y0050572D01*
X0115040Y0050563D01*
X0115095Y0050550D01*
X0115148Y0050533D01*
X0115200Y0050512D01*
X0115251Y0050488D01*
X0115300Y0050460D01*
X0115347Y0050430D01*
X0115392Y0050396D01*
X0115434Y0050359D01*
X0115474Y0050319D01*
X0115511Y0050277D01*
X0115545Y0050232D01*
X0115575Y0050185D01*
X0115603Y0050136D01*
X0115627Y0050085D01*
X0115648Y0050033D01*
X0115665Y0049980D01*
X0115678Y0049925D01*
X0115687Y0049870D01*
X0115693Y0049814D01*
X0115695Y0049758D01*
X0115693Y0049702D01*
X0115687Y0049646D01*
X0115678Y0049591D01*
X0115665Y0049536D01*
X0115648Y0049483D01*
X0115627Y0049431D01*
X0115603Y0049380D01*
X0115575Y0049331D01*
X0115545Y0049284D01*
X0115511Y0049239D01*
X0115474Y0049197D01*
X0115434Y0049157D01*
X0115392Y0049120D01*
X0115347Y0049086D01*
X0115300Y0049056D01*
X0115251Y0049028D01*
X0115200Y0049004D01*
X0115148Y0048983D01*
X0115095Y0048966D01*
X0115040Y0048953D01*
X0114985Y0048944D01*
X0114929Y0048938D01*
X0114873Y0048936D01*
X0115695Y0052175D02*
X0111995Y0052175D01*
X0113228Y0052175D02*
X0113228Y0053203D01*
X0113230Y0053251D01*
X0113236Y0053300D01*
X0113245Y0053347D01*
X0113258Y0053394D01*
X0113275Y0053439D01*
X0113295Y0053483D01*
X0113319Y0053525D01*
X0113346Y0053566D01*
X0113376Y0053604D01*
X0113409Y0053639D01*
X0113444Y0053672D01*
X0113482Y0053702D01*
X0113523Y0053729D01*
X0113565Y0053753D01*
X0113609Y0053773D01*
X0113654Y0053790D01*
X0113701Y0053803D01*
X0113748Y0053812D01*
X0113797Y0053818D01*
X0113845Y0053820D01*
X0115695Y0053820D01*
X0115695Y0055604D02*
X0113228Y0055604D01*
X0113228Y0057454D01*
X0113228Y0056838D02*
X0115695Y0056838D01*
X0115695Y0058071D02*
X0113845Y0058071D01*
X0113797Y0058069D01*
X0113748Y0058063D01*
X0113701Y0058054D01*
X0113654Y0058041D01*
X0113609Y0058024D01*
X0113565Y0058004D01*
X0113523Y0057980D01*
X0113482Y0057953D01*
X0113444Y0057923D01*
X0113409Y0057890D01*
X0113376Y0057855D01*
X0113346Y0057817D01*
X0113319Y0057776D01*
X0113295Y0057734D01*
X0113275Y0057690D01*
X0113258Y0057645D01*
X0113245Y0057598D01*
X0113236Y0057551D01*
X0113230Y0057502D01*
X0113228Y0057454D01*
X0103695Y0057591D02*
X0101845Y0057591D01*
X0101797Y0057589D01*
X0101748Y0057583D01*
X0101701Y0057574D01*
X0101654Y0057561D01*
X0101609Y0057544D01*
X0101565Y0057524D01*
X0101523Y0057500D01*
X0101482Y0057473D01*
X0101444Y0057443D01*
X0101409Y0057410D01*
X0101376Y0057375D01*
X0101346Y0057337D01*
X0101319Y0057296D01*
X0101295Y0057254D01*
X0101275Y0057210D01*
X0101258Y0057165D01*
X0101245Y0057118D01*
X0101236Y0057071D01*
X0101230Y0057022D01*
X0101228Y0056974D01*
X0101228Y0055124D01*
X0103695Y0055124D01*
X0103695Y0056358D02*
X0101228Y0056358D01*
X0101845Y0053340D02*
X0103695Y0053340D01*
X0103695Y0051695D02*
X0099995Y0051695D01*
X0101228Y0051695D02*
X0101228Y0052723D01*
X0101230Y0052771D01*
X0101236Y0052820D01*
X0101245Y0052867D01*
X0101258Y0052914D01*
X0101275Y0052959D01*
X0101295Y0053003D01*
X0101319Y0053045D01*
X0101346Y0053086D01*
X0101376Y0053124D01*
X0101409Y0053159D01*
X0101444Y0053192D01*
X0101482Y0053222D01*
X0101523Y0053249D01*
X0101565Y0053273D01*
X0101609Y0053293D01*
X0101654Y0053310D01*
X0101701Y0053323D01*
X0101748Y0053332D01*
X0101797Y0053338D01*
X0101845Y0053340D01*
X0102050Y0050100D02*
X0102873Y0050100D01*
X0102929Y0050098D01*
X0102985Y0050092D01*
X0103040Y0050083D01*
X0103095Y0050070D01*
X0103148Y0050053D01*
X0103200Y0050032D01*
X0103251Y0050008D01*
X0103300Y0049980D01*
X0103347Y0049950D01*
X0103392Y0049916D01*
X0103434Y0049879D01*
X0103474Y0049839D01*
X0103511Y0049797D01*
X0103545Y0049752D01*
X0103575Y0049705D01*
X0103603Y0049656D01*
X0103627Y0049605D01*
X0103648Y0049553D01*
X0103665Y0049500D01*
X0103678Y0049445D01*
X0103687Y0049390D01*
X0103693Y0049334D01*
X0103695Y0049278D01*
X0103693Y0049222D01*
X0103687Y0049166D01*
X0103678Y0049111D01*
X0103665Y0049056D01*
X0103648Y0049003D01*
X0103627Y0048951D01*
X0103603Y0048900D01*
X0103575Y0048851D01*
X0103545Y0048804D01*
X0103511Y0048759D01*
X0103474Y0048717D01*
X0103434Y0048677D01*
X0103392Y0048640D01*
X0103347Y0048606D01*
X0103300Y0048576D01*
X0103251Y0048548D01*
X0103200Y0048524D01*
X0103148Y0048503D01*
X0103095Y0048486D01*
X0103040Y0048473D01*
X0102985Y0048464D01*
X0102929Y0048458D01*
X0102873Y0048456D01*
X0102873Y0048455D02*
X0102050Y0048455D01*
X0102050Y0048456D02*
X0101994Y0048458D01*
X0101938Y0048464D01*
X0101883Y0048473D01*
X0101828Y0048486D01*
X0101775Y0048503D01*
X0101723Y0048524D01*
X0101672Y0048548D01*
X0101623Y0048576D01*
X0101576Y0048606D01*
X0101531Y0048640D01*
X0101489Y0048677D01*
X0101449Y0048717D01*
X0101412Y0048759D01*
X0101378Y0048804D01*
X0101348Y0048851D01*
X0101320Y0048900D01*
X0101296Y0048951D01*
X0101275Y0049003D01*
X0101258Y0049056D01*
X0101245Y0049111D01*
X0101236Y0049166D01*
X0101230Y0049222D01*
X0101228Y0049278D01*
X0101230Y0049334D01*
X0101236Y0049390D01*
X0101245Y0049445D01*
X0101258Y0049500D01*
X0101275Y0049553D01*
X0101296Y0049605D01*
X0101320Y0049656D01*
X0101348Y0049705D01*
X0101378Y0049752D01*
X0101412Y0049797D01*
X0101449Y0049839D01*
X0101489Y0049879D01*
X0101531Y0049916D01*
X0101576Y0049950D01*
X0101623Y0049980D01*
X0101672Y0050008D01*
X0101723Y0050032D01*
X0101775Y0050053D01*
X0101828Y0050070D01*
X0101883Y0050083D01*
X0101938Y0050092D01*
X0101994Y0050098D01*
X0102050Y0050100D01*
X0101228Y0045221D02*
X0102462Y0043577D01*
X0101948Y0044296D02*
X0103695Y0045221D01*
X0103695Y0043577D02*
X0099995Y0043577D01*
X0101845Y0039850D02*
X0101951Y0039852D01*
X0102058Y0039857D01*
X0102164Y0039867D01*
X0102269Y0039880D01*
X0102374Y0039896D01*
X0102479Y0039917D01*
X0102582Y0039940D01*
X0102685Y0039968D01*
X0102787Y0039999D01*
X0102887Y0040034D01*
X0102987Y0040072D01*
X0103085Y0040113D01*
X0103181Y0040158D01*
X0122406Y0027558D02*
X0123695Y0028202D01*
X0122406Y0027397D02*
X0122406Y0026591D01*
X0122406Y0027397D02*
X0122404Y0027452D01*
X0122398Y0027507D01*
X0122389Y0027561D01*
X0122376Y0027614D01*
X0122359Y0027667D01*
X0122339Y0027718D01*
X0122316Y0027768D01*
X0122289Y0027816D01*
X0122258Y0027862D01*
X0122225Y0027906D01*
X0122189Y0027947D01*
X0122150Y0027986D01*
X0122109Y0028022D01*
X0122065Y0028055D01*
X0122019Y0028086D01*
X0121971Y0028113D01*
X0121921Y0028136D01*
X0121870Y0028156D01*
X0121817Y0028173D01*
X0121764Y0028186D01*
X0121710Y0028195D01*
X0121655Y0028201D01*
X0121600Y0028203D01*
X0121545Y0028201D01*
X0121490Y0028195D01*
X0121436Y0028186D01*
X0121383Y0028173D01*
X0121330Y0028156D01*
X0121279Y0028136D01*
X0121229Y0028113D01*
X0121181Y0028086D01*
X0121135Y0028055D01*
X0121091Y0028022D01*
X0121050Y0027986D01*
X0121011Y0027947D01*
X0120975Y0027906D01*
X0120942Y0027862D01*
X0120911Y0027816D01*
X0120884Y0027768D01*
X0120861Y0027718D01*
X0120841Y0027667D01*
X0120824Y0027614D01*
X0120811Y0027561D01*
X0120802Y0027507D01*
X0120796Y0027452D01*
X0120794Y0027397D01*
X0120795Y0027397D02*
X0120795Y0026591D01*
X0123695Y0026591D01*
X0123695Y0025355D02*
X0123695Y0024710D01*
X0123694Y0024710D02*
X0123692Y0024662D01*
X0123687Y0024614D01*
X0123678Y0024567D01*
X0123665Y0024520D01*
X0123649Y0024475D01*
X0123630Y0024431D01*
X0123608Y0024388D01*
X0123582Y0024347D01*
X0123553Y0024308D01*
X0123522Y0024272D01*
X0123488Y0024238D01*
X0123452Y0024207D01*
X0123413Y0024178D01*
X0123372Y0024152D01*
X0123329Y0024130D01*
X0123285Y0024111D01*
X0123240Y0024095D01*
X0123193Y0024082D01*
X0123146Y0024073D01*
X0123098Y0024068D01*
X0123050Y0024066D01*
X0121439Y0024066D01*
X0121388Y0024068D01*
X0121338Y0024074D01*
X0121289Y0024084D01*
X0121240Y0024098D01*
X0121193Y0024115D01*
X0121147Y0024136D01*
X0121103Y0024161D01*
X0121060Y0024189D01*
X0121021Y0024220D01*
X0120984Y0024255D01*
X0120949Y0024292D01*
X0120918Y0024331D01*
X0120890Y0024373D01*
X0120865Y0024418D01*
X0120844Y0024464D01*
X0120827Y0024511D01*
X0120813Y0024560D01*
X0120803Y0024609D01*
X0120797Y0024659D01*
X0120795Y0024710D01*
X0120795Y0025355D01*
X0123695Y0022970D02*
X0123695Y0021681D01*
X0120795Y0021681D01*
X0120795Y0020183D02*
X0123695Y0020183D01*
X0122406Y0019217D02*
X0120795Y0020183D01*
X0122406Y0019217D02*
X0120795Y0018250D01*
X0123695Y0018250D01*
X0050695Y0019026D02*
X0046995Y0019026D01*
X0046995Y0016970D02*
X0050695Y0019026D01*
X0050695Y0016970D02*
X0046995Y0016970D01*
X0048023Y0015306D02*
X0049667Y0015306D01*
X0049730Y0015304D01*
X0049793Y0015298D01*
X0049856Y0015288D01*
X0049918Y0015275D01*
X0049979Y0015258D01*
X0050038Y0015237D01*
X0050097Y0015212D01*
X0050153Y0015184D01*
X0050208Y0015152D01*
X0050261Y0015117D01*
X0050311Y0015079D01*
X0050360Y0015038D01*
X0050405Y0014994D01*
X0050448Y0014947D01*
X0050487Y0014898D01*
X0050524Y0014846D01*
X0050557Y0014792D01*
X0050587Y0014736D01*
X0050614Y0014679D01*
X0050637Y0014620D01*
X0050656Y0014559D01*
X0050671Y0014498D01*
X0050683Y0014436D01*
X0050691Y0014373D01*
X0050695Y0014310D01*
X0050695Y0014246D01*
X0050691Y0014183D01*
X0050683Y0014120D01*
X0050671Y0014058D01*
X0050656Y0013997D01*
X0050637Y0013936D01*
X0050614Y0013877D01*
X0050587Y0013820D01*
X0050557Y0013764D01*
X0050524Y0013710D01*
X0050487Y0013658D01*
X0050448Y0013609D01*
X0050405Y0013562D01*
X0050360Y0013518D01*
X0050311Y0013477D01*
X0050261Y0013439D01*
X0050208Y0013404D01*
X0050153Y0013372D01*
X0050097Y0013344D01*
X0050038Y0013319D01*
X0049979Y0013298D01*
X0049918Y0013281D01*
X0049856Y0013268D01*
X0049793Y0013258D01*
X0049730Y0013252D01*
X0049667Y0013250D01*
X0048023Y0013250D01*
X0047960Y0013252D01*
X0047897Y0013258D01*
X0047834Y0013268D01*
X0047772Y0013281D01*
X0047711Y0013298D01*
X0047652Y0013319D01*
X0047593Y0013344D01*
X0047537Y0013372D01*
X0047482Y0013404D01*
X0047429Y0013439D01*
X0047379Y0013477D01*
X0047330Y0013518D01*
X0047285Y0013562D01*
X0047242Y0013609D01*
X0047203Y0013658D01*
X0047166Y0013710D01*
X0047133Y0013764D01*
X0047103Y0013820D01*
X0047076Y0013877D01*
X0047053Y0013936D01*
X0047034Y0013997D01*
X0047019Y0014058D01*
X0047007Y0014120D01*
X0046999Y0014183D01*
X0046995Y0014246D01*
X0046995Y0014310D01*
X0046999Y0014373D01*
X0047007Y0014436D01*
X0047019Y0014498D01*
X0047034Y0014559D01*
X0047053Y0014620D01*
X0047076Y0014679D01*
X0047103Y0014736D01*
X0047133Y0014792D01*
X0047166Y0014846D01*
X0047203Y0014898D01*
X0047242Y0014947D01*
X0047285Y0014994D01*
X0047330Y0015038D01*
X0047379Y0015079D01*
X0047429Y0015117D01*
X0047482Y0015152D01*
X0047537Y0015184D01*
X0047593Y0015212D01*
X0047652Y0015237D01*
X0047711Y0015258D01*
X0047772Y0015275D01*
X0047834Y0015288D01*
X0047897Y0015298D01*
X0047960Y0015304D01*
X0048023Y0015306D01*
X0089228Y0057454D02*
X0089230Y0057502D01*
X0089236Y0057551D01*
X0089245Y0057598D01*
X0089258Y0057645D01*
X0089275Y0057690D01*
X0089295Y0057734D01*
X0089319Y0057776D01*
X0089346Y0057817D01*
X0089376Y0057855D01*
X0089409Y0057890D01*
X0089444Y0057923D01*
X0089482Y0057953D01*
X0089523Y0057980D01*
X0089565Y0058004D01*
X0089609Y0058024D01*
X0089654Y0058041D01*
X0089701Y0058054D01*
X0089748Y0058063D01*
X0089797Y0058069D01*
X0089845Y0058071D01*
X0121295Y0074250D02*
X0124195Y0075217D01*
X0121295Y0076183D01*
X0121295Y0077387D02*
X0121295Y0078193D01*
X0121294Y0078193D02*
X0121296Y0078248D01*
X0121302Y0078303D01*
X0121311Y0078357D01*
X0121324Y0078410D01*
X0121341Y0078463D01*
X0121361Y0078514D01*
X0121384Y0078564D01*
X0121411Y0078612D01*
X0121442Y0078658D01*
X0121475Y0078702D01*
X0121511Y0078743D01*
X0121550Y0078782D01*
X0121591Y0078818D01*
X0121635Y0078851D01*
X0121681Y0078882D01*
X0121729Y0078909D01*
X0121779Y0078932D01*
X0121830Y0078952D01*
X0121883Y0078969D01*
X0121936Y0078982D01*
X0121990Y0078991D01*
X0122045Y0078997D01*
X0122100Y0078999D01*
X0122100Y0078998D02*
X0123389Y0078998D01*
X0123389Y0078999D02*
X0123444Y0078997D01*
X0123499Y0078991D01*
X0123553Y0078982D01*
X0123606Y0078969D01*
X0123659Y0078952D01*
X0123710Y0078932D01*
X0123760Y0078909D01*
X0123808Y0078882D01*
X0123854Y0078851D01*
X0123898Y0078818D01*
X0123939Y0078782D01*
X0123978Y0078743D01*
X0124014Y0078702D01*
X0124047Y0078658D01*
X0124078Y0078612D01*
X0124105Y0078564D01*
X0124128Y0078514D01*
X0124148Y0078463D01*
X0124165Y0078410D01*
X0124178Y0078357D01*
X0124187Y0078303D01*
X0124193Y0078248D01*
X0124195Y0078193D01*
X0124195Y0077387D01*
X0121295Y0077387D01*
X0121295Y0080459D02*
X0121295Y0081265D01*
X0121294Y0081265D02*
X0121296Y0081320D01*
X0121302Y0081375D01*
X0121311Y0081429D01*
X0121324Y0081482D01*
X0121341Y0081535D01*
X0121361Y0081586D01*
X0121384Y0081636D01*
X0121411Y0081684D01*
X0121442Y0081730D01*
X0121475Y0081774D01*
X0121511Y0081815D01*
X0121550Y0081854D01*
X0121591Y0081890D01*
X0121635Y0081923D01*
X0121681Y0081954D01*
X0121729Y0081981D01*
X0121779Y0082004D01*
X0121830Y0082024D01*
X0121883Y0082041D01*
X0121936Y0082054D01*
X0121990Y0082063D01*
X0122045Y0082069D01*
X0122100Y0082071D01*
X0122100Y0082070D02*
X0123389Y0082070D01*
X0123389Y0082071D02*
X0123444Y0082069D01*
X0123499Y0082063D01*
X0123553Y0082054D01*
X0123606Y0082041D01*
X0123659Y0082024D01*
X0123710Y0082004D01*
X0123760Y0081981D01*
X0123808Y0081954D01*
X0123854Y0081923D01*
X0123898Y0081890D01*
X0123939Y0081854D01*
X0123978Y0081815D01*
X0124014Y0081774D01*
X0124047Y0081730D01*
X0124078Y0081684D01*
X0124105Y0081636D01*
X0124128Y0081586D01*
X0124148Y0081535D01*
X0124165Y0081482D01*
X0124178Y0081429D01*
X0124187Y0081375D01*
X0124193Y0081320D01*
X0124195Y0081265D01*
X0124195Y0080459D01*
X0121295Y0080459D01*
X0130795Y0080394D02*
X0130795Y0081200D01*
X0130794Y0081200D02*
X0130796Y0081255D01*
X0130802Y0081310D01*
X0130811Y0081364D01*
X0130824Y0081417D01*
X0130841Y0081470D01*
X0130861Y0081521D01*
X0130884Y0081571D01*
X0130911Y0081619D01*
X0130942Y0081665D01*
X0130975Y0081709D01*
X0131011Y0081750D01*
X0131050Y0081789D01*
X0131091Y0081825D01*
X0131135Y0081858D01*
X0131181Y0081889D01*
X0131229Y0081916D01*
X0131279Y0081939D01*
X0131330Y0081959D01*
X0131383Y0081976D01*
X0131436Y0081989D01*
X0131490Y0081998D01*
X0131545Y0082004D01*
X0131600Y0082006D01*
X0131600Y0082005D02*
X0132889Y0082005D01*
X0132889Y0082006D02*
X0132944Y0082004D01*
X0132999Y0081998D01*
X0133053Y0081989D01*
X0133106Y0081976D01*
X0133159Y0081959D01*
X0133210Y0081939D01*
X0133260Y0081916D01*
X0133308Y0081889D01*
X0133354Y0081858D01*
X0133398Y0081825D01*
X0133439Y0081789D01*
X0133478Y0081750D01*
X0133514Y0081709D01*
X0133547Y0081665D01*
X0133578Y0081619D01*
X0133605Y0081571D01*
X0133628Y0081521D01*
X0133648Y0081470D01*
X0133665Y0081417D01*
X0133678Y0081364D01*
X0133687Y0081310D01*
X0133693Y0081255D01*
X0133695Y0081200D01*
X0133695Y0080394D01*
X0130795Y0080394D01*
X0130795Y0078933D02*
X0133695Y0078933D01*
X0130795Y0077322D01*
X0133695Y0077322D01*
X0133695Y0075861D02*
X0132084Y0075861D01*
X0132084Y0075378D01*
X0131439Y0074250D02*
X0131388Y0074252D01*
X0131338Y0074258D01*
X0131289Y0074268D01*
X0131240Y0074282D01*
X0131193Y0074299D01*
X0131147Y0074320D01*
X0131103Y0074345D01*
X0131060Y0074373D01*
X0131021Y0074404D01*
X0130984Y0074439D01*
X0130949Y0074476D01*
X0130918Y0074515D01*
X0130890Y0074557D01*
X0130865Y0074602D01*
X0130844Y0074648D01*
X0130827Y0074695D01*
X0130813Y0074744D01*
X0130803Y0074793D01*
X0130797Y0074843D01*
X0130795Y0074894D01*
X0130795Y0075861D01*
X0133050Y0074250D02*
X0133098Y0074252D01*
X0133146Y0074257D01*
X0133193Y0074266D01*
X0133240Y0074279D01*
X0133285Y0074295D01*
X0133329Y0074314D01*
X0133372Y0074336D01*
X0133413Y0074362D01*
X0133452Y0074391D01*
X0133488Y0074422D01*
X0133522Y0074456D01*
X0133553Y0074492D01*
X0133582Y0074531D01*
X0133608Y0074572D01*
X0133630Y0074615D01*
X0133649Y0074659D01*
X0133665Y0074704D01*
X0133678Y0074751D01*
X0133687Y0074798D01*
X0133692Y0074846D01*
X0133694Y0074894D01*
X0133695Y0074894D02*
X0133695Y0075861D01*
X0133050Y0074250D02*
X0131439Y0074250D01*
D12*
X0104145Y0075100D02*
X0104145Y0069100D01*
X0101645Y0069100D02*
X0101645Y0075100D01*
X0101645Y0079600D02*
X0101645Y0085600D01*
X0104145Y0085600D02*
X0104145Y0079600D01*
D13*
X0067745Y0079800D03*
D14*
X0079845Y0078850D03*
X0079845Y0044350D03*
D15*
X0080845Y0051600D03*
X0080845Y0061600D03*
X0080845Y0071600D03*
D16*
X0079845Y0066600D03*
X0079845Y0056600D03*
D17*
X0057699Y0055970D02*
X0057699Y0049671D01*
X0051400Y0049671D01*
X0032699Y0049671D02*
X0001400Y0049671D01*
X0001400Y0083529D01*
X0057699Y0083529D01*
X0057699Y0077230D01*
X0052345Y0026600D02*
X0052345Y0006600D01*
X0092345Y0006600D01*
X0092345Y0026600D01*
X0052345Y0026600D01*
D18*
X0095399Y0012631D02*
X0095498Y0012462D01*
X0095602Y0012296D01*
X0095709Y0012132D01*
X0095820Y0011971D01*
X0095935Y0011813D01*
X0096054Y0011658D01*
X0096177Y0011505D01*
X0096303Y0011356D01*
X0096433Y0011210D01*
X0096567Y0011067D01*
X0096704Y0010927D01*
X0096844Y0010791D01*
X0096988Y0010658D01*
X0097135Y0010529D01*
X0097285Y0010403D01*
X0097438Y0010282D01*
X0097594Y0010163D01*
X0097753Y0010049D01*
X0097914Y0009939D01*
X0098079Y0009833D01*
X0098245Y0009730D01*
X0098415Y0009632D01*
X0098586Y0009538D01*
X0098760Y0009448D01*
X0098936Y0009363D01*
X0099114Y0009281D01*
X0099294Y0009205D01*
X0099476Y0009132D01*
X0099659Y0009064D01*
X0099844Y0009001D01*
X0100031Y0008942D01*
X0100219Y0008888D01*
X0100408Y0008838D01*
X0100598Y0008793D01*
X0100790Y0008753D01*
X0100982Y0008717D01*
X0101175Y0008686D01*
X0101369Y0008660D01*
X0101564Y0008638D01*
X0101759Y0008622D01*
X0101954Y0008610D01*
X0102150Y0008602D01*
X0102345Y0008600D01*
X0095286Y0020365D02*
X0095379Y0020533D01*
X0095475Y0020699D01*
X0095575Y0020863D01*
X0095680Y0021024D01*
X0095788Y0021183D01*
X0095900Y0021339D01*
X0096016Y0021493D01*
X0096135Y0021643D01*
X0096258Y0021791D01*
X0096384Y0021936D01*
X0096514Y0022077D01*
X0096647Y0022216D01*
X0096784Y0022351D01*
X0096924Y0022483D01*
X0097066Y0022611D01*
X0097212Y0022736D01*
X0097361Y0022858D01*
X0097513Y0022976D01*
X0097667Y0023090D01*
X0097825Y0023200D01*
X0097984Y0023307D01*
X0098147Y0023410D01*
X0098312Y0023509D01*
X0098479Y0023604D01*
X0098648Y0023694D01*
X0098819Y0023781D01*
X0098993Y0023864D01*
X0099168Y0023942D01*
X0099346Y0024016D01*
X0099525Y0024086D01*
X0099705Y0024152D01*
X0099887Y0024213D01*
X0100071Y0024270D01*
X0100256Y0024322D01*
X0100442Y0024370D01*
X0100629Y0024414D01*
X0100817Y0024453D01*
X0101006Y0024487D01*
X0101196Y0024517D01*
X0101386Y0024542D01*
X0101577Y0024563D01*
X0101769Y0024579D01*
X0101961Y0024591D01*
X0102153Y0024598D01*
X0102345Y0024600D01*
X0108452Y0011432D02*
X0108325Y0011286D01*
X0108196Y0011144D01*
X0108062Y0011004D01*
X0107926Y0010868D01*
X0107786Y0010735D01*
X0107643Y0010605D01*
X0107496Y0010479D01*
X0107347Y0010357D01*
X0107195Y0010238D01*
X0107040Y0010123D01*
X0106883Y0010011D01*
X0106723Y0009904D01*
X0106560Y0009800D01*
X0106394Y0009701D01*
X0106227Y0009605D01*
X0106057Y0009513D01*
X0105885Y0009426D01*
X0105711Y0009342D01*
X0105535Y0009263D01*
X0105357Y0009189D01*
X0105177Y0009118D01*
X0104996Y0009052D01*
X0104813Y0008990D01*
X0104629Y0008933D01*
X0104443Y0008880D01*
X0104256Y0008832D01*
X0104068Y0008788D01*
X0103879Y0008749D01*
X0103689Y0008714D01*
X0103499Y0008684D01*
X0103308Y0008658D01*
X0103116Y0008637D01*
X0102923Y0008621D01*
X0102731Y0008609D01*
X0102538Y0008602D01*
X0102345Y0008600D01*
X0108491Y0021722D02*
X0108364Y0021870D01*
X0108234Y0022015D01*
X0108101Y0022156D01*
X0107964Y0022295D01*
X0107824Y0022430D01*
X0107680Y0022561D01*
X0107533Y0022689D01*
X0107384Y0022814D01*
X0107231Y0022935D01*
X0107076Y0023052D01*
X0106917Y0023165D01*
X0106756Y0023274D01*
X0106592Y0023379D01*
X0106426Y0023481D01*
X0106257Y0023578D01*
X0106087Y0023671D01*
X0105913Y0023760D01*
X0105738Y0023845D01*
X0105561Y0023925D01*
X0105382Y0024001D01*
X0105201Y0024073D01*
X0105018Y0024140D01*
X0104834Y0024203D01*
X0104648Y0024261D01*
X0104461Y0024315D01*
X0104273Y0024364D01*
X0104083Y0024409D01*
X0103893Y0024449D01*
X0103701Y0024484D01*
X0103509Y0024515D01*
X0103316Y0024541D01*
X0103122Y0024562D01*
X0102928Y0024579D01*
X0102734Y0024591D01*
X0102540Y0024598D01*
X0102345Y0024600D01*
D19*
X0102345Y0035850D03*
X0092345Y0035850D03*
X0112345Y0035850D03*
X0112345Y0057350D03*
X0102345Y0057350D03*
X0092345Y0057350D03*
M02*
