G75*
%MOIN*%
%OFA0B0*%
%FSLAX25Y25*%
%IPPOS*%
%LPD*%
%AMOC8*
5,1,8,0,0,1.08239X$1,22.5*
%
%ADD10OC8,0.06300*%
%ADD11C,0.06300*%
%ADD12OC8,0.05200*%
%ADD13C,0.06400*%
%ADD14C,0.05200*%
%ADD15C,0.07874*%
%ADD16C,0.06929*%
%ADD17C,0.01200*%
%ADD18C,0.01000*%
%ADD19C,0.02600*%
D10*
X0042345Y0011600D03*
X0042845Y0032100D03*
D11*
X0032845Y0032100D03*
X0032345Y0011600D03*
D12*
X0092345Y0031600D03*
X0102345Y0031600D03*
X0112345Y0031600D03*
X0107345Y0016600D03*
X0097345Y0016600D03*
X0102345Y0061600D03*
X0092345Y0061600D03*
X0112345Y0061600D03*
X0107845Y0072100D03*
X0097845Y0072100D03*
X0097845Y0082600D03*
X0107845Y0082600D03*
D13*
X0122345Y0088400D02*
X0122345Y0094800D01*
X0132345Y0094800D02*
X0132345Y0088400D01*
X0142345Y0088400D02*
X0142345Y0094800D01*
X0152345Y0094800D02*
X0152345Y0088400D01*
X0162345Y0088400D02*
X0162345Y0094800D01*
X0172345Y0094800D02*
X0172345Y0088400D01*
X0182345Y0088400D02*
X0182345Y0094800D01*
X0192345Y0094800D02*
X0192345Y0088400D01*
X0202345Y0088400D02*
X0202345Y0094800D01*
X0212345Y0094800D02*
X0212345Y0088400D01*
X0087345Y0088400D02*
X0087345Y0094800D01*
X0077345Y0094800D02*
X0077345Y0088400D01*
X0067345Y0088400D02*
X0067345Y0094800D01*
X0057345Y0094800D02*
X0057345Y0088400D01*
X0047345Y0088400D02*
X0047345Y0094800D01*
X0037345Y0094800D02*
X0037345Y0088400D01*
X0069145Y0071600D02*
X0075545Y0071600D01*
X0075545Y0061600D02*
X0069145Y0061600D01*
X0069145Y0051600D02*
X0075545Y0051600D01*
X0122345Y0014800D02*
X0122345Y0008400D01*
X0132345Y0008400D02*
X0132345Y0014800D01*
X0142345Y0014800D02*
X0142345Y0008400D01*
X0152345Y0008400D02*
X0152345Y0014800D01*
X0162345Y0014800D02*
X0162345Y0008400D01*
X0172345Y0008400D02*
X0172345Y0014800D01*
X0182345Y0014800D02*
X0182345Y0008400D01*
X0192345Y0008400D02*
X0192345Y0014800D01*
X0202345Y0014800D02*
X0202345Y0008400D01*
X0212345Y0008400D02*
X0212345Y0014800D01*
D14*
X0212345Y0034000D02*
X0212345Y0039200D01*
X0202345Y0039200D02*
X0202345Y0034000D01*
X0192345Y0034000D02*
X0192345Y0039200D01*
X0182345Y0039200D02*
X0182345Y0034000D01*
X0172345Y0034000D02*
X0172345Y0039200D01*
X0162345Y0039200D02*
X0162345Y0034000D01*
X0152345Y0034000D02*
X0152345Y0039200D01*
X0142345Y0039200D02*
X0142345Y0034000D01*
X0132345Y0034000D02*
X0132345Y0039200D01*
X0122345Y0039200D02*
X0122345Y0034000D01*
X0122345Y0064000D02*
X0122345Y0069200D01*
X0132345Y0069200D02*
X0132345Y0064000D01*
X0142345Y0064000D02*
X0142345Y0069200D01*
X0152345Y0069200D02*
X0152345Y0064000D01*
X0162345Y0064000D02*
X0162345Y0069200D01*
X0172345Y0069200D02*
X0172345Y0064000D01*
X0182345Y0064000D02*
X0182345Y0069200D01*
X0192345Y0069200D02*
X0192345Y0064000D01*
X0202345Y0064000D02*
X0202345Y0069200D01*
X0212345Y0069200D02*
X0212345Y0064000D01*
D15*
X0054550Y0062663D02*
X0054550Y0070537D01*
X0030534Y0070537D02*
X0030534Y0062663D01*
X0038408Y0047702D02*
X0046282Y0047702D01*
D16*
X0062345Y0020065D02*
X0062345Y0013135D01*
X0072345Y0013135D02*
X0072345Y0020065D01*
X0082345Y0020065D02*
X0082345Y0013135D01*
D17*
X0024945Y0004200D02*
X0024945Y0099000D01*
X0034942Y0099000D01*
X0034626Y0098869D01*
X0033276Y0097519D01*
X0032545Y0095755D01*
X0032545Y0087445D01*
X0033276Y0085681D01*
X0034626Y0084331D01*
X0036390Y0083600D01*
X0037375Y0083600D01*
X0043245Y0077730D01*
X0044475Y0076500D01*
X0077975Y0076500D01*
X0082975Y0071500D01*
X0082268Y0071500D01*
X0081202Y0071058D01*
X0080386Y0070243D01*
X0079945Y0069177D01*
X0079945Y0068023D01*
X0080386Y0066957D01*
X0080745Y0066599D01*
X0080745Y0057230D01*
X0095445Y0042530D01*
X0095445Y0042023D01*
X0095886Y0040957D01*
X0096702Y0040141D01*
X0097768Y0039700D01*
X0098922Y0039700D01*
X0099988Y0040141D01*
X0100803Y0040957D01*
X0100866Y0041109D01*
X0108390Y0033585D01*
X0108145Y0033340D01*
X0108145Y0029860D01*
X0110605Y0027400D01*
X0114085Y0027400D01*
X0116545Y0029860D01*
X0116545Y0033340D01*
X0114085Y0035800D01*
X0112115Y0035800D01*
X0103915Y0044000D01*
X0204475Y0044000D01*
X0208231Y0040244D01*
X0208145Y0040035D01*
X0208145Y0033165D01*
X0208784Y0031621D01*
X0208840Y0031565D01*
X0207975Y0030700D01*
X0206745Y0029470D01*
X0206745Y0019730D01*
X0208616Y0017859D01*
X0208276Y0017519D01*
X0207545Y0015755D01*
X0207545Y0007445D01*
X0208276Y0005681D01*
X0209626Y0004331D01*
X0209942Y0004200D01*
X0204748Y0004200D01*
X0205064Y0004331D01*
X0206414Y0005681D01*
X0207145Y0007445D01*
X0207145Y0015755D01*
X0206414Y0017519D01*
X0205064Y0018869D01*
X0203300Y0019600D01*
X0202815Y0019600D01*
X0200945Y0021470D01*
X0200945Y0027730D01*
X0203015Y0029800D01*
X0203180Y0029800D01*
X0204724Y0030439D01*
X0205905Y0031621D01*
X0206545Y0033165D01*
X0206545Y0040035D01*
X0205905Y0041579D01*
X0204724Y0042761D01*
X0203180Y0043400D01*
X0201509Y0043400D01*
X0199966Y0042761D01*
X0198784Y0041579D01*
X0198145Y0040035D01*
X0198145Y0033165D01*
X0198784Y0031621D01*
X0198840Y0031565D01*
X0197975Y0030700D01*
X0196745Y0029470D01*
X0196745Y0019730D01*
X0198616Y0017859D01*
X0198276Y0017519D01*
X0197545Y0015755D01*
X0197545Y0007445D01*
X0198276Y0005681D01*
X0199626Y0004331D01*
X0199942Y0004200D01*
X0194748Y0004200D01*
X0195064Y0004331D01*
X0196414Y0005681D01*
X0197145Y0007445D01*
X0197145Y0015755D01*
X0196414Y0017519D01*
X0195064Y0018869D01*
X0193300Y0019600D01*
X0192815Y0019600D01*
X0190945Y0021470D01*
X0190945Y0027730D01*
X0193015Y0029800D01*
X0193180Y0029800D01*
X0194724Y0030439D01*
X0195905Y0031621D01*
X0196545Y0033165D01*
X0196545Y0040035D01*
X0195905Y0041579D01*
X0194724Y0042761D01*
X0193180Y0043400D01*
X0191509Y0043400D01*
X0189966Y0042761D01*
X0188784Y0041579D01*
X0188145Y0040035D01*
X0188145Y0033165D01*
X0188784Y0031621D01*
X0188840Y0031565D01*
X0187975Y0030700D01*
X0186745Y0029470D01*
X0186745Y0019730D01*
X0188616Y0017859D01*
X0188276Y0017519D01*
X0187545Y0015755D01*
X0187545Y0007445D01*
X0188276Y0005681D01*
X0189626Y0004331D01*
X0189942Y0004200D01*
X0184748Y0004200D01*
X0185064Y0004331D01*
X0186414Y0005681D01*
X0187145Y0007445D01*
X0187145Y0015755D01*
X0186414Y0017519D01*
X0185064Y0018869D01*
X0183300Y0019600D01*
X0182815Y0019600D01*
X0180945Y0021470D01*
X0180945Y0027730D01*
X0183015Y0029800D01*
X0183180Y0029800D01*
X0184724Y0030439D01*
X0185905Y0031621D01*
X0186545Y0033165D01*
X0186545Y0040035D01*
X0185905Y0041579D01*
X0184724Y0042761D01*
X0183180Y0043400D01*
X0181509Y0043400D01*
X0179966Y0042761D01*
X0178784Y0041579D01*
X0178145Y0040035D01*
X0178145Y0033165D01*
X0178784Y0031621D01*
X0178840Y0031565D01*
X0177975Y0030700D01*
X0176745Y0029470D01*
X0176745Y0019730D01*
X0178616Y0017859D01*
X0178276Y0017519D01*
X0177545Y0015755D01*
X0177545Y0007445D01*
X0178276Y0005681D01*
X0179626Y0004331D01*
X0179942Y0004200D01*
X0174748Y0004200D01*
X0175064Y0004331D01*
X0176414Y0005681D01*
X0177145Y0007445D01*
X0177145Y0015755D01*
X0176414Y0017519D01*
X0175064Y0018869D01*
X0173300Y0019600D01*
X0172815Y0019600D01*
X0170945Y0021470D01*
X0170945Y0027730D01*
X0173015Y0029800D01*
X0173180Y0029800D01*
X0174724Y0030439D01*
X0175905Y0031621D01*
X0176545Y0033165D01*
X0176545Y0040035D01*
X0175905Y0041579D01*
X0174724Y0042761D01*
X0173180Y0043400D01*
X0171509Y0043400D01*
X0169966Y0042761D01*
X0168784Y0041579D01*
X0168145Y0040035D01*
X0168145Y0033165D01*
X0168784Y0031621D01*
X0168840Y0031565D01*
X0167975Y0030700D01*
X0166745Y0029470D01*
X0166745Y0019730D01*
X0168616Y0017859D01*
X0168276Y0017519D01*
X0167545Y0015755D01*
X0167545Y0007445D01*
X0168276Y0005681D01*
X0169626Y0004331D01*
X0169942Y0004200D01*
X0164748Y0004200D01*
X0165064Y0004331D01*
X0166414Y0005681D01*
X0167145Y0007445D01*
X0167145Y0015755D01*
X0166414Y0017519D01*
X0165064Y0018869D01*
X0163300Y0019600D01*
X0162815Y0019600D01*
X0160945Y0021470D01*
X0160945Y0027730D01*
X0163015Y0029800D01*
X0163180Y0029800D01*
X0164724Y0030439D01*
X0165905Y0031621D01*
X0166545Y0033165D01*
X0166545Y0040035D01*
X0165905Y0041579D01*
X0164724Y0042761D01*
X0163180Y0043400D01*
X0161509Y0043400D01*
X0159966Y0042761D01*
X0158784Y0041579D01*
X0158145Y0040035D01*
X0158145Y0033165D01*
X0158784Y0031621D01*
X0158840Y0031565D01*
X0157975Y0030700D01*
X0156745Y0029470D01*
X0156745Y0019730D01*
X0158616Y0017859D01*
X0158276Y0017519D01*
X0157545Y0015755D01*
X0157545Y0007445D01*
X0158276Y0005681D01*
X0159626Y0004331D01*
X0159942Y0004200D01*
X0154748Y0004200D01*
X0155064Y0004331D01*
X0156414Y0005681D01*
X0157145Y0007445D01*
X0157145Y0015755D01*
X0156414Y0017519D01*
X0155064Y0018869D01*
X0153300Y0019600D01*
X0152815Y0019600D01*
X0150945Y0021470D01*
X0150945Y0027730D01*
X0153015Y0029800D01*
X0153180Y0029800D01*
X0154724Y0030439D01*
X0155905Y0031621D01*
X0156545Y0033165D01*
X0156545Y0040035D01*
X0155905Y0041579D01*
X0154724Y0042761D01*
X0153180Y0043400D01*
X0151509Y0043400D01*
X0149966Y0042761D01*
X0148784Y0041579D01*
X0148145Y0040035D01*
X0148145Y0033165D01*
X0148784Y0031621D01*
X0148840Y0031565D01*
X0147975Y0030700D01*
X0146745Y0029470D01*
X0146745Y0019730D01*
X0148616Y0017859D01*
X0148276Y0017519D01*
X0147545Y0015755D01*
X0147545Y0007445D01*
X0148276Y0005681D01*
X0149626Y0004331D01*
X0149942Y0004200D01*
X0144748Y0004200D01*
X0145064Y0004331D01*
X0146414Y0005681D01*
X0147145Y0007445D01*
X0147145Y0015755D01*
X0146414Y0017519D01*
X0145064Y0018869D01*
X0143300Y0019600D01*
X0142815Y0019600D01*
X0140945Y0021470D01*
X0140945Y0027730D01*
X0143015Y0029800D01*
X0143180Y0029800D01*
X0144724Y0030439D01*
X0145905Y0031621D01*
X0146545Y0033165D01*
X0146545Y0040035D01*
X0145905Y0041579D01*
X0144724Y0042761D01*
X0143180Y0043400D01*
X0141509Y0043400D01*
X0139966Y0042761D01*
X0138784Y0041579D01*
X0138145Y0040035D01*
X0138145Y0033165D01*
X0138784Y0031621D01*
X0138840Y0031565D01*
X0137975Y0030700D01*
X0136745Y0029470D01*
X0136745Y0019730D01*
X0138616Y0017859D01*
X0138276Y0017519D01*
X0137545Y0015755D01*
X0137545Y0007445D01*
X0138276Y0005681D01*
X0139626Y0004331D01*
X0139942Y0004200D01*
X0134748Y0004200D01*
X0135064Y0004331D01*
X0136414Y0005681D01*
X0137145Y0007445D01*
X0137145Y0015755D01*
X0136414Y0017519D01*
X0135064Y0018869D01*
X0133300Y0019600D01*
X0132815Y0019600D01*
X0130945Y0021470D01*
X0130945Y0027730D01*
X0133015Y0029800D01*
X0133180Y0029800D01*
X0134724Y0030439D01*
X0135905Y0031621D01*
X0136545Y0033165D01*
X0136545Y0040035D01*
X0135905Y0041579D01*
X0134724Y0042761D01*
X0133180Y0043400D01*
X0131509Y0043400D01*
X0129966Y0042761D01*
X0128784Y0041579D01*
X0128145Y0040035D01*
X0128145Y0033165D01*
X0128784Y0031621D01*
X0128840Y0031565D01*
X0127975Y0030700D01*
X0126745Y0029470D01*
X0126745Y0019730D01*
X0128616Y0017859D01*
X0128276Y0017519D01*
X0127545Y0015755D01*
X0127545Y0007445D01*
X0128276Y0005681D01*
X0129626Y0004331D01*
X0129942Y0004200D01*
X0124748Y0004200D01*
X0125064Y0004331D01*
X0126414Y0005681D01*
X0127145Y0007445D01*
X0127145Y0015755D01*
X0126414Y0017519D01*
X0125064Y0018869D01*
X0123300Y0019600D01*
X0121390Y0019600D01*
X0119626Y0018869D01*
X0118276Y0017519D01*
X0117545Y0015755D01*
X0117545Y0007445D01*
X0118276Y0005681D01*
X0119626Y0004331D01*
X0119942Y0004200D01*
X0024945Y0004200D01*
X0024945Y0005196D02*
X0118761Y0005196D01*
X0117980Y0006394D02*
X0024945Y0006394D01*
X0024945Y0007593D02*
X0029635Y0007593D01*
X0029654Y0007573D02*
X0031400Y0006850D01*
X0033290Y0006850D01*
X0035036Y0007573D01*
X0036372Y0008909D01*
X0037095Y0010655D01*
X0037095Y0012545D01*
X0036372Y0014291D01*
X0035036Y0015627D01*
X0033290Y0016350D01*
X0031400Y0016350D01*
X0029654Y0015627D01*
X0028318Y0014291D01*
X0027595Y0012545D01*
X0027595Y0010655D01*
X0028318Y0008909D01*
X0029654Y0007573D01*
X0028436Y0008791D02*
X0024945Y0008791D01*
X0024945Y0009990D02*
X0027871Y0009990D01*
X0027595Y0011188D02*
X0024945Y0011188D01*
X0024945Y0012387D02*
X0027595Y0012387D01*
X0028026Y0013585D02*
X0024945Y0013585D01*
X0024945Y0014784D02*
X0028811Y0014784D01*
X0030512Y0015982D02*
X0024945Y0015982D01*
X0024945Y0017181D02*
X0057280Y0017181D01*
X0057280Y0018379D02*
X0024945Y0018379D01*
X0024945Y0019578D02*
X0057280Y0019578D01*
X0057280Y0020776D02*
X0024945Y0020776D01*
X0024945Y0021975D02*
X0057654Y0021975D01*
X0057280Y0021072D02*
X0057280Y0012128D01*
X0058051Y0010267D01*
X0059476Y0008842D01*
X0061337Y0008071D01*
X0063352Y0008071D01*
X0065214Y0008842D01*
X0066638Y0010267D01*
X0067345Y0011972D01*
X0068051Y0010267D01*
X0069476Y0008842D01*
X0071337Y0008071D01*
X0073352Y0008071D01*
X0075214Y0008842D01*
X0076638Y0010267D01*
X0077345Y0011972D01*
X0078051Y0010267D01*
X0079476Y0008842D01*
X0081337Y0008071D01*
X0083352Y0008071D01*
X0085214Y0008842D01*
X0086638Y0010267D01*
X0087409Y0012128D01*
X0087409Y0021072D01*
X0086638Y0022933D01*
X0085214Y0024358D01*
X0083352Y0025129D01*
X0081337Y0025129D01*
X0079476Y0024358D01*
X0078051Y0022933D01*
X0077345Y0021228D01*
X0076638Y0022933D01*
X0075214Y0024358D01*
X0074545Y0024635D01*
X0074545Y0026011D01*
X0063045Y0037511D01*
X0063045Y0058511D01*
X0060060Y0061496D01*
X0060087Y0061562D01*
X0060087Y0071638D01*
X0059244Y0073673D01*
X0057686Y0075231D01*
X0055651Y0076074D01*
X0053448Y0076074D01*
X0051413Y0075231D01*
X0049856Y0073673D01*
X0049013Y0071638D01*
X0049013Y0061562D01*
X0049856Y0059527D01*
X0051413Y0057969D01*
X0053448Y0057126D01*
X0055651Y0057126D01*
X0057459Y0057875D01*
X0058645Y0056689D01*
X0058645Y0035689D01*
X0059934Y0034400D01*
X0069829Y0024504D01*
X0069476Y0024358D01*
X0068051Y0022933D01*
X0067345Y0021228D01*
X0066638Y0022933D01*
X0065214Y0024358D01*
X0063352Y0025129D01*
X0061337Y0025129D01*
X0059476Y0024358D01*
X0058051Y0022933D01*
X0057280Y0021072D01*
X0058291Y0023173D02*
X0024945Y0023173D01*
X0024945Y0024372D02*
X0059509Y0024372D01*
X0065181Y0024372D02*
X0069509Y0024372D01*
X0068763Y0025570D02*
X0024945Y0025570D01*
X0024945Y0026769D02*
X0067565Y0026769D01*
X0066366Y0027967D02*
X0045430Y0027967D01*
X0044812Y0027350D02*
X0043045Y0027350D01*
X0043045Y0031900D01*
X0043045Y0032300D01*
X0047595Y0032300D01*
X0047595Y0034068D01*
X0044812Y0036850D01*
X0043045Y0036850D01*
X0043045Y0032300D01*
X0042645Y0032300D01*
X0042645Y0036850D01*
X0040877Y0036850D01*
X0038095Y0034068D01*
X0038095Y0032300D01*
X0042645Y0032300D01*
X0042645Y0031900D01*
X0043045Y0031900D01*
X0047595Y0031900D01*
X0047595Y0030132D01*
X0044812Y0027350D01*
X0043045Y0027967D02*
X0042645Y0027967D01*
X0042645Y0027350D02*
X0040877Y0027350D01*
X0038095Y0030132D01*
X0038095Y0031900D01*
X0042645Y0031900D01*
X0042645Y0027350D01*
X0042645Y0029166D02*
X0043045Y0029166D01*
X0043045Y0030364D02*
X0042645Y0030364D01*
X0042645Y0031563D02*
X0043045Y0031563D01*
X0043045Y0032761D02*
X0042645Y0032761D01*
X0042645Y0033960D02*
X0043045Y0033960D01*
X0043045Y0035158D02*
X0042645Y0035158D01*
X0042645Y0036357D02*
X0043045Y0036357D01*
X0045306Y0036357D02*
X0058645Y0036357D01*
X0058645Y0037555D02*
X0024945Y0037555D01*
X0024945Y0036357D02*
X0030709Y0036357D01*
X0030154Y0036127D02*
X0028818Y0034791D01*
X0028095Y0033045D01*
X0028095Y0031155D01*
X0028818Y0029409D01*
X0030154Y0028073D01*
X0031900Y0027350D01*
X0033790Y0027350D01*
X0035536Y0028073D01*
X0036872Y0029409D01*
X0037595Y0031155D01*
X0037595Y0033045D01*
X0036872Y0034791D01*
X0035536Y0036127D01*
X0033790Y0036850D01*
X0031900Y0036850D01*
X0030154Y0036127D01*
X0029186Y0035158D02*
X0024945Y0035158D01*
X0024945Y0033960D02*
X0028474Y0033960D01*
X0028095Y0032761D02*
X0024945Y0032761D01*
X0024945Y0031563D02*
X0028095Y0031563D01*
X0028422Y0030364D02*
X0024945Y0030364D01*
X0024945Y0029166D02*
X0029062Y0029166D01*
X0030410Y0027967D02*
X0024945Y0027967D01*
X0035280Y0027967D02*
X0040260Y0027967D01*
X0039062Y0029166D02*
X0036628Y0029166D01*
X0037267Y0030364D02*
X0038095Y0030364D01*
X0038095Y0031563D02*
X0037595Y0031563D01*
X0037595Y0032761D02*
X0038095Y0032761D01*
X0038095Y0033960D02*
X0037216Y0033960D01*
X0036504Y0035158D02*
X0039186Y0035158D01*
X0040384Y0036357D02*
X0034980Y0036357D01*
X0024945Y0038754D02*
X0058645Y0038754D01*
X0058645Y0039952D02*
X0024945Y0039952D01*
X0024945Y0041151D02*
X0058645Y0041151D01*
X0058645Y0042349D02*
X0047725Y0042349D01*
X0047578Y0042302D02*
X0048407Y0042571D01*
X0049184Y0042967D01*
X0049889Y0043479D01*
X0050505Y0044095D01*
X0051018Y0044800D01*
X0051413Y0045577D01*
X0051683Y0046406D01*
X0051819Y0047267D01*
X0051819Y0047318D01*
X0042729Y0047318D01*
X0042729Y0042165D01*
X0046718Y0042165D01*
X0047578Y0042302D01*
X0049958Y0043548D02*
X0058645Y0043548D01*
X0058645Y0044746D02*
X0050978Y0044746D01*
X0051533Y0045945D02*
X0058645Y0045945D01*
X0058645Y0047143D02*
X0051799Y0047143D01*
X0051819Y0048087D02*
X0051819Y0048138D01*
X0051683Y0048999D01*
X0051413Y0049828D01*
X0051018Y0050604D01*
X0050505Y0051309D01*
X0049889Y0051926D01*
X0049184Y0052438D01*
X0048407Y0052834D01*
X0047578Y0053103D01*
X0046718Y0053239D01*
X0042729Y0053239D01*
X0042729Y0048087D01*
X0041961Y0048087D01*
X0041961Y0053239D01*
X0037972Y0053239D01*
X0037111Y0053103D01*
X0036282Y0052834D01*
X0035506Y0052438D01*
X0034801Y0051926D01*
X0034184Y0051309D01*
X0033672Y0050604D01*
X0033277Y0049828D01*
X0033007Y0048999D01*
X0032871Y0048138D01*
X0032871Y0048087D01*
X0041961Y0048087D01*
X0041961Y0047318D01*
X0042729Y0047318D01*
X0042729Y0048087D01*
X0051819Y0048087D01*
X0051787Y0048342D02*
X0058645Y0048342D01*
X0058645Y0049540D02*
X0051507Y0049540D01*
X0050920Y0050739D02*
X0058645Y0050739D01*
X0058645Y0051937D02*
X0049873Y0051937D01*
X0047370Y0053136D02*
X0058645Y0053136D01*
X0058645Y0054334D02*
X0024945Y0054334D01*
X0024945Y0053136D02*
X0037319Y0053136D01*
X0034817Y0051937D02*
X0024945Y0051937D01*
X0024945Y0050739D02*
X0033770Y0050739D01*
X0033183Y0049540D02*
X0024945Y0049540D01*
X0024945Y0048342D02*
X0032903Y0048342D01*
X0032871Y0047318D02*
X0032871Y0047267D01*
X0033007Y0046406D01*
X0033277Y0045577D01*
X0033672Y0044800D01*
X0034184Y0044095D01*
X0034801Y0043479D01*
X0035506Y0042967D01*
X0036282Y0042571D01*
X0037111Y0042302D01*
X0037972Y0042165D01*
X0041961Y0042165D01*
X0041961Y0047318D01*
X0032871Y0047318D01*
X0032890Y0047143D02*
X0024945Y0047143D01*
X0024945Y0045945D02*
X0033157Y0045945D01*
X0033711Y0044746D02*
X0024945Y0044746D01*
X0024945Y0043548D02*
X0034732Y0043548D01*
X0036965Y0042349D02*
X0024945Y0042349D01*
X0041961Y0042349D02*
X0042729Y0042349D01*
X0042729Y0043548D02*
X0041961Y0043548D01*
X0041961Y0044746D02*
X0042729Y0044746D01*
X0042729Y0045945D02*
X0041961Y0045945D01*
X0041961Y0047143D02*
X0042729Y0047143D01*
X0042729Y0048342D02*
X0041961Y0048342D01*
X0041961Y0049540D02*
X0042729Y0049540D01*
X0042729Y0050739D02*
X0041961Y0050739D01*
X0041961Y0051937D02*
X0042729Y0051937D01*
X0042729Y0053136D02*
X0041961Y0053136D01*
X0033436Y0057927D02*
X0032659Y0057532D01*
X0031830Y0057262D01*
X0030970Y0057126D01*
X0030918Y0057126D01*
X0030918Y0066216D01*
X0030918Y0066984D01*
X0036071Y0066984D01*
X0036071Y0070973D01*
X0035935Y0071834D01*
X0035665Y0072662D01*
X0035270Y0073439D01*
X0034757Y0074144D01*
X0034141Y0074760D01*
X0033436Y0075273D01*
X0032659Y0075668D01*
X0031830Y0075938D01*
X0030970Y0076074D01*
X0030918Y0076074D01*
X0030918Y0066984D01*
X0030150Y0066984D01*
X0030150Y0076074D01*
X0030098Y0076074D01*
X0029237Y0075938D01*
X0028408Y0075668D01*
X0027632Y0075273D01*
X0026927Y0074760D01*
X0026310Y0074144D01*
X0025798Y0073439D01*
X0025403Y0072662D01*
X0025133Y0071834D01*
X0024997Y0070973D01*
X0024997Y0066984D01*
X0030150Y0066984D01*
X0030150Y0066216D01*
X0030918Y0066216D01*
X0036071Y0066216D01*
X0036071Y0062227D01*
X0035935Y0061366D01*
X0035665Y0060538D01*
X0035270Y0059761D01*
X0034757Y0059056D01*
X0034141Y0058440D01*
X0033436Y0057927D01*
X0033440Y0057930D02*
X0051507Y0057930D01*
X0050254Y0059129D02*
X0034810Y0059129D01*
X0035558Y0060327D02*
X0049524Y0060327D01*
X0049028Y0061526D02*
X0035960Y0061526D01*
X0036071Y0062724D02*
X0049013Y0062724D01*
X0049013Y0063923D02*
X0036071Y0063923D01*
X0036071Y0065121D02*
X0049013Y0065121D01*
X0049013Y0066320D02*
X0030918Y0066320D01*
X0030150Y0066320D02*
X0024945Y0066320D01*
X0024997Y0066216D02*
X0024997Y0062227D01*
X0025133Y0061366D01*
X0025403Y0060538D01*
X0025798Y0059761D01*
X0026310Y0059056D01*
X0026927Y0058440D01*
X0027632Y0057927D01*
X0028408Y0057532D01*
X0029237Y0057262D01*
X0030098Y0057126D01*
X0030150Y0057126D01*
X0030150Y0066216D01*
X0024997Y0066216D01*
X0024997Y0065121D02*
X0024945Y0065121D01*
X0024945Y0063923D02*
X0024997Y0063923D01*
X0024997Y0062724D02*
X0024945Y0062724D01*
X0024945Y0061526D02*
X0025108Y0061526D01*
X0024945Y0060327D02*
X0025510Y0060327D01*
X0024945Y0059129D02*
X0026258Y0059129D01*
X0024945Y0057930D02*
X0027628Y0057930D01*
X0030150Y0057930D02*
X0030918Y0057930D01*
X0030918Y0059129D02*
X0030150Y0059129D01*
X0030150Y0060327D02*
X0030918Y0060327D01*
X0030918Y0061526D02*
X0030150Y0061526D01*
X0030150Y0062724D02*
X0030918Y0062724D01*
X0030918Y0063923D02*
X0030150Y0063923D01*
X0030150Y0065121D02*
X0030918Y0065121D01*
X0030918Y0067518D02*
X0030150Y0067518D01*
X0030150Y0068717D02*
X0030918Y0068717D01*
X0030918Y0069915D02*
X0030150Y0069915D01*
X0030150Y0071114D02*
X0030918Y0071114D01*
X0030918Y0072312D02*
X0030150Y0072312D01*
X0030150Y0073511D02*
X0030918Y0073511D01*
X0030918Y0074709D02*
X0030150Y0074709D01*
X0030150Y0075908D02*
X0030918Y0075908D01*
X0031923Y0075908D02*
X0053047Y0075908D01*
X0050891Y0074709D02*
X0034192Y0074709D01*
X0035217Y0073511D02*
X0049788Y0073511D01*
X0049292Y0072312D02*
X0035779Y0072312D01*
X0036049Y0071114D02*
X0049013Y0071114D01*
X0049013Y0069915D02*
X0036071Y0069915D01*
X0036071Y0068717D02*
X0049013Y0068717D01*
X0049013Y0067518D02*
X0036071Y0067518D01*
X0024997Y0067518D02*
X0024945Y0067518D01*
X0024945Y0068717D02*
X0024997Y0068717D01*
X0024997Y0069915D02*
X0024945Y0069915D01*
X0024945Y0071114D02*
X0025019Y0071114D01*
X0024945Y0072312D02*
X0025289Y0072312D01*
X0024945Y0073511D02*
X0025850Y0073511D01*
X0024945Y0074709D02*
X0026876Y0074709D01*
X0024945Y0075908D02*
X0029145Y0075908D01*
X0024945Y0077106D02*
X0043869Y0077106D01*
X0042670Y0078305D02*
X0024945Y0078305D01*
X0024945Y0079503D02*
X0041472Y0079503D01*
X0040273Y0080702D02*
X0024945Y0080702D01*
X0024945Y0081900D02*
X0039075Y0081900D01*
X0037876Y0083099D02*
X0024945Y0083099D01*
X0024945Y0084297D02*
X0034707Y0084297D01*
X0033461Y0085496D02*
X0024945Y0085496D01*
X0024945Y0086694D02*
X0032856Y0086694D01*
X0032545Y0087893D02*
X0024945Y0087893D01*
X0024945Y0089091D02*
X0032545Y0089091D01*
X0032545Y0090290D02*
X0024945Y0090290D01*
X0024945Y0091488D02*
X0032545Y0091488D01*
X0032545Y0092687D02*
X0024945Y0092687D01*
X0024945Y0093885D02*
X0032545Y0093885D01*
X0032545Y0095084D02*
X0024945Y0095084D01*
X0024945Y0096282D02*
X0032763Y0096282D01*
X0033260Y0097481D02*
X0024945Y0097481D01*
X0024945Y0098679D02*
X0034436Y0098679D01*
X0039748Y0099000D02*
X0044942Y0099000D01*
X0044626Y0098869D01*
X0043276Y0097519D01*
X0042545Y0095755D01*
X0042545Y0087445D01*
X0043276Y0085681D01*
X0044626Y0084331D01*
X0046390Y0083600D01*
X0048300Y0083600D01*
X0050064Y0084331D01*
X0051414Y0085681D01*
X0052145Y0087445D01*
X0052145Y0095755D01*
X0051414Y0097519D01*
X0050064Y0098869D01*
X0049748Y0099000D01*
X0055015Y0099000D01*
X0054829Y0098905D01*
X0054218Y0098461D01*
X0053684Y0097927D01*
X0053240Y0097316D01*
X0052897Y0096643D01*
X0052663Y0095924D01*
X0052545Y0095178D01*
X0052545Y0092000D01*
X0056945Y0092000D01*
X0056945Y0091200D01*
X0057745Y0091200D01*
X0057745Y0092000D01*
X0062145Y0092000D01*
X0062145Y0095178D01*
X0062027Y0095924D01*
X0061793Y0096643D01*
X0061450Y0097316D01*
X0061006Y0097927D01*
X0060472Y0098461D01*
X0059861Y0098905D01*
X0059675Y0099000D01*
X0064942Y0099000D01*
X0064626Y0098869D01*
X0063276Y0097519D01*
X0062545Y0095755D01*
X0062545Y0087445D01*
X0063276Y0085681D01*
X0064626Y0084331D01*
X0066390Y0083600D01*
X0068300Y0083600D01*
X0070064Y0084331D01*
X0071414Y0085681D01*
X0072145Y0087445D01*
X0072145Y0095755D01*
X0071414Y0097519D01*
X0070064Y0098869D01*
X0069748Y0099000D01*
X0074942Y0099000D01*
X0074626Y0098869D01*
X0073276Y0097519D01*
X0072545Y0095755D01*
X0072545Y0087445D01*
X0073276Y0085681D01*
X0074626Y0084331D01*
X0076390Y0083600D01*
X0077375Y0083600D01*
X0085745Y0075230D01*
X0085745Y0074670D01*
X0079715Y0080700D01*
X0077975Y0080700D01*
X0046215Y0080700D01*
X0041324Y0085591D01*
X0041414Y0085681D01*
X0042145Y0087445D01*
X0042145Y0095755D01*
X0041414Y0097519D01*
X0040064Y0098869D01*
X0039748Y0099000D01*
X0040254Y0098679D02*
X0044436Y0098679D01*
X0043260Y0097481D02*
X0041430Y0097481D01*
X0041926Y0096282D02*
X0042763Y0096282D01*
X0042545Y0095084D02*
X0042145Y0095084D01*
X0042145Y0093885D02*
X0042545Y0093885D01*
X0042545Y0092687D02*
X0042145Y0092687D01*
X0042145Y0091488D02*
X0042545Y0091488D01*
X0042545Y0090290D02*
X0042145Y0090290D01*
X0042145Y0089091D02*
X0042545Y0089091D01*
X0042545Y0087893D02*
X0042145Y0087893D01*
X0041834Y0086694D02*
X0042856Y0086694D01*
X0043461Y0085496D02*
X0041419Y0085496D01*
X0042617Y0084297D02*
X0044707Y0084297D01*
X0043816Y0083099D02*
X0077876Y0083099D01*
X0079075Y0081900D02*
X0045014Y0081900D01*
X0046213Y0080702D02*
X0080273Y0080702D01*
X0080911Y0079503D02*
X0081472Y0079503D01*
X0082110Y0078305D02*
X0082670Y0078305D01*
X0083309Y0077106D02*
X0083869Y0077106D01*
X0084507Y0075908D02*
X0085067Y0075908D01*
X0085706Y0074709D02*
X0085745Y0074709D01*
X0089945Y0074709D02*
X0094514Y0074709D01*
X0093645Y0073840D02*
X0093645Y0070360D01*
X0096105Y0067900D01*
X0099585Y0067900D01*
X0102045Y0070360D01*
X0102045Y0073840D01*
X0099585Y0076300D01*
X0096105Y0076300D01*
X0093645Y0073840D01*
X0093645Y0073511D02*
X0089945Y0073511D01*
X0089945Y0072312D02*
X0093645Y0072312D01*
X0093645Y0071114D02*
X0089945Y0071114D01*
X0089945Y0069915D02*
X0094090Y0069915D01*
X0095289Y0068717D02*
X0089945Y0068717D01*
X0089945Y0067518D02*
X0118145Y0067518D01*
X0118145Y0066320D02*
X0089945Y0066320D01*
X0090605Y0065800D02*
X0089945Y0065140D01*
X0089945Y0076970D01*
X0088715Y0078200D01*
X0081324Y0085591D01*
X0081414Y0085681D01*
X0082145Y0087445D01*
X0082145Y0095755D01*
X0081414Y0097519D01*
X0080064Y0098869D01*
X0079748Y0099000D01*
X0084942Y0099000D01*
X0084626Y0098869D01*
X0083276Y0097519D01*
X0082545Y0095755D01*
X0082545Y0087445D01*
X0083276Y0085681D01*
X0084626Y0084331D01*
X0086390Y0083600D01*
X0088300Y0083600D01*
X0090064Y0084331D01*
X0091414Y0085681D01*
X0092145Y0087445D01*
X0092145Y0095755D01*
X0091414Y0097519D01*
X0090064Y0098869D01*
X0089748Y0099000D01*
X0119942Y0099000D01*
X0119626Y0098869D01*
X0118276Y0097519D01*
X0117545Y0095755D01*
X0117545Y0087445D01*
X0118276Y0085681D01*
X0119626Y0084331D01*
X0121390Y0083600D01*
X0123300Y0083600D01*
X0125064Y0084331D01*
X0126414Y0085681D01*
X0127145Y0087445D01*
X0127145Y0095755D01*
X0126414Y0097519D01*
X0125064Y0098869D01*
X0124748Y0099000D01*
X0130015Y0099000D01*
X0129829Y0098905D01*
X0129218Y0098461D01*
X0128684Y0097927D01*
X0128240Y0097316D01*
X0127897Y0096643D01*
X0127663Y0095924D01*
X0127545Y0095178D01*
X0127545Y0092000D01*
X0131945Y0092000D01*
X0131945Y0091200D01*
X0132745Y0091200D01*
X0132745Y0092000D01*
X0137145Y0092000D01*
X0137145Y0095178D01*
X0137027Y0095924D01*
X0136793Y0096643D01*
X0136450Y0097316D01*
X0136006Y0097927D01*
X0135472Y0098461D01*
X0134861Y0098905D01*
X0134675Y0099000D01*
X0139942Y0099000D01*
X0139626Y0098869D01*
X0138276Y0097519D01*
X0137545Y0095755D01*
X0137545Y0087445D01*
X0138276Y0085681D01*
X0138616Y0085341D01*
X0136745Y0083470D01*
X0136745Y0073730D01*
X0137975Y0072500D01*
X0138840Y0071635D01*
X0138784Y0071579D01*
X0138145Y0070035D01*
X0138145Y0063165D01*
X0138784Y0061621D01*
X0139966Y0060439D01*
X0141509Y0059800D01*
X0143180Y0059800D01*
X0144724Y0060439D01*
X0145905Y0061621D01*
X0146545Y0063165D01*
X0146545Y0070035D01*
X0145905Y0071579D01*
X0144724Y0072761D01*
X0143180Y0073400D01*
X0143015Y0073400D01*
X0140945Y0075470D01*
X0140945Y0081730D01*
X0142815Y0083600D01*
X0143300Y0083600D01*
X0145064Y0084331D01*
X0146414Y0085681D01*
X0147145Y0087445D01*
X0147145Y0095755D01*
X0146414Y0097519D01*
X0145064Y0098869D01*
X0144748Y0099000D01*
X0149942Y0099000D01*
X0149626Y0098869D01*
X0148276Y0097519D01*
X0147545Y0095755D01*
X0147545Y0087445D01*
X0148276Y0085681D01*
X0148616Y0085341D01*
X0146745Y0083470D01*
X0146745Y0073730D01*
X0147975Y0072500D01*
X0148840Y0071635D01*
X0148784Y0071579D01*
X0148145Y0070035D01*
X0148145Y0063165D01*
X0148784Y0061621D01*
X0149966Y0060439D01*
X0151509Y0059800D01*
X0153180Y0059800D01*
X0154724Y0060439D01*
X0155905Y0061621D01*
X0156545Y0063165D01*
X0156545Y0070035D01*
X0155905Y0071579D01*
X0154724Y0072761D01*
X0153180Y0073400D01*
X0153015Y0073400D01*
X0150945Y0075470D01*
X0150945Y0081730D01*
X0152815Y0083600D01*
X0153300Y0083600D01*
X0155064Y0084331D01*
X0156414Y0085681D01*
X0157145Y0087445D01*
X0157145Y0095755D01*
X0156414Y0097519D01*
X0155064Y0098869D01*
X0154748Y0099000D01*
X0159942Y0099000D01*
X0159626Y0098869D01*
X0158276Y0097519D01*
X0157545Y0095755D01*
X0157545Y0087445D01*
X0158276Y0085681D01*
X0158616Y0085341D01*
X0156745Y0083470D01*
X0156745Y0073730D01*
X0157975Y0072500D01*
X0158840Y0071635D01*
X0158784Y0071579D01*
X0158145Y0070035D01*
X0158145Y0063165D01*
X0158784Y0061621D01*
X0159966Y0060439D01*
X0161509Y0059800D01*
X0163180Y0059800D01*
X0164724Y0060439D01*
X0165905Y0061621D01*
X0166545Y0063165D01*
X0166545Y0070035D01*
X0165905Y0071579D01*
X0164724Y0072761D01*
X0163180Y0073400D01*
X0163015Y0073400D01*
X0160945Y0075470D01*
X0160945Y0081730D01*
X0162815Y0083600D01*
X0163300Y0083600D01*
X0165064Y0084331D01*
X0166414Y0085681D01*
X0167145Y0087445D01*
X0167145Y0095755D01*
X0166414Y0097519D01*
X0165064Y0098869D01*
X0164748Y0099000D01*
X0169942Y0099000D01*
X0169626Y0098869D01*
X0168276Y0097519D01*
X0167545Y0095755D01*
X0167545Y0087445D01*
X0168276Y0085681D01*
X0168616Y0085341D01*
X0166745Y0083470D01*
X0166745Y0073730D01*
X0167975Y0072500D01*
X0168840Y0071635D01*
X0168784Y0071579D01*
X0168145Y0070035D01*
X0168145Y0063165D01*
X0168784Y0061621D01*
X0169966Y0060439D01*
X0171509Y0059800D01*
X0173180Y0059800D01*
X0174724Y0060439D01*
X0175905Y0061621D01*
X0176545Y0063165D01*
X0176545Y0070035D01*
X0175905Y0071579D01*
X0174724Y0072761D01*
X0173180Y0073400D01*
X0173015Y0073400D01*
X0170945Y0075470D01*
X0170945Y0081730D01*
X0172815Y0083600D01*
X0173300Y0083600D01*
X0175064Y0084331D01*
X0176414Y0085681D01*
X0177145Y0087445D01*
X0177145Y0095755D01*
X0176414Y0097519D01*
X0175064Y0098869D01*
X0174748Y0099000D01*
X0179942Y0099000D01*
X0179626Y0098869D01*
X0178276Y0097519D01*
X0177545Y0095755D01*
X0177545Y0087445D01*
X0178276Y0085681D01*
X0178616Y0085341D01*
X0176745Y0083470D01*
X0176745Y0073730D01*
X0177975Y0072500D01*
X0177975Y0072500D01*
X0178840Y0071635D01*
X0178784Y0071579D01*
X0178145Y0070035D01*
X0178145Y0063165D01*
X0178784Y0061621D01*
X0179966Y0060439D01*
X0181509Y0059800D01*
X0183180Y0059800D01*
X0184724Y0060439D01*
X0185905Y0061621D01*
X0186545Y0063165D01*
X0186545Y0070035D01*
X0185905Y0071579D01*
X0184724Y0072761D01*
X0183180Y0073400D01*
X0183015Y0073400D01*
X0180945Y0075470D01*
X0180945Y0081730D01*
X0182815Y0083600D01*
X0183300Y0083600D01*
X0185064Y0084331D01*
X0186414Y0085681D01*
X0187145Y0087445D01*
X0187145Y0095755D01*
X0186414Y0097519D01*
X0185064Y0098869D01*
X0184748Y0099000D01*
X0189942Y0099000D01*
X0189626Y0098869D01*
X0188276Y0097519D01*
X0187545Y0095755D01*
X0187545Y0087445D01*
X0188276Y0085681D01*
X0188616Y0085341D01*
X0186745Y0083470D01*
X0186745Y0073730D01*
X0187975Y0072500D01*
X0188840Y0071635D01*
X0188784Y0071579D01*
X0188145Y0070035D01*
X0188145Y0063165D01*
X0188784Y0061621D01*
X0189966Y0060439D01*
X0191509Y0059800D01*
X0193180Y0059800D01*
X0194724Y0060439D01*
X0195905Y0061621D01*
X0196545Y0063165D01*
X0196545Y0070035D01*
X0195905Y0071579D01*
X0194724Y0072761D01*
X0193180Y0073400D01*
X0193015Y0073400D01*
X0190945Y0075470D01*
X0190945Y0081730D01*
X0192815Y0083600D01*
X0193300Y0083600D01*
X0195064Y0084331D01*
X0196414Y0085681D01*
X0197145Y0087445D01*
X0197145Y0095755D01*
X0196414Y0097519D01*
X0195064Y0098869D01*
X0194748Y0099000D01*
X0199942Y0099000D01*
X0199626Y0098869D01*
X0198276Y0097519D01*
X0197545Y0095755D01*
X0197545Y0087445D01*
X0198276Y0085681D01*
X0198616Y0085341D01*
X0196745Y0083470D01*
X0196745Y0073730D01*
X0197975Y0072500D01*
X0198840Y0071635D01*
X0198784Y0071579D01*
X0198145Y0070035D01*
X0198145Y0063165D01*
X0198784Y0061621D01*
X0199966Y0060439D01*
X0201509Y0059800D01*
X0203180Y0059800D01*
X0204724Y0060439D01*
X0205905Y0061621D01*
X0206545Y0063165D01*
X0206545Y0070035D01*
X0205905Y0071579D01*
X0204724Y0072761D01*
X0203180Y0073400D01*
X0203015Y0073400D01*
X0200945Y0075470D01*
X0200945Y0081730D01*
X0202815Y0083600D01*
X0203300Y0083600D01*
X0205064Y0084331D01*
X0206414Y0085681D01*
X0207145Y0087445D01*
X0207145Y0095755D01*
X0206414Y0097519D01*
X0205064Y0098869D01*
X0204748Y0099000D01*
X0209942Y0099000D01*
X0209626Y0098869D01*
X0208276Y0097519D01*
X0207545Y0095755D01*
X0207545Y0087445D01*
X0208276Y0085681D01*
X0208616Y0085341D01*
X0206745Y0083470D01*
X0206745Y0073730D01*
X0207975Y0072500D01*
X0208840Y0071635D01*
X0208784Y0071579D01*
X0208145Y0070035D01*
X0208145Y0063165D01*
X0208784Y0061621D01*
X0209966Y0060439D01*
X0211509Y0059800D01*
X0213180Y0059800D01*
X0214724Y0060439D01*
X0215905Y0061621D01*
X0216545Y0063165D01*
X0216545Y0070035D01*
X0215905Y0071579D01*
X0214724Y0072761D01*
X0213180Y0073400D01*
X0213015Y0073400D01*
X0210945Y0075470D01*
X0210945Y0081730D01*
X0212815Y0083600D01*
X0213300Y0083600D01*
X0215064Y0084331D01*
X0216414Y0085681D01*
X0217145Y0087445D01*
X0217145Y0095755D01*
X0216414Y0097519D01*
X0215064Y0098869D01*
X0214748Y0099000D01*
X0219745Y0099000D01*
X0219745Y0004200D01*
X0214748Y0004200D01*
X0215064Y0004331D01*
X0216414Y0005681D01*
X0217145Y0007445D01*
X0217145Y0015755D01*
X0216414Y0017519D01*
X0215064Y0018869D01*
X0213300Y0019600D01*
X0212815Y0019600D01*
X0210945Y0021470D01*
X0210945Y0027730D01*
X0213015Y0029800D01*
X0213180Y0029800D01*
X0214724Y0030439D01*
X0215905Y0031621D01*
X0216545Y0033165D01*
X0216545Y0040035D01*
X0215905Y0041579D01*
X0214724Y0042761D01*
X0213180Y0043400D01*
X0211509Y0043400D01*
X0211160Y0043255D01*
X0206215Y0048200D01*
X0204475Y0048200D01*
X0102715Y0048200D01*
X0093515Y0057400D01*
X0094085Y0057400D01*
X0096545Y0059860D01*
X0096545Y0063340D01*
X0094085Y0065800D01*
X0090605Y0065800D01*
X0094763Y0065121D02*
X0099926Y0065121D01*
X0100605Y0065800D02*
X0098145Y0063340D01*
X0098145Y0059860D01*
X0100605Y0057400D01*
X0104085Y0057400D01*
X0106545Y0059860D01*
X0106545Y0060000D01*
X0108145Y0060000D01*
X0108145Y0059860D01*
X0110605Y0057400D01*
X0114085Y0057400D01*
X0116545Y0059860D01*
X0116545Y0063340D01*
X0114085Y0065800D01*
X0110605Y0065800D01*
X0109005Y0064200D01*
X0105685Y0064200D01*
X0104085Y0065800D01*
X0100605Y0065800D01*
X0098728Y0063923D02*
X0095962Y0063923D01*
X0096545Y0062724D02*
X0098145Y0062724D01*
X0098145Y0061526D02*
X0096545Y0061526D01*
X0096545Y0060327D02*
X0098145Y0060327D01*
X0098877Y0059129D02*
X0095813Y0059129D01*
X0094615Y0057930D02*
X0100075Y0057930D01*
X0104615Y0057930D02*
X0110075Y0057930D01*
X0108877Y0059129D02*
X0105813Y0059129D01*
X0114615Y0057930D02*
X0219745Y0057930D01*
X0219745Y0059129D02*
X0115813Y0059129D01*
X0116545Y0060327D02*
X0120237Y0060327D01*
X0119966Y0060439D02*
X0121509Y0059800D01*
X0123180Y0059800D01*
X0124724Y0060439D01*
X0125905Y0061621D01*
X0126545Y0063165D01*
X0126545Y0070035D01*
X0125905Y0071579D01*
X0124724Y0072761D01*
X0123180Y0073400D01*
X0121509Y0073400D01*
X0119966Y0072761D01*
X0118784Y0071579D01*
X0118145Y0070035D01*
X0118145Y0063165D01*
X0118784Y0061621D01*
X0119966Y0060439D01*
X0118880Y0061526D02*
X0116545Y0061526D01*
X0116545Y0062724D02*
X0118327Y0062724D01*
X0118145Y0063923D02*
X0115962Y0063923D01*
X0114763Y0065121D02*
X0118145Y0065121D01*
X0118145Y0068717D02*
X0110401Y0068717D01*
X0109585Y0067900D02*
X0112045Y0070360D01*
X0112045Y0071900D01*
X0108045Y0071900D01*
X0108045Y0072300D01*
X0112045Y0072300D01*
X0112045Y0073840D01*
X0109585Y0076300D01*
X0108045Y0076300D01*
X0108045Y0072300D01*
X0107645Y0072300D01*
X0107645Y0076300D01*
X0106105Y0076300D01*
X0103645Y0073840D01*
X0103645Y0072300D01*
X0107645Y0072300D01*
X0107645Y0071900D01*
X0108045Y0071900D01*
X0108045Y0067900D01*
X0109585Y0067900D01*
X0108045Y0068717D02*
X0107645Y0068717D01*
X0107645Y0067900D02*
X0106105Y0067900D01*
X0103645Y0070360D01*
X0103645Y0071900D01*
X0107645Y0071900D01*
X0107645Y0067900D01*
X0105289Y0068717D02*
X0100401Y0068717D01*
X0101600Y0069915D02*
X0104090Y0069915D01*
X0103645Y0071114D02*
X0102045Y0071114D01*
X0102045Y0072312D02*
X0103645Y0072312D01*
X0103645Y0073511D02*
X0102045Y0073511D01*
X0101175Y0074709D02*
X0104514Y0074709D01*
X0105713Y0075908D02*
X0099977Y0075908D01*
X0099585Y0078400D02*
X0096105Y0078400D01*
X0093645Y0080860D01*
X0093645Y0084340D01*
X0096105Y0086800D01*
X0099585Y0086800D01*
X0102045Y0084340D01*
X0102045Y0080860D01*
X0099585Y0078400D01*
X0100688Y0079503D02*
X0105002Y0079503D01*
X0106105Y0078400D02*
X0103645Y0080860D01*
X0103645Y0082400D01*
X0107645Y0082400D01*
X0108045Y0082400D01*
X0108045Y0082800D01*
X0112045Y0082800D01*
X0112045Y0084340D01*
X0109585Y0086800D01*
X0108045Y0086800D01*
X0108045Y0082800D01*
X0107645Y0082800D01*
X0107645Y0086800D01*
X0106105Y0086800D01*
X0103645Y0084340D01*
X0103645Y0082800D01*
X0107645Y0082800D01*
X0107645Y0082400D01*
X0107645Y0078400D01*
X0106105Y0078400D01*
X0108045Y0078400D02*
X0109585Y0078400D01*
X0112045Y0080860D01*
X0112045Y0082400D01*
X0108045Y0082400D01*
X0108045Y0078400D01*
X0108045Y0079503D02*
X0107645Y0079503D01*
X0107645Y0080702D02*
X0108045Y0080702D01*
X0108045Y0081900D02*
X0107645Y0081900D01*
X0107645Y0083099D02*
X0108045Y0083099D01*
X0108045Y0084297D02*
X0107645Y0084297D01*
X0107645Y0085496D02*
X0108045Y0085496D01*
X0110889Y0085496D02*
X0118461Y0085496D01*
X0119707Y0084297D02*
X0112045Y0084297D01*
X0112045Y0083099D02*
X0136745Y0083099D01*
X0136745Y0081900D02*
X0112045Y0081900D01*
X0111886Y0080702D02*
X0136745Y0080702D01*
X0136745Y0079503D02*
X0110688Y0079503D01*
X0103803Y0080702D02*
X0101886Y0080702D01*
X0102045Y0081900D02*
X0103645Y0081900D01*
X0103645Y0083099D02*
X0102045Y0083099D01*
X0102045Y0084297D02*
X0103645Y0084297D01*
X0104801Y0085496D02*
X0100889Y0085496D01*
X0099690Y0086694D02*
X0105999Y0086694D01*
X0107645Y0086694D02*
X0108045Y0086694D01*
X0109690Y0086694D02*
X0117856Y0086694D01*
X0117545Y0087893D02*
X0092145Y0087893D01*
X0092145Y0089091D02*
X0117545Y0089091D01*
X0117545Y0090290D02*
X0092145Y0090290D01*
X0092145Y0091488D02*
X0117545Y0091488D01*
X0117545Y0092687D02*
X0092145Y0092687D01*
X0092145Y0093885D02*
X0117545Y0093885D01*
X0117545Y0095084D02*
X0092145Y0095084D01*
X0091926Y0096282D02*
X0117763Y0096282D01*
X0118260Y0097481D02*
X0091430Y0097481D01*
X0090254Y0098679D02*
X0119436Y0098679D01*
X0125254Y0098679D02*
X0129518Y0098679D01*
X0128360Y0097481D02*
X0126430Y0097481D01*
X0126926Y0096282D02*
X0127780Y0096282D01*
X0127545Y0095084D02*
X0127145Y0095084D01*
X0127145Y0093885D02*
X0127545Y0093885D01*
X0127545Y0092687D02*
X0127145Y0092687D01*
X0127145Y0091488D02*
X0131945Y0091488D01*
X0131945Y0091200D02*
X0127545Y0091200D01*
X0127545Y0088022D01*
X0127663Y0087276D01*
X0127897Y0086557D01*
X0128240Y0085884D01*
X0128684Y0085273D01*
X0129218Y0084739D01*
X0129829Y0084295D01*
X0130502Y0083952D01*
X0131221Y0083718D01*
X0131945Y0083604D01*
X0131945Y0091200D01*
X0132745Y0091200D02*
X0132745Y0083604D01*
X0133469Y0083718D01*
X0134187Y0083952D01*
X0134861Y0084295D01*
X0135472Y0084739D01*
X0136006Y0085273D01*
X0136450Y0085884D01*
X0136793Y0086557D01*
X0137027Y0087276D01*
X0137145Y0088022D01*
X0137145Y0091200D01*
X0132745Y0091200D01*
X0132745Y0091488D02*
X0137545Y0091488D01*
X0137545Y0090290D02*
X0137145Y0090290D01*
X0137145Y0089091D02*
X0137545Y0089091D01*
X0137545Y0087893D02*
X0137124Y0087893D01*
X0136838Y0086694D02*
X0137856Y0086694D01*
X0138461Y0085496D02*
X0136168Y0085496D01*
X0134864Y0084297D02*
X0137572Y0084297D01*
X0141115Y0081900D02*
X0146745Y0081900D01*
X0146745Y0080702D02*
X0140945Y0080702D01*
X0140945Y0079503D02*
X0146745Y0079503D01*
X0146745Y0078305D02*
X0140945Y0078305D01*
X0140945Y0077106D02*
X0146745Y0077106D01*
X0146745Y0075908D02*
X0140945Y0075908D01*
X0141706Y0074709D02*
X0146745Y0074709D01*
X0146964Y0073511D02*
X0142904Y0073511D01*
X0145172Y0072312D02*
X0148163Y0072312D01*
X0148591Y0071114D02*
X0146098Y0071114D01*
X0146545Y0069915D02*
X0148145Y0069915D01*
X0148145Y0068717D02*
X0146545Y0068717D01*
X0146545Y0067518D02*
X0148145Y0067518D01*
X0148145Y0066320D02*
X0146545Y0066320D01*
X0146545Y0065121D02*
X0148145Y0065121D01*
X0148145Y0063923D02*
X0146545Y0063923D01*
X0146362Y0062724D02*
X0148327Y0062724D01*
X0148880Y0061526D02*
X0145810Y0061526D01*
X0144453Y0060327D02*
X0150237Y0060327D01*
X0154453Y0060327D02*
X0160237Y0060327D01*
X0158880Y0061526D02*
X0155810Y0061526D01*
X0156362Y0062724D02*
X0158327Y0062724D01*
X0158145Y0063923D02*
X0156545Y0063923D01*
X0156545Y0065121D02*
X0158145Y0065121D01*
X0158145Y0066320D02*
X0156545Y0066320D01*
X0156545Y0067518D02*
X0158145Y0067518D01*
X0158145Y0068717D02*
X0156545Y0068717D01*
X0156545Y0069915D02*
X0158145Y0069915D01*
X0158591Y0071114D02*
X0156098Y0071114D01*
X0155172Y0072312D02*
X0158163Y0072312D01*
X0156964Y0073511D02*
X0152904Y0073511D01*
X0151706Y0074709D02*
X0156745Y0074709D01*
X0156745Y0075908D02*
X0150945Y0075908D01*
X0150945Y0077106D02*
X0156745Y0077106D01*
X0156745Y0078305D02*
X0150945Y0078305D01*
X0150945Y0079503D02*
X0156745Y0079503D01*
X0156745Y0080702D02*
X0150945Y0080702D01*
X0151115Y0081900D02*
X0156745Y0081900D01*
X0156745Y0083099D02*
X0152313Y0083099D01*
X0154983Y0084297D02*
X0157572Y0084297D01*
X0158461Y0085496D02*
X0156229Y0085496D01*
X0156834Y0086694D02*
X0157856Y0086694D01*
X0157545Y0087893D02*
X0157145Y0087893D01*
X0157145Y0089091D02*
X0157545Y0089091D01*
X0157545Y0090290D02*
X0157145Y0090290D01*
X0157145Y0091488D02*
X0157545Y0091488D01*
X0157545Y0092687D02*
X0157145Y0092687D01*
X0157145Y0093885D02*
X0157545Y0093885D01*
X0157545Y0095084D02*
X0157145Y0095084D01*
X0156926Y0096282D02*
X0157763Y0096282D01*
X0158260Y0097481D02*
X0156430Y0097481D01*
X0155254Y0098679D02*
X0159436Y0098679D01*
X0165254Y0098679D02*
X0169436Y0098679D01*
X0168260Y0097481D02*
X0166430Y0097481D01*
X0166926Y0096282D02*
X0167763Y0096282D01*
X0167545Y0095084D02*
X0167145Y0095084D01*
X0167145Y0093885D02*
X0167545Y0093885D01*
X0167545Y0092687D02*
X0167145Y0092687D01*
X0167145Y0091488D02*
X0167545Y0091488D01*
X0167545Y0090290D02*
X0167145Y0090290D01*
X0167145Y0089091D02*
X0167545Y0089091D01*
X0167545Y0087893D02*
X0167145Y0087893D01*
X0166834Y0086694D02*
X0167856Y0086694D01*
X0168461Y0085496D02*
X0166229Y0085496D01*
X0164983Y0084297D02*
X0167572Y0084297D01*
X0166745Y0083099D02*
X0162313Y0083099D01*
X0161115Y0081900D02*
X0166745Y0081900D01*
X0166745Y0080702D02*
X0160945Y0080702D01*
X0160945Y0079503D02*
X0166745Y0079503D01*
X0166745Y0078305D02*
X0160945Y0078305D01*
X0160945Y0077106D02*
X0166745Y0077106D01*
X0166745Y0075908D02*
X0160945Y0075908D01*
X0161706Y0074709D02*
X0166745Y0074709D01*
X0166964Y0073511D02*
X0162904Y0073511D01*
X0165172Y0072312D02*
X0168163Y0072312D01*
X0168591Y0071114D02*
X0166098Y0071114D01*
X0166545Y0069915D02*
X0168145Y0069915D01*
X0168145Y0068717D02*
X0166545Y0068717D01*
X0166545Y0067518D02*
X0168145Y0067518D01*
X0168145Y0066320D02*
X0166545Y0066320D01*
X0166545Y0065121D02*
X0168145Y0065121D01*
X0168145Y0063923D02*
X0166545Y0063923D01*
X0166362Y0062724D02*
X0168327Y0062724D01*
X0168880Y0061526D02*
X0165810Y0061526D01*
X0164453Y0060327D02*
X0170237Y0060327D01*
X0174453Y0060327D02*
X0180237Y0060327D01*
X0178880Y0061526D02*
X0175810Y0061526D01*
X0176362Y0062724D02*
X0178327Y0062724D01*
X0178145Y0063923D02*
X0176545Y0063923D01*
X0176545Y0065121D02*
X0178145Y0065121D01*
X0178145Y0066320D02*
X0176545Y0066320D01*
X0176545Y0067518D02*
X0178145Y0067518D01*
X0178145Y0068717D02*
X0176545Y0068717D01*
X0176545Y0069915D02*
X0178145Y0069915D01*
X0178591Y0071114D02*
X0176098Y0071114D01*
X0175172Y0072312D02*
X0178163Y0072312D01*
X0176964Y0073511D02*
X0172904Y0073511D01*
X0171706Y0074709D02*
X0176745Y0074709D01*
X0176745Y0075908D02*
X0170945Y0075908D01*
X0170945Y0077106D02*
X0176745Y0077106D01*
X0176745Y0078305D02*
X0170945Y0078305D01*
X0170945Y0079503D02*
X0176745Y0079503D01*
X0176745Y0080702D02*
X0170945Y0080702D01*
X0171115Y0081900D02*
X0176745Y0081900D01*
X0176745Y0083099D02*
X0172313Y0083099D01*
X0174983Y0084297D02*
X0177572Y0084297D01*
X0178461Y0085496D02*
X0176229Y0085496D01*
X0176834Y0086694D02*
X0177856Y0086694D01*
X0177545Y0087893D02*
X0177145Y0087893D01*
X0177145Y0089091D02*
X0177545Y0089091D01*
X0177545Y0090290D02*
X0177145Y0090290D01*
X0177145Y0091488D02*
X0177545Y0091488D01*
X0177545Y0092687D02*
X0177145Y0092687D01*
X0177145Y0093885D02*
X0177545Y0093885D01*
X0177545Y0095084D02*
X0177145Y0095084D01*
X0176926Y0096282D02*
X0177763Y0096282D01*
X0178260Y0097481D02*
X0176430Y0097481D01*
X0175254Y0098679D02*
X0179436Y0098679D01*
X0185254Y0098679D02*
X0189436Y0098679D01*
X0188260Y0097481D02*
X0186430Y0097481D01*
X0186926Y0096282D02*
X0187763Y0096282D01*
X0187545Y0095084D02*
X0187145Y0095084D01*
X0187145Y0093885D02*
X0187545Y0093885D01*
X0187545Y0092687D02*
X0187145Y0092687D01*
X0187145Y0091488D02*
X0187545Y0091488D01*
X0187545Y0090290D02*
X0187145Y0090290D01*
X0187145Y0089091D02*
X0187545Y0089091D01*
X0187545Y0087893D02*
X0187145Y0087893D01*
X0186834Y0086694D02*
X0187856Y0086694D01*
X0188461Y0085496D02*
X0186229Y0085496D01*
X0184983Y0084297D02*
X0187572Y0084297D01*
X0186745Y0083099D02*
X0182313Y0083099D01*
X0181115Y0081900D02*
X0186745Y0081900D01*
X0186745Y0080702D02*
X0180945Y0080702D01*
X0180945Y0079503D02*
X0186745Y0079503D01*
X0186745Y0078305D02*
X0180945Y0078305D01*
X0180945Y0077106D02*
X0186745Y0077106D01*
X0186745Y0075908D02*
X0180945Y0075908D01*
X0181706Y0074709D02*
X0186745Y0074709D01*
X0186964Y0073511D02*
X0182904Y0073511D01*
X0185172Y0072312D02*
X0188163Y0072312D01*
X0188591Y0071114D02*
X0186098Y0071114D01*
X0186545Y0069915D02*
X0188145Y0069915D01*
X0188145Y0068717D02*
X0186545Y0068717D01*
X0186545Y0067518D02*
X0188145Y0067518D01*
X0188145Y0066320D02*
X0186545Y0066320D01*
X0186545Y0065121D02*
X0188145Y0065121D01*
X0188145Y0063923D02*
X0186545Y0063923D01*
X0186362Y0062724D02*
X0188327Y0062724D01*
X0188880Y0061526D02*
X0185810Y0061526D01*
X0184453Y0060327D02*
X0190237Y0060327D01*
X0194453Y0060327D02*
X0200237Y0060327D01*
X0198880Y0061526D02*
X0195810Y0061526D01*
X0196362Y0062724D02*
X0198327Y0062724D01*
X0198145Y0063923D02*
X0196545Y0063923D01*
X0196545Y0065121D02*
X0198145Y0065121D01*
X0198145Y0066320D02*
X0196545Y0066320D01*
X0196545Y0067518D02*
X0198145Y0067518D01*
X0198145Y0068717D02*
X0196545Y0068717D01*
X0196545Y0069915D02*
X0198145Y0069915D01*
X0198591Y0071114D02*
X0196098Y0071114D01*
X0195172Y0072312D02*
X0198163Y0072312D01*
X0196964Y0073511D02*
X0192904Y0073511D01*
X0191706Y0074709D02*
X0196745Y0074709D01*
X0196745Y0075908D02*
X0190945Y0075908D01*
X0190945Y0077106D02*
X0196745Y0077106D01*
X0196745Y0078305D02*
X0190945Y0078305D01*
X0190945Y0079503D02*
X0196745Y0079503D01*
X0196745Y0080702D02*
X0190945Y0080702D01*
X0191115Y0081900D02*
X0196745Y0081900D01*
X0196745Y0083099D02*
X0192313Y0083099D01*
X0194983Y0084297D02*
X0197572Y0084297D01*
X0198461Y0085496D02*
X0196229Y0085496D01*
X0196834Y0086694D02*
X0197856Y0086694D01*
X0197545Y0087893D02*
X0197145Y0087893D01*
X0197145Y0089091D02*
X0197545Y0089091D01*
X0197545Y0090290D02*
X0197145Y0090290D01*
X0197145Y0091488D02*
X0197545Y0091488D01*
X0197545Y0092687D02*
X0197145Y0092687D01*
X0197145Y0093885D02*
X0197545Y0093885D01*
X0197545Y0095084D02*
X0197145Y0095084D01*
X0196926Y0096282D02*
X0197763Y0096282D01*
X0198260Y0097481D02*
X0196430Y0097481D01*
X0195254Y0098679D02*
X0199436Y0098679D01*
X0205254Y0098679D02*
X0209436Y0098679D01*
X0208260Y0097481D02*
X0206430Y0097481D01*
X0206926Y0096282D02*
X0207763Y0096282D01*
X0207545Y0095084D02*
X0207145Y0095084D01*
X0207145Y0093885D02*
X0207545Y0093885D01*
X0207545Y0092687D02*
X0207145Y0092687D01*
X0207145Y0091488D02*
X0207545Y0091488D01*
X0207545Y0090290D02*
X0207145Y0090290D01*
X0207145Y0089091D02*
X0207545Y0089091D01*
X0207545Y0087893D02*
X0207145Y0087893D01*
X0206834Y0086694D02*
X0207856Y0086694D01*
X0208461Y0085496D02*
X0206229Y0085496D01*
X0204983Y0084297D02*
X0207572Y0084297D01*
X0206745Y0083099D02*
X0202313Y0083099D01*
X0201115Y0081900D02*
X0206745Y0081900D01*
X0206745Y0080702D02*
X0200945Y0080702D01*
X0200945Y0079503D02*
X0206745Y0079503D01*
X0206745Y0078305D02*
X0200945Y0078305D01*
X0200945Y0077106D02*
X0206745Y0077106D01*
X0206745Y0075908D02*
X0200945Y0075908D01*
X0201706Y0074709D02*
X0206745Y0074709D01*
X0206964Y0073511D02*
X0202904Y0073511D01*
X0205172Y0072312D02*
X0208163Y0072312D01*
X0208591Y0071114D02*
X0206098Y0071114D01*
X0206545Y0069915D02*
X0208145Y0069915D01*
X0208145Y0068717D02*
X0206545Y0068717D01*
X0206545Y0067518D02*
X0208145Y0067518D01*
X0208145Y0066320D02*
X0206545Y0066320D01*
X0206545Y0065121D02*
X0208145Y0065121D01*
X0208145Y0063923D02*
X0206545Y0063923D01*
X0206362Y0062724D02*
X0208327Y0062724D01*
X0208880Y0061526D02*
X0205810Y0061526D01*
X0204453Y0060327D02*
X0210237Y0060327D01*
X0214453Y0060327D02*
X0219745Y0060327D01*
X0219745Y0061526D02*
X0215810Y0061526D01*
X0216362Y0062724D02*
X0219745Y0062724D01*
X0219745Y0063923D02*
X0216545Y0063923D01*
X0216545Y0065121D02*
X0219745Y0065121D01*
X0219745Y0066320D02*
X0216545Y0066320D01*
X0216545Y0067518D02*
X0219745Y0067518D01*
X0219745Y0068717D02*
X0216545Y0068717D01*
X0216545Y0069915D02*
X0219745Y0069915D01*
X0219745Y0071114D02*
X0216098Y0071114D01*
X0215172Y0072312D02*
X0219745Y0072312D01*
X0219745Y0073511D02*
X0212904Y0073511D01*
X0211706Y0074709D02*
X0219745Y0074709D01*
X0219745Y0075908D02*
X0210945Y0075908D01*
X0210945Y0077106D02*
X0219745Y0077106D01*
X0219745Y0078305D02*
X0210945Y0078305D01*
X0210945Y0079503D02*
X0219745Y0079503D01*
X0219745Y0080702D02*
X0210945Y0080702D01*
X0211115Y0081900D02*
X0219745Y0081900D01*
X0219745Y0083099D02*
X0212313Y0083099D01*
X0214983Y0084297D02*
X0219745Y0084297D01*
X0219745Y0085496D02*
X0216229Y0085496D01*
X0216834Y0086694D02*
X0219745Y0086694D01*
X0219745Y0087893D02*
X0217145Y0087893D01*
X0217145Y0089091D02*
X0219745Y0089091D01*
X0219745Y0090290D02*
X0217145Y0090290D01*
X0217145Y0091488D02*
X0219745Y0091488D01*
X0219745Y0092687D02*
X0217145Y0092687D01*
X0217145Y0093885D02*
X0219745Y0093885D01*
X0219745Y0095084D02*
X0217145Y0095084D01*
X0216926Y0096282D02*
X0219745Y0096282D01*
X0219745Y0097481D02*
X0216430Y0097481D01*
X0215254Y0098679D02*
X0219745Y0098679D01*
X0149436Y0098679D02*
X0145254Y0098679D01*
X0146430Y0097481D02*
X0148260Y0097481D01*
X0147763Y0096282D02*
X0146926Y0096282D01*
X0147145Y0095084D02*
X0147545Y0095084D01*
X0147545Y0093885D02*
X0147145Y0093885D01*
X0147145Y0092687D02*
X0147545Y0092687D01*
X0147545Y0091488D02*
X0147145Y0091488D01*
X0147145Y0090290D02*
X0147545Y0090290D01*
X0147545Y0089091D02*
X0147145Y0089091D01*
X0147145Y0087893D02*
X0147545Y0087893D01*
X0147856Y0086694D02*
X0146834Y0086694D01*
X0146229Y0085496D02*
X0148461Y0085496D01*
X0147572Y0084297D02*
X0144983Y0084297D01*
X0146745Y0083099D02*
X0142313Y0083099D01*
X0132745Y0084297D02*
X0131945Y0084297D01*
X0131945Y0085496D02*
X0132745Y0085496D01*
X0132745Y0086694D02*
X0131945Y0086694D01*
X0131945Y0087893D02*
X0132745Y0087893D01*
X0132745Y0089091D02*
X0131945Y0089091D01*
X0131945Y0090290D02*
X0132745Y0090290D01*
X0137145Y0092687D02*
X0137545Y0092687D01*
X0137545Y0093885D02*
X0137145Y0093885D01*
X0137145Y0095084D02*
X0137545Y0095084D01*
X0137763Y0096282D02*
X0136910Y0096282D01*
X0136330Y0097481D02*
X0138260Y0097481D01*
X0139436Y0098679D02*
X0135172Y0098679D01*
X0127545Y0090290D02*
X0127145Y0090290D01*
X0127145Y0089091D02*
X0127545Y0089091D01*
X0127565Y0087893D02*
X0127145Y0087893D01*
X0126834Y0086694D02*
X0127852Y0086694D01*
X0128522Y0085496D02*
X0126229Y0085496D01*
X0124983Y0084297D02*
X0129826Y0084297D01*
X0136745Y0078305D02*
X0088610Y0078305D01*
X0089809Y0077106D02*
X0136745Y0077106D01*
X0136745Y0075908D02*
X0109977Y0075908D01*
X0111175Y0074709D02*
X0136745Y0074709D01*
X0136964Y0073511D02*
X0112045Y0073511D01*
X0112045Y0072312D02*
X0119517Y0072312D01*
X0118591Y0071114D02*
X0112045Y0071114D01*
X0111600Y0069915D02*
X0118145Y0069915D01*
X0125172Y0072312D02*
X0129517Y0072312D01*
X0129609Y0072404D02*
X0129141Y0071936D01*
X0128753Y0071401D01*
X0128453Y0070812D01*
X0128248Y0070184D01*
X0128145Y0069531D01*
X0128145Y0066800D01*
X0132145Y0066800D01*
X0132145Y0073400D01*
X0132014Y0073400D01*
X0131361Y0073297D01*
X0130733Y0073092D01*
X0130144Y0072792D01*
X0129609Y0072404D01*
X0128606Y0071114D02*
X0126098Y0071114D01*
X0126545Y0069915D02*
X0128206Y0069915D01*
X0128145Y0068717D02*
X0126545Y0068717D01*
X0126545Y0067518D02*
X0128145Y0067518D01*
X0128145Y0066400D02*
X0128145Y0063669D01*
X0128248Y0063016D01*
X0128453Y0062388D01*
X0128753Y0061799D01*
X0129141Y0061264D01*
X0129609Y0060796D01*
X0130144Y0060408D01*
X0130733Y0060108D01*
X0131361Y0059903D01*
X0132014Y0059800D01*
X0132145Y0059800D01*
X0132145Y0066400D01*
X0132545Y0066400D01*
X0132545Y0066800D01*
X0136545Y0066800D01*
X0136545Y0069531D01*
X0136441Y0070184D01*
X0136237Y0070812D01*
X0135937Y0071401D01*
X0135548Y0071936D01*
X0135081Y0072404D01*
X0134546Y0072792D01*
X0133957Y0073092D01*
X0133328Y0073297D01*
X0132675Y0073400D01*
X0132545Y0073400D01*
X0132545Y0066800D01*
X0132145Y0066800D01*
X0132145Y0066400D01*
X0128145Y0066400D01*
X0128145Y0066320D02*
X0126545Y0066320D01*
X0126545Y0065121D02*
X0128145Y0065121D01*
X0128145Y0063923D02*
X0126545Y0063923D01*
X0126362Y0062724D02*
X0128343Y0062724D01*
X0128951Y0061526D02*
X0125810Y0061526D01*
X0124453Y0060327D02*
X0130302Y0060327D01*
X0132145Y0060327D02*
X0132545Y0060327D01*
X0132545Y0059800D02*
X0132675Y0059800D01*
X0133328Y0059903D01*
X0133957Y0060108D01*
X0134546Y0060408D01*
X0135081Y0060796D01*
X0135548Y0061264D01*
X0135937Y0061799D01*
X0136237Y0062388D01*
X0136441Y0063016D01*
X0136545Y0063669D01*
X0136545Y0066400D01*
X0132545Y0066400D01*
X0132545Y0059800D01*
X0134388Y0060327D02*
X0140237Y0060327D01*
X0138880Y0061526D02*
X0135739Y0061526D01*
X0136346Y0062724D02*
X0138327Y0062724D01*
X0138145Y0063923D02*
X0136545Y0063923D01*
X0132545Y0063923D02*
X0132145Y0063923D01*
X0132145Y0062724D02*
X0132545Y0062724D01*
X0132545Y0061526D02*
X0132145Y0061526D01*
X0132145Y0065121D02*
X0132545Y0065121D01*
X0132545Y0066320D02*
X0132145Y0066320D01*
X0132145Y0067518D02*
X0132545Y0067518D01*
X0132545Y0068717D02*
X0132145Y0068717D01*
X0132145Y0069915D02*
X0132545Y0069915D01*
X0132545Y0071114D02*
X0132145Y0071114D01*
X0136084Y0071114D02*
X0138591Y0071114D01*
X0138145Y0069915D02*
X0136484Y0069915D01*
X0136545Y0068717D02*
X0138145Y0068717D01*
X0138145Y0067518D02*
X0136545Y0067518D01*
X0136545Y0066320D02*
X0138145Y0066320D01*
X0138145Y0065121D02*
X0136545Y0065121D01*
X0135172Y0072312D02*
X0138163Y0072312D01*
X0132545Y0072312D02*
X0132145Y0072312D01*
X0109926Y0065121D02*
X0104763Y0065121D01*
X0107645Y0069915D02*
X0108045Y0069915D01*
X0108045Y0071114D02*
X0107645Y0071114D01*
X0107645Y0072312D02*
X0108045Y0072312D01*
X0108045Y0073511D02*
X0107645Y0073511D01*
X0107645Y0074709D02*
X0108045Y0074709D01*
X0108045Y0075908D02*
X0107645Y0075908D01*
X0095713Y0075908D02*
X0089945Y0075908D01*
X0087411Y0079503D02*
X0095002Y0079503D01*
X0093803Y0080702D02*
X0086213Y0080702D01*
X0085014Y0081900D02*
X0093645Y0081900D01*
X0093645Y0083099D02*
X0083816Y0083099D01*
X0084707Y0084297D02*
X0082617Y0084297D01*
X0083461Y0085496D02*
X0081419Y0085496D01*
X0081834Y0086694D02*
X0082856Y0086694D01*
X0082545Y0087893D02*
X0082145Y0087893D01*
X0082145Y0089091D02*
X0082545Y0089091D01*
X0082545Y0090290D02*
X0082145Y0090290D01*
X0082145Y0091488D02*
X0082545Y0091488D01*
X0082545Y0092687D02*
X0082145Y0092687D01*
X0082145Y0093885D02*
X0082545Y0093885D01*
X0082545Y0095084D02*
X0082145Y0095084D01*
X0081926Y0096282D02*
X0082763Y0096282D01*
X0083260Y0097481D02*
X0081430Y0097481D01*
X0080254Y0098679D02*
X0084436Y0098679D01*
X0074436Y0098679D02*
X0070254Y0098679D01*
X0071430Y0097481D02*
X0073260Y0097481D01*
X0072763Y0096282D02*
X0071926Y0096282D01*
X0072145Y0095084D02*
X0072545Y0095084D01*
X0072545Y0093885D02*
X0072145Y0093885D01*
X0072145Y0092687D02*
X0072545Y0092687D01*
X0072545Y0091488D02*
X0072145Y0091488D01*
X0072145Y0090290D02*
X0072545Y0090290D01*
X0072545Y0089091D02*
X0072145Y0089091D01*
X0072145Y0087893D02*
X0072545Y0087893D01*
X0072856Y0086694D02*
X0071834Y0086694D01*
X0071229Y0085496D02*
X0073461Y0085496D01*
X0074707Y0084297D02*
X0069983Y0084297D01*
X0064707Y0084297D02*
X0059864Y0084297D01*
X0059861Y0084295D02*
X0060472Y0084739D01*
X0061006Y0085273D01*
X0061450Y0085884D01*
X0061793Y0086557D01*
X0062027Y0087276D01*
X0062145Y0088022D01*
X0062145Y0091200D01*
X0057745Y0091200D01*
X0057745Y0083604D01*
X0058469Y0083718D01*
X0059187Y0083952D01*
X0059861Y0084295D01*
X0061168Y0085496D02*
X0063461Y0085496D01*
X0062856Y0086694D02*
X0061838Y0086694D01*
X0062124Y0087893D02*
X0062545Y0087893D01*
X0062545Y0089091D02*
X0062145Y0089091D01*
X0062145Y0090290D02*
X0062545Y0090290D01*
X0062545Y0091488D02*
X0057745Y0091488D01*
X0056945Y0091488D02*
X0052145Y0091488D01*
X0052545Y0091200D02*
X0052545Y0088022D01*
X0052663Y0087276D01*
X0052897Y0086557D01*
X0053240Y0085884D01*
X0053684Y0085273D01*
X0054218Y0084739D01*
X0054829Y0084295D01*
X0055502Y0083952D01*
X0056221Y0083718D01*
X0056945Y0083604D01*
X0056945Y0091200D01*
X0052545Y0091200D01*
X0052545Y0090290D02*
X0052145Y0090290D01*
X0052145Y0089091D02*
X0052545Y0089091D01*
X0052565Y0087893D02*
X0052145Y0087893D01*
X0051834Y0086694D02*
X0052852Y0086694D01*
X0053522Y0085496D02*
X0051229Y0085496D01*
X0049983Y0084297D02*
X0054826Y0084297D01*
X0056945Y0084297D02*
X0057745Y0084297D01*
X0057745Y0085496D02*
X0056945Y0085496D01*
X0056945Y0086694D02*
X0057745Y0086694D01*
X0057745Y0087893D02*
X0056945Y0087893D01*
X0056945Y0089091D02*
X0057745Y0089091D01*
X0057745Y0090290D02*
X0056945Y0090290D01*
X0052545Y0092687D02*
X0052145Y0092687D01*
X0052145Y0093885D02*
X0052545Y0093885D01*
X0052545Y0095084D02*
X0052145Y0095084D01*
X0051926Y0096282D02*
X0052780Y0096282D01*
X0053360Y0097481D02*
X0051430Y0097481D01*
X0050254Y0098679D02*
X0054518Y0098679D01*
X0060172Y0098679D02*
X0064436Y0098679D01*
X0063260Y0097481D02*
X0061330Y0097481D01*
X0061910Y0096282D02*
X0062763Y0096282D01*
X0062545Y0095084D02*
X0062145Y0095084D01*
X0062145Y0093885D02*
X0062545Y0093885D01*
X0062545Y0092687D02*
X0062145Y0092687D01*
X0089983Y0084297D02*
X0093645Y0084297D01*
X0094801Y0085496D02*
X0091229Y0085496D01*
X0091834Y0086694D02*
X0095999Y0086694D01*
X0076669Y0076282D02*
X0075923Y0076400D01*
X0072745Y0076400D01*
X0072745Y0072000D01*
X0080341Y0072000D01*
X0080227Y0072724D01*
X0079993Y0073443D01*
X0079650Y0074116D01*
X0079206Y0074727D01*
X0078672Y0075261D01*
X0078061Y0075705D01*
X0077387Y0076048D01*
X0076669Y0076282D01*
X0077663Y0075908D02*
X0078567Y0075908D01*
X0079219Y0074709D02*
X0079766Y0074709D01*
X0079959Y0073511D02*
X0080964Y0073511D01*
X0080292Y0072312D02*
X0082163Y0072312D01*
X0081335Y0071114D02*
X0080328Y0071114D01*
X0080341Y0071200D02*
X0072745Y0071200D01*
X0072745Y0072000D01*
X0071945Y0072000D01*
X0071945Y0076400D01*
X0068767Y0076400D01*
X0068021Y0076282D01*
X0067302Y0076048D01*
X0066629Y0075705D01*
X0066018Y0075261D01*
X0065484Y0074727D01*
X0065040Y0074116D01*
X0064697Y0073443D01*
X0064463Y0072724D01*
X0064348Y0072000D01*
X0071945Y0072000D01*
X0071945Y0071200D01*
X0072745Y0071200D01*
X0072745Y0066800D01*
X0075923Y0066800D01*
X0076669Y0066918D01*
X0077387Y0067152D01*
X0078061Y0067495D01*
X0078672Y0067939D01*
X0079206Y0068473D01*
X0079650Y0069084D01*
X0079993Y0069757D01*
X0080227Y0070476D01*
X0080341Y0071200D01*
X0080251Y0069915D02*
X0080044Y0069915D01*
X0079945Y0068717D02*
X0079383Y0068717D01*
X0080154Y0067518D02*
X0078093Y0067518D01*
X0076694Y0066320D02*
X0080745Y0066320D01*
X0080745Y0065121D02*
X0078812Y0065121D01*
X0078264Y0065669D02*
X0076500Y0066400D01*
X0068190Y0066400D01*
X0066426Y0065669D01*
X0065076Y0064319D01*
X0064345Y0062555D01*
X0064345Y0060645D01*
X0065076Y0058881D01*
X0066426Y0057531D01*
X0068190Y0056800D01*
X0076500Y0056800D01*
X0078264Y0057531D01*
X0079614Y0058881D01*
X0080345Y0060645D01*
X0080345Y0062555D01*
X0079614Y0064319D01*
X0078264Y0065669D01*
X0079778Y0063923D02*
X0080745Y0063923D01*
X0080745Y0062724D02*
X0080275Y0062724D01*
X0080345Y0061526D02*
X0080745Y0061526D01*
X0080745Y0060327D02*
X0080213Y0060327D01*
X0079717Y0059129D02*
X0080745Y0059129D01*
X0080745Y0057930D02*
X0078663Y0057930D01*
X0078264Y0055669D02*
X0076500Y0056400D01*
X0068190Y0056400D01*
X0066426Y0055669D01*
X0065076Y0054319D01*
X0064345Y0052555D01*
X0064345Y0050645D01*
X0065076Y0048881D01*
X0066426Y0047531D01*
X0068190Y0046800D01*
X0076500Y0046800D01*
X0078264Y0047531D01*
X0079614Y0048881D01*
X0080345Y0050645D01*
X0080345Y0052555D01*
X0079614Y0054319D01*
X0078264Y0055669D01*
X0078400Y0055533D02*
X0082442Y0055533D01*
X0083641Y0054334D02*
X0079599Y0054334D01*
X0080104Y0053136D02*
X0084839Y0053136D01*
X0086038Y0051937D02*
X0080345Y0051937D01*
X0080345Y0050739D02*
X0087236Y0050739D01*
X0088435Y0049540D02*
X0079887Y0049540D01*
X0079075Y0048342D02*
X0089633Y0048342D01*
X0090832Y0047143D02*
X0077329Y0047143D01*
X0067361Y0047143D02*
X0063045Y0047143D01*
X0063045Y0045945D02*
X0092030Y0045945D01*
X0093229Y0044746D02*
X0063045Y0044746D01*
X0063045Y0043548D02*
X0094427Y0043548D01*
X0095445Y0042349D02*
X0063045Y0042349D01*
X0063045Y0041151D02*
X0095806Y0041151D01*
X0097159Y0039952D02*
X0063045Y0039952D01*
X0063045Y0038754D02*
X0103221Y0038754D01*
X0102023Y0039952D02*
X0099531Y0039952D01*
X0104420Y0037555D02*
X0063045Y0037555D01*
X0064199Y0036357D02*
X0105618Y0036357D01*
X0104726Y0035158D02*
X0106817Y0035158D01*
X0106545Y0033340D02*
X0104085Y0035800D01*
X0100605Y0035800D01*
X0098145Y0033340D01*
X0098145Y0029860D01*
X0100605Y0027400D01*
X0104085Y0027400D01*
X0106545Y0029860D01*
X0106545Y0033340D01*
X0106545Y0032761D02*
X0108145Y0032761D01*
X0108145Y0031563D02*
X0106545Y0031563D01*
X0106545Y0030364D02*
X0108145Y0030364D01*
X0108839Y0029166D02*
X0105850Y0029166D01*
X0104652Y0027967D02*
X0110038Y0027967D01*
X0114652Y0027967D02*
X0126745Y0027967D01*
X0126745Y0029166D02*
X0115850Y0029166D01*
X0116545Y0030364D02*
X0120147Y0030364D01*
X0119966Y0030439D02*
X0121509Y0029800D01*
X0123180Y0029800D01*
X0124724Y0030439D01*
X0125905Y0031621D01*
X0126545Y0033165D01*
X0126545Y0040035D01*
X0125905Y0041579D01*
X0124724Y0042761D01*
X0123180Y0043400D01*
X0121509Y0043400D01*
X0119966Y0042761D01*
X0118784Y0041579D01*
X0118145Y0040035D01*
X0118145Y0033165D01*
X0118784Y0031621D01*
X0119966Y0030439D01*
X0118842Y0031563D02*
X0116545Y0031563D01*
X0116545Y0032761D02*
X0118312Y0032761D01*
X0118145Y0033960D02*
X0115925Y0033960D01*
X0114726Y0035158D02*
X0118145Y0035158D01*
X0118145Y0036357D02*
X0111558Y0036357D01*
X0110359Y0037555D02*
X0118145Y0037555D01*
X0118145Y0038754D02*
X0109161Y0038754D01*
X0107962Y0039952D02*
X0118145Y0039952D01*
X0118607Y0041151D02*
X0106764Y0041151D01*
X0105565Y0042349D02*
X0119555Y0042349D01*
X0125135Y0042349D02*
X0129555Y0042349D01*
X0128607Y0041151D02*
X0126083Y0041151D01*
X0126545Y0039952D02*
X0128145Y0039952D01*
X0128145Y0038754D02*
X0126545Y0038754D01*
X0126545Y0037555D02*
X0128145Y0037555D01*
X0128145Y0036357D02*
X0126545Y0036357D01*
X0126545Y0035158D02*
X0128145Y0035158D01*
X0128145Y0033960D02*
X0126545Y0033960D01*
X0126378Y0032761D02*
X0128312Y0032761D01*
X0128838Y0031563D02*
X0125847Y0031563D01*
X0124543Y0030364D02*
X0127639Y0030364D01*
X0131182Y0027967D02*
X0136745Y0027967D01*
X0136745Y0029166D02*
X0132380Y0029166D01*
X0134543Y0030364D02*
X0137639Y0030364D01*
X0137975Y0030700D02*
X0137975Y0030700D01*
X0138838Y0031563D02*
X0135847Y0031563D01*
X0136378Y0032761D02*
X0138312Y0032761D01*
X0138145Y0033960D02*
X0136545Y0033960D01*
X0136545Y0035158D02*
X0138145Y0035158D01*
X0138145Y0036357D02*
X0136545Y0036357D01*
X0136545Y0037555D02*
X0138145Y0037555D01*
X0138145Y0038754D02*
X0136545Y0038754D01*
X0136545Y0039952D02*
X0138145Y0039952D01*
X0138607Y0041151D02*
X0136083Y0041151D01*
X0135135Y0042349D02*
X0139555Y0042349D01*
X0145135Y0042349D02*
X0149555Y0042349D01*
X0148607Y0041151D02*
X0146083Y0041151D01*
X0146545Y0039952D02*
X0148145Y0039952D01*
X0148145Y0038754D02*
X0146545Y0038754D01*
X0146545Y0037555D02*
X0148145Y0037555D01*
X0148145Y0036357D02*
X0146545Y0036357D01*
X0146545Y0035158D02*
X0148145Y0035158D01*
X0148145Y0033960D02*
X0146545Y0033960D01*
X0146378Y0032761D02*
X0148312Y0032761D01*
X0148838Y0031563D02*
X0145847Y0031563D01*
X0144543Y0030364D02*
X0147639Y0030364D01*
X0146745Y0029166D02*
X0142380Y0029166D01*
X0141182Y0027967D02*
X0146745Y0027967D01*
X0146745Y0026769D02*
X0140945Y0026769D01*
X0140945Y0025570D02*
X0146745Y0025570D01*
X0146745Y0024372D02*
X0140945Y0024372D01*
X0140945Y0023173D02*
X0146745Y0023173D01*
X0146745Y0021975D02*
X0140945Y0021975D01*
X0141639Y0020776D02*
X0146745Y0020776D01*
X0146897Y0019578D02*
X0143354Y0019578D01*
X0145554Y0018379D02*
X0148096Y0018379D01*
X0148136Y0017181D02*
X0146554Y0017181D01*
X0147051Y0015982D02*
X0147639Y0015982D01*
X0147545Y0014784D02*
X0147145Y0014784D01*
X0147145Y0013585D02*
X0147545Y0013585D01*
X0147545Y0012387D02*
X0147145Y0012387D01*
X0147145Y0011188D02*
X0147545Y0011188D01*
X0147545Y0009990D02*
X0147145Y0009990D01*
X0147145Y0008791D02*
X0147545Y0008791D01*
X0147545Y0007593D02*
X0147145Y0007593D01*
X0146709Y0006394D02*
X0147980Y0006394D01*
X0148761Y0005196D02*
X0145929Y0005196D01*
X0138761Y0005196D02*
X0135929Y0005196D01*
X0136709Y0006394D02*
X0137980Y0006394D01*
X0137545Y0007593D02*
X0137145Y0007593D01*
X0137145Y0008791D02*
X0137545Y0008791D01*
X0137545Y0009990D02*
X0137145Y0009990D01*
X0137145Y0011188D02*
X0137545Y0011188D01*
X0137545Y0012387D02*
X0137145Y0012387D01*
X0137145Y0013585D02*
X0137545Y0013585D01*
X0137545Y0014784D02*
X0137145Y0014784D01*
X0137051Y0015982D02*
X0137639Y0015982D01*
X0138136Y0017181D02*
X0136554Y0017181D01*
X0135554Y0018379D02*
X0138096Y0018379D01*
X0136897Y0019578D02*
X0133354Y0019578D01*
X0131639Y0020776D02*
X0136745Y0020776D01*
X0136745Y0021975D02*
X0130945Y0021975D01*
X0130945Y0023173D02*
X0136745Y0023173D01*
X0136745Y0024372D02*
X0130945Y0024372D01*
X0130945Y0025570D02*
X0136745Y0025570D01*
X0136745Y0026769D02*
X0130945Y0026769D01*
X0126745Y0026769D02*
X0094945Y0026769D01*
X0094945Y0025570D02*
X0126745Y0025570D01*
X0126745Y0024372D02*
X0094945Y0024372D01*
X0094945Y0023970D02*
X0094945Y0028260D01*
X0096545Y0029860D01*
X0096545Y0033340D01*
X0094085Y0035800D01*
X0090605Y0035800D01*
X0088145Y0033340D01*
X0088145Y0029860D01*
X0090605Y0027400D01*
X0090745Y0027400D01*
X0090745Y0022230D01*
X0091975Y0021000D01*
X0093890Y0019085D01*
X0093145Y0018340D01*
X0093145Y0014860D01*
X0095605Y0012400D01*
X0099085Y0012400D01*
X0101545Y0014860D01*
X0101545Y0018340D01*
X0099085Y0020800D01*
X0098115Y0020800D01*
X0094945Y0023970D01*
X0095742Y0023173D02*
X0126745Y0023173D01*
X0126745Y0021975D02*
X0096940Y0021975D01*
X0099108Y0020776D02*
X0105581Y0020776D01*
X0105605Y0020800D02*
X0103145Y0018340D01*
X0103145Y0016800D01*
X0107145Y0016800D01*
X0107145Y0020800D01*
X0105605Y0020800D01*
X0107145Y0020776D02*
X0107545Y0020776D01*
X0107545Y0020800D02*
X0109085Y0020800D01*
X0111545Y0018340D01*
X0111545Y0016800D01*
X0107545Y0016800D01*
X0107545Y0016400D01*
X0111545Y0016400D01*
X0111545Y0014860D01*
X0109085Y0012400D01*
X0107545Y0012400D01*
X0107545Y0016400D01*
X0107145Y0016400D01*
X0107145Y0012400D01*
X0105605Y0012400D01*
X0103145Y0014860D01*
X0103145Y0016400D01*
X0107145Y0016400D01*
X0107145Y0016800D01*
X0107545Y0016800D01*
X0107545Y0020800D01*
X0109108Y0020776D02*
X0126745Y0020776D01*
X0126897Y0019578D02*
X0123354Y0019578D01*
X0121336Y0019578D02*
X0110307Y0019578D01*
X0111505Y0018379D02*
X0119136Y0018379D01*
X0118136Y0017181D02*
X0111545Y0017181D01*
X0111545Y0015982D02*
X0117639Y0015982D01*
X0117545Y0014784D02*
X0111468Y0014784D01*
X0110270Y0013585D02*
X0117545Y0013585D01*
X0117545Y0012387D02*
X0087409Y0012387D01*
X0087409Y0013585D02*
X0094420Y0013585D01*
X0093222Y0014784D02*
X0087409Y0014784D01*
X0087409Y0015982D02*
X0093145Y0015982D01*
X0093145Y0017181D02*
X0087409Y0017181D01*
X0087409Y0018379D02*
X0093184Y0018379D01*
X0093397Y0019578D02*
X0087409Y0019578D01*
X0087409Y0020776D02*
X0092199Y0020776D01*
X0091000Y0021975D02*
X0087036Y0021975D01*
X0086399Y0023173D02*
X0090745Y0023173D01*
X0090745Y0024372D02*
X0085181Y0024372D01*
X0090745Y0025570D02*
X0074545Y0025570D01*
X0075181Y0024372D02*
X0079509Y0024372D01*
X0078291Y0023173D02*
X0076399Y0023173D01*
X0077036Y0021975D02*
X0077654Y0021975D01*
X0072345Y0025100D02*
X0060845Y0036600D01*
X0060845Y0057600D01*
X0054845Y0063600D01*
X0054845Y0066600D01*
X0054550Y0066600D01*
X0060087Y0066320D02*
X0067996Y0066320D01*
X0068021Y0066918D02*
X0068767Y0066800D01*
X0071945Y0066800D01*
X0071945Y0071200D01*
X0064348Y0071200D01*
X0064463Y0070476D01*
X0064697Y0069757D01*
X0065040Y0069084D01*
X0065484Y0068473D01*
X0066018Y0067939D01*
X0066629Y0067495D01*
X0067302Y0067152D01*
X0068021Y0066918D01*
X0066597Y0067518D02*
X0060087Y0067518D01*
X0060087Y0068717D02*
X0065307Y0068717D01*
X0064645Y0069915D02*
X0060087Y0069915D01*
X0060087Y0071114D02*
X0064362Y0071114D01*
X0064398Y0072312D02*
X0059808Y0072312D01*
X0059311Y0073511D02*
X0064731Y0073511D01*
X0065471Y0074709D02*
X0058208Y0074709D01*
X0056052Y0075908D02*
X0067026Y0075908D01*
X0071945Y0075908D02*
X0072745Y0075908D01*
X0072745Y0074709D02*
X0071945Y0074709D01*
X0071945Y0073511D02*
X0072745Y0073511D01*
X0072745Y0072312D02*
X0071945Y0072312D01*
X0071945Y0071114D02*
X0072745Y0071114D01*
X0072745Y0069915D02*
X0071945Y0069915D01*
X0071945Y0068717D02*
X0072745Y0068717D01*
X0072745Y0067518D02*
X0071945Y0067518D01*
X0065878Y0065121D02*
X0060087Y0065121D01*
X0060087Y0063923D02*
X0064911Y0063923D01*
X0064415Y0062724D02*
X0060087Y0062724D01*
X0060072Y0061526D02*
X0064345Y0061526D01*
X0064477Y0060327D02*
X0061229Y0060327D01*
X0062428Y0059129D02*
X0064973Y0059129D01*
X0066027Y0057930D02*
X0063045Y0057930D01*
X0063045Y0056732D02*
X0081244Y0056732D01*
X0094183Y0056732D02*
X0219745Y0056732D01*
X0219745Y0055533D02*
X0095382Y0055533D01*
X0096580Y0054334D02*
X0219745Y0054334D01*
X0219745Y0053136D02*
X0097779Y0053136D01*
X0098977Y0051937D02*
X0219745Y0051937D01*
X0219745Y0050739D02*
X0100176Y0050739D01*
X0101374Y0049540D02*
X0219745Y0049540D01*
X0219745Y0048342D02*
X0102573Y0048342D01*
X0104367Y0043548D02*
X0204927Y0043548D01*
X0205135Y0042349D02*
X0206126Y0042349D01*
X0206083Y0041151D02*
X0207324Y0041151D01*
X0206545Y0039952D02*
X0208145Y0039952D01*
X0208145Y0038754D02*
X0206545Y0038754D01*
X0206545Y0037555D02*
X0208145Y0037555D01*
X0208145Y0036357D02*
X0206545Y0036357D01*
X0206545Y0035158D02*
X0208145Y0035158D01*
X0208145Y0033960D02*
X0206545Y0033960D01*
X0206378Y0032761D02*
X0208312Y0032761D01*
X0208838Y0031563D02*
X0205847Y0031563D01*
X0204543Y0030364D02*
X0207639Y0030364D01*
X0206745Y0029166D02*
X0202380Y0029166D01*
X0201182Y0027967D02*
X0206745Y0027967D01*
X0206745Y0026769D02*
X0200945Y0026769D01*
X0200945Y0025570D02*
X0206745Y0025570D01*
X0206745Y0024372D02*
X0200945Y0024372D01*
X0200945Y0023173D02*
X0206745Y0023173D01*
X0206745Y0021975D02*
X0200945Y0021975D01*
X0201639Y0020776D02*
X0206745Y0020776D01*
X0206897Y0019578D02*
X0203354Y0019578D01*
X0205554Y0018379D02*
X0208096Y0018379D01*
X0208136Y0017181D02*
X0206554Y0017181D01*
X0207051Y0015982D02*
X0207639Y0015982D01*
X0207545Y0014784D02*
X0207145Y0014784D01*
X0207145Y0013585D02*
X0207545Y0013585D01*
X0207545Y0012387D02*
X0207145Y0012387D01*
X0207145Y0011188D02*
X0207545Y0011188D01*
X0207545Y0009990D02*
X0207145Y0009990D01*
X0207145Y0008791D02*
X0207545Y0008791D01*
X0207545Y0007593D02*
X0207145Y0007593D01*
X0206709Y0006394D02*
X0207980Y0006394D01*
X0208761Y0005196D02*
X0205929Y0005196D01*
X0198761Y0005196D02*
X0195929Y0005196D01*
X0196709Y0006394D02*
X0197980Y0006394D01*
X0197545Y0007593D02*
X0197145Y0007593D01*
X0197145Y0008791D02*
X0197545Y0008791D01*
X0197545Y0009990D02*
X0197145Y0009990D01*
X0197145Y0011188D02*
X0197545Y0011188D01*
X0197545Y0012387D02*
X0197145Y0012387D01*
X0197145Y0013585D02*
X0197545Y0013585D01*
X0197545Y0014784D02*
X0197145Y0014784D01*
X0197051Y0015982D02*
X0197639Y0015982D01*
X0198136Y0017181D02*
X0196554Y0017181D01*
X0195554Y0018379D02*
X0198096Y0018379D01*
X0196897Y0019578D02*
X0193354Y0019578D01*
X0191639Y0020776D02*
X0196745Y0020776D01*
X0196745Y0021975D02*
X0190945Y0021975D01*
X0190945Y0023173D02*
X0196745Y0023173D01*
X0196745Y0024372D02*
X0190945Y0024372D01*
X0190945Y0025570D02*
X0196745Y0025570D01*
X0196745Y0026769D02*
X0190945Y0026769D01*
X0191182Y0027967D02*
X0196745Y0027967D01*
X0196745Y0029166D02*
X0192380Y0029166D01*
X0194543Y0030364D02*
X0197639Y0030364D01*
X0198838Y0031563D02*
X0195847Y0031563D01*
X0196378Y0032761D02*
X0198312Y0032761D01*
X0198145Y0033960D02*
X0196545Y0033960D01*
X0196545Y0035158D02*
X0198145Y0035158D01*
X0198145Y0036357D02*
X0196545Y0036357D01*
X0196545Y0037555D02*
X0198145Y0037555D01*
X0198145Y0038754D02*
X0196545Y0038754D01*
X0196545Y0039952D02*
X0198145Y0039952D01*
X0198607Y0041151D02*
X0196083Y0041151D01*
X0195135Y0042349D02*
X0199555Y0042349D01*
X0207271Y0047143D02*
X0219745Y0047143D01*
X0219745Y0045945D02*
X0208470Y0045945D01*
X0209668Y0044746D02*
X0219745Y0044746D01*
X0219745Y0043548D02*
X0210867Y0043548D01*
X0215135Y0042349D02*
X0219745Y0042349D01*
X0219745Y0041151D02*
X0216083Y0041151D01*
X0216545Y0039952D02*
X0219745Y0039952D01*
X0219745Y0038754D02*
X0216545Y0038754D01*
X0216545Y0037555D02*
X0219745Y0037555D01*
X0219745Y0036357D02*
X0216545Y0036357D01*
X0216545Y0035158D02*
X0219745Y0035158D01*
X0219745Y0033960D02*
X0216545Y0033960D01*
X0216378Y0032761D02*
X0219745Y0032761D01*
X0219745Y0031563D02*
X0215847Y0031563D01*
X0214543Y0030364D02*
X0219745Y0030364D01*
X0219745Y0029166D02*
X0212380Y0029166D01*
X0211182Y0027967D02*
X0219745Y0027967D01*
X0219745Y0026769D02*
X0210945Y0026769D01*
X0210945Y0025570D02*
X0219745Y0025570D01*
X0219745Y0024372D02*
X0210945Y0024372D01*
X0210945Y0023173D02*
X0219745Y0023173D01*
X0219745Y0021975D02*
X0210945Y0021975D01*
X0211639Y0020776D02*
X0219745Y0020776D01*
X0219745Y0019578D02*
X0213354Y0019578D01*
X0215554Y0018379D02*
X0219745Y0018379D01*
X0219745Y0017181D02*
X0216554Y0017181D01*
X0217051Y0015982D02*
X0219745Y0015982D01*
X0219745Y0014784D02*
X0217145Y0014784D01*
X0217145Y0013585D02*
X0219745Y0013585D01*
X0219745Y0012387D02*
X0217145Y0012387D01*
X0217145Y0011188D02*
X0219745Y0011188D01*
X0219745Y0009990D02*
X0217145Y0009990D01*
X0217145Y0008791D02*
X0219745Y0008791D01*
X0219745Y0007593D02*
X0217145Y0007593D01*
X0216709Y0006394D02*
X0219745Y0006394D01*
X0219745Y0005196D02*
X0215929Y0005196D01*
X0188761Y0005196D02*
X0185929Y0005196D01*
X0186709Y0006394D02*
X0187980Y0006394D01*
X0187545Y0007593D02*
X0187145Y0007593D01*
X0187145Y0008791D02*
X0187545Y0008791D01*
X0187545Y0009990D02*
X0187145Y0009990D01*
X0187145Y0011188D02*
X0187545Y0011188D01*
X0187545Y0012387D02*
X0187145Y0012387D01*
X0187145Y0013585D02*
X0187545Y0013585D01*
X0187545Y0014784D02*
X0187145Y0014784D01*
X0187051Y0015982D02*
X0187639Y0015982D01*
X0188136Y0017181D02*
X0186554Y0017181D01*
X0185554Y0018379D02*
X0188096Y0018379D01*
X0186897Y0019578D02*
X0183354Y0019578D01*
X0181639Y0020776D02*
X0186745Y0020776D01*
X0186745Y0021975D02*
X0180945Y0021975D01*
X0180945Y0023173D02*
X0186745Y0023173D01*
X0186745Y0024372D02*
X0180945Y0024372D01*
X0180945Y0025570D02*
X0186745Y0025570D01*
X0186745Y0026769D02*
X0180945Y0026769D01*
X0181182Y0027967D02*
X0186745Y0027967D01*
X0186745Y0029166D02*
X0182380Y0029166D01*
X0184543Y0030364D02*
X0187639Y0030364D01*
X0188838Y0031563D02*
X0185847Y0031563D01*
X0186378Y0032761D02*
X0188312Y0032761D01*
X0188145Y0033960D02*
X0186545Y0033960D01*
X0186545Y0035158D02*
X0188145Y0035158D01*
X0188145Y0036357D02*
X0186545Y0036357D01*
X0186545Y0037555D02*
X0188145Y0037555D01*
X0188145Y0038754D02*
X0186545Y0038754D01*
X0186545Y0039952D02*
X0188145Y0039952D01*
X0188607Y0041151D02*
X0186083Y0041151D01*
X0185135Y0042349D02*
X0189555Y0042349D01*
X0179555Y0042349D02*
X0175135Y0042349D01*
X0176083Y0041151D02*
X0178607Y0041151D01*
X0178145Y0039952D02*
X0176545Y0039952D01*
X0176545Y0038754D02*
X0178145Y0038754D01*
X0178145Y0037555D02*
X0176545Y0037555D01*
X0176545Y0036357D02*
X0178145Y0036357D01*
X0178145Y0035158D02*
X0176545Y0035158D01*
X0176545Y0033960D02*
X0178145Y0033960D01*
X0178312Y0032761D02*
X0176378Y0032761D01*
X0175847Y0031563D02*
X0178838Y0031563D01*
X0177639Y0030364D02*
X0174543Y0030364D01*
X0172380Y0029166D02*
X0176745Y0029166D01*
X0176745Y0027967D02*
X0171182Y0027967D01*
X0170945Y0026769D02*
X0176745Y0026769D01*
X0176745Y0025570D02*
X0170945Y0025570D01*
X0170945Y0024372D02*
X0176745Y0024372D01*
X0176745Y0023173D02*
X0170945Y0023173D01*
X0170945Y0021975D02*
X0176745Y0021975D01*
X0176745Y0020776D02*
X0171639Y0020776D01*
X0173354Y0019578D02*
X0176897Y0019578D01*
X0178096Y0018379D02*
X0175554Y0018379D01*
X0176554Y0017181D02*
X0178136Y0017181D01*
X0177639Y0015982D02*
X0177051Y0015982D01*
X0177145Y0014784D02*
X0177545Y0014784D01*
X0177545Y0013585D02*
X0177145Y0013585D01*
X0177145Y0012387D02*
X0177545Y0012387D01*
X0177545Y0011188D02*
X0177145Y0011188D01*
X0177145Y0009990D02*
X0177545Y0009990D01*
X0177545Y0008791D02*
X0177145Y0008791D01*
X0177145Y0007593D02*
X0177545Y0007593D01*
X0177980Y0006394D02*
X0176709Y0006394D01*
X0175929Y0005196D02*
X0178761Y0005196D01*
X0168761Y0005196D02*
X0165929Y0005196D01*
X0166709Y0006394D02*
X0167980Y0006394D01*
X0167545Y0007593D02*
X0167145Y0007593D01*
X0167145Y0008791D02*
X0167545Y0008791D01*
X0167545Y0009990D02*
X0167145Y0009990D01*
X0167145Y0011188D02*
X0167545Y0011188D01*
X0167545Y0012387D02*
X0167145Y0012387D01*
X0167145Y0013585D02*
X0167545Y0013585D01*
X0167545Y0014784D02*
X0167145Y0014784D01*
X0167051Y0015982D02*
X0167639Y0015982D01*
X0168136Y0017181D02*
X0166554Y0017181D01*
X0165554Y0018379D02*
X0168096Y0018379D01*
X0166897Y0019578D02*
X0163354Y0019578D01*
X0161639Y0020776D02*
X0166745Y0020776D01*
X0166745Y0021975D02*
X0160945Y0021975D01*
X0160945Y0023173D02*
X0166745Y0023173D01*
X0166745Y0024372D02*
X0160945Y0024372D01*
X0160945Y0025570D02*
X0166745Y0025570D01*
X0166745Y0026769D02*
X0160945Y0026769D01*
X0161182Y0027967D02*
X0166745Y0027967D01*
X0166745Y0029166D02*
X0162380Y0029166D01*
X0164543Y0030364D02*
X0167639Y0030364D01*
X0168838Y0031563D02*
X0165847Y0031563D01*
X0166378Y0032761D02*
X0168312Y0032761D01*
X0168145Y0033960D02*
X0166545Y0033960D01*
X0166545Y0035158D02*
X0168145Y0035158D01*
X0168145Y0036357D02*
X0166545Y0036357D01*
X0166545Y0037555D02*
X0168145Y0037555D01*
X0168145Y0038754D02*
X0166545Y0038754D01*
X0166545Y0039952D02*
X0168145Y0039952D01*
X0168607Y0041151D02*
X0166083Y0041151D01*
X0165135Y0042349D02*
X0169555Y0042349D01*
X0159555Y0042349D02*
X0155135Y0042349D01*
X0156083Y0041151D02*
X0158607Y0041151D01*
X0158145Y0039952D02*
X0156545Y0039952D01*
X0156545Y0038754D02*
X0158145Y0038754D01*
X0158145Y0037555D02*
X0156545Y0037555D01*
X0156545Y0036357D02*
X0158145Y0036357D01*
X0158145Y0035158D02*
X0156545Y0035158D01*
X0156545Y0033960D02*
X0158145Y0033960D01*
X0158312Y0032761D02*
X0156378Y0032761D01*
X0155847Y0031563D02*
X0158838Y0031563D01*
X0157639Y0030364D02*
X0154543Y0030364D01*
X0152380Y0029166D02*
X0156745Y0029166D01*
X0156745Y0027967D02*
X0151182Y0027967D01*
X0150945Y0026769D02*
X0156745Y0026769D01*
X0156745Y0025570D02*
X0150945Y0025570D01*
X0150945Y0024372D02*
X0156745Y0024372D01*
X0156745Y0023173D02*
X0150945Y0023173D01*
X0150945Y0021975D02*
X0156745Y0021975D01*
X0156745Y0020776D02*
X0151639Y0020776D01*
X0153354Y0019578D02*
X0156897Y0019578D01*
X0158096Y0018379D02*
X0155554Y0018379D01*
X0156554Y0017181D02*
X0158136Y0017181D01*
X0157639Y0015982D02*
X0157051Y0015982D01*
X0157145Y0014784D02*
X0157545Y0014784D01*
X0157545Y0013585D02*
X0157145Y0013585D01*
X0157145Y0012387D02*
X0157545Y0012387D01*
X0157545Y0011188D02*
X0157145Y0011188D01*
X0157145Y0009990D02*
X0157545Y0009990D01*
X0157545Y0008791D02*
X0157145Y0008791D01*
X0157145Y0007593D02*
X0157545Y0007593D01*
X0157980Y0006394D02*
X0156709Y0006394D01*
X0155929Y0005196D02*
X0158761Y0005196D01*
X0128761Y0005196D02*
X0125929Y0005196D01*
X0126709Y0006394D02*
X0127980Y0006394D01*
X0127545Y0007593D02*
X0127145Y0007593D01*
X0127145Y0008791D02*
X0127545Y0008791D01*
X0127545Y0009990D02*
X0127145Y0009990D01*
X0127145Y0011188D02*
X0127545Y0011188D01*
X0127545Y0012387D02*
X0127145Y0012387D01*
X0127145Y0013585D02*
X0127545Y0013585D01*
X0127545Y0014784D02*
X0127145Y0014784D01*
X0127051Y0015982D02*
X0127639Y0015982D01*
X0128136Y0017181D02*
X0126554Y0017181D01*
X0125554Y0018379D02*
X0128096Y0018379D01*
X0117545Y0011188D02*
X0087020Y0011188D01*
X0086361Y0009990D02*
X0117545Y0009990D01*
X0117545Y0008791D02*
X0085091Y0008791D01*
X0079599Y0008791D02*
X0075091Y0008791D01*
X0076361Y0009990D02*
X0078328Y0009990D01*
X0077670Y0011188D02*
X0077020Y0011188D01*
X0069599Y0008791D02*
X0065091Y0008791D01*
X0066361Y0009990D02*
X0068328Y0009990D01*
X0067670Y0011188D02*
X0067020Y0011188D01*
X0059599Y0008791D02*
X0046253Y0008791D01*
X0047095Y0009632D02*
X0047095Y0011400D01*
X0042545Y0011400D01*
X0042545Y0011800D01*
X0047095Y0011800D01*
X0047095Y0013568D01*
X0044312Y0016350D01*
X0042545Y0016350D01*
X0042545Y0011800D01*
X0042145Y0011800D01*
X0042145Y0016350D01*
X0040377Y0016350D01*
X0037595Y0013568D01*
X0037595Y0011800D01*
X0042145Y0011800D01*
X0042145Y0011400D01*
X0042545Y0011400D01*
X0042545Y0006850D01*
X0044312Y0006850D01*
X0047095Y0009632D01*
X0047095Y0009990D02*
X0058328Y0009990D01*
X0057670Y0011188D02*
X0047095Y0011188D01*
X0047095Y0012387D02*
X0057280Y0012387D01*
X0057280Y0013585D02*
X0047077Y0013585D01*
X0045879Y0014784D02*
X0057280Y0014784D01*
X0057280Y0015982D02*
X0044680Y0015982D01*
X0042545Y0015982D02*
X0042145Y0015982D01*
X0042145Y0014784D02*
X0042545Y0014784D01*
X0042545Y0013585D02*
X0042145Y0013585D01*
X0042145Y0012387D02*
X0042545Y0012387D01*
X0042145Y0011400D02*
X0037595Y0011400D01*
X0037595Y0009632D01*
X0040377Y0006850D01*
X0042145Y0006850D01*
X0042145Y0011400D01*
X0042145Y0011188D02*
X0042545Y0011188D01*
X0042545Y0009990D02*
X0042145Y0009990D01*
X0042145Y0008791D02*
X0042545Y0008791D01*
X0042545Y0007593D02*
X0042145Y0007593D01*
X0039635Y0007593D02*
X0035055Y0007593D01*
X0036253Y0008791D02*
X0038436Y0008791D01*
X0037595Y0009990D02*
X0036819Y0009990D01*
X0037095Y0011188D02*
X0037595Y0011188D01*
X0037595Y0012387D02*
X0037095Y0012387D01*
X0036664Y0013585D02*
X0037612Y0013585D01*
X0038811Y0014784D02*
X0035879Y0014784D01*
X0034178Y0015982D02*
X0040010Y0015982D01*
X0045055Y0007593D02*
X0117545Y0007593D01*
X0107545Y0013585D02*
X0107145Y0013585D01*
X0107145Y0014784D02*
X0107545Y0014784D01*
X0107545Y0015982D02*
X0107145Y0015982D01*
X0107145Y0017181D02*
X0107545Y0017181D01*
X0107545Y0018379D02*
X0107145Y0018379D01*
X0107145Y0019578D02*
X0107545Y0019578D01*
X0104383Y0019578D02*
X0100307Y0019578D01*
X0101505Y0018379D02*
X0103184Y0018379D01*
X0103145Y0017181D02*
X0101545Y0017181D01*
X0101545Y0015982D02*
X0103145Y0015982D01*
X0103222Y0014784D02*
X0101468Y0014784D01*
X0100270Y0013585D02*
X0104420Y0013585D01*
X0090745Y0026769D02*
X0073787Y0026769D01*
X0072345Y0025100D02*
X0072345Y0016600D01*
X0067654Y0021975D02*
X0067036Y0021975D01*
X0066399Y0023173D02*
X0068291Y0023173D01*
X0072589Y0027967D02*
X0090038Y0027967D01*
X0088839Y0029166D02*
X0071390Y0029166D01*
X0070192Y0030364D02*
X0088145Y0030364D01*
X0088145Y0031563D02*
X0068993Y0031563D01*
X0067795Y0032761D02*
X0088145Y0032761D01*
X0088765Y0033960D02*
X0066596Y0033960D01*
X0065398Y0035158D02*
X0089964Y0035158D01*
X0094726Y0035158D02*
X0099964Y0035158D01*
X0098765Y0033960D02*
X0095925Y0033960D01*
X0096545Y0032761D02*
X0098145Y0032761D01*
X0098145Y0031563D02*
X0096545Y0031563D01*
X0096545Y0030364D02*
X0098145Y0030364D01*
X0098839Y0029166D02*
X0095850Y0029166D01*
X0094945Y0027967D02*
X0100038Y0027967D01*
X0105925Y0033960D02*
X0108015Y0033960D01*
X0065168Y0029166D02*
X0046628Y0029166D01*
X0047595Y0030364D02*
X0063969Y0030364D01*
X0062771Y0031563D02*
X0047595Y0031563D01*
X0047595Y0032761D02*
X0061572Y0032761D01*
X0060374Y0033960D02*
X0047595Y0033960D01*
X0046504Y0035158D02*
X0059175Y0035158D01*
X0063045Y0048342D02*
X0065615Y0048342D01*
X0064802Y0049540D02*
X0063045Y0049540D01*
X0063045Y0050739D02*
X0064345Y0050739D01*
X0064345Y0051937D02*
X0063045Y0051937D01*
X0063045Y0053136D02*
X0064586Y0053136D01*
X0065091Y0054334D02*
X0063045Y0054334D01*
X0063045Y0055533D02*
X0066290Y0055533D01*
X0058645Y0055533D02*
X0024945Y0055533D01*
X0024945Y0056732D02*
X0058602Y0056732D01*
D18*
X0082845Y0058100D02*
X0098345Y0042600D01*
X0101845Y0046100D02*
X0205345Y0046100D01*
X0212345Y0039100D01*
X0212345Y0036600D01*
X0212345Y0032100D01*
X0208845Y0028600D01*
X0208845Y0020600D01*
X0212345Y0017100D01*
X0212345Y0011600D01*
X0202345Y0011600D02*
X0202345Y0017100D01*
X0198845Y0020600D01*
X0198845Y0028600D01*
X0202345Y0032100D01*
X0202345Y0036600D01*
X0192345Y0036600D02*
X0192345Y0032100D01*
X0188845Y0028600D01*
X0188845Y0020600D01*
X0192345Y0017100D01*
X0192345Y0011600D01*
X0182345Y0011600D02*
X0182345Y0017100D01*
X0178845Y0020600D01*
X0178845Y0028600D01*
X0182345Y0032100D01*
X0182345Y0036600D01*
X0172345Y0036600D02*
X0172345Y0032100D01*
X0168845Y0028600D01*
X0168845Y0020600D01*
X0172345Y0017100D01*
X0172345Y0011600D01*
X0162345Y0011600D02*
X0162345Y0017100D01*
X0158845Y0020600D01*
X0158845Y0028600D01*
X0162345Y0032100D01*
X0162345Y0036600D01*
X0152345Y0036600D02*
X0152345Y0032100D01*
X0148845Y0028600D01*
X0148845Y0020600D01*
X0152345Y0017100D01*
X0152345Y0011600D01*
X0142345Y0011600D02*
X0142345Y0017100D01*
X0138845Y0020600D01*
X0138845Y0028600D01*
X0142345Y0032100D01*
X0142345Y0036600D01*
X0132345Y0036600D02*
X0132345Y0032100D01*
X0128845Y0028600D01*
X0128845Y0020600D01*
X0132345Y0017100D01*
X0132345Y0011600D01*
X0097345Y0016600D02*
X0097345Y0018600D01*
X0092845Y0023100D01*
X0092845Y0028600D01*
X0092345Y0029100D01*
X0092345Y0031600D01*
X0112345Y0031600D02*
X0112345Y0032600D01*
X0085845Y0059100D01*
X0085845Y0071600D01*
X0078845Y0078600D01*
X0045345Y0078600D01*
X0037345Y0086600D01*
X0037345Y0091600D01*
X0077345Y0091600D02*
X0077345Y0086600D01*
X0087845Y0076100D01*
X0087845Y0060100D01*
X0101845Y0046100D01*
X0082845Y0058100D02*
X0082845Y0068600D01*
X0102345Y0061600D02*
X0104845Y0061600D01*
X0105345Y0062100D01*
X0109345Y0062100D01*
X0109845Y0061600D01*
X0112345Y0061600D01*
X0138845Y0074600D02*
X0138845Y0082600D01*
X0142345Y0086100D01*
X0142345Y0091600D01*
X0152345Y0091600D02*
X0152345Y0086100D01*
X0148845Y0082600D01*
X0148845Y0074600D01*
X0152345Y0071100D01*
X0152345Y0066600D01*
X0162345Y0066600D02*
X0162345Y0071100D01*
X0158845Y0074600D01*
X0158845Y0082600D01*
X0162345Y0086100D01*
X0162345Y0091600D01*
X0172345Y0091600D02*
X0172345Y0086100D01*
X0168845Y0082600D01*
X0168845Y0074600D01*
X0172345Y0071100D01*
X0172345Y0066600D01*
X0182345Y0066600D02*
X0182345Y0071100D01*
X0178845Y0074600D01*
X0178845Y0082600D01*
X0182345Y0086100D01*
X0182345Y0091600D01*
X0192345Y0091600D02*
X0192345Y0086100D01*
X0188845Y0082600D01*
X0188845Y0074600D01*
X0192345Y0071100D01*
X0192345Y0066600D01*
X0202345Y0066600D02*
X0202345Y0071100D01*
X0198845Y0074600D01*
X0198845Y0082600D01*
X0202345Y0086100D01*
X0202345Y0091600D01*
X0212345Y0091600D02*
X0212345Y0086100D01*
X0208845Y0082600D01*
X0208845Y0074600D01*
X0212345Y0071100D01*
X0212345Y0066600D01*
X0142345Y0066600D02*
X0142345Y0071100D01*
X0138845Y0074600D01*
D19*
X0082845Y0068600D03*
X0098345Y0042600D03*
M02*
