G75*
%MOIN*%
%OFA0B0*%
%FSLAX25Y25*%
%IPPOS*%
%LPD*%
%AMOC8*
5,1,8,0,0,1.08239X$1,22.5*
%
%ADD10OC8,0.06300*%
%ADD11C,0.06300*%
%ADD12OC8,0.05600*%
%ADD13C,0.06400*%
%ADD14C,0.05600*%
%ADD15C,0.07874*%
%ADD16C,0.06929*%
%ADD17C,0.01200*%
%ADD18C,0.01000*%
%ADD19C,0.02600*%
D10*
X0042345Y0011600D03*
X0042845Y0032100D03*
D11*
X0032845Y0032100D03*
X0032345Y0011600D03*
D12*
X0092345Y0031600D03*
X0102345Y0031600D03*
X0112345Y0031600D03*
X0107345Y0016600D03*
X0097345Y0016600D03*
X0102345Y0061600D03*
X0092345Y0061600D03*
X0112345Y0061600D03*
X0107845Y0072100D03*
X0097845Y0072100D03*
X0097845Y0082600D03*
X0107845Y0082600D03*
D13*
X0122345Y0088400D02*
X0122345Y0094800D01*
X0132345Y0094800D02*
X0132345Y0088400D01*
X0142345Y0088400D02*
X0142345Y0094800D01*
X0152345Y0094800D02*
X0152345Y0088400D01*
X0162345Y0088400D02*
X0162345Y0094800D01*
X0172345Y0094800D02*
X0172345Y0088400D01*
X0182345Y0088400D02*
X0182345Y0094800D01*
X0192345Y0094800D02*
X0192345Y0088400D01*
X0202345Y0088400D02*
X0202345Y0094800D01*
X0212345Y0094800D02*
X0212345Y0088400D01*
X0087345Y0088400D02*
X0087345Y0094800D01*
X0077345Y0094800D02*
X0077345Y0088400D01*
X0067345Y0088400D02*
X0067345Y0094800D01*
X0057345Y0094800D02*
X0057345Y0088400D01*
X0047345Y0088400D02*
X0047345Y0094800D01*
X0037345Y0094800D02*
X0037345Y0088400D01*
X0069145Y0071600D02*
X0075545Y0071600D01*
X0075545Y0061600D02*
X0069145Y0061600D01*
X0069145Y0051600D02*
X0075545Y0051600D01*
X0122345Y0014800D02*
X0122345Y0008400D01*
X0132345Y0008400D02*
X0132345Y0014800D01*
X0142345Y0014800D02*
X0142345Y0008400D01*
X0152345Y0008400D02*
X0152345Y0014800D01*
X0162345Y0014800D02*
X0162345Y0008400D01*
X0172345Y0008400D02*
X0172345Y0014800D01*
X0182345Y0014800D02*
X0182345Y0008400D01*
X0192345Y0008400D02*
X0192345Y0014800D01*
X0202345Y0014800D02*
X0202345Y0008400D01*
X0212345Y0008400D02*
X0212345Y0014800D01*
D14*
X0212345Y0033800D02*
X0212345Y0039400D01*
X0202345Y0039400D02*
X0202345Y0033800D01*
X0192345Y0033800D02*
X0192345Y0039400D01*
X0182345Y0039400D02*
X0182345Y0033800D01*
X0172345Y0033800D02*
X0172345Y0039400D01*
X0162345Y0039400D02*
X0162345Y0033800D01*
X0152345Y0033800D02*
X0152345Y0039400D01*
X0142345Y0039400D02*
X0142345Y0033800D01*
X0132345Y0033800D02*
X0132345Y0039400D01*
X0122345Y0039400D02*
X0122345Y0033800D01*
X0122345Y0063800D02*
X0122345Y0069400D01*
X0132345Y0069400D02*
X0132345Y0063800D01*
X0142345Y0063800D02*
X0142345Y0069400D01*
X0152345Y0069400D02*
X0152345Y0063800D01*
X0162345Y0063800D02*
X0162345Y0069400D01*
X0172345Y0069400D02*
X0172345Y0063800D01*
X0182345Y0063800D02*
X0182345Y0069400D01*
X0192345Y0069400D02*
X0192345Y0063800D01*
X0202345Y0063800D02*
X0202345Y0069400D01*
X0212345Y0069400D02*
X0212345Y0063800D01*
D15*
X0054550Y0062663D02*
X0054550Y0070537D01*
X0030534Y0070537D02*
X0030534Y0062663D01*
X0038408Y0047702D02*
X0046282Y0047702D01*
D16*
X0062345Y0020065D02*
X0062345Y0013135D01*
X0072345Y0013135D02*
X0072345Y0020065D01*
X0082345Y0020065D02*
X0082345Y0013135D01*
D17*
X0024945Y0004200D02*
X0024945Y0099000D01*
X0034942Y0099000D01*
X0034626Y0098869D01*
X0033276Y0097519D01*
X0032545Y0095755D01*
X0032545Y0087445D01*
X0033276Y0085681D01*
X0034626Y0084331D01*
X0036390Y0083600D01*
X0038300Y0083600D01*
X0040064Y0084331D01*
X0041414Y0085681D01*
X0042145Y0087445D01*
X0042145Y0095755D01*
X0041414Y0097519D01*
X0040064Y0098869D01*
X0039748Y0099000D01*
X0044942Y0099000D01*
X0044626Y0098869D01*
X0043276Y0097519D01*
X0042545Y0095755D01*
X0042545Y0087445D01*
X0043276Y0085681D01*
X0044626Y0084331D01*
X0045145Y0084116D01*
X0045145Y0074511D01*
X0044145Y0073511D01*
X0044145Y0058189D01*
X0054484Y0047850D01*
X0048434Y0041800D01*
X0037434Y0041800D01*
X0036145Y0040511D01*
X0032484Y0036850D01*
X0031900Y0036850D01*
X0030154Y0036127D01*
X0028818Y0034791D01*
X0028095Y0033045D01*
X0028095Y0031155D01*
X0028818Y0029409D01*
X0030154Y0028073D01*
X0031900Y0027350D01*
X0033790Y0027350D01*
X0035536Y0028073D01*
X0036872Y0029409D01*
X0037595Y0031155D01*
X0037595Y0033045D01*
X0036872Y0034791D01*
X0036759Y0034903D01*
X0039256Y0037400D01*
X0050256Y0037400D01*
X0058506Y0045650D01*
X0058506Y0045650D01*
X0059795Y0046939D01*
X0062756Y0049900D01*
X0064045Y0051189D01*
X0064045Y0053689D01*
X0067459Y0057103D01*
X0068190Y0056800D01*
X0076500Y0056800D01*
X0078264Y0057531D01*
X0079614Y0058881D01*
X0080345Y0060645D01*
X0080345Y0060989D01*
X0082756Y0063400D01*
X0085934Y0063400D01*
X0087945Y0061389D01*
X0087945Y0059777D01*
X0090522Y0057200D01*
X0090634Y0057200D01*
X0090934Y0056900D01*
X0093145Y0054689D01*
X0093145Y0039189D01*
X0094434Y0037900D01*
X0098428Y0033906D01*
X0097945Y0033423D01*
X0097945Y0029777D01*
X0100522Y0027200D01*
X0104167Y0027200D01*
X0106745Y0029777D01*
X0106745Y0033423D01*
X0104167Y0036000D01*
X0102556Y0036000D01*
X0098856Y0039700D01*
X0098922Y0039700D01*
X0099988Y0040141D01*
X0100346Y0040500D01*
X0116715Y0040500D01*
X0120215Y0044000D01*
X0194975Y0044000D01*
X0198166Y0040809D01*
X0197945Y0040275D01*
X0197945Y0032925D01*
X0198615Y0031308D01*
X0199852Y0030070D01*
X0201470Y0029400D01*
X0203220Y0029400D01*
X0204837Y0030070D01*
X0206075Y0031308D01*
X0206745Y0032925D01*
X0206745Y0040275D01*
X0206075Y0041892D01*
X0204837Y0043130D01*
X0203220Y0043800D01*
X0201470Y0043800D01*
X0201219Y0043696D01*
X0196715Y0048200D01*
X0118475Y0048200D01*
X0117245Y0046970D01*
X0114975Y0044700D01*
X0100346Y0044700D01*
X0099988Y0045058D01*
X0098922Y0045500D01*
X0097768Y0045500D01*
X0097545Y0045408D01*
X0097545Y0056511D01*
X0095512Y0058544D01*
X0096745Y0059777D01*
X0096745Y0063423D01*
X0094167Y0066000D01*
X0090522Y0066000D01*
X0090039Y0065517D01*
X0089045Y0066511D01*
X0089045Y0069689D01*
X0097556Y0078200D01*
X0099667Y0078200D01*
X0102245Y0080777D01*
X0102245Y0084423D01*
X0102012Y0084656D01*
X0104756Y0087400D01*
X0109434Y0087400D01*
X0115645Y0081189D01*
X0115645Y0073189D01*
X0116934Y0071900D01*
X0118125Y0070709D01*
X0117945Y0070275D01*
X0117945Y0062925D01*
X0118615Y0061308D01*
X0119852Y0060070D01*
X0121470Y0059400D01*
X0123220Y0059400D01*
X0124837Y0060070D01*
X0126075Y0061308D01*
X0126745Y0062925D01*
X0126745Y0070275D01*
X0126075Y0071892D01*
X0124837Y0073130D01*
X0123220Y0073800D01*
X0121470Y0073800D01*
X0121319Y0073737D01*
X0120045Y0075011D01*
X0120045Y0080689D01*
X0122956Y0083600D01*
X0123300Y0083600D01*
X0125064Y0084331D01*
X0126414Y0085681D01*
X0127145Y0087445D01*
X0127145Y0095755D01*
X0126414Y0097519D01*
X0125064Y0098869D01*
X0124748Y0099000D01*
X0130015Y0099000D01*
X0129829Y0098905D01*
X0129218Y0098461D01*
X0128684Y0097927D01*
X0128240Y0097316D01*
X0127897Y0096643D01*
X0127663Y0095924D01*
X0127545Y0095178D01*
X0127545Y0092000D01*
X0131945Y0092000D01*
X0131945Y0091200D01*
X0132745Y0091200D01*
X0132745Y0092000D01*
X0137145Y0092000D01*
X0137145Y0095178D01*
X0137027Y0095924D01*
X0136793Y0096643D01*
X0136450Y0097316D01*
X0136006Y0097927D01*
X0135472Y0098461D01*
X0134861Y0098905D01*
X0134675Y0099000D01*
X0139942Y0099000D01*
X0139626Y0098869D01*
X0138276Y0097519D01*
X0137545Y0095755D01*
X0137545Y0087445D01*
X0138276Y0085681D01*
X0139626Y0084331D01*
X0141390Y0083600D01*
X0143300Y0083600D01*
X0145064Y0084331D01*
X0146414Y0085681D01*
X0147145Y0087445D01*
X0147145Y0095755D01*
X0146414Y0097519D01*
X0145064Y0098869D01*
X0144748Y0099000D01*
X0149942Y0099000D01*
X0149626Y0098869D01*
X0148276Y0097519D01*
X0147545Y0095755D01*
X0147545Y0087445D01*
X0148276Y0085681D01*
X0149626Y0084331D01*
X0151390Y0083600D01*
X0153300Y0083600D01*
X0155064Y0084331D01*
X0156414Y0085681D01*
X0157145Y0087445D01*
X0157145Y0095755D01*
X0156414Y0097519D01*
X0155064Y0098869D01*
X0154748Y0099000D01*
X0159942Y0099000D01*
X0159626Y0098869D01*
X0158276Y0097519D01*
X0157545Y0095755D01*
X0157545Y0087445D01*
X0158276Y0085681D01*
X0159626Y0084331D01*
X0161390Y0083600D01*
X0163300Y0083600D01*
X0165064Y0084331D01*
X0166414Y0085681D01*
X0167145Y0087445D01*
X0167145Y0095755D01*
X0166414Y0097519D01*
X0165064Y0098869D01*
X0164748Y0099000D01*
X0169942Y0099000D01*
X0169626Y0098869D01*
X0168276Y0097519D01*
X0167545Y0095755D01*
X0167545Y0087445D01*
X0168276Y0085681D01*
X0169626Y0084331D01*
X0171390Y0083600D01*
X0173300Y0083600D01*
X0175064Y0084331D01*
X0176414Y0085681D01*
X0177145Y0087445D01*
X0177145Y0095755D01*
X0176414Y0097519D01*
X0175064Y0098869D01*
X0174748Y0099000D01*
X0179942Y0099000D01*
X0179626Y0098869D01*
X0178276Y0097519D01*
X0177545Y0095755D01*
X0177545Y0087445D01*
X0178276Y0085681D01*
X0179626Y0084331D01*
X0181390Y0083600D01*
X0183300Y0083600D01*
X0185064Y0084331D01*
X0186414Y0085681D01*
X0187145Y0087445D01*
X0187145Y0095755D01*
X0186414Y0097519D01*
X0185064Y0098869D01*
X0184748Y0099000D01*
X0189942Y0099000D01*
X0189626Y0098869D01*
X0188276Y0097519D01*
X0187545Y0095755D01*
X0187545Y0087445D01*
X0188276Y0085681D01*
X0189626Y0084331D01*
X0191390Y0083600D01*
X0193300Y0083600D01*
X0195064Y0084331D01*
X0196414Y0085681D01*
X0197145Y0087445D01*
X0197145Y0095755D01*
X0196414Y0097519D01*
X0195064Y0098869D01*
X0194748Y0099000D01*
X0199942Y0099000D01*
X0199626Y0098869D01*
X0198276Y0097519D01*
X0197545Y0095755D01*
X0197545Y0087445D01*
X0198276Y0085681D01*
X0199626Y0084331D01*
X0201390Y0083600D01*
X0203300Y0083600D01*
X0205064Y0084331D01*
X0206414Y0085681D01*
X0207145Y0087445D01*
X0207145Y0095755D01*
X0206414Y0097519D01*
X0205064Y0098869D01*
X0204748Y0099000D01*
X0209942Y0099000D01*
X0209626Y0098869D01*
X0208276Y0097519D01*
X0207545Y0095755D01*
X0207545Y0087445D01*
X0208276Y0085681D01*
X0209626Y0084331D01*
X0211390Y0083600D01*
X0213300Y0083600D01*
X0215064Y0084331D01*
X0216414Y0085681D01*
X0217145Y0087445D01*
X0217145Y0095755D01*
X0216414Y0097519D01*
X0215064Y0098869D01*
X0214748Y0099000D01*
X0219745Y0099000D01*
X0219745Y0004200D01*
X0214748Y0004200D01*
X0215064Y0004331D01*
X0216414Y0005681D01*
X0217145Y0007445D01*
X0217145Y0015755D01*
X0216414Y0017519D01*
X0215064Y0018869D01*
X0213300Y0019600D01*
X0211390Y0019600D01*
X0209626Y0018869D01*
X0208276Y0017519D01*
X0207545Y0015755D01*
X0207545Y0007445D01*
X0208276Y0005681D01*
X0209626Y0004331D01*
X0209942Y0004200D01*
X0204748Y0004200D01*
X0205064Y0004331D01*
X0206414Y0005681D01*
X0207145Y0007445D01*
X0207145Y0015755D01*
X0206414Y0017519D01*
X0205064Y0018869D01*
X0203300Y0019600D01*
X0201390Y0019600D01*
X0199626Y0018869D01*
X0198276Y0017519D01*
X0197545Y0015755D01*
X0197545Y0007445D01*
X0198276Y0005681D01*
X0199626Y0004331D01*
X0199942Y0004200D01*
X0194748Y0004200D01*
X0195064Y0004331D01*
X0196414Y0005681D01*
X0197145Y0007445D01*
X0197145Y0015755D01*
X0196414Y0017519D01*
X0195064Y0018869D01*
X0193300Y0019600D01*
X0191390Y0019600D01*
X0189626Y0018869D01*
X0188276Y0017519D01*
X0187545Y0015755D01*
X0187545Y0007445D01*
X0188276Y0005681D01*
X0189626Y0004331D01*
X0189942Y0004200D01*
X0184748Y0004200D01*
X0185064Y0004331D01*
X0186414Y0005681D01*
X0187145Y0007445D01*
X0187145Y0015755D01*
X0186414Y0017519D01*
X0185064Y0018869D01*
X0183300Y0019600D01*
X0181390Y0019600D01*
X0179626Y0018869D01*
X0178276Y0017519D01*
X0177545Y0015755D01*
X0177545Y0007445D01*
X0178276Y0005681D01*
X0179626Y0004331D01*
X0179942Y0004200D01*
X0174748Y0004200D01*
X0175064Y0004331D01*
X0176414Y0005681D01*
X0177145Y0007445D01*
X0177145Y0015755D01*
X0176414Y0017519D01*
X0175064Y0018869D01*
X0173300Y0019600D01*
X0171390Y0019600D01*
X0169626Y0018869D01*
X0168276Y0017519D01*
X0167545Y0015755D01*
X0167545Y0007445D01*
X0168276Y0005681D01*
X0169626Y0004331D01*
X0169942Y0004200D01*
X0164748Y0004200D01*
X0165064Y0004331D01*
X0166414Y0005681D01*
X0167145Y0007445D01*
X0167145Y0015755D01*
X0166414Y0017519D01*
X0165064Y0018869D01*
X0163300Y0019600D01*
X0161390Y0019600D01*
X0159626Y0018869D01*
X0158276Y0017519D01*
X0157545Y0015755D01*
X0157545Y0007445D01*
X0158276Y0005681D01*
X0159626Y0004331D01*
X0159942Y0004200D01*
X0154748Y0004200D01*
X0155064Y0004331D01*
X0156414Y0005681D01*
X0157145Y0007445D01*
X0157145Y0015755D01*
X0156414Y0017519D01*
X0155064Y0018869D01*
X0153300Y0019600D01*
X0151390Y0019600D01*
X0149626Y0018869D01*
X0148276Y0017519D01*
X0147545Y0015755D01*
X0147545Y0007445D01*
X0148276Y0005681D01*
X0149626Y0004331D01*
X0149942Y0004200D01*
X0144748Y0004200D01*
X0145064Y0004331D01*
X0146414Y0005681D01*
X0147145Y0007445D01*
X0147145Y0015755D01*
X0146414Y0017519D01*
X0145064Y0018869D01*
X0143300Y0019600D01*
X0141390Y0019600D01*
X0139626Y0018869D01*
X0138276Y0017519D01*
X0137545Y0015755D01*
X0137545Y0007445D01*
X0138276Y0005681D01*
X0139626Y0004331D01*
X0139942Y0004200D01*
X0134748Y0004200D01*
X0135064Y0004331D01*
X0136414Y0005681D01*
X0137145Y0007445D01*
X0137145Y0015755D01*
X0136414Y0017519D01*
X0135064Y0018869D01*
X0133300Y0019600D01*
X0131390Y0019600D01*
X0129626Y0018869D01*
X0128276Y0017519D01*
X0127545Y0015755D01*
X0127545Y0007445D01*
X0128276Y0005681D01*
X0129626Y0004331D01*
X0129942Y0004200D01*
X0124748Y0004200D01*
X0125064Y0004331D01*
X0126414Y0005681D01*
X0127145Y0007445D01*
X0127145Y0015755D01*
X0126414Y0017519D01*
X0125064Y0018869D01*
X0123300Y0019600D01*
X0122315Y0019600D01*
X0118945Y0022970D01*
X0118945Y0027470D01*
X0116691Y0029724D01*
X0116745Y0029777D01*
X0116745Y0032530D01*
X0117945Y0033730D01*
X0117945Y0032925D01*
X0118615Y0031308D01*
X0119852Y0030070D01*
X0121470Y0029400D01*
X0123220Y0029400D01*
X0124837Y0030070D01*
X0126075Y0031308D01*
X0126745Y0032925D01*
X0126745Y0040275D01*
X0126075Y0041892D01*
X0124837Y0043130D01*
X0123220Y0043800D01*
X0121470Y0043800D01*
X0119852Y0043130D01*
X0118615Y0041892D01*
X0117945Y0040275D01*
X0117945Y0038700D01*
X0116975Y0038700D01*
X0115745Y0037470D01*
X0114221Y0035946D01*
X0114167Y0036000D01*
X0110522Y0036000D01*
X0107945Y0033423D01*
X0107945Y0029777D01*
X0110522Y0027200D01*
X0113275Y0027200D01*
X0114745Y0025730D01*
X0114745Y0021230D01*
X0118366Y0017609D01*
X0118276Y0017519D01*
X0117545Y0015755D01*
X0117545Y0007445D01*
X0118276Y0005681D01*
X0119626Y0004331D01*
X0119942Y0004200D01*
X0024945Y0004200D01*
X0024945Y0005196D02*
X0118761Y0005196D01*
X0117980Y0006394D02*
X0024945Y0006394D01*
X0024945Y0007593D02*
X0029635Y0007593D01*
X0029654Y0007573D02*
X0031400Y0006850D01*
X0033290Y0006850D01*
X0035036Y0007573D01*
X0036372Y0008909D01*
X0037095Y0010655D01*
X0037095Y0012545D01*
X0036372Y0014291D01*
X0036259Y0014403D01*
X0038256Y0016400D01*
X0057280Y0016400D01*
X0057280Y0012128D01*
X0058051Y0010267D01*
X0059476Y0008842D01*
X0061337Y0008071D01*
X0063352Y0008071D01*
X0065214Y0008842D01*
X0066638Y0010267D01*
X0067345Y0011972D01*
X0068051Y0010267D01*
X0069476Y0008842D01*
X0071337Y0008071D01*
X0073352Y0008071D01*
X0075214Y0008842D01*
X0076638Y0010267D01*
X0077345Y0011972D01*
X0078051Y0010267D01*
X0079476Y0008842D01*
X0081337Y0008071D01*
X0083352Y0008071D01*
X0085214Y0008842D01*
X0086638Y0010267D01*
X0087409Y0012128D01*
X0087409Y0021072D01*
X0086638Y0022933D01*
X0085214Y0024358D01*
X0083352Y0025129D01*
X0081337Y0025129D01*
X0079476Y0024358D01*
X0078051Y0022933D01*
X0077345Y0021228D01*
X0076638Y0022933D01*
X0075214Y0024358D01*
X0073352Y0025129D01*
X0071337Y0025129D01*
X0069476Y0024358D01*
X0068051Y0022933D01*
X0067345Y0021228D01*
X0066638Y0022933D01*
X0065214Y0024358D01*
X0063352Y0025129D01*
X0061337Y0025129D01*
X0059476Y0024358D01*
X0058051Y0022933D01*
X0057280Y0021072D01*
X0057280Y0020800D01*
X0057045Y0020800D01*
X0057045Y0022189D01*
X0074545Y0039689D01*
X0074545Y0046800D01*
X0076500Y0046800D01*
X0078264Y0047531D01*
X0079614Y0048881D01*
X0080345Y0050645D01*
X0080345Y0052555D01*
X0079614Y0054319D01*
X0078264Y0055669D01*
X0076500Y0056400D01*
X0068190Y0056400D01*
X0066426Y0055669D01*
X0065076Y0054319D01*
X0064345Y0052555D01*
X0064345Y0050645D01*
X0065076Y0048881D01*
X0066426Y0047531D01*
X0068190Y0046800D01*
X0070145Y0046800D01*
X0070145Y0041511D01*
X0053934Y0025300D01*
X0052645Y0024011D01*
X0052645Y0020800D01*
X0036434Y0020800D01*
X0035145Y0019511D01*
X0031984Y0016350D01*
X0031400Y0016350D01*
X0029654Y0015627D01*
X0028318Y0014291D01*
X0027595Y0012545D01*
X0027595Y0010655D01*
X0028318Y0008909D01*
X0029654Y0007573D01*
X0028436Y0008791D02*
X0024945Y0008791D01*
X0024945Y0009990D02*
X0027871Y0009990D01*
X0027595Y0011188D02*
X0024945Y0011188D01*
X0024945Y0012387D02*
X0027595Y0012387D01*
X0028026Y0013585D02*
X0024945Y0013585D01*
X0024945Y0014784D02*
X0028811Y0014784D01*
X0030512Y0015982D02*
X0024945Y0015982D01*
X0024945Y0017181D02*
X0032814Y0017181D01*
X0034013Y0018379D02*
X0024945Y0018379D01*
X0024945Y0019578D02*
X0035211Y0019578D01*
X0037345Y0018600D02*
X0054845Y0018600D01*
X0054845Y0023100D01*
X0072345Y0040600D01*
X0072345Y0051600D01*
X0078400Y0055533D02*
X0092301Y0055533D01*
X0093145Y0054334D02*
X0079599Y0054334D01*
X0080104Y0053136D02*
X0093145Y0053136D01*
X0093145Y0051937D02*
X0080345Y0051937D01*
X0080345Y0050739D02*
X0093145Y0050739D01*
X0093145Y0049540D02*
X0079887Y0049540D01*
X0079075Y0048342D02*
X0093145Y0048342D01*
X0093145Y0047143D02*
X0077329Y0047143D01*
X0074545Y0045945D02*
X0093145Y0045945D01*
X0093145Y0044746D02*
X0074545Y0044746D01*
X0074545Y0043548D02*
X0093145Y0043548D01*
X0093145Y0042349D02*
X0074545Y0042349D01*
X0074545Y0041151D02*
X0093145Y0041151D01*
X0093145Y0039952D02*
X0074545Y0039952D01*
X0073610Y0038754D02*
X0093580Y0038754D01*
X0094778Y0037555D02*
X0072411Y0037555D01*
X0071213Y0036357D02*
X0095977Y0036357D01*
X0095009Y0035158D02*
X0097175Y0035158D01*
X0096745Y0033423D02*
X0094167Y0036000D01*
X0090522Y0036000D01*
X0087945Y0033423D01*
X0087945Y0029777D01*
X0090522Y0027200D01*
X0094167Y0027200D01*
X0096745Y0029777D01*
X0096745Y0033423D01*
X0096745Y0032761D02*
X0097945Y0032761D01*
X0097945Y0031563D02*
X0096745Y0031563D01*
X0096745Y0030364D02*
X0097945Y0030364D01*
X0098557Y0029166D02*
X0096133Y0029166D01*
X0094935Y0027967D02*
X0099755Y0027967D01*
X0104935Y0027967D02*
X0109755Y0027967D01*
X0108557Y0029166D02*
X0106133Y0029166D01*
X0106745Y0030364D02*
X0107945Y0030364D01*
X0107945Y0031563D02*
X0106745Y0031563D01*
X0106745Y0032761D02*
X0107945Y0032761D01*
X0108482Y0033960D02*
X0106208Y0033960D01*
X0105009Y0035158D02*
X0109681Y0035158D01*
X0114632Y0036357D02*
X0102199Y0036357D01*
X0101001Y0037555D02*
X0115830Y0037555D01*
X0117945Y0038754D02*
X0099802Y0038754D01*
X0099531Y0039952D02*
X0117945Y0039952D01*
X0118308Y0041151D02*
X0117366Y0041151D01*
X0118564Y0042349D02*
X0119072Y0042349D01*
X0119763Y0043548D02*
X0120861Y0043548D01*
X0123829Y0043548D02*
X0130861Y0043548D01*
X0131470Y0043800D02*
X0129852Y0043130D01*
X0128615Y0041892D01*
X0127945Y0040275D01*
X0127945Y0032925D01*
X0128615Y0031308D01*
X0129852Y0030070D01*
X0131470Y0029400D01*
X0133220Y0029400D01*
X0134837Y0030070D01*
X0136075Y0031308D01*
X0136745Y0032925D01*
X0136745Y0040275D01*
X0136075Y0041892D01*
X0134837Y0043130D01*
X0133220Y0043800D01*
X0131470Y0043800D01*
X0133829Y0043548D02*
X0140861Y0043548D01*
X0141470Y0043800D02*
X0139852Y0043130D01*
X0138615Y0041892D01*
X0137945Y0040275D01*
X0137945Y0032925D01*
X0138615Y0031308D01*
X0139852Y0030070D01*
X0141470Y0029400D01*
X0143220Y0029400D01*
X0144837Y0030070D01*
X0146075Y0031308D01*
X0146745Y0032925D01*
X0146745Y0040275D01*
X0146075Y0041892D01*
X0144837Y0043130D01*
X0143220Y0043800D01*
X0141470Y0043800D01*
X0143829Y0043548D02*
X0150861Y0043548D01*
X0151470Y0043800D02*
X0149852Y0043130D01*
X0148615Y0041892D01*
X0147945Y0040275D01*
X0147945Y0032925D01*
X0148615Y0031308D01*
X0149852Y0030070D01*
X0151470Y0029400D01*
X0153220Y0029400D01*
X0154837Y0030070D01*
X0156075Y0031308D01*
X0156745Y0032925D01*
X0156745Y0040275D01*
X0156075Y0041892D01*
X0154837Y0043130D01*
X0153220Y0043800D01*
X0151470Y0043800D01*
X0153829Y0043548D02*
X0160861Y0043548D01*
X0161470Y0043800D02*
X0159852Y0043130D01*
X0158615Y0041892D01*
X0157945Y0040275D01*
X0157945Y0032925D01*
X0158615Y0031308D01*
X0159852Y0030070D01*
X0161470Y0029400D01*
X0163220Y0029400D01*
X0164837Y0030070D01*
X0166075Y0031308D01*
X0166745Y0032925D01*
X0166745Y0040275D01*
X0166075Y0041892D01*
X0164837Y0043130D01*
X0163220Y0043800D01*
X0161470Y0043800D01*
X0163829Y0043548D02*
X0170861Y0043548D01*
X0171470Y0043800D02*
X0169852Y0043130D01*
X0168615Y0041892D01*
X0167945Y0040275D01*
X0167945Y0032925D01*
X0168615Y0031308D01*
X0169852Y0030070D01*
X0171470Y0029400D01*
X0173220Y0029400D01*
X0174837Y0030070D01*
X0176075Y0031308D01*
X0176745Y0032925D01*
X0176745Y0040275D01*
X0176075Y0041892D01*
X0174837Y0043130D01*
X0173220Y0043800D01*
X0171470Y0043800D01*
X0173829Y0043548D02*
X0180861Y0043548D01*
X0181470Y0043800D02*
X0179852Y0043130D01*
X0178615Y0041892D01*
X0177945Y0040275D01*
X0177945Y0032925D01*
X0178615Y0031308D01*
X0179852Y0030070D01*
X0181470Y0029400D01*
X0183220Y0029400D01*
X0184837Y0030070D01*
X0186075Y0031308D01*
X0186745Y0032925D01*
X0186745Y0040275D01*
X0186075Y0041892D01*
X0184837Y0043130D01*
X0183220Y0043800D01*
X0181470Y0043800D01*
X0183829Y0043548D02*
X0190861Y0043548D01*
X0191470Y0043800D02*
X0189852Y0043130D01*
X0188615Y0041892D01*
X0187945Y0040275D01*
X0187945Y0032925D01*
X0188615Y0031308D01*
X0189852Y0030070D01*
X0191470Y0029400D01*
X0193220Y0029400D01*
X0194837Y0030070D01*
X0196075Y0031308D01*
X0196745Y0032925D01*
X0196745Y0040275D01*
X0196075Y0041892D01*
X0194837Y0043130D01*
X0193220Y0043800D01*
X0191470Y0043800D01*
X0193829Y0043548D02*
X0195427Y0043548D01*
X0195618Y0042349D02*
X0196626Y0042349D01*
X0196382Y0041151D02*
X0197824Y0041151D01*
X0197945Y0039952D02*
X0196745Y0039952D01*
X0196745Y0038754D02*
X0197945Y0038754D01*
X0197945Y0037555D02*
X0196745Y0037555D01*
X0196745Y0036357D02*
X0197945Y0036357D01*
X0197945Y0035158D02*
X0196745Y0035158D01*
X0196745Y0033960D02*
X0197945Y0033960D01*
X0198013Y0032761D02*
X0196677Y0032761D01*
X0196181Y0031563D02*
X0198509Y0031563D01*
X0199558Y0030364D02*
X0195132Y0030364D01*
X0189558Y0030364D02*
X0185132Y0030364D01*
X0186181Y0031563D02*
X0188509Y0031563D01*
X0188013Y0032761D02*
X0186677Y0032761D01*
X0186745Y0033960D02*
X0187945Y0033960D01*
X0187945Y0035158D02*
X0186745Y0035158D01*
X0186745Y0036357D02*
X0187945Y0036357D01*
X0187945Y0037555D02*
X0186745Y0037555D01*
X0186745Y0038754D02*
X0187945Y0038754D01*
X0187945Y0039952D02*
X0186745Y0039952D01*
X0186382Y0041151D02*
X0188308Y0041151D01*
X0189072Y0042349D02*
X0185618Y0042349D01*
X0179072Y0042349D02*
X0175618Y0042349D01*
X0176382Y0041151D02*
X0178308Y0041151D01*
X0177945Y0039952D02*
X0176745Y0039952D01*
X0176745Y0038754D02*
X0177945Y0038754D01*
X0177945Y0037555D02*
X0176745Y0037555D01*
X0176745Y0036357D02*
X0177945Y0036357D01*
X0177945Y0035158D02*
X0176745Y0035158D01*
X0176745Y0033960D02*
X0177945Y0033960D01*
X0178013Y0032761D02*
X0176677Y0032761D01*
X0176181Y0031563D02*
X0178509Y0031563D01*
X0179558Y0030364D02*
X0175132Y0030364D01*
X0169558Y0030364D02*
X0165132Y0030364D01*
X0166181Y0031563D02*
X0168509Y0031563D01*
X0168013Y0032761D02*
X0166677Y0032761D01*
X0166745Y0033960D02*
X0167945Y0033960D01*
X0167945Y0035158D02*
X0166745Y0035158D01*
X0166745Y0036357D02*
X0167945Y0036357D01*
X0167945Y0037555D02*
X0166745Y0037555D01*
X0166745Y0038754D02*
X0167945Y0038754D01*
X0167945Y0039952D02*
X0166745Y0039952D01*
X0166382Y0041151D02*
X0168308Y0041151D01*
X0169072Y0042349D02*
X0165618Y0042349D01*
X0159072Y0042349D02*
X0155618Y0042349D01*
X0156382Y0041151D02*
X0158308Y0041151D01*
X0157945Y0039952D02*
X0156745Y0039952D01*
X0156745Y0038754D02*
X0157945Y0038754D01*
X0157945Y0037555D02*
X0156745Y0037555D01*
X0156745Y0036357D02*
X0157945Y0036357D01*
X0157945Y0035158D02*
X0156745Y0035158D01*
X0156745Y0033960D02*
X0157945Y0033960D01*
X0158013Y0032761D02*
X0156677Y0032761D01*
X0156181Y0031563D02*
X0158509Y0031563D01*
X0159558Y0030364D02*
X0155132Y0030364D01*
X0149558Y0030364D02*
X0145132Y0030364D01*
X0146181Y0031563D02*
X0148509Y0031563D01*
X0148013Y0032761D02*
X0146677Y0032761D01*
X0146745Y0033960D02*
X0147945Y0033960D01*
X0147945Y0035158D02*
X0146745Y0035158D01*
X0146745Y0036357D02*
X0147945Y0036357D01*
X0147945Y0037555D02*
X0146745Y0037555D01*
X0146745Y0038754D02*
X0147945Y0038754D01*
X0147945Y0039952D02*
X0146745Y0039952D01*
X0146382Y0041151D02*
X0148308Y0041151D01*
X0149072Y0042349D02*
X0145618Y0042349D01*
X0139072Y0042349D02*
X0135618Y0042349D01*
X0136382Y0041151D02*
X0138308Y0041151D01*
X0137945Y0039952D02*
X0136745Y0039952D01*
X0136745Y0038754D02*
X0137945Y0038754D01*
X0137945Y0037555D02*
X0136745Y0037555D01*
X0136745Y0036357D02*
X0137945Y0036357D01*
X0137945Y0035158D02*
X0136745Y0035158D01*
X0136745Y0033960D02*
X0137945Y0033960D01*
X0138013Y0032761D02*
X0136677Y0032761D01*
X0136181Y0031563D02*
X0138509Y0031563D01*
X0139558Y0030364D02*
X0135132Y0030364D01*
X0129558Y0030364D02*
X0125132Y0030364D01*
X0126181Y0031563D02*
X0128509Y0031563D01*
X0128013Y0032761D02*
X0126677Y0032761D01*
X0126745Y0033960D02*
X0127945Y0033960D01*
X0127945Y0035158D02*
X0126745Y0035158D01*
X0126745Y0036357D02*
X0127945Y0036357D01*
X0127945Y0037555D02*
X0126745Y0037555D01*
X0126745Y0038754D02*
X0127945Y0038754D01*
X0127945Y0039952D02*
X0126745Y0039952D01*
X0126382Y0041151D02*
X0128308Y0041151D01*
X0129072Y0042349D02*
X0125618Y0042349D01*
X0117418Y0047143D02*
X0097545Y0047143D01*
X0097545Y0045945D02*
X0116220Y0045945D01*
X0115021Y0044746D02*
X0100300Y0044746D01*
X0097545Y0048342D02*
X0219745Y0048342D01*
X0219745Y0047143D02*
X0197771Y0047143D01*
X0198970Y0045945D02*
X0219745Y0045945D01*
X0219745Y0044746D02*
X0200168Y0044746D01*
X0203829Y0043548D02*
X0210861Y0043548D01*
X0211470Y0043800D02*
X0209852Y0043130D01*
X0208615Y0041892D01*
X0207945Y0040275D01*
X0207945Y0032925D01*
X0208615Y0031308D01*
X0209852Y0030070D01*
X0211470Y0029400D01*
X0213220Y0029400D01*
X0214837Y0030070D01*
X0216075Y0031308D01*
X0216745Y0032925D01*
X0216745Y0040275D01*
X0216075Y0041892D01*
X0214837Y0043130D01*
X0213220Y0043800D01*
X0211470Y0043800D01*
X0213829Y0043548D02*
X0219745Y0043548D01*
X0219745Y0042349D02*
X0215618Y0042349D01*
X0216382Y0041151D02*
X0219745Y0041151D01*
X0219745Y0039952D02*
X0216745Y0039952D01*
X0216745Y0038754D02*
X0219745Y0038754D01*
X0219745Y0037555D02*
X0216745Y0037555D01*
X0216745Y0036357D02*
X0219745Y0036357D01*
X0219745Y0035158D02*
X0216745Y0035158D01*
X0216745Y0033960D02*
X0219745Y0033960D01*
X0219745Y0032761D02*
X0216677Y0032761D01*
X0216181Y0031563D02*
X0219745Y0031563D01*
X0219745Y0030364D02*
X0215132Y0030364D01*
X0219745Y0029166D02*
X0117249Y0029166D01*
X0116745Y0030364D02*
X0119558Y0030364D01*
X0118509Y0031563D02*
X0116745Y0031563D01*
X0116976Y0032761D02*
X0118013Y0032761D01*
X0118447Y0027967D02*
X0219745Y0027967D01*
X0219745Y0026769D02*
X0118945Y0026769D01*
X0118945Y0025570D02*
X0219745Y0025570D01*
X0219745Y0024372D02*
X0118945Y0024372D01*
X0118945Y0023173D02*
X0219745Y0023173D01*
X0219745Y0021975D02*
X0119940Y0021975D01*
X0121139Y0020776D02*
X0219745Y0020776D01*
X0219745Y0019578D02*
X0213354Y0019578D01*
X0211336Y0019578D02*
X0203354Y0019578D01*
X0201336Y0019578D02*
X0193354Y0019578D01*
X0191336Y0019578D02*
X0183354Y0019578D01*
X0181336Y0019578D02*
X0173354Y0019578D01*
X0171336Y0019578D02*
X0163354Y0019578D01*
X0161336Y0019578D02*
X0153354Y0019578D01*
X0151336Y0019578D02*
X0143354Y0019578D01*
X0141336Y0019578D02*
X0133354Y0019578D01*
X0131336Y0019578D02*
X0123354Y0019578D01*
X0125554Y0018379D02*
X0129136Y0018379D01*
X0128136Y0017181D02*
X0126554Y0017181D01*
X0127051Y0015982D02*
X0127639Y0015982D01*
X0127545Y0014784D02*
X0127145Y0014784D01*
X0127145Y0013585D02*
X0127545Y0013585D01*
X0127545Y0012387D02*
X0127145Y0012387D01*
X0127145Y0011188D02*
X0127545Y0011188D01*
X0127545Y0009990D02*
X0127145Y0009990D01*
X0127145Y0008791D02*
X0127545Y0008791D01*
X0127545Y0007593D02*
X0127145Y0007593D01*
X0126709Y0006394D02*
X0127980Y0006394D01*
X0128761Y0005196D02*
X0125929Y0005196D01*
X0117545Y0007593D02*
X0045055Y0007593D01*
X0044312Y0006850D02*
X0047095Y0009632D01*
X0047095Y0011400D01*
X0042545Y0011400D01*
X0042545Y0011800D01*
X0047095Y0011800D01*
X0047095Y0013568D01*
X0044312Y0016350D01*
X0042545Y0016350D01*
X0042545Y0011800D01*
X0042145Y0011800D01*
X0042145Y0016350D01*
X0040377Y0016350D01*
X0037595Y0013568D01*
X0037595Y0011800D01*
X0042145Y0011800D01*
X0042145Y0011400D01*
X0042545Y0011400D01*
X0042545Y0006850D01*
X0044312Y0006850D01*
X0042545Y0007593D02*
X0042145Y0007593D01*
X0042145Y0006850D02*
X0042145Y0011400D01*
X0037595Y0011400D01*
X0037595Y0009632D01*
X0040377Y0006850D01*
X0042145Y0006850D01*
X0039635Y0007593D02*
X0035055Y0007593D01*
X0036253Y0008791D02*
X0038436Y0008791D01*
X0037595Y0009990D02*
X0036819Y0009990D01*
X0037095Y0011188D02*
X0037595Y0011188D01*
X0037595Y0012387D02*
X0037095Y0012387D01*
X0036664Y0013585D02*
X0037612Y0013585D01*
X0036640Y0014784D02*
X0038811Y0014784D01*
X0037838Y0015982D02*
X0040010Y0015982D01*
X0042145Y0015982D02*
X0042545Y0015982D01*
X0042545Y0014784D02*
X0042145Y0014784D01*
X0042145Y0013585D02*
X0042545Y0013585D01*
X0042545Y0012387D02*
X0042145Y0012387D01*
X0042145Y0011188D02*
X0042545Y0011188D01*
X0042545Y0009990D02*
X0042145Y0009990D01*
X0042145Y0008791D02*
X0042545Y0008791D01*
X0046253Y0008791D02*
X0059599Y0008791D01*
X0058328Y0009990D02*
X0047095Y0009990D01*
X0047095Y0011188D02*
X0057670Y0011188D01*
X0057280Y0012387D02*
X0047095Y0012387D01*
X0047077Y0013585D02*
X0057280Y0013585D01*
X0057280Y0014784D02*
X0045879Y0014784D01*
X0044680Y0015982D02*
X0057280Y0015982D01*
X0060345Y0018600D02*
X0062345Y0016600D01*
X0060345Y0018600D02*
X0054845Y0018600D01*
X0057045Y0021975D02*
X0057654Y0021975D01*
X0058029Y0023173D02*
X0058291Y0023173D01*
X0059228Y0024372D02*
X0059509Y0024372D01*
X0060426Y0025570D02*
X0114745Y0025570D01*
X0114745Y0024372D02*
X0085181Y0024372D01*
X0086399Y0023173D02*
X0114745Y0023173D01*
X0114745Y0021975D02*
X0087036Y0021975D01*
X0087409Y0020776D02*
X0095299Y0020776D01*
X0095522Y0021000D02*
X0092945Y0018423D01*
X0092945Y0014777D01*
X0095522Y0012200D01*
X0099167Y0012200D01*
X0101745Y0014777D01*
X0101745Y0018423D01*
X0099167Y0021000D01*
X0095522Y0021000D01*
X0094100Y0019578D02*
X0087409Y0019578D01*
X0087409Y0018379D02*
X0092945Y0018379D01*
X0092945Y0017181D02*
X0087409Y0017181D01*
X0087409Y0015982D02*
X0092945Y0015982D01*
X0092945Y0014784D02*
X0087409Y0014784D01*
X0087409Y0013585D02*
X0094137Y0013585D01*
X0095336Y0012387D02*
X0087409Y0012387D01*
X0087020Y0011188D02*
X0117545Y0011188D01*
X0117545Y0009990D02*
X0086361Y0009990D01*
X0085091Y0008791D02*
X0117545Y0008791D01*
X0117545Y0012387D02*
X0109354Y0012387D01*
X0109167Y0012200D02*
X0111745Y0014777D01*
X0111745Y0016400D01*
X0107545Y0016400D01*
X0107545Y0016800D01*
X0111745Y0016800D01*
X0111745Y0018423D01*
X0109167Y0021000D01*
X0107545Y0021000D01*
X0107545Y0016800D01*
X0107145Y0016800D01*
X0107145Y0021000D01*
X0105522Y0021000D01*
X0102945Y0018423D01*
X0102945Y0016800D01*
X0107145Y0016800D01*
X0107145Y0016400D01*
X0107545Y0016400D01*
X0107545Y0012200D01*
X0109167Y0012200D01*
X0107545Y0012387D02*
X0107145Y0012387D01*
X0107145Y0012200D02*
X0107145Y0016400D01*
X0102945Y0016400D01*
X0102945Y0014777D01*
X0105522Y0012200D01*
X0107145Y0012200D01*
X0105336Y0012387D02*
X0099354Y0012387D01*
X0100553Y0013585D02*
X0104137Y0013585D01*
X0102945Y0014784D02*
X0101745Y0014784D01*
X0101745Y0015982D02*
X0102945Y0015982D01*
X0102945Y0017181D02*
X0101745Y0017181D01*
X0101745Y0018379D02*
X0102945Y0018379D01*
X0104100Y0019578D02*
X0100590Y0019578D01*
X0099391Y0020776D02*
X0105299Y0020776D01*
X0107145Y0020776D02*
X0107545Y0020776D01*
X0109391Y0020776D02*
X0115199Y0020776D01*
X0116397Y0019578D02*
X0110590Y0019578D01*
X0111745Y0018379D02*
X0117596Y0018379D01*
X0118136Y0017181D02*
X0111745Y0017181D01*
X0111745Y0015982D02*
X0117639Y0015982D01*
X0117545Y0014784D02*
X0111745Y0014784D01*
X0110553Y0013585D02*
X0117545Y0013585D01*
X0107545Y0013585D02*
X0107145Y0013585D01*
X0107145Y0014784D02*
X0107545Y0014784D01*
X0107545Y0015982D02*
X0107145Y0015982D01*
X0107145Y0017181D02*
X0107545Y0017181D01*
X0107545Y0018379D02*
X0107145Y0018379D01*
X0107145Y0019578D02*
X0107545Y0019578D01*
X0113706Y0026769D02*
X0061625Y0026769D01*
X0062823Y0027967D02*
X0089755Y0027967D01*
X0088557Y0029166D02*
X0064022Y0029166D01*
X0065220Y0030364D02*
X0087945Y0030364D01*
X0087945Y0031563D02*
X0066419Y0031563D01*
X0067617Y0032761D02*
X0087945Y0032761D01*
X0088482Y0033960D02*
X0068816Y0033960D01*
X0070014Y0035158D02*
X0089681Y0035158D01*
X0096208Y0033960D02*
X0098374Y0033960D01*
X0102345Y0033100D02*
X0102345Y0031600D01*
X0102345Y0033100D02*
X0095345Y0040100D01*
X0095345Y0055600D01*
X0091845Y0059100D01*
X0091845Y0061100D01*
X0092345Y0061600D01*
X0090845Y0061600D01*
X0086845Y0065600D01*
X0086845Y0070600D01*
X0097845Y0081600D01*
X0097845Y0082600D01*
X0097845Y0083600D01*
X0103845Y0089600D01*
X0110345Y0089600D01*
X0117845Y0082100D01*
X0117845Y0081600D01*
X0122345Y0086100D01*
X0122345Y0091600D01*
X0127145Y0091488D02*
X0131945Y0091488D01*
X0131945Y0091200D02*
X0127545Y0091200D01*
X0127545Y0088022D01*
X0127663Y0087276D01*
X0127897Y0086557D01*
X0128240Y0085884D01*
X0128684Y0085273D01*
X0129218Y0084739D01*
X0129829Y0084295D01*
X0130502Y0083952D01*
X0131221Y0083718D01*
X0131945Y0083604D01*
X0131945Y0091200D01*
X0132745Y0091200D02*
X0132745Y0083604D01*
X0133469Y0083718D01*
X0134187Y0083952D01*
X0134861Y0084295D01*
X0135472Y0084739D01*
X0136006Y0085273D01*
X0136450Y0085884D01*
X0136793Y0086557D01*
X0137027Y0087276D01*
X0137145Y0088022D01*
X0137145Y0091200D01*
X0132745Y0091200D01*
X0132745Y0091488D02*
X0137545Y0091488D01*
X0137545Y0090290D02*
X0137145Y0090290D01*
X0137145Y0089091D02*
X0137545Y0089091D01*
X0137545Y0087893D02*
X0137124Y0087893D01*
X0136838Y0086694D02*
X0137856Y0086694D01*
X0138461Y0085496D02*
X0136168Y0085496D01*
X0134864Y0084297D02*
X0139707Y0084297D01*
X0144983Y0084297D02*
X0149707Y0084297D01*
X0148461Y0085496D02*
X0146229Y0085496D01*
X0146834Y0086694D02*
X0147856Y0086694D01*
X0147545Y0087893D02*
X0147145Y0087893D01*
X0147145Y0089091D02*
X0147545Y0089091D01*
X0147545Y0090290D02*
X0147145Y0090290D01*
X0147145Y0091488D02*
X0147545Y0091488D01*
X0147545Y0092687D02*
X0147145Y0092687D01*
X0147145Y0093885D02*
X0147545Y0093885D01*
X0147545Y0095084D02*
X0147145Y0095084D01*
X0146926Y0096282D02*
X0147763Y0096282D01*
X0148260Y0097481D02*
X0146430Y0097481D01*
X0145254Y0098679D02*
X0149436Y0098679D01*
X0155254Y0098679D02*
X0159436Y0098679D01*
X0158260Y0097481D02*
X0156430Y0097481D01*
X0156926Y0096282D02*
X0157763Y0096282D01*
X0157545Y0095084D02*
X0157145Y0095084D01*
X0157145Y0093885D02*
X0157545Y0093885D01*
X0157545Y0092687D02*
X0157145Y0092687D01*
X0157145Y0091488D02*
X0157545Y0091488D01*
X0157545Y0090290D02*
X0157145Y0090290D01*
X0157145Y0089091D02*
X0157545Y0089091D01*
X0157545Y0087893D02*
X0157145Y0087893D01*
X0156834Y0086694D02*
X0157856Y0086694D01*
X0158461Y0085496D02*
X0156229Y0085496D01*
X0154983Y0084297D02*
X0159707Y0084297D01*
X0164983Y0084297D02*
X0169707Y0084297D01*
X0168461Y0085496D02*
X0166229Y0085496D01*
X0166834Y0086694D02*
X0167856Y0086694D01*
X0167545Y0087893D02*
X0167145Y0087893D01*
X0167145Y0089091D02*
X0167545Y0089091D01*
X0167545Y0090290D02*
X0167145Y0090290D01*
X0167145Y0091488D02*
X0167545Y0091488D01*
X0167545Y0092687D02*
X0167145Y0092687D01*
X0167145Y0093885D02*
X0167545Y0093885D01*
X0167545Y0095084D02*
X0167145Y0095084D01*
X0166926Y0096282D02*
X0167763Y0096282D01*
X0168260Y0097481D02*
X0166430Y0097481D01*
X0165254Y0098679D02*
X0169436Y0098679D01*
X0175254Y0098679D02*
X0179436Y0098679D01*
X0178260Y0097481D02*
X0176430Y0097481D01*
X0176926Y0096282D02*
X0177763Y0096282D01*
X0177545Y0095084D02*
X0177145Y0095084D01*
X0177145Y0093885D02*
X0177545Y0093885D01*
X0177545Y0092687D02*
X0177145Y0092687D01*
X0177145Y0091488D02*
X0177545Y0091488D01*
X0177545Y0090290D02*
X0177145Y0090290D01*
X0177145Y0089091D02*
X0177545Y0089091D01*
X0177545Y0087893D02*
X0177145Y0087893D01*
X0176834Y0086694D02*
X0177856Y0086694D01*
X0178461Y0085496D02*
X0176229Y0085496D01*
X0174983Y0084297D02*
X0179707Y0084297D01*
X0184983Y0084297D02*
X0189707Y0084297D01*
X0188461Y0085496D02*
X0186229Y0085496D01*
X0186834Y0086694D02*
X0187856Y0086694D01*
X0187545Y0087893D02*
X0187145Y0087893D01*
X0187145Y0089091D02*
X0187545Y0089091D01*
X0187545Y0090290D02*
X0187145Y0090290D01*
X0187145Y0091488D02*
X0187545Y0091488D01*
X0187545Y0092687D02*
X0187145Y0092687D01*
X0187145Y0093885D02*
X0187545Y0093885D01*
X0187545Y0095084D02*
X0187145Y0095084D01*
X0186926Y0096282D02*
X0187763Y0096282D01*
X0188260Y0097481D02*
X0186430Y0097481D01*
X0185254Y0098679D02*
X0189436Y0098679D01*
X0195254Y0098679D02*
X0199436Y0098679D01*
X0198260Y0097481D02*
X0196430Y0097481D01*
X0196926Y0096282D02*
X0197763Y0096282D01*
X0197545Y0095084D02*
X0197145Y0095084D01*
X0197145Y0093885D02*
X0197545Y0093885D01*
X0197545Y0092687D02*
X0197145Y0092687D01*
X0197145Y0091488D02*
X0197545Y0091488D01*
X0197545Y0090290D02*
X0197145Y0090290D01*
X0197145Y0089091D02*
X0197545Y0089091D01*
X0197545Y0087893D02*
X0197145Y0087893D01*
X0196834Y0086694D02*
X0197856Y0086694D01*
X0198461Y0085496D02*
X0196229Y0085496D01*
X0194983Y0084297D02*
X0199707Y0084297D01*
X0204983Y0084297D02*
X0209707Y0084297D01*
X0208461Y0085496D02*
X0206229Y0085496D01*
X0206834Y0086694D02*
X0207856Y0086694D01*
X0207545Y0087893D02*
X0207145Y0087893D01*
X0207145Y0089091D02*
X0207545Y0089091D01*
X0207545Y0090290D02*
X0207145Y0090290D01*
X0207145Y0091488D02*
X0207545Y0091488D01*
X0207545Y0092687D02*
X0207145Y0092687D01*
X0207145Y0093885D02*
X0207545Y0093885D01*
X0207545Y0095084D02*
X0207145Y0095084D01*
X0206926Y0096282D02*
X0207763Y0096282D01*
X0208260Y0097481D02*
X0206430Y0097481D01*
X0205254Y0098679D02*
X0209436Y0098679D01*
X0215254Y0098679D02*
X0219745Y0098679D01*
X0219745Y0097481D02*
X0216430Y0097481D01*
X0216926Y0096282D02*
X0219745Y0096282D01*
X0219745Y0095084D02*
X0217145Y0095084D01*
X0217145Y0093885D02*
X0219745Y0093885D01*
X0219745Y0092687D02*
X0217145Y0092687D01*
X0217145Y0091488D02*
X0219745Y0091488D01*
X0219745Y0090290D02*
X0217145Y0090290D01*
X0217145Y0089091D02*
X0219745Y0089091D01*
X0219745Y0087893D02*
X0217145Y0087893D01*
X0216834Y0086694D02*
X0219745Y0086694D01*
X0219745Y0085496D02*
X0216229Y0085496D01*
X0214983Y0084297D02*
X0219745Y0084297D01*
X0219745Y0083099D02*
X0122455Y0083099D01*
X0121256Y0081900D02*
X0219745Y0081900D01*
X0219745Y0080702D02*
X0120058Y0080702D01*
X0120045Y0079503D02*
X0219745Y0079503D01*
X0219745Y0078305D02*
X0120045Y0078305D01*
X0120045Y0077106D02*
X0219745Y0077106D01*
X0219745Y0075908D02*
X0120045Y0075908D01*
X0120347Y0074709D02*
X0219745Y0074709D01*
X0219745Y0073511D02*
X0213919Y0073511D01*
X0213220Y0073800D02*
X0211470Y0073800D01*
X0209852Y0073130D01*
X0208615Y0071892D01*
X0207945Y0070275D01*
X0207945Y0062925D01*
X0208615Y0061308D01*
X0209852Y0060070D01*
X0211470Y0059400D01*
X0213220Y0059400D01*
X0214837Y0060070D01*
X0216075Y0061308D01*
X0216745Y0062925D01*
X0216745Y0070275D01*
X0216075Y0071892D01*
X0214837Y0073130D01*
X0213220Y0073800D01*
X0210771Y0073511D02*
X0203919Y0073511D01*
X0203220Y0073800D02*
X0204837Y0073130D01*
X0206075Y0071892D01*
X0206745Y0070275D01*
X0206745Y0062925D01*
X0206075Y0061308D01*
X0204837Y0060070D01*
X0203220Y0059400D01*
X0201470Y0059400D01*
X0199852Y0060070D01*
X0198615Y0061308D01*
X0197945Y0062925D01*
X0197945Y0070275D01*
X0198615Y0071892D01*
X0199852Y0073130D01*
X0201470Y0073800D01*
X0203220Y0073800D01*
X0200771Y0073511D02*
X0193919Y0073511D01*
X0193220Y0073800D02*
X0191470Y0073800D01*
X0189852Y0073130D01*
X0188615Y0071892D01*
X0187945Y0070275D01*
X0187945Y0062925D01*
X0188615Y0061308D01*
X0189852Y0060070D01*
X0191470Y0059400D01*
X0193220Y0059400D01*
X0194837Y0060070D01*
X0196075Y0061308D01*
X0196745Y0062925D01*
X0196745Y0070275D01*
X0196075Y0071892D01*
X0194837Y0073130D01*
X0193220Y0073800D01*
X0190771Y0073511D02*
X0183919Y0073511D01*
X0183220Y0073800D02*
X0184837Y0073130D01*
X0186075Y0071892D01*
X0186745Y0070275D01*
X0186745Y0062925D01*
X0186075Y0061308D01*
X0184837Y0060070D01*
X0183220Y0059400D01*
X0181470Y0059400D01*
X0179852Y0060070D01*
X0178615Y0061308D01*
X0177945Y0062925D01*
X0177945Y0070275D01*
X0178615Y0071892D01*
X0179852Y0073130D01*
X0181470Y0073800D01*
X0183220Y0073800D01*
X0180771Y0073511D02*
X0173919Y0073511D01*
X0173220Y0073800D02*
X0171470Y0073800D01*
X0169852Y0073130D01*
X0168615Y0071892D01*
X0167945Y0070275D01*
X0167945Y0062925D01*
X0168615Y0061308D01*
X0169852Y0060070D01*
X0171470Y0059400D01*
X0173220Y0059400D01*
X0174837Y0060070D01*
X0176075Y0061308D01*
X0176745Y0062925D01*
X0176745Y0070275D01*
X0176075Y0071892D01*
X0174837Y0073130D01*
X0173220Y0073800D01*
X0170771Y0073511D02*
X0163919Y0073511D01*
X0163220Y0073800D02*
X0164837Y0073130D01*
X0166075Y0071892D01*
X0166745Y0070275D01*
X0166745Y0062925D01*
X0166075Y0061308D01*
X0164837Y0060070D01*
X0163220Y0059400D01*
X0161470Y0059400D01*
X0159852Y0060070D01*
X0158615Y0061308D01*
X0157945Y0062925D01*
X0157945Y0070275D01*
X0158615Y0071892D01*
X0159852Y0073130D01*
X0161470Y0073800D01*
X0163220Y0073800D01*
X0160771Y0073511D02*
X0153919Y0073511D01*
X0153220Y0073800D02*
X0151470Y0073800D01*
X0149852Y0073130D01*
X0148615Y0071892D01*
X0147945Y0070275D01*
X0147945Y0062925D01*
X0148615Y0061308D01*
X0149852Y0060070D01*
X0151470Y0059400D01*
X0153220Y0059400D01*
X0154837Y0060070D01*
X0156075Y0061308D01*
X0156745Y0062925D01*
X0156745Y0070275D01*
X0156075Y0071892D01*
X0154837Y0073130D01*
X0153220Y0073800D01*
X0150771Y0073511D02*
X0143919Y0073511D01*
X0143220Y0073800D02*
X0144837Y0073130D01*
X0146075Y0071892D01*
X0146745Y0070275D01*
X0146745Y0062925D01*
X0146075Y0061308D01*
X0144837Y0060070D01*
X0143220Y0059400D01*
X0141470Y0059400D01*
X0139852Y0060070D01*
X0138615Y0061308D01*
X0137945Y0062925D01*
X0137945Y0070275D01*
X0138615Y0071892D01*
X0139852Y0073130D01*
X0141470Y0073800D01*
X0143220Y0073800D01*
X0140771Y0073511D02*
X0133932Y0073511D01*
X0134034Y0073478D02*
X0133375Y0073692D01*
X0132691Y0073800D01*
X0132545Y0073800D01*
X0132545Y0066800D01*
X0136745Y0066800D01*
X0136745Y0069746D01*
X0136637Y0070430D01*
X0136423Y0071089D01*
X0136108Y0071706D01*
X0135701Y0072266D01*
X0135211Y0072756D01*
X0134651Y0073163D01*
X0134034Y0073478D01*
X0132545Y0073511D02*
X0132145Y0073511D01*
X0132145Y0073800D02*
X0131999Y0073800D01*
X0131315Y0073692D01*
X0130656Y0073478D01*
X0130039Y0073163D01*
X0129478Y0072756D01*
X0128989Y0072266D01*
X0128582Y0071706D01*
X0128267Y0071089D01*
X0128053Y0070430D01*
X0127945Y0069746D01*
X0127945Y0066800D01*
X0132145Y0066800D01*
X0132145Y0073800D01*
X0130758Y0073511D02*
X0123919Y0073511D01*
X0125655Y0072312D02*
X0129035Y0072312D01*
X0128280Y0071114D02*
X0126398Y0071114D01*
X0126745Y0069915D02*
X0127972Y0069915D01*
X0127945Y0068717D02*
X0126745Y0068717D01*
X0126745Y0067518D02*
X0127945Y0067518D01*
X0127945Y0066400D02*
X0127945Y0063454D01*
X0128053Y0062770D01*
X0128267Y0062111D01*
X0128582Y0061494D01*
X0128989Y0060934D01*
X0129478Y0060444D01*
X0130039Y0060037D01*
X0130656Y0059722D01*
X0131315Y0059508D01*
X0131999Y0059400D01*
X0132145Y0059400D01*
X0132145Y0066400D01*
X0132545Y0066400D01*
X0132545Y0066800D01*
X0132145Y0066800D01*
X0132145Y0066400D01*
X0127945Y0066400D01*
X0127945Y0066320D02*
X0126745Y0066320D01*
X0126745Y0065121D02*
X0127945Y0065121D01*
X0127945Y0063923D02*
X0126745Y0063923D01*
X0126662Y0062724D02*
X0128068Y0062724D01*
X0128566Y0061526D02*
X0126165Y0061526D01*
X0125094Y0060327D02*
X0129639Y0060327D01*
X0132145Y0060327D02*
X0132545Y0060327D01*
X0132545Y0059400D02*
X0132691Y0059400D01*
X0133375Y0059508D01*
X0134034Y0059722D01*
X0134651Y0060037D01*
X0135211Y0060444D01*
X0135701Y0060934D01*
X0136108Y0061494D01*
X0136423Y0062111D01*
X0136637Y0062770D01*
X0136745Y0063454D01*
X0136745Y0066400D01*
X0132545Y0066400D01*
X0132545Y0059400D01*
X0135051Y0060327D02*
X0139595Y0060327D01*
X0138524Y0061526D02*
X0136124Y0061526D01*
X0136622Y0062724D02*
X0138028Y0062724D01*
X0137945Y0063923D02*
X0136745Y0063923D01*
X0136745Y0065121D02*
X0137945Y0065121D01*
X0137945Y0066320D02*
X0136745Y0066320D01*
X0136745Y0067518D02*
X0137945Y0067518D01*
X0137945Y0068717D02*
X0136745Y0068717D01*
X0136718Y0069915D02*
X0137945Y0069915D01*
X0138292Y0071114D02*
X0136410Y0071114D01*
X0132545Y0071114D02*
X0132145Y0071114D01*
X0132145Y0069915D02*
X0132545Y0069915D01*
X0132545Y0068717D02*
X0132145Y0068717D01*
X0132145Y0067518D02*
X0132545Y0067518D01*
X0132545Y0066320D02*
X0132145Y0066320D01*
X0132145Y0065121D02*
X0132545Y0065121D01*
X0132545Y0063923D02*
X0132145Y0063923D01*
X0132145Y0062724D02*
X0132545Y0062724D01*
X0132545Y0061526D02*
X0132145Y0061526D01*
X0122345Y0066600D02*
X0122345Y0069600D01*
X0117845Y0074100D01*
X0117845Y0081600D01*
X0115645Y0080702D02*
X0112169Y0080702D01*
X0112245Y0080777D02*
X0112245Y0082400D01*
X0108045Y0082400D01*
X0108045Y0082800D01*
X0112245Y0082800D01*
X0112245Y0084423D01*
X0109667Y0087000D01*
X0108045Y0087000D01*
X0108045Y0082800D01*
X0107645Y0082800D01*
X0107645Y0087000D01*
X0106022Y0087000D01*
X0103445Y0084423D01*
X0103445Y0082800D01*
X0107645Y0082800D01*
X0107645Y0082400D01*
X0108045Y0082400D01*
X0108045Y0078200D01*
X0109667Y0078200D01*
X0112245Y0080777D01*
X0112245Y0081900D02*
X0114933Y0081900D01*
X0113735Y0083099D02*
X0112245Y0083099D01*
X0112245Y0084297D02*
X0112536Y0084297D01*
X0111338Y0085496D02*
X0111172Y0085496D01*
X0108045Y0085496D02*
X0107645Y0085496D01*
X0107645Y0084297D02*
X0108045Y0084297D01*
X0108045Y0083099D02*
X0107645Y0083099D01*
X0107645Y0082400D02*
X0103445Y0082400D01*
X0103445Y0080777D01*
X0106022Y0078200D01*
X0107645Y0078200D01*
X0107645Y0082400D01*
X0107645Y0081900D02*
X0108045Y0081900D01*
X0108045Y0080702D02*
X0107645Y0080702D01*
X0107645Y0079503D02*
X0108045Y0079503D01*
X0110971Y0079503D02*
X0115645Y0079503D01*
X0115645Y0078305D02*
X0109772Y0078305D01*
X0108045Y0078305D02*
X0107645Y0078305D01*
X0105918Y0078305D02*
X0099772Y0078305D01*
X0099667Y0076500D02*
X0096022Y0076500D01*
X0093445Y0073923D01*
X0093445Y0070277D01*
X0096022Y0067700D01*
X0098275Y0067700D01*
X0099745Y0066230D01*
X0099745Y0065223D01*
X0097945Y0063423D01*
X0097945Y0059777D01*
X0100522Y0057200D01*
X0104167Y0057200D01*
X0106745Y0059777D01*
X0106745Y0063423D01*
X0104167Y0066000D01*
X0103945Y0066000D01*
X0103945Y0067970D01*
X0102715Y0069200D01*
X0101941Y0069974D01*
X0102245Y0070277D01*
X0102245Y0073923D01*
X0099667Y0076500D01*
X0100260Y0075908D02*
X0105430Y0075908D01*
X0106022Y0076500D02*
X0103445Y0073923D01*
X0103445Y0072300D01*
X0107645Y0072300D01*
X0107645Y0076500D01*
X0106022Y0076500D01*
X0107645Y0075908D02*
X0108045Y0075908D01*
X0108045Y0076500D02*
X0109667Y0076500D01*
X0112245Y0073923D01*
X0112245Y0072300D01*
X0108045Y0072300D01*
X0108045Y0071900D01*
X0112245Y0071900D01*
X0112245Y0070277D01*
X0109667Y0067700D01*
X0108045Y0067700D01*
X0108045Y0071900D01*
X0107645Y0071900D01*
X0107645Y0067700D01*
X0106022Y0067700D01*
X0103445Y0070277D01*
X0103445Y0071900D01*
X0107645Y0071900D01*
X0107645Y0072300D01*
X0108045Y0072300D01*
X0108045Y0076500D01*
X0110260Y0075908D02*
X0115645Y0075908D01*
X0115645Y0077106D02*
X0096462Y0077106D01*
X0095430Y0075908D02*
X0095264Y0075908D01*
X0094232Y0074709D02*
X0094065Y0074709D01*
X0093445Y0073511D02*
X0092867Y0073511D01*
X0093445Y0072312D02*
X0091668Y0072312D01*
X0090470Y0071114D02*
X0093445Y0071114D01*
X0093807Y0069915D02*
X0089271Y0069915D01*
X0089045Y0068717D02*
X0095006Y0068717D01*
X0098457Y0067518D02*
X0089045Y0067518D01*
X0089237Y0066320D02*
X0099655Y0066320D01*
X0099643Y0065121D02*
X0095046Y0065121D01*
X0096245Y0063923D02*
X0098445Y0063923D01*
X0097945Y0062724D02*
X0096745Y0062724D01*
X0096745Y0061526D02*
X0097945Y0061526D01*
X0097945Y0060327D02*
X0096745Y0060327D01*
X0096096Y0059129D02*
X0098594Y0059129D01*
X0099792Y0057930D02*
X0096126Y0057930D01*
X0097325Y0056732D02*
X0219745Y0056732D01*
X0219745Y0055533D02*
X0097545Y0055533D01*
X0097545Y0054334D02*
X0219745Y0054334D01*
X0219745Y0053136D02*
X0097545Y0053136D01*
X0097545Y0051937D02*
X0219745Y0051937D01*
X0219745Y0050739D02*
X0097545Y0050739D01*
X0097545Y0049540D02*
X0219745Y0049540D01*
X0209072Y0042349D02*
X0205618Y0042349D01*
X0206382Y0041151D02*
X0208308Y0041151D01*
X0207945Y0039952D02*
X0206745Y0039952D01*
X0206745Y0038754D02*
X0207945Y0038754D01*
X0207945Y0037555D02*
X0206745Y0037555D01*
X0206745Y0036357D02*
X0207945Y0036357D01*
X0207945Y0035158D02*
X0206745Y0035158D01*
X0206745Y0033960D02*
X0207945Y0033960D01*
X0208013Y0032761D02*
X0206677Y0032761D01*
X0206181Y0031563D02*
X0208509Y0031563D01*
X0209558Y0030364D02*
X0205132Y0030364D01*
X0205554Y0018379D02*
X0209136Y0018379D01*
X0208136Y0017181D02*
X0206554Y0017181D01*
X0207051Y0015982D02*
X0207639Y0015982D01*
X0207545Y0014784D02*
X0207145Y0014784D01*
X0207145Y0013585D02*
X0207545Y0013585D01*
X0207545Y0012387D02*
X0207145Y0012387D01*
X0207145Y0011188D02*
X0207545Y0011188D01*
X0207545Y0009990D02*
X0207145Y0009990D01*
X0207145Y0008791D02*
X0207545Y0008791D01*
X0207545Y0007593D02*
X0207145Y0007593D01*
X0206709Y0006394D02*
X0207980Y0006394D01*
X0208761Y0005196D02*
X0205929Y0005196D01*
X0198761Y0005196D02*
X0195929Y0005196D01*
X0196709Y0006394D02*
X0197980Y0006394D01*
X0197545Y0007593D02*
X0197145Y0007593D01*
X0197145Y0008791D02*
X0197545Y0008791D01*
X0197545Y0009990D02*
X0197145Y0009990D01*
X0197145Y0011188D02*
X0197545Y0011188D01*
X0197545Y0012387D02*
X0197145Y0012387D01*
X0197145Y0013585D02*
X0197545Y0013585D01*
X0197545Y0014784D02*
X0197145Y0014784D01*
X0197051Y0015982D02*
X0197639Y0015982D01*
X0198136Y0017181D02*
X0196554Y0017181D01*
X0195554Y0018379D02*
X0199136Y0018379D01*
X0189136Y0018379D02*
X0185554Y0018379D01*
X0186554Y0017181D02*
X0188136Y0017181D01*
X0187639Y0015982D02*
X0187051Y0015982D01*
X0187145Y0014784D02*
X0187545Y0014784D01*
X0187545Y0013585D02*
X0187145Y0013585D01*
X0187145Y0012387D02*
X0187545Y0012387D01*
X0187545Y0011188D02*
X0187145Y0011188D01*
X0187145Y0009990D02*
X0187545Y0009990D01*
X0187545Y0008791D02*
X0187145Y0008791D01*
X0187145Y0007593D02*
X0187545Y0007593D01*
X0187980Y0006394D02*
X0186709Y0006394D01*
X0185929Y0005196D02*
X0188761Y0005196D01*
X0178761Y0005196D02*
X0175929Y0005196D01*
X0176709Y0006394D02*
X0177980Y0006394D01*
X0177545Y0007593D02*
X0177145Y0007593D01*
X0177145Y0008791D02*
X0177545Y0008791D01*
X0177545Y0009990D02*
X0177145Y0009990D01*
X0177145Y0011188D02*
X0177545Y0011188D01*
X0177545Y0012387D02*
X0177145Y0012387D01*
X0177145Y0013585D02*
X0177545Y0013585D01*
X0177545Y0014784D02*
X0177145Y0014784D01*
X0177051Y0015982D02*
X0177639Y0015982D01*
X0178136Y0017181D02*
X0176554Y0017181D01*
X0175554Y0018379D02*
X0179136Y0018379D01*
X0169136Y0018379D02*
X0165554Y0018379D01*
X0166554Y0017181D02*
X0168136Y0017181D01*
X0167639Y0015982D02*
X0167051Y0015982D01*
X0167145Y0014784D02*
X0167545Y0014784D01*
X0167545Y0013585D02*
X0167145Y0013585D01*
X0167145Y0012387D02*
X0167545Y0012387D01*
X0167545Y0011188D02*
X0167145Y0011188D01*
X0167145Y0009990D02*
X0167545Y0009990D01*
X0167545Y0008791D02*
X0167145Y0008791D01*
X0167145Y0007593D02*
X0167545Y0007593D01*
X0167980Y0006394D02*
X0166709Y0006394D01*
X0165929Y0005196D02*
X0168761Y0005196D01*
X0158761Y0005196D02*
X0155929Y0005196D01*
X0156709Y0006394D02*
X0157980Y0006394D01*
X0157545Y0007593D02*
X0157145Y0007593D01*
X0157145Y0008791D02*
X0157545Y0008791D01*
X0157545Y0009990D02*
X0157145Y0009990D01*
X0157145Y0011188D02*
X0157545Y0011188D01*
X0157545Y0012387D02*
X0157145Y0012387D01*
X0157145Y0013585D02*
X0157545Y0013585D01*
X0157545Y0014784D02*
X0157145Y0014784D01*
X0157051Y0015982D02*
X0157639Y0015982D01*
X0158136Y0017181D02*
X0156554Y0017181D01*
X0155554Y0018379D02*
X0159136Y0018379D01*
X0149136Y0018379D02*
X0145554Y0018379D01*
X0146554Y0017181D02*
X0148136Y0017181D01*
X0147639Y0015982D02*
X0147051Y0015982D01*
X0147145Y0014784D02*
X0147545Y0014784D01*
X0147545Y0013585D02*
X0147145Y0013585D01*
X0147145Y0012387D02*
X0147545Y0012387D01*
X0147545Y0011188D02*
X0147145Y0011188D01*
X0147145Y0009990D02*
X0147545Y0009990D01*
X0147545Y0008791D02*
X0147145Y0008791D01*
X0147145Y0007593D02*
X0147545Y0007593D01*
X0147980Y0006394D02*
X0146709Y0006394D01*
X0145929Y0005196D02*
X0148761Y0005196D01*
X0138761Y0005196D02*
X0135929Y0005196D01*
X0136709Y0006394D02*
X0137980Y0006394D01*
X0137545Y0007593D02*
X0137145Y0007593D01*
X0137145Y0008791D02*
X0137545Y0008791D01*
X0137545Y0009990D02*
X0137145Y0009990D01*
X0137145Y0011188D02*
X0137545Y0011188D01*
X0137545Y0012387D02*
X0137145Y0012387D01*
X0137145Y0013585D02*
X0137545Y0013585D01*
X0137545Y0014784D02*
X0137145Y0014784D01*
X0137051Y0015982D02*
X0137639Y0015982D01*
X0138136Y0017181D02*
X0136554Y0017181D01*
X0135554Y0018379D02*
X0139136Y0018379D01*
X0079509Y0024372D02*
X0075181Y0024372D01*
X0076399Y0023173D02*
X0078291Y0023173D01*
X0077654Y0021975D02*
X0077036Y0021975D01*
X0069509Y0024372D02*
X0065181Y0024372D01*
X0066399Y0023173D02*
X0068291Y0023173D01*
X0067654Y0021975D02*
X0067036Y0021975D01*
X0055402Y0026769D02*
X0024945Y0026769D01*
X0024945Y0025570D02*
X0054204Y0025570D01*
X0053005Y0024372D02*
X0024945Y0024372D01*
X0024945Y0023173D02*
X0052645Y0023173D01*
X0052645Y0021975D02*
X0024945Y0021975D01*
X0024945Y0020776D02*
X0036410Y0020776D01*
X0037345Y0018600D02*
X0032345Y0013600D01*
X0032345Y0011600D01*
X0040877Y0027350D02*
X0042645Y0027350D01*
X0042645Y0031900D01*
X0043045Y0031900D01*
X0043045Y0032300D01*
X0047595Y0032300D01*
X0047595Y0034068D01*
X0044812Y0036850D01*
X0043045Y0036850D01*
X0043045Y0032300D01*
X0042645Y0032300D01*
X0042645Y0036850D01*
X0040877Y0036850D01*
X0038095Y0034068D01*
X0038095Y0032300D01*
X0042645Y0032300D01*
X0042645Y0031900D01*
X0038095Y0031900D01*
X0038095Y0030132D01*
X0040877Y0027350D01*
X0040260Y0027967D02*
X0035280Y0027967D01*
X0036628Y0029166D02*
X0039062Y0029166D01*
X0038095Y0030364D02*
X0037267Y0030364D01*
X0037595Y0031563D02*
X0038095Y0031563D01*
X0038095Y0032761D02*
X0037595Y0032761D01*
X0037216Y0033960D02*
X0038095Y0033960D01*
X0037014Y0035158D02*
X0039186Y0035158D01*
X0038213Y0036357D02*
X0040384Y0036357D01*
X0042645Y0036357D02*
X0043045Y0036357D01*
X0043045Y0035158D02*
X0042645Y0035158D01*
X0045306Y0036357D02*
X0064990Y0036357D01*
X0063792Y0035158D02*
X0046504Y0035158D01*
X0047595Y0033960D02*
X0062593Y0033960D01*
X0061395Y0032761D02*
X0047595Y0032761D01*
X0047595Y0031900D02*
X0043045Y0031900D01*
X0043045Y0027350D01*
X0044812Y0027350D01*
X0047595Y0030132D01*
X0047595Y0031900D01*
X0047595Y0031563D02*
X0060196Y0031563D01*
X0058998Y0030364D02*
X0047595Y0030364D01*
X0046628Y0029166D02*
X0057799Y0029166D01*
X0056601Y0027967D02*
X0045430Y0027967D01*
X0043045Y0027967D02*
X0042645Y0027967D01*
X0042645Y0029166D02*
X0043045Y0029166D01*
X0043045Y0030364D02*
X0042645Y0030364D01*
X0042645Y0031563D02*
X0043045Y0031563D01*
X0043045Y0032761D02*
X0042645Y0032761D01*
X0042645Y0033960D02*
X0043045Y0033960D01*
X0050411Y0037555D02*
X0066189Y0037555D01*
X0067387Y0038754D02*
X0051610Y0038754D01*
X0052809Y0039952D02*
X0068586Y0039952D01*
X0069784Y0041151D02*
X0054007Y0041151D01*
X0055206Y0042349D02*
X0070145Y0042349D01*
X0070145Y0043548D02*
X0056404Y0043548D01*
X0057603Y0044746D02*
X0070145Y0044746D01*
X0070145Y0045945D02*
X0058801Y0045945D01*
X0059795Y0046939D02*
X0059795Y0046939D01*
X0060000Y0047143D02*
X0067361Y0047143D01*
X0065615Y0048342D02*
X0061198Y0048342D01*
X0062397Y0049540D02*
X0064802Y0049540D01*
X0064345Y0050739D02*
X0063595Y0050739D01*
X0064045Y0051937D02*
X0064345Y0051937D01*
X0064586Y0053136D02*
X0064045Y0053136D01*
X0064691Y0054334D02*
X0065091Y0054334D01*
X0065889Y0055533D02*
X0066290Y0055533D01*
X0067088Y0056732D02*
X0091102Y0056732D01*
X0089792Y0057930D02*
X0078663Y0057930D01*
X0079717Y0059129D02*
X0088594Y0059129D01*
X0087945Y0060327D02*
X0080213Y0060327D01*
X0080882Y0061526D02*
X0087808Y0061526D01*
X0086610Y0062724D02*
X0082080Y0062724D01*
X0081845Y0065600D02*
X0077845Y0061600D01*
X0072345Y0061600D01*
X0068845Y0061600D01*
X0061845Y0054600D01*
X0061845Y0052100D01*
X0057595Y0047850D01*
X0046345Y0059100D01*
X0046345Y0072600D01*
X0047345Y0073600D01*
X0047345Y0091600D01*
X0052145Y0091488D02*
X0056945Y0091488D01*
X0056945Y0091200D02*
X0052545Y0091200D01*
X0052545Y0088022D01*
X0052663Y0087276D01*
X0052897Y0086557D01*
X0053240Y0085884D01*
X0053684Y0085273D01*
X0054218Y0084739D01*
X0054829Y0084295D01*
X0055502Y0083952D01*
X0056221Y0083718D01*
X0056945Y0083604D01*
X0056945Y0091200D01*
X0057745Y0091200D01*
X0057745Y0092000D01*
X0062145Y0092000D01*
X0062145Y0095178D01*
X0062027Y0095924D01*
X0061793Y0096643D01*
X0061450Y0097316D01*
X0061006Y0097927D01*
X0060472Y0098461D01*
X0059861Y0098905D01*
X0059675Y0099000D01*
X0064942Y0099000D01*
X0064626Y0098869D01*
X0063276Y0097519D01*
X0062545Y0095755D01*
X0062545Y0087445D01*
X0063276Y0085681D01*
X0064626Y0084331D01*
X0066390Y0083600D01*
X0067375Y0083600D01*
X0073245Y0077730D01*
X0074475Y0076500D01*
X0077975Y0076500D01*
X0080745Y0073730D01*
X0080745Y0070601D01*
X0080386Y0070243D01*
X0079945Y0069177D01*
X0079945Y0068023D01*
X0080300Y0067166D01*
X0078533Y0065400D01*
X0078264Y0065669D01*
X0076500Y0066400D01*
X0068190Y0066400D01*
X0066426Y0065669D01*
X0065076Y0064319D01*
X0064345Y0062555D01*
X0064345Y0060645D01*
X0064472Y0060338D01*
X0059645Y0055511D01*
X0059645Y0053011D01*
X0057595Y0050961D01*
X0048545Y0060011D01*
X0048545Y0071689D01*
X0049379Y0072523D01*
X0049013Y0071638D01*
X0049013Y0061562D01*
X0049856Y0059527D01*
X0051413Y0057969D01*
X0053448Y0057126D01*
X0055651Y0057126D01*
X0057686Y0057969D01*
X0059244Y0059527D01*
X0060087Y0061562D01*
X0060087Y0071638D01*
X0059244Y0073673D01*
X0057686Y0075231D01*
X0055651Y0076074D01*
X0053448Y0076074D01*
X0051413Y0075231D01*
X0049856Y0073673D01*
X0049545Y0072923D01*
X0049545Y0084116D01*
X0050064Y0084331D01*
X0051414Y0085681D01*
X0052145Y0087445D01*
X0052145Y0095755D01*
X0051414Y0097519D01*
X0050064Y0098869D01*
X0049748Y0099000D01*
X0055015Y0099000D01*
X0054829Y0098905D01*
X0054218Y0098461D01*
X0053684Y0097927D01*
X0053240Y0097316D01*
X0052897Y0096643D01*
X0052663Y0095924D01*
X0052545Y0095178D01*
X0052545Y0092000D01*
X0056945Y0092000D01*
X0056945Y0091200D01*
X0057745Y0091200D02*
X0057745Y0083604D01*
X0058469Y0083718D01*
X0059187Y0083952D01*
X0059861Y0084295D01*
X0060472Y0084739D01*
X0061006Y0085273D01*
X0061450Y0085884D01*
X0061793Y0086557D01*
X0062027Y0087276D01*
X0062145Y0088022D01*
X0062145Y0091200D01*
X0057745Y0091200D01*
X0057745Y0091488D02*
X0062545Y0091488D01*
X0062545Y0090290D02*
X0062145Y0090290D01*
X0062145Y0089091D02*
X0062545Y0089091D01*
X0062545Y0087893D02*
X0062124Y0087893D01*
X0061838Y0086694D02*
X0062856Y0086694D01*
X0063461Y0085496D02*
X0061168Y0085496D01*
X0059864Y0084297D02*
X0064707Y0084297D01*
X0067876Y0083099D02*
X0049545Y0083099D01*
X0049545Y0081900D02*
X0069075Y0081900D01*
X0070273Y0080702D02*
X0049545Y0080702D01*
X0049545Y0079503D02*
X0071472Y0079503D01*
X0072670Y0078305D02*
X0049545Y0078305D01*
X0049545Y0077106D02*
X0073869Y0077106D01*
X0072745Y0076400D02*
X0072745Y0072000D01*
X0080341Y0072000D01*
X0080227Y0072724D01*
X0079993Y0073443D01*
X0079650Y0074116D01*
X0079206Y0074727D01*
X0078672Y0075261D01*
X0078061Y0075705D01*
X0077387Y0076048D01*
X0076669Y0076282D01*
X0075923Y0076400D01*
X0072745Y0076400D01*
X0072745Y0075908D02*
X0071945Y0075908D01*
X0071945Y0076400D02*
X0068767Y0076400D01*
X0068021Y0076282D01*
X0067302Y0076048D01*
X0066629Y0075705D01*
X0066018Y0075261D01*
X0065484Y0074727D01*
X0065040Y0074116D01*
X0064697Y0073443D01*
X0064463Y0072724D01*
X0064348Y0072000D01*
X0071945Y0072000D01*
X0071945Y0076400D01*
X0071945Y0074709D02*
X0072745Y0074709D01*
X0072745Y0073511D02*
X0071945Y0073511D01*
X0071945Y0072312D02*
X0072745Y0072312D01*
X0072745Y0072000D02*
X0071945Y0072000D01*
X0071945Y0071200D01*
X0072745Y0071200D01*
X0072745Y0072000D01*
X0072745Y0071200D02*
X0080341Y0071200D01*
X0080227Y0070476D01*
X0079993Y0069757D01*
X0079650Y0069084D01*
X0079206Y0068473D01*
X0078672Y0067939D01*
X0078061Y0067495D01*
X0077387Y0067152D01*
X0076669Y0066918D01*
X0075923Y0066800D01*
X0072745Y0066800D01*
X0072745Y0071200D01*
X0072745Y0071114D02*
X0071945Y0071114D01*
X0071945Y0071200D02*
X0071945Y0066800D01*
X0068767Y0066800D01*
X0068021Y0066918D01*
X0067302Y0067152D01*
X0066629Y0067495D01*
X0066018Y0067939D01*
X0065484Y0068473D01*
X0065040Y0069084D01*
X0064697Y0069757D01*
X0064463Y0070476D01*
X0064348Y0071200D01*
X0071945Y0071200D01*
X0071945Y0069915D02*
X0072745Y0069915D01*
X0072745Y0068717D02*
X0071945Y0068717D01*
X0071945Y0067518D02*
X0072745Y0067518D01*
X0076694Y0066320D02*
X0079453Y0066320D01*
X0080154Y0067518D02*
X0078093Y0067518D01*
X0079383Y0068717D02*
X0079945Y0068717D01*
X0080044Y0069915D02*
X0080251Y0069915D01*
X0080328Y0071114D02*
X0080745Y0071114D01*
X0080745Y0072312D02*
X0080292Y0072312D01*
X0079959Y0073511D02*
X0080745Y0073511D01*
X0079766Y0074709D02*
X0079219Y0074709D01*
X0078567Y0075908D02*
X0077663Y0075908D01*
X0067026Y0075908D02*
X0056052Y0075908D01*
X0058208Y0074709D02*
X0065471Y0074709D01*
X0064731Y0073511D02*
X0059311Y0073511D01*
X0059808Y0072312D02*
X0064398Y0072312D01*
X0064362Y0071114D02*
X0060087Y0071114D01*
X0060087Y0069915D02*
X0064645Y0069915D01*
X0065307Y0068717D02*
X0060087Y0068717D01*
X0060087Y0067518D02*
X0066597Y0067518D01*
X0067996Y0066320D02*
X0060087Y0066320D01*
X0060087Y0065121D02*
X0065878Y0065121D01*
X0064911Y0063923D02*
X0060087Y0063923D01*
X0060087Y0062724D02*
X0064415Y0062724D01*
X0064345Y0061526D02*
X0060072Y0061526D01*
X0059575Y0060327D02*
X0064461Y0060327D01*
X0063262Y0059129D02*
X0058846Y0059129D01*
X0057592Y0057930D02*
X0062064Y0057930D01*
X0060865Y0056732D02*
X0051825Y0056732D01*
X0053023Y0055533D02*
X0059667Y0055533D01*
X0059645Y0054334D02*
X0054222Y0054334D01*
X0055420Y0053136D02*
X0059645Y0053136D01*
X0058571Y0051937D02*
X0056619Y0051937D01*
X0052793Y0049540D02*
X0051507Y0049540D01*
X0051413Y0049828D02*
X0051018Y0050604D01*
X0050505Y0051309D01*
X0049889Y0051926D01*
X0049184Y0052438D01*
X0048407Y0052834D01*
X0047578Y0053103D01*
X0046718Y0053239D01*
X0042729Y0053239D01*
X0042729Y0048087D01*
X0041961Y0048087D01*
X0041961Y0053239D01*
X0037972Y0053239D01*
X0037111Y0053103D01*
X0036282Y0052834D01*
X0035506Y0052438D01*
X0034801Y0051926D01*
X0034184Y0051309D01*
X0033672Y0050604D01*
X0033277Y0049828D01*
X0033007Y0048999D01*
X0032871Y0048138D01*
X0032871Y0048087D01*
X0041961Y0048087D01*
X0041961Y0047318D01*
X0042729Y0047318D01*
X0042729Y0042165D01*
X0046718Y0042165D01*
X0047578Y0042302D01*
X0048407Y0042571D01*
X0049184Y0042967D01*
X0049889Y0043479D01*
X0050505Y0044095D01*
X0051018Y0044800D01*
X0051413Y0045577D01*
X0051683Y0046406D01*
X0051819Y0047267D01*
X0051819Y0047318D01*
X0042729Y0047318D01*
X0042729Y0048087D01*
X0051819Y0048087D01*
X0051819Y0048138D01*
X0051683Y0048999D01*
X0051413Y0049828D01*
X0051595Y0050739D02*
X0050920Y0050739D01*
X0050396Y0051937D02*
X0049873Y0051937D01*
X0049198Y0053136D02*
X0047370Y0053136D01*
X0047999Y0054334D02*
X0024945Y0054334D01*
X0024945Y0053136D02*
X0037319Y0053136D01*
X0034817Y0051937D02*
X0024945Y0051937D01*
X0024945Y0050739D02*
X0033770Y0050739D01*
X0033183Y0049540D02*
X0024945Y0049540D01*
X0024945Y0048342D02*
X0032903Y0048342D01*
X0032871Y0047318D02*
X0032871Y0047267D01*
X0033007Y0046406D01*
X0033277Y0045577D01*
X0033672Y0044800D01*
X0034184Y0044095D01*
X0034801Y0043479D01*
X0035506Y0042967D01*
X0036282Y0042571D01*
X0037111Y0042302D01*
X0037972Y0042165D01*
X0041961Y0042165D01*
X0041961Y0047318D01*
X0032871Y0047318D01*
X0032890Y0047143D02*
X0024945Y0047143D01*
X0024945Y0045945D02*
X0033157Y0045945D01*
X0033711Y0044746D02*
X0024945Y0044746D01*
X0024945Y0043548D02*
X0034732Y0043548D01*
X0036965Y0042349D02*
X0024945Y0042349D01*
X0024945Y0041151D02*
X0036784Y0041151D01*
X0035586Y0039952D02*
X0024945Y0039952D01*
X0024945Y0038754D02*
X0034387Y0038754D01*
X0033189Y0037555D02*
X0024945Y0037555D01*
X0024945Y0036357D02*
X0030709Y0036357D01*
X0029186Y0035158D02*
X0024945Y0035158D01*
X0024945Y0033960D02*
X0028474Y0033960D01*
X0028095Y0032761D02*
X0024945Y0032761D01*
X0024945Y0031563D02*
X0028095Y0031563D01*
X0028422Y0030364D02*
X0024945Y0030364D01*
X0024945Y0029166D02*
X0029062Y0029166D01*
X0030410Y0027967D02*
X0024945Y0027967D01*
X0032845Y0032100D02*
X0032845Y0034100D01*
X0038345Y0039600D01*
X0049345Y0039600D01*
X0057595Y0047850D01*
X0053992Y0048342D02*
X0051787Y0048342D01*
X0051799Y0047143D02*
X0053777Y0047143D01*
X0052579Y0045945D02*
X0051533Y0045945D01*
X0051380Y0044746D02*
X0050978Y0044746D01*
X0050182Y0043548D02*
X0049958Y0043548D01*
X0048983Y0042349D02*
X0047725Y0042349D01*
X0042729Y0042349D02*
X0041961Y0042349D01*
X0041961Y0043548D02*
X0042729Y0043548D01*
X0042729Y0044746D02*
X0041961Y0044746D01*
X0041961Y0045945D02*
X0042729Y0045945D01*
X0042729Y0047143D02*
X0041961Y0047143D01*
X0041961Y0048342D02*
X0042729Y0048342D01*
X0042729Y0049540D02*
X0041961Y0049540D01*
X0041961Y0050739D02*
X0042729Y0050739D01*
X0042729Y0051937D02*
X0041961Y0051937D01*
X0041961Y0053136D02*
X0042729Y0053136D01*
X0046801Y0055533D02*
X0024945Y0055533D01*
X0024945Y0056732D02*
X0045602Y0056732D01*
X0044404Y0057930D02*
X0033440Y0057930D01*
X0033436Y0057927D02*
X0034141Y0058440D01*
X0034757Y0059056D01*
X0035270Y0059761D01*
X0035665Y0060538D01*
X0035935Y0061366D01*
X0036071Y0062227D01*
X0036071Y0066216D01*
X0030918Y0066216D01*
X0030918Y0066984D01*
X0036071Y0066984D01*
X0036071Y0070973D01*
X0035935Y0071834D01*
X0035665Y0072662D01*
X0035270Y0073439D01*
X0034757Y0074144D01*
X0034141Y0074760D01*
X0033436Y0075273D01*
X0032659Y0075668D01*
X0031830Y0075938D01*
X0030970Y0076074D01*
X0030918Y0076074D01*
X0030918Y0066984D01*
X0030150Y0066984D01*
X0030150Y0076074D01*
X0030098Y0076074D01*
X0029237Y0075938D01*
X0028408Y0075668D01*
X0027632Y0075273D01*
X0026927Y0074760D01*
X0026310Y0074144D01*
X0025798Y0073439D01*
X0025403Y0072662D01*
X0025133Y0071834D01*
X0024997Y0070973D01*
X0024997Y0066984D01*
X0030150Y0066984D01*
X0030150Y0066216D01*
X0030918Y0066216D01*
X0030918Y0057126D01*
X0030970Y0057126D01*
X0031830Y0057262D01*
X0032659Y0057532D01*
X0033436Y0057927D01*
X0034810Y0059129D02*
X0044145Y0059129D01*
X0044145Y0060327D02*
X0035558Y0060327D01*
X0035960Y0061526D02*
X0044145Y0061526D01*
X0044145Y0062724D02*
X0036071Y0062724D01*
X0036071Y0063923D02*
X0044145Y0063923D01*
X0044145Y0065121D02*
X0036071Y0065121D01*
X0036071Y0067518D02*
X0044145Y0067518D01*
X0044145Y0066320D02*
X0030918Y0066320D01*
X0030150Y0066320D02*
X0024945Y0066320D01*
X0024997Y0066216D02*
X0024997Y0062227D01*
X0025133Y0061366D01*
X0025403Y0060538D01*
X0025798Y0059761D01*
X0026310Y0059056D01*
X0026927Y0058440D01*
X0027632Y0057927D01*
X0028408Y0057532D01*
X0029237Y0057262D01*
X0030098Y0057126D01*
X0030150Y0057126D01*
X0030150Y0066216D01*
X0024997Y0066216D01*
X0024997Y0065121D02*
X0024945Y0065121D01*
X0024945Y0063923D02*
X0024997Y0063923D01*
X0024997Y0062724D02*
X0024945Y0062724D01*
X0024945Y0061526D02*
X0025108Y0061526D01*
X0024945Y0060327D02*
X0025510Y0060327D01*
X0024945Y0059129D02*
X0026258Y0059129D01*
X0024945Y0057930D02*
X0027628Y0057930D01*
X0030150Y0057930D02*
X0030918Y0057930D01*
X0030918Y0059129D02*
X0030150Y0059129D01*
X0030150Y0060327D02*
X0030918Y0060327D01*
X0030918Y0061526D02*
X0030150Y0061526D01*
X0030150Y0062724D02*
X0030918Y0062724D01*
X0030918Y0063923D02*
X0030150Y0063923D01*
X0030150Y0065121D02*
X0030918Y0065121D01*
X0030918Y0067518D02*
X0030150Y0067518D01*
X0030150Y0068717D02*
X0030918Y0068717D01*
X0030918Y0069915D02*
X0030150Y0069915D01*
X0030150Y0071114D02*
X0030918Y0071114D01*
X0030918Y0072312D02*
X0030150Y0072312D01*
X0030150Y0073511D02*
X0030918Y0073511D01*
X0030918Y0074709D02*
X0030150Y0074709D01*
X0030150Y0075908D02*
X0030918Y0075908D01*
X0031923Y0075908D02*
X0045145Y0075908D01*
X0045145Y0077106D02*
X0024945Y0077106D01*
X0024945Y0075908D02*
X0029145Y0075908D01*
X0026876Y0074709D02*
X0024945Y0074709D01*
X0024945Y0073511D02*
X0025850Y0073511D01*
X0025289Y0072312D02*
X0024945Y0072312D01*
X0024945Y0071114D02*
X0025019Y0071114D01*
X0024997Y0069915D02*
X0024945Y0069915D01*
X0024945Y0068717D02*
X0024997Y0068717D01*
X0024997Y0067518D02*
X0024945Y0067518D01*
X0036071Y0068717D02*
X0044145Y0068717D01*
X0044145Y0069915D02*
X0036071Y0069915D01*
X0036049Y0071114D02*
X0044145Y0071114D01*
X0044145Y0072312D02*
X0035779Y0072312D01*
X0035217Y0073511D02*
X0044145Y0073511D01*
X0045145Y0074709D02*
X0034192Y0074709D01*
X0024945Y0078305D02*
X0045145Y0078305D01*
X0045145Y0079503D02*
X0024945Y0079503D01*
X0024945Y0080702D02*
X0045145Y0080702D01*
X0045145Y0081900D02*
X0024945Y0081900D01*
X0024945Y0083099D02*
X0045145Y0083099D01*
X0044707Y0084297D02*
X0039983Y0084297D01*
X0041229Y0085496D02*
X0043461Y0085496D01*
X0042856Y0086694D02*
X0041834Y0086694D01*
X0042145Y0087893D02*
X0042545Y0087893D01*
X0042545Y0089091D02*
X0042145Y0089091D01*
X0042145Y0090290D02*
X0042545Y0090290D01*
X0042545Y0091488D02*
X0042145Y0091488D01*
X0042145Y0092687D02*
X0042545Y0092687D01*
X0042545Y0093885D02*
X0042145Y0093885D01*
X0042145Y0095084D02*
X0042545Y0095084D01*
X0042763Y0096282D02*
X0041926Y0096282D01*
X0041430Y0097481D02*
X0043260Y0097481D01*
X0044436Y0098679D02*
X0040254Y0098679D01*
X0034436Y0098679D02*
X0024945Y0098679D01*
X0024945Y0097481D02*
X0033260Y0097481D01*
X0032763Y0096282D02*
X0024945Y0096282D01*
X0024945Y0095084D02*
X0032545Y0095084D01*
X0032545Y0093885D02*
X0024945Y0093885D01*
X0024945Y0092687D02*
X0032545Y0092687D01*
X0032545Y0091488D02*
X0024945Y0091488D01*
X0024945Y0090290D02*
X0032545Y0090290D01*
X0032545Y0089091D02*
X0024945Y0089091D01*
X0024945Y0087893D02*
X0032545Y0087893D01*
X0032856Y0086694D02*
X0024945Y0086694D01*
X0024945Y0085496D02*
X0033461Y0085496D01*
X0034707Y0084297D02*
X0024945Y0084297D01*
X0049983Y0084297D02*
X0054826Y0084297D01*
X0053522Y0085496D02*
X0051229Y0085496D01*
X0051834Y0086694D02*
X0052852Y0086694D01*
X0052565Y0087893D02*
X0052145Y0087893D01*
X0052145Y0089091D02*
X0052545Y0089091D01*
X0052545Y0090290D02*
X0052145Y0090290D01*
X0052145Y0092687D02*
X0052545Y0092687D01*
X0052545Y0093885D02*
X0052145Y0093885D01*
X0052145Y0095084D02*
X0052545Y0095084D01*
X0052780Y0096282D02*
X0051926Y0096282D01*
X0051430Y0097481D02*
X0053360Y0097481D01*
X0054518Y0098679D02*
X0050254Y0098679D01*
X0060172Y0098679D02*
X0064436Y0098679D01*
X0063260Y0097481D02*
X0061330Y0097481D01*
X0061910Y0096282D02*
X0062763Y0096282D01*
X0062545Y0095084D02*
X0062145Y0095084D01*
X0062145Y0093885D02*
X0062545Y0093885D01*
X0062545Y0092687D02*
X0062145Y0092687D01*
X0057745Y0090290D02*
X0056945Y0090290D01*
X0056945Y0089091D02*
X0057745Y0089091D01*
X0057745Y0087893D02*
X0056945Y0087893D01*
X0056945Y0086694D02*
X0057745Y0086694D01*
X0057745Y0085496D02*
X0056945Y0085496D01*
X0056945Y0084297D02*
X0057745Y0084297D01*
X0053047Y0075908D02*
X0049545Y0075908D01*
X0049545Y0074709D02*
X0050891Y0074709D01*
X0049788Y0073511D02*
X0049545Y0073511D01*
X0049292Y0072312D02*
X0049168Y0072312D01*
X0049013Y0071114D02*
X0048545Y0071114D01*
X0048545Y0069915D02*
X0049013Y0069915D01*
X0049013Y0068717D02*
X0048545Y0068717D01*
X0048545Y0067518D02*
X0049013Y0067518D01*
X0049013Y0066320D02*
X0048545Y0066320D01*
X0048545Y0065121D02*
X0049013Y0065121D01*
X0049013Y0063923D02*
X0048545Y0063923D01*
X0048545Y0062724D02*
X0049013Y0062724D01*
X0049028Y0061526D02*
X0048545Y0061526D01*
X0048545Y0060327D02*
X0049524Y0060327D01*
X0049428Y0059129D02*
X0050254Y0059129D01*
X0050626Y0057930D02*
X0051507Y0057930D01*
X0081845Y0065600D02*
X0086845Y0065600D01*
X0102000Y0069915D02*
X0103807Y0069915D01*
X0103445Y0071114D02*
X0102245Y0071114D01*
X0102245Y0072312D02*
X0103445Y0072312D01*
X0103445Y0073511D02*
X0102245Y0073511D01*
X0101458Y0074709D02*
X0104232Y0074709D01*
X0107645Y0074709D02*
X0108045Y0074709D01*
X0108045Y0073511D02*
X0107645Y0073511D01*
X0107645Y0072312D02*
X0108045Y0072312D01*
X0108045Y0071114D02*
X0107645Y0071114D01*
X0107645Y0069915D02*
X0108045Y0069915D01*
X0108045Y0068717D02*
X0107645Y0068717D01*
X0110684Y0068717D02*
X0117945Y0068717D01*
X0117945Y0069915D02*
X0111883Y0069915D01*
X0112245Y0071114D02*
X0117720Y0071114D01*
X0116521Y0072312D02*
X0112245Y0072312D01*
X0112245Y0073511D02*
X0115645Y0073511D01*
X0115645Y0074709D02*
X0111458Y0074709D01*
X0104719Y0079503D02*
X0100971Y0079503D01*
X0102169Y0080702D02*
X0103521Y0080702D01*
X0103445Y0081900D02*
X0102245Y0081900D01*
X0102245Y0083099D02*
X0103445Y0083099D01*
X0103445Y0084297D02*
X0102245Y0084297D01*
X0102852Y0085496D02*
X0104518Y0085496D01*
X0104050Y0086694D02*
X0105717Y0086694D01*
X0107645Y0086694D02*
X0108045Y0086694D01*
X0109973Y0086694D02*
X0110139Y0086694D01*
X0124983Y0084297D02*
X0129826Y0084297D01*
X0128522Y0085496D02*
X0126229Y0085496D01*
X0126834Y0086694D02*
X0127852Y0086694D01*
X0127565Y0087893D02*
X0127145Y0087893D01*
X0127145Y0089091D02*
X0127545Y0089091D01*
X0127545Y0090290D02*
X0127145Y0090290D01*
X0127145Y0092687D02*
X0127545Y0092687D01*
X0127545Y0093885D02*
X0127145Y0093885D01*
X0127145Y0095084D02*
X0127545Y0095084D01*
X0127780Y0096282D02*
X0126926Y0096282D01*
X0126430Y0097481D02*
X0128360Y0097481D01*
X0129518Y0098679D02*
X0125254Y0098679D01*
X0135172Y0098679D02*
X0139436Y0098679D01*
X0138260Y0097481D02*
X0136330Y0097481D01*
X0136910Y0096282D02*
X0137763Y0096282D01*
X0137545Y0095084D02*
X0137145Y0095084D01*
X0137145Y0093885D02*
X0137545Y0093885D01*
X0137545Y0092687D02*
X0137145Y0092687D01*
X0132745Y0090290D02*
X0131945Y0090290D01*
X0131945Y0089091D02*
X0132745Y0089091D01*
X0132745Y0087893D02*
X0131945Y0087893D01*
X0131945Y0086694D02*
X0132745Y0086694D01*
X0132745Y0085496D02*
X0131945Y0085496D01*
X0131945Y0084297D02*
X0132745Y0084297D01*
X0132545Y0072312D02*
X0132145Y0072312D01*
X0135655Y0072312D02*
X0139035Y0072312D01*
X0145655Y0072312D02*
X0149035Y0072312D01*
X0148292Y0071114D02*
X0146398Y0071114D01*
X0146745Y0069915D02*
X0147945Y0069915D01*
X0147945Y0068717D02*
X0146745Y0068717D01*
X0146745Y0067518D02*
X0147945Y0067518D01*
X0147945Y0066320D02*
X0146745Y0066320D01*
X0146745Y0065121D02*
X0147945Y0065121D01*
X0147945Y0063923D02*
X0146745Y0063923D01*
X0146662Y0062724D02*
X0148028Y0062724D01*
X0148524Y0061526D02*
X0146165Y0061526D01*
X0145094Y0060327D02*
X0149595Y0060327D01*
X0155094Y0060327D02*
X0159595Y0060327D01*
X0158524Y0061526D02*
X0156165Y0061526D01*
X0156662Y0062724D02*
X0158028Y0062724D01*
X0157945Y0063923D02*
X0156745Y0063923D01*
X0156745Y0065121D02*
X0157945Y0065121D01*
X0157945Y0066320D02*
X0156745Y0066320D01*
X0156745Y0067518D02*
X0157945Y0067518D01*
X0157945Y0068717D02*
X0156745Y0068717D01*
X0156745Y0069915D02*
X0157945Y0069915D01*
X0158292Y0071114D02*
X0156398Y0071114D01*
X0155655Y0072312D02*
X0159035Y0072312D01*
X0165655Y0072312D02*
X0169035Y0072312D01*
X0168292Y0071114D02*
X0166398Y0071114D01*
X0166745Y0069915D02*
X0167945Y0069915D01*
X0167945Y0068717D02*
X0166745Y0068717D01*
X0166745Y0067518D02*
X0167945Y0067518D01*
X0167945Y0066320D02*
X0166745Y0066320D01*
X0166745Y0065121D02*
X0167945Y0065121D01*
X0167945Y0063923D02*
X0166745Y0063923D01*
X0166662Y0062724D02*
X0168028Y0062724D01*
X0168524Y0061526D02*
X0166165Y0061526D01*
X0165094Y0060327D02*
X0169595Y0060327D01*
X0175094Y0060327D02*
X0179595Y0060327D01*
X0178524Y0061526D02*
X0176165Y0061526D01*
X0176662Y0062724D02*
X0178028Y0062724D01*
X0177945Y0063923D02*
X0176745Y0063923D01*
X0176745Y0065121D02*
X0177945Y0065121D01*
X0177945Y0066320D02*
X0176745Y0066320D01*
X0176745Y0067518D02*
X0177945Y0067518D01*
X0177945Y0068717D02*
X0176745Y0068717D01*
X0176745Y0069915D02*
X0177945Y0069915D01*
X0178292Y0071114D02*
X0176398Y0071114D01*
X0175655Y0072312D02*
X0179035Y0072312D01*
X0185655Y0072312D02*
X0189035Y0072312D01*
X0188292Y0071114D02*
X0186398Y0071114D01*
X0186745Y0069915D02*
X0187945Y0069915D01*
X0187945Y0068717D02*
X0186745Y0068717D01*
X0186745Y0067518D02*
X0187945Y0067518D01*
X0187945Y0066320D02*
X0186745Y0066320D01*
X0186745Y0065121D02*
X0187945Y0065121D01*
X0187945Y0063923D02*
X0186745Y0063923D01*
X0186662Y0062724D02*
X0188028Y0062724D01*
X0188524Y0061526D02*
X0186165Y0061526D01*
X0185094Y0060327D02*
X0189595Y0060327D01*
X0195094Y0060327D02*
X0199595Y0060327D01*
X0198524Y0061526D02*
X0196165Y0061526D01*
X0196662Y0062724D02*
X0198028Y0062724D01*
X0197945Y0063923D02*
X0196745Y0063923D01*
X0196745Y0065121D02*
X0197945Y0065121D01*
X0197945Y0066320D02*
X0196745Y0066320D01*
X0196745Y0067518D02*
X0197945Y0067518D01*
X0197945Y0068717D02*
X0196745Y0068717D01*
X0196745Y0069915D02*
X0197945Y0069915D01*
X0198292Y0071114D02*
X0196398Y0071114D01*
X0195655Y0072312D02*
X0199035Y0072312D01*
X0205655Y0072312D02*
X0209035Y0072312D01*
X0208292Y0071114D02*
X0206398Y0071114D01*
X0206745Y0069915D02*
X0207945Y0069915D01*
X0207945Y0068717D02*
X0206745Y0068717D01*
X0206745Y0067518D02*
X0207945Y0067518D01*
X0207945Y0066320D02*
X0206745Y0066320D01*
X0206745Y0065121D02*
X0207945Y0065121D01*
X0207945Y0063923D02*
X0206745Y0063923D01*
X0206662Y0062724D02*
X0208028Y0062724D01*
X0208524Y0061526D02*
X0206165Y0061526D01*
X0205094Y0060327D02*
X0209595Y0060327D01*
X0215094Y0060327D02*
X0219745Y0060327D01*
X0219745Y0059129D02*
X0116096Y0059129D01*
X0116745Y0059777D02*
X0114167Y0057200D01*
X0110522Y0057200D01*
X0107945Y0059777D01*
X0107945Y0063423D01*
X0110522Y0066000D01*
X0114167Y0066000D01*
X0116745Y0063423D01*
X0116745Y0059777D01*
X0116745Y0060327D02*
X0119595Y0060327D01*
X0118524Y0061526D02*
X0116745Y0061526D01*
X0116745Y0062724D02*
X0118028Y0062724D01*
X0117945Y0063923D02*
X0116245Y0063923D01*
X0115046Y0065121D02*
X0117945Y0065121D01*
X0117945Y0066320D02*
X0103945Y0066320D01*
X0103945Y0067518D02*
X0117945Y0067518D01*
X0109643Y0065121D02*
X0105046Y0065121D01*
X0106245Y0063923D02*
X0108445Y0063923D01*
X0107945Y0062724D02*
X0106745Y0062724D01*
X0106745Y0061526D02*
X0107945Y0061526D01*
X0107945Y0060327D02*
X0106745Y0060327D01*
X0106096Y0059129D02*
X0108594Y0059129D01*
X0109792Y0057930D02*
X0104897Y0057930D01*
X0114897Y0057930D02*
X0219745Y0057930D01*
X0219745Y0061526D02*
X0216165Y0061526D01*
X0216662Y0062724D02*
X0219745Y0062724D01*
X0219745Y0063923D02*
X0216745Y0063923D01*
X0216745Y0065121D02*
X0219745Y0065121D01*
X0219745Y0066320D02*
X0216745Y0066320D01*
X0216745Y0067518D02*
X0219745Y0067518D01*
X0219745Y0068717D02*
X0216745Y0068717D01*
X0216745Y0069915D02*
X0219745Y0069915D01*
X0219745Y0071114D02*
X0216398Y0071114D01*
X0215655Y0072312D02*
X0219745Y0072312D01*
X0105006Y0068717D02*
X0103198Y0068717D01*
X0215554Y0018379D02*
X0219745Y0018379D01*
X0219745Y0017181D02*
X0216554Y0017181D01*
X0217051Y0015982D02*
X0219745Y0015982D01*
X0219745Y0014784D02*
X0217145Y0014784D01*
X0217145Y0013585D02*
X0219745Y0013585D01*
X0219745Y0012387D02*
X0217145Y0012387D01*
X0217145Y0011188D02*
X0219745Y0011188D01*
X0219745Y0009990D02*
X0217145Y0009990D01*
X0217145Y0008791D02*
X0219745Y0008791D01*
X0219745Y0007593D02*
X0217145Y0007593D01*
X0216709Y0006394D02*
X0219745Y0006394D01*
X0219745Y0005196D02*
X0215929Y0005196D01*
X0079599Y0008791D02*
X0075091Y0008791D01*
X0076361Y0009990D02*
X0078328Y0009990D01*
X0077670Y0011188D02*
X0077020Y0011188D01*
X0069599Y0008791D02*
X0065091Y0008791D01*
X0066361Y0009990D02*
X0068328Y0009990D01*
X0067670Y0011188D02*
X0067020Y0011188D01*
D18*
X0112345Y0031600D02*
X0112845Y0031600D01*
X0112845Y0030600D01*
X0116845Y0026600D01*
X0116845Y0022100D01*
X0122345Y0016600D01*
X0122345Y0011600D01*
X0112345Y0031600D02*
X0114345Y0033600D01*
X0114845Y0033600D01*
X0117845Y0036600D01*
X0122345Y0036600D01*
X0115845Y0042600D02*
X0119345Y0046100D01*
X0195845Y0046100D01*
X0202345Y0039600D01*
X0202345Y0036600D01*
X0115845Y0042600D02*
X0098345Y0042600D01*
X0102345Y0061600D02*
X0102845Y0062100D01*
X0102845Y0064100D01*
X0101845Y0065100D01*
X0101845Y0067100D01*
X0097845Y0071100D01*
X0097845Y0072100D01*
X0082845Y0074600D02*
X0082845Y0068600D01*
X0082845Y0074600D02*
X0078845Y0078600D01*
X0075345Y0078600D01*
X0067345Y0086600D01*
X0067345Y0091600D01*
D19*
X0082845Y0068600D03*
X0098345Y0042600D03*
M02*
